<?xml version="1.0" encoding="UTF-8"?>
<!DOCTYPE svg PUBLIC "-//W3C//DTD SVG 1.1//EN" "http://www.w3.org/Graphics/SVG/1.1/DTD/svg11.dtd">
<svg xmlns="http://www.w3.org/2000/svg" version="1.1" width="546px" height="457px" style="shape-rendering:geometricPrecision; text-rendering:geometricPrecision; image-rendering:optimizeQuality; fill-rule:evenodd; clip-rule:evenodd" xmlns:xlink="http://www.w3.org/1999/xlink">
<g><path style="opacity:0.231" fill="#bbbfc7" d="M 145.5,151.5 C 125.058,140.605 103.391,137.772 80.5,143C 71.9573,145.347 63.624,148.181 55.5,151.5C 59.4622,148.852 63.7955,146.685 68.5,145C 87.9147,138.997 107.581,137.997 127.5,142C 134.576,143.369 140.576,146.535 145.5,151.5 Z"/></g>
<g><path style="opacity:1" fill="#27303e" d="M 145.5,151.5 C 146.833,153.5 148.5,155.167 150.5,156.5C 150.738,158.404 151.738,159.738 153.5,160.5C 154.674,161.514 155.34,162.847 155.5,164.5C 156.997,169.659 158.664,174.659 160.5,179.5C 160.5,179.833 160.5,180.167 160.5,180.5C 160.333,203.169 160.5,225.836 161,248.5C 161.186,251.036 161.686,253.369 162.5,255.5C 163.341,257.379 163.675,259.379 163.5,261.5C 163.561,266.276 165.228,270.276 168.5,273.5C 169.008,276.176 169.175,278.843 169,281.5C 165.642,284.031 162.476,286.698 159.5,289.5C 157.326,289.75 155.659,290.75 154.5,292.5C 152.097,292.552 149.764,292.219 147.5,291.5C 143.126,285.785 139.126,279.785 135.5,273.5C 132.146,276.188 129.146,279.188 126.5,282.5C 111.734,292.261 95.4012,296.594 77.5,295.5C 77.1667,295.5 76.8333,295.5 76.5,295.5C 74.4855,294.076 72.1522,293.41 69.5,293.5C 68.2196,292.069 66.5529,291.402 64.5,291.5C 63.4863,290.326 62.153,289.66 60.5,289.5C 59.7377,287.738 58.4044,286.738 56.5,286.5C 54.8333,284.167 52.8333,282.167 50.5,280.5C 47.8007,275.101 45.134,269.768 42.5,264.5C 42.5,264.167 42.5,263.833 42.5,263.5C 41.2204,256.038 41.2204,248.704 42.5,241.5C 43.3826,237.043 44.8826,232.71 47,228.5C 48.6692,227.154 49.8358,225.487 50.5,223.5C 53.5,221.167 56.1667,218.5 58.5,215.5C 61.1932,214.153 63.8599,212.82 66.5,211.5C 68.8185,211.008 70.8185,210.008 72.5,208.5C 77.5675,206.985 82.5675,205.652 87.5,204.5C 95.5341,204.302 103.534,204.635 111.5,205.5C 117.335,206.695 123.335,207.695 129.5,208.5C 130.919,209.451 132.585,209.784 134.5,209.5C 134.825,201.981 134.492,194.648 133.5,187.5C 133.045,180.09 130.045,173.923 124.5,169C 123.255,168.209 121.922,167.709 120.5,167.5C 118.239,165.745 115.572,164.578 112.5,164C 104.875,162.628 97.2083,162.294 89.5,163C 76.8935,165.733 64.5601,169.233 52.5,173.5C 51.379,167.582 51.2124,161.582 52,155.5C 53.3756,154.295 54.5423,152.962 55.5,151.5C 63.624,148.181 71.9573,145.347 80.5,143C 103.391,137.772 125.058,140.605 145.5,151.5 Z M 133.5,229.5 C 132.673,234.985 132.173,240.652 132,246.5C 131.151,249.521 130.317,252.521 129.5,255.5C 125.461,260.54 120.794,264.873 115.5,268.5C 106.474,271.937 97.1404,273.104 87.5,272C 82.8979,270.887 78.8979,268.721 75.5,265.5C 75.573,263.973 74.9063,262.973 73.5,262.5C 73.5,262.167 73.5,261.833 73.5,261.5C 72.6463,255.879 72.313,250.212 72.5,244.5C 75.2137,233.627 82.2137,227.46 93.5,226C 107.189,224.722 120.522,225.889 133.5,229.5 Z"/></g>
<g><path style="opacity:1" fill="#27303e" d="M 490.5,153.5 C 490.666,158.511 490.499,163.511 490,168.5C 489.044,169.894 487.711,170.561 486,170.5C 484.175,170.057 482.342,169.723 480.5,169.5C 479.22,168.069 477.553,167.402 475.5,167.5C 472.237,165.432 468.57,164.432 464.5,164.5C 464.389,163.883 464.056,163.383 463.5,163C 452.019,161.844 440.686,162.511 429.5,165C 427.999,166.252 426.332,167.252 424.5,168C 423.748,168.671 423.414,169.504 423.5,170.5C 422.206,171.29 421.039,172.29 420,173.5C 419.185,178.352 419.352,183.019 420.5,187.5C 421.338,187.842 421.672,188.508 421.5,189.5C 424.696,194.956 429.363,198.79 435.5,201C 448.76,205.7 462.094,209.866 475.5,213.5C 478.894,216.221 482.561,218.554 486.5,220.5C 487.5,222.167 488.833,223.5 490.5,224.5C 490.738,226.404 491.738,227.738 493.5,228.5C 493.427,230.027 494.094,231.027 495.5,231.5C 495.402,233.553 496.069,235.22 497.5,236.5C 500.007,249.456 498.34,261.789 492.5,273.5C 490.738,274.262 489.738,275.596 489.5,277.5C 489.5,278.167 489.167,278.5 488.5,278.5C 487.167,279.167 486.167,280.167 485.5,281.5C 485.5,282.167 485.167,282.5 484.5,282.5C 479.326,285.252 474.326,288.252 469.5,291.5C 454.393,295.065 439.06,296.398 423.5,295.5C 419.922,295.451 416.589,294.785 413.5,293.5C 407.342,290.932 401.009,288.598 394.5,286.5C 389.445,279.984 388.112,272.651 390.5,264.5C 392.857,264.337 395.19,264.503 397.5,265C 415.585,273.565 434.251,275.732 453.5,271.5C 458.35,271.075 462.35,269.075 465.5,265.5C 470.001,262.021 472.001,257.354 471.5,251.5C 471.624,245.409 468.958,241.076 463.5,238.5C 462.508,238.672 461.842,238.338 461.5,237.5C 460.713,235.896 459.38,235.229 457.5,235.5C 456.22,234.069 454.553,233.402 452.5,233.5C 449.992,231.446 446.992,230.446 443.5,230.5C 436.501,227.391 429.168,225.057 421.5,223.5C 420.22,222.069 418.553,221.402 416.5,221.5C 415.713,219.896 414.38,219.229 412.5,219.5C 412.027,218.094 411.027,217.427 409.5,217.5C 408.738,215.738 407.404,214.738 405.5,214.5C 398.784,207.402 394.451,199.069 392.5,189.5C 392.341,182.411 393.007,175.411 394.5,168.5C 396.154,163.87 398.82,159.87 402.5,156.5C 406.873,152.331 411.54,148.665 416.5,145.5C 439.913,137.99 462.913,139.156 485.5,149C 487.037,150.707 488.704,152.207 490.5,153.5 Z"/></g>
<g><path style="opacity:0.545" fill="#b8bcc2" d="M 490.5,153.5 C 488.704,152.207 487.037,150.707 485.5,149C 462.913,139.156 439.913,137.99 416.5,145.5C 425.839,140.895 435.839,138.561 446.5,138.5C 460.484,139.062 473.817,142.229 486.5,148C 488.464,149.451 489.797,151.284 490.5,153.5 Z"/></g>
<g><path style="opacity:0.284" fill="#c8cdd4" d="M 202.5,144.5 C 194.826,144.334 187.159,144.5 179.5,145C 177.722,147.135 177.055,149.635 177.5,152.5C 174.666,149.442 174.999,146.609 178.5,144C 186.677,143.177 194.677,143.344 202.5,144.5 Z"/></g>
<g><path style="opacity:0.284" fill="#c8ccd3" d="M 265.5,144.5 C 273.323,143.344 281.323,143.177 289.5,144C 291.426,144.422 292.426,145.589 292.5,147.5C 291.118,146.199 289.452,145.366 287.5,145C 280.174,144.5 272.841,144.334 265.5,144.5 Z"/></g>
<g><path style="opacity:1" fill="#27313e" d="M 202.5,144.5 C 203.5,146.167 204.833,147.5 206.5,148.5C 206.5,148.833 206.5,149.167 206.5,149.5C 206.402,151.553 207.069,153.22 208.5,154.5C 209.167,158.833 209.833,163.167 210.5,167.5C 210.619,172.004 211.952,176.004 214.5,179.5C 215.15,181.435 215.483,183.435 215.5,185.5C 215.259,187.898 215.926,189.898 217.5,191.5C 217.753,195.04 218.419,198.373 219.5,201.5C 220.167,203.167 220.833,204.833 221.5,206.5C 222.301,208.042 222.634,209.708 222.5,211.5C 222.41,214.152 223.076,216.485 224.5,218.5C 224.5,218.833 224.5,219.167 224.5,219.5C 224.41,222.152 225.076,224.485 226.5,226.5C 228.435,231.573 229.768,236.906 230.5,242.5C 230.294,245.495 230.96,248.162 232.5,250.5C 233.569,262.96 235.236,263.294 237.5,251.5C 239.217,248.155 239.884,244.489 239.5,240.5C 240.407,238.343 241.073,236.01 241.5,233.5C 241.5,232.833 241.5,232.167 241.5,231.5C 243.245,227.8 244.245,223.8 244.5,219.5C 245.913,216.781 246.58,213.781 246.5,210.5C 248.024,207.084 249.024,203.417 249.5,199.5C 249.5,198.833 249.5,198.167 249.5,197.5C 249.833,197.5 250.167,197.5 250.5,197.5C 251.924,195.485 252.59,193.152 252.5,190.5C 255.169,177.489 258.002,164.489 261,151.5C 261.904,148.767 263.404,146.433 265.5,144.5C 272.841,144.334 280.174,144.5 287.5,145C 289.452,145.366 291.118,146.199 292.5,147.5C 292.259,149.898 292.926,151.898 294.5,153.5C 296.593,158.878 297.927,164.545 298.5,170.5C 298.294,173.495 298.96,176.162 300.5,178.5C 301.434,179.568 301.768,180.901 301.5,182.5C 304.09,198.519 307.756,214.186 312.5,229.5C 313.182,236.849 314.849,243.849 317.5,250.5C 317.631,254.654 318.464,258.654 320,262.5C 329.484,226.897 338.818,191.231 348,155.5C 348.797,151.25 350.63,147.583 353.5,144.5C 361.42,144.185 369.253,144.518 377,145.5C 377.667,148.167 377.667,150.833 377,153.5C 370.903,170.556 365.736,187.889 361.5,205.5C 355.877,219.036 351.21,233.036 347.5,247.5C 346.85,249.435 346.517,251.435 346.5,253.5C 345.262,255.214 344.595,257.214 344.5,259.5C 342.899,262.55 341.899,265.884 341.5,269.5C 339.233,274.546 337.566,279.879 336.5,285.5C 335.023,287.807 333.023,289.64 330.5,291C 322.833,291.667 315.167,291.667 307.5,291C 306.333,289.833 305.167,288.667 304,287.5C 295.371,251.011 286.537,214.678 277.5,178.5C 276.207,179.842 275.374,181.509 275,183.5C 267.176,217.95 258.843,252.283 250,286.5C 249.167,288.667 247.667,290.167 245.5,291C 237.841,291.5 230.174,291.666 222.5,291.5C 221.5,289.833 220.167,288.5 218.5,287.5C 213.438,268.568 207.771,249.901 201.5,231.5C 195.101,208.55 188.101,185.883 180.5,163.5C 180.5,163.167 180.5,162.833 180.5,162.5C 180.598,160.447 179.931,158.78 178.5,157.5C 177.549,156.081 177.216,154.415 177.5,152.5C 177.055,149.635 177.722,147.135 179.5,145C 187.159,144.5 194.826,144.334 202.5,144.5 Z"/></g>
<g><path style="opacity:0.031" fill="#dadbe1" d="M 202.5,144.5 C 204.833,144.833 206.167,146.167 206.5,148.5C 204.833,147.5 203.5,146.167 202.5,144.5 Z"/></g>
<g><path style="opacity:0.012" fill="#dde0e4" d="M 145.5,151.5 C 148.167,152.167 149.833,153.833 150.5,156.5C 148.5,155.167 146.833,153.5 145.5,151.5 Z"/></g>
<g><path style="opacity:0.094" fill="#dcdde6" d="M 206.5,149.5 C 208.256,150.552 208.923,152.219 208.5,154.5C 207.069,153.22 206.402,151.553 206.5,149.5 Z"/></g>
<g><path style="opacity:0.4" fill="#b3b7be" d="M 292.5,147.5 C 294.074,149.102 294.741,151.102 294.5,153.5C 292.926,151.898 292.259,149.898 292.5,147.5 Z"/></g>
<g><path style="opacity:0.49" fill="#c3c7cd" d="M 416.5,145.5 C 411.54,148.665 406.873,152.331 402.5,156.5C 398.82,159.87 396.154,163.87 394.5,168.5C 394.167,168.5 393.833,168.5 393.5,168.5C 397.799,157.535 405.465,149.868 416.5,145.5 Z"/></g>
<g><path style="opacity:0.133" fill="#dde0e4" d="M 265.5,144.5 C 263.404,146.433 261.904,148.767 261,151.5C 258.002,164.489 255.169,177.489 252.5,190.5C 251.076,192.515 250.41,194.848 250.5,197.5C 250.167,197.5 249.833,197.5 249.5,197.5C 252.756,180.723 256.589,164.056 261,147.5C 262.129,145.859 263.629,144.859 265.5,144.5 Z"/></g>
<g><path style="opacity:0.408" fill="#bcbfc6" d="M 150.5,156.5 C 152.262,157.262 153.262,158.596 153.5,160.5C 151.738,159.738 150.738,158.404 150.5,156.5 Z"/></g>
<g><path style="opacity:0.017" fill="#e6e8ea" d="M 178.5,157.5 C 179.931,158.78 180.598,160.447 180.5,162.5C 178.744,161.448 178.077,159.781 178.5,157.5 Z"/></g>
<g><path style="opacity:0.212" fill="#dfe1e6" d="M 208.5,154.5 C 210.489,158.497 211.489,162.83 211.5,167.5C 211.167,167.5 210.833,167.5 210.5,167.5C 209.833,163.167 209.167,158.833 208.5,154.5 Z"/></g>
<g><path style="opacity:0.229" fill="#bcc1c7" d="M 464.5,164.5 C 453.388,162.752 442.388,163.252 431.5,166C 428.688,167.328 426.022,168.828 423.5,170.5C 423.414,169.504 423.748,168.671 424.5,168C 426.332,167.252 427.999,166.252 429.5,165C 440.686,162.511 452.019,161.844 463.5,163C 464.056,163.383 464.389,163.883 464.5,164.5 Z"/></g>
<g><path style="opacity:0.418" fill="#b9bdc2" d="M 490.5,153.5 C 491.808,159.037 491.808,164.704 490.5,170.5C 486.98,172.785 483.647,172.451 480.5,169.5C 482.342,169.723 484.175,170.057 486,170.5C 487.711,170.561 489.044,169.894 490,168.5C 490.499,163.511 490.666,158.511 490.5,153.5 Z"/></g>
<g><path style="opacity:0.259" fill="#d3d6db" d="M 464.5,164.5 C 468.57,164.432 472.237,165.432 475.5,167.5C 471.603,166.945 467.937,165.945 464.5,164.5 Z"/></g>
<g><path style="opacity:0.282" fill="#cacfd5" d="M 55.5,151.5 C 54.5423,152.962 53.3756,154.295 52,155.5C 51.2124,161.582 51.379,167.582 52.5,173.5C 51.1818,170.742 50.5152,167.576 50.5,164C 50.6667,160.833 50.8333,157.667 51,154.5C 52.129,152.859 53.629,151.859 55.5,151.5 Z"/></g>
<g><path style="opacity:0.094" fill="#c8cdd2" d="M 155.5,164.5 C 158.53,168.923 160.197,173.923 160.5,179.5C 158.664,174.659 156.997,169.659 155.5,164.5 Z"/></g>
<g><path style="opacity:0.106" fill="#bfc3c9" d="M 120.5,167.5 C 110.031,164.644 99.3648,163.811 88.5,165C 78.1949,166.991 68.1949,169.991 58.5,174C 56.2884,174.789 54.2884,174.622 52.5,173.5C 64.5601,169.233 76.8935,165.733 89.5,163C 97.2083,162.294 104.875,162.628 112.5,164C 115.572,164.578 118.239,165.745 120.5,167.5 Z"/></g>
<g><path style="opacity:0.169" fill="#cacfd4" d="M 120.5,167.5 C 121.922,167.709 123.255,168.209 124.5,169C 130.045,173.923 133.045,180.09 133.5,187.5C 133.5,194.5 133.5,201.5 133.5,208.5C 132.167,208.5 130.833,208.5 129.5,208.5C 123.335,207.695 117.335,206.695 111.5,205.5C 113.167,205.5 114.833,205.5 116.5,205.5C 121.851,206.037 127.184,206.704 132.5,207.5C 132.83,199.107 132.33,190.773 131,182.5C 129.445,176.028 125.945,171.028 120.5,167.5 Z"/></g>
<g><path style="opacity:0.122" fill="#dbdde3" d="M 475.5,167.5 C 477.553,167.402 479.22,168.069 480.5,169.5C 478.447,169.598 476.78,168.931 475.5,167.5 Z"/></g>
<g><path style="opacity:0.022" fill="#f1f2f4" d="M 211.5,168.5 C 213.213,169.635 213.88,171.302 213.5,173.5C 212.463,172.07 211.796,170.403 211.5,168.5 Z"/></g>
<g><path style="opacity:0.894" fill="#777d84" d="M 210.5,167.5 C 210.833,167.5 211.167,167.5 211.5,167.5C 211.5,167.833 211.5,168.167 211.5,168.5C 211.796,170.403 212.463,172.07 213.5,173.5C 214.341,175.379 214.675,177.379 214.5,179.5C 211.952,176.004 210.619,172.004 210.5,167.5 Z"/></g>
<g><path style="opacity:0.349" fill="#c3c6ce" d="M 298.5,170.5 C 299.768,172.905 300.435,175.572 300.5,178.5C 298.96,176.162 298.294,173.495 298.5,170.5 Z"/></g>
<g><path style="opacity:0.011" fill="#dadcdf" d="M 423.5,170.5 C 420.802,175.756 419.802,181.423 420.5,187.5C 419.352,183.019 419.185,178.352 420,173.5C 421.039,172.29 422.206,171.29 423.5,170.5 Z"/></g>
<g><path style="opacity:0.009" fill="#f4f8fa" d="M 214.5,179.5 C 216.28,180.99 216.946,182.99 216.5,185.5C 216.167,185.5 215.833,185.5 215.5,185.5C 215.483,183.435 215.15,181.435 214.5,179.5 Z"/></g>
<g><path style="opacity:0.846" fill="#525861" d="M 393.5,168.5 C 393.833,168.5 394.167,168.5 394.5,168.5C 393.007,175.411 392.341,182.411 392.5,189.5C 391.158,182.567 391.492,175.567 393.5,168.5 Z"/></g>
<g><path style="opacity:0.161" fill="#d8dce1" d="M 393.5,168.5 C 391.492,175.567 391.158,182.567 392.5,189.5C 394.451,199.069 398.784,207.402 405.5,214.5C 398.207,208.994 393.373,201.661 391,192.5C 390.333,186.5 390.333,180.5 391,174.5C 391.24,172.148 392.073,170.148 393.5,168.5 Z"/></g>
<g><path style="opacity:0.114" fill="#dcdfe4" d="M 180.5,163.5 C 188.101,185.883 195.101,208.55 201.5,231.5C 201.5,232.167 201.5,232.833 201.5,233.5C 193.716,210.475 186.716,187.142 180.5,163.5 Z"/></g>
<g><path style="opacity:0.129" fill="#c3c8ce" d="M 353.5,144.5 C 361.323,143.344 369.323,143.177 377.5,144C 378.573,145.313 379.24,146.813 379.5,148.5C 374.252,167.854 368.252,186.854 361.5,205.5C 365.736,187.889 370.903,170.556 377,153.5C 377.667,150.833 377.667,148.167 377,145.5C 369.253,144.518 361.42,144.185 353.5,144.5 Z"/></g>
<g><path style="opacity:0.435" fill="#a8aeb5" d="M 215.5,185.5 C 215.833,185.5 216.167,185.5 216.5,185.5C 217.15,187.435 217.483,189.435 217.5,191.5C 215.926,189.898 215.259,187.898 215.5,185.5 Z"/></g>
<g><path style="opacity:0.165" fill="#c0c5cb" d="M 421.5,189.5 C 425.949,194.232 431.282,197.732 437.5,200C 448.771,203.868 460.105,207.535 471.5,211C 473.066,211.608 474.4,212.442 475.5,213.5C 462.094,209.866 448.76,205.7 435.5,201C 429.363,198.79 424.696,194.956 421.5,189.5 Z"/></g>
<g><path style="opacity:0.169" fill="#bfc3ca" d="M 217.5,191.5 C 219.223,193.78 219.889,196.447 219.5,199.5C 219.5,200.167 219.5,200.833 219.5,201.5C 218.419,198.373 217.753,195.04 217.5,191.5 Z"/></g>
<g><path style="opacity:0.827" fill="#5a6169" d="M 252.5,190.5 C 252.59,193.152 251.924,195.485 250.5,197.5C 250.41,194.848 251.076,192.515 252.5,190.5 Z"/></g>
<g><path style="opacity:0.489" fill="#8a9098" d="M 133.5,187.5 C 134.492,194.648 134.825,201.981 134.5,209.5C 132.585,209.784 130.919,209.451 129.5,208.5C 130.833,208.5 132.167,208.5 133.5,208.5C 133.5,201.5 133.5,194.5 133.5,187.5 Z"/></g>
<g><path style="opacity:0.007" fill="#eaecee" d="M 219.5,199.5 C 220.117,199.611 220.617,199.944 221,200.5C 221.495,202.473 221.662,204.473 221.5,206.5C 220.833,204.833 220.167,203.167 219.5,201.5C 219.5,200.833 219.5,200.167 219.5,199.5 Z"/></g>
<g><path style="opacity:0.212" fill="#d8dae0" d="M 87.5,204.5 C 90.8167,203.835 94.3167,203.501 98,203.5C 104.392,203.423 110.559,204.089 116.5,205.5C 114.833,205.5 113.167,205.5 111.5,205.5C 103.534,204.635 95.5341,204.302 87.5,204.5 Z"/></g>
<g><path style="opacity:0.451" fill="#c1c5ca" d="M 87.5,204.5 C 82.5675,205.652 77.5675,206.985 72.5,208.5C 71.8333,208.5 71.1667,208.5 70.5,208.5C 75.7337,205.776 81.4003,204.443 87.5,204.5 Z"/></g>
<g><path style="opacity:0.227" fill="#ccd0d6" d="M 301.5,182.5 C 305.786,197.912 309.453,213.578 312.5,229.5C 307.756,214.186 304.09,198.519 301.5,182.5 Z"/></g>
<g><path style="opacity:0.125" fill="#e0e3e8" d="M 249.5,199.5 C 249.024,203.417 248.024,207.084 246.5,210.5C 246.674,207.126 247.174,203.793 248,200.5C 248.383,199.944 248.883,199.611 249.5,199.5 Z"/></g>
<g><path style="opacity:0.839" fill="#797e86" d="M 70.5,208.5 C 71.1667,208.5 71.8333,208.5 72.5,208.5C 70.8185,210.008 68.8185,211.008 66.5,211.5C 66.5,211.167 66.5,210.833 66.5,210.5C 67.5137,209.326 68.847,208.66 70.5,208.5 Z"/></g>
<g><path style="opacity:0.102" fill="#d1d5db" d="M 353.5,144.5 C 350.63,147.583 348.797,151.25 348,155.5C 338.818,191.231 329.484,226.897 320,262.5C 318.464,258.654 317.631,254.654 317.5,250.5C 318.469,252.663 319.302,254.996 320,257.5C 329.536,220.356 339.536,183.356 350,146.5C 350.816,145.177 351.983,144.511 353.5,144.5 Z"/></g>
<g><path style="opacity:0.329" fill="#ced1d9" d="M 66.5,210.5 C 66.5,210.833 66.5,211.167 66.5,211.5C 63.8599,212.82 61.1932,214.153 58.5,215.5C 58.3691,214.624 58.7025,213.957 59.5,213.5C 61.6621,211.98 63.9954,210.98 66.5,210.5 Z"/></g>
<g><path style="opacity:0.173" fill="#d1d5da" d="M 277.5,178.5 C 277.5,179.833 277.5,181.167 277.5,182.5C 268.674,218.42 259.507,254.42 250,290.5C 249.25,291.126 248.416,291.626 247.5,292C 238.99,292.823 230.656,292.657 222.5,291.5C 230.174,291.666 237.841,291.5 245.5,291C 247.667,290.167 249.167,288.667 250,286.5C 258.843,252.283 267.176,217.95 275,183.5C 275.374,181.509 276.207,179.842 277.5,178.5 Z"/></g>
<g><path style="opacity:0.4" fill="#d4d8db" d="M 246.5,210.5 C 246.58,213.781 245.913,216.781 244.5,219.5C 244.215,216.171 244.882,213.171 246.5,210.5 Z"/></g>
<g><path style="opacity:0.475" fill="#c4c5ca" d="M 405.5,214.5 C 407.404,214.738 408.738,215.738 409.5,217.5C 407.596,217.262 406.262,216.262 405.5,214.5 Z"/></g>
<g><path style="opacity:0.294" fill="#bdc0c7" d="M 475.5,213.5 C 479.976,214.657 483.642,216.99 486.5,220.5C 482.561,218.554 478.894,216.221 475.5,213.5 Z"/></g>
<g><path style="opacity:0.353" fill="#c1c3ca" d="M 222.5,211.5 C 223.924,213.515 224.59,215.848 224.5,218.5C 223.076,216.485 222.41,214.152 222.5,211.5 Z"/></g>
<g><path style="opacity:0.455" fill="#babfc6" d="M 58.5,215.5 C 56.1667,218.5 53.5,221.167 50.5,223.5C 52.1667,219.833 54.8333,217.167 58.5,215.5 Z"/></g>
<g><path style="opacity:0.349" fill="#b8bbc2" d="M 277.5,178.5 C 286.537,214.678 295.371,251.011 304,287.5C 305.167,288.667 306.333,289.833 307.5,291C 315.167,291.667 322.833,291.667 330.5,291C 333.023,289.64 335.023,287.807 336.5,285.5C 336.572,288.522 335.238,290.688 332.5,292C 323.833,292.667 315.167,292.667 306.5,292C 305.333,290.833 304.167,289.667 303,288.5C 294.207,253.326 285.707,217.993 277.5,182.5C 277.5,181.167 277.5,179.833 277.5,178.5 Z"/></g>
<g><path style="opacity:0.173" fill="#d5d7de" d="M 409.5,217.5 C 411.027,217.427 412.027,218.094 412.5,219.5C 410.973,219.573 409.973,218.906 409.5,217.5 Z"/></g>
<g><path style="opacity:0.251" fill="#cdd5db" d="M 412.5,219.5 C 414.38,219.229 415.713,219.896 416.5,221.5C 414.847,221.34 413.514,220.674 412.5,219.5 Z"/></g>
<g><path style="opacity:0.008" fill="#dae1e3" d="M 486.5,220.5 C 488.833,220.833 490.167,222.167 490.5,224.5C 488.833,223.5 487.5,222.167 486.5,220.5 Z"/></g>
<g><path style="opacity:0.318" fill="#dddfe2" d="M 244.5,219.5 C 244.245,223.8 243.245,227.8 241.5,231.5C 241.584,227.163 242.584,223.163 244.5,219.5 Z"/></g>
<g><path style="opacity:0.133" fill="#d7d8e0" d="M 416.5,221.5 C 418.553,221.402 420.22,222.069 421.5,223.5C 419.447,223.598 417.78,222.931 416.5,221.5 Z"/></g>
<g><path style="opacity:0.06" fill="#c4c7d1" d="M 160.5,180.5 C 161.323,183.977 161.823,187.644 162,191.5C 162.5,212.831 162.667,234.164 162.5,255.5C 161.686,253.369 161.186,251.036 161,248.5C 160.5,225.836 160.333,203.169 160.5,180.5 Z"/></g>
<g><path style="opacity:0.565" fill="#bbc0c6" d="M 421.5,223.5 C 429.168,225.057 436.501,227.391 443.5,230.5C 435.832,228.943 428.499,226.609 421.5,223.5 Z"/></g>
<g><path style="opacity:0.38" fill="#bfc0c9" d="M 224.5,219.5 C 225.924,221.515 226.59,223.848 226.5,226.5C 225.076,224.485 224.41,222.152 224.5,219.5 Z"/></g>
<g><path style="opacity:0.627" fill="#a9b0b4" d="M 490.5,224.5 C 492.262,225.262 493.262,226.596 493.5,228.5C 491.738,227.738 490.738,226.404 490.5,224.5 Z"/></g>
<g><path style="opacity:0.114" fill="#ccd0d5" d="M 50.5,223.5 C 49.8358,225.487 48.6692,227.154 47,228.5C 44.8826,232.71 43.3826,237.043 42.5,241.5C 42.5,240.833 42.5,240.167 42.5,239.5C 42.8066,235.228 43.9732,231.228 46,227.5C 47.3073,225.808 48.8073,224.475 50.5,223.5 Z"/></g>
<g><path style="opacity:0.275" fill="#a7abb1" d="M 361.5,205.5 C 359.572,213.617 357.239,221.617 354.5,229.5C 353.463,230.93 352.796,232.597 352.5,234.5C 352.124,238.402 351.124,242.069 349.5,245.5C 348.833,246.167 348.167,246.833 347.5,247.5C 351.21,233.036 355.877,219.036 361.5,205.5 Z"/></g>
<g><path style="opacity:0.008" fill="#f5f7f8" d="M 354.5,229.5 C 354.88,231.698 354.213,233.365 352.5,234.5C 352.796,232.597 353.463,230.93 354.5,229.5 Z"/></g>
<g><path style="opacity:0.49" fill="#b8bdc4" d="M 443.5,230.5 C 446.992,230.446 449.992,231.446 452.5,233.5C 449.215,233.072 446.215,232.072 443.5,230.5 Z"/></g>
<g><path style="opacity:0.227" fill="#c4cad3" d="M 493.5,228.5 C 494.906,228.973 495.573,229.973 495.5,231.5C 494.094,231.027 493.427,230.027 493.5,228.5 Z"/></g>
<g><path style="opacity:0.051" fill="#c6cad1" d="M 133.5,242.5 C 133.5,238.167 133.5,233.833 133.5,229.5C 120.522,225.889 107.189,224.722 93.5,226C 82.2137,227.46 75.2137,233.627 72.5,244.5C 71.5184,247.962 71.185,251.629 71.5,255.5C 68.677,239.348 75.3437,229.181 91.5,225C 105.97,223.862 120.303,224.695 134.5,227.5C 134.821,232.695 134.487,237.695 133.5,242.5 Z"/></g>
<g><path style="opacity:0.098" fill="#bfc3ca" d="M 201.5,231.5 C 207.771,249.901 213.438,268.568 218.5,287.5C 212.063,269.85 206.396,251.85 201.5,233.5C 201.5,232.833 201.5,232.167 201.5,231.5 Z"/></g>
<g><path style="opacity:0.018" fill="#e6ebef" d="M 241.5,233.5 C 241.073,236.01 240.407,238.343 239.5,240.5C 239.338,238.473 239.505,236.473 240,234.5C 240.383,233.944 240.883,233.611 241.5,233.5 Z"/></g>
<g><path style="opacity:0.098" fill="#dbdee6" d="M 452.5,233.5 C 454.553,233.402 456.22,234.069 457.5,235.5C 455.447,235.598 453.78,234.931 452.5,233.5 Z"/></g>
<g><path style="opacity:0.192" fill="#cdceda" d="M 495.5,231.5 C 496.931,232.78 497.598,234.447 497.5,236.5C 496.069,235.22 495.402,233.553 495.5,231.5 Z"/></g>
<g><path style="opacity:0.243" fill="#d0d5db" d="M 312.5,229.5 C 314.927,236.211 316.593,243.211 317.5,250.5C 314.849,243.849 313.182,236.849 312.5,229.5 Z"/></g>
<g><path style="opacity:0.188" fill="#d6dee0" d="M 457.5,235.5 C 459.38,235.229 460.713,235.896 461.5,237.5C 459.847,237.34 458.514,236.674 457.5,235.5 Z"/></g>
<g><path style="opacity:0.059" fill="#e8ebf0" d="M 133.5,229.5 C 133.5,233.833 133.5,238.167 133.5,242.5C 133.54,247.36 132.207,251.693 129.5,255.5C 130.317,252.521 131.151,249.521 132,246.5C 132.173,240.652 132.673,234.985 133.5,229.5 Z"/></g>
<g><path style="opacity:0.212" fill="#c8ced4" d="M 463.5,238.5 C 468.958,241.076 471.624,245.409 471.5,251.5C 472.001,257.354 470.001,262.021 465.5,265.5C 472.624,255.913 471.957,246.913 463.5,238.5 Z"/></g>
<g><path style="opacity:0.013" fill="#f5fafb" d="M 72.5,244.5 C 72.313,250.212 72.6463,255.879 73.5,261.5C 71.9261,259.898 71.2594,257.898 71.5,255.5C 71.185,251.629 71.5184,247.962 72.5,244.5 Z"/></g>
<g><path style="opacity:0.412" fill="#bcbec6" d="M 230.5,242.5 C 231.768,244.905 232.435,247.572 232.5,250.5C 230.96,248.162 230.294,245.495 230.5,242.5 Z"/></g>
<g><path style="opacity:0.013" fill="#f8f9fb" d="M 238.5,245.5 C 237.85,247.435 237.517,249.435 237.5,251.5C 237.167,251.5 236.833,251.5 236.5,251.5C 236.054,248.99 236.72,246.99 238.5,245.5 Z"/></g>
<g><path style="opacity:0.133" fill="#dddfe4" d="M 349.5,245.5 C 349.02,248.443 348.02,251.11 346.5,253.5C 346.517,251.435 346.85,249.435 347.5,247.5C 348.167,246.833 348.833,246.167 349.5,245.5 Z"/></g>
<g><path style="opacity:0.698" fill="#92979e" d="M 239.5,240.5 C 239.884,244.489 239.217,248.155 237.5,251.5C 237.517,249.435 237.85,247.435 238.5,245.5C 238.216,243.585 238.549,241.919 239.5,240.5 Z"/></g>
<g><path style="opacity:0.137" fill="#ecf2f2" d="M 42.5,239.5 C 42.5,240.167 42.5,240.833 42.5,241.5C 41.2204,248.704 41.2204,256.038 42.5,263.5C 41.8826,263.389 41.3826,263.056 41,262.5C 40.3333,255.167 40.3333,247.833 41,240.5C 41.3826,239.944 41.8826,239.611 42.5,239.5 Z"/></g>
<g><path style="opacity:0.014" fill="#e0e2e6" d="M 346.5,253.5 C 346.946,256.01 346.28,258.01 344.5,259.5C 344.595,257.214 345.262,255.214 346.5,253.5 Z"/></g>
<g><path style="opacity:0.471" fill="#b0b6bf" d="M 232.5,250.5 C 233.469,252.663 234.302,254.996 235,257.5C 235.813,255.564 236.313,253.564 236.5,251.5C 236.833,251.5 237.167,251.5 237.5,251.5C 235.236,263.294 233.569,262.96 232.5,250.5 Z"/></g>
<g><path style="opacity:0.396" fill="#c2c5cd" d="M 129.5,255.5 C 126.769,261.897 122.103,266.23 115.5,268.5C 120.794,264.873 125.461,260.54 129.5,255.5 Z"/></g>
<g><path style="opacity:0.275" fill="#bec3c9" d="M 497.5,236.5 C 501.362,246.401 501.196,256.401 497,266.5C 495.974,269.239 494.474,271.572 492.5,273.5C 498.34,261.789 500.007,249.456 497.5,236.5 Z"/></g>
<g><path style="opacity:0.106" fill="#c6cad0" d="M 453.5,271.5 C 434.251,275.732 415.585,273.565 397.5,265C 395.19,264.503 392.857,264.337 390.5,264.5C 388.112,272.651 389.445,279.984 394.5,286.5C 391.482,285.647 389.649,283.647 389,280.5C 388.333,275.5 388.333,270.5 389,265.5C 390.82,262.797 393.32,261.964 396.5,263C 414.665,271.381 433.665,274.214 453.5,271.5 Z"/></g>
<g><path style="opacity:0.239" fill="#c9d1d4" d="M 73.5,262.5 C 74.9063,262.973 75.573,263.973 75.5,265.5C 74.0937,265.027 73.427,264.027 73.5,262.5 Z"/></g>
<g><path style="opacity:0.71" fill="#afb3ba" d="M 163.5,261.5 C 165.538,265.261 167.204,269.261 168.5,273.5C 165.228,270.276 163.561,266.276 163.5,261.5 Z"/></g>
<g><path style="opacity:0.021" fill="#e6e8eb" d="M 344.5,259.5 C 344.712,263.345 343.712,266.679 341.5,269.5C 341.899,265.884 342.899,262.55 344.5,259.5 Z"/></g>
<g><path style="opacity:0.278" fill="#cfd3d9" d="M 465.5,265.5 C 462.35,269.075 458.35,271.075 453.5,271.5C 457.461,269.519 461.461,267.519 465.5,265.5 Z"/></g>
<g><path style="opacity:0.012" fill="#d0d2d6" d="M 42.5,264.5 C 45.134,269.768 47.8007,275.101 50.5,280.5C 45.7531,276.34 43.0864,271.007 42.5,264.5 Z"/></g>
<g><path style="opacity:0.522" fill="#b6bac0" d="M 75.5,265.5 C 78.8979,268.721 82.8979,270.887 87.5,272C 97.1404,273.104 106.474,271.937 115.5,268.5C 103.463,275.521 91.1292,276.021 78.5,270C 76.8588,268.871 75.8588,267.371 75.5,265.5 Z"/></g>
<g><path style="opacity:0.02" fill="#e3e6e9" d="M 341.5,269.5 C 340.997,275.335 339.33,280.669 336.5,285.5C 337.566,279.879 339.233,274.546 341.5,269.5 Z"/></g>
<g><path style="opacity:0.086" fill="#c7cdd4" d="M 492.5,273.5 C 492.262,275.404 491.262,276.738 489.5,277.5C 489.738,275.596 490.738,274.262 492.5,273.5 Z"/></g>
<g><path style="opacity:0.02" fill="#e4e6e9" d="M 488.5,278.5 C 488.5,280.5 487.5,281.5 485.5,281.5C 486.167,280.167 487.167,279.167 488.5,278.5 Z"/></g>
<g><path style="opacity:0.02" fill="#dadde0" d="M 50.5,280.5 C 52.8333,282.167 54.8333,284.167 56.5,286.5C 53.5,285.5 51.5,283.5 50.5,280.5 Z"/></g>
<g><path style="opacity:0.067" fill="#cdd0d4" d="M 168.5,273.5 C 170.427,276.137 170.927,279.137 170,282.5C 166.872,285.474 163.372,287.807 159.5,289.5C 162.476,286.698 165.642,284.031 169,281.5C 169.175,278.843 169.008,276.176 168.5,273.5 Z"/></g>
<g><path style="opacity:0.055" fill="#c6cbd0" d="M 126.5,282.5 C 115.388,292.375 102.221,297.041 87,296.5C 83.6482,296.498 80.4815,296.165 77.5,295.5C 95.4012,296.594 111.734,292.261 126.5,282.5 Z"/></g>
<g><path style="opacity:0.259" fill="#c8cfd4" d="M 147.5,291.5 C 142.458,287.101 138.458,281.768 135.5,275.5C 132.748,278.263 129.748,280.597 126.5,282.5C 129.146,279.188 132.146,276.188 135.5,273.5C 139.126,279.785 143.126,285.785 147.5,291.5 Z"/></g>
<g><path style="opacity:0.4" fill="#bcbfc5" d="M 56.5,286.5 C 58.4044,286.738 59.7377,287.738 60.5,289.5C 58.5956,289.262 57.2623,288.262 56.5,286.5 Z"/></g>
<g><path style="opacity:0.055" fill="#c9cdd7" d="M 218.5,287.5 C 220.167,288.5 221.5,289.833 222.5,291.5C 220.167,291.167 218.833,289.833 218.5,287.5 Z"/></g>
<g><path style="opacity:0.255" fill="#bfc2c8" d="M 394.5,286.5 C 401.009,288.598 407.342,290.932 413.5,293.5C 406.548,292.52 400.214,290.186 394.5,286.5 Z"/></g>
<g><path style="opacity:0.18" fill="#ccced4" d="M 484.5,282.5 C 480.626,287.275 475.626,290.275 469.5,291.5C 474.326,288.252 479.326,285.252 484.5,282.5 Z"/></g>
<g><path style="opacity:0.125" fill="#d5d7de" d="M 60.5,289.5 C 62.153,289.66 63.4863,290.326 64.5,291.5C 62.6203,291.771 61.287,291.104 60.5,289.5 Z"/></g>
<g><path style="opacity:0.271" fill="#bec2cb" d="M 159.5,289.5 C 158.341,291.25 156.674,292.25 154.5,292.5C 155.659,290.75 157.326,289.75 159.5,289.5 Z"/></g>
<g><path style="opacity:0.231" fill="#c3cacf" d="M 64.5,291.5 C 66.5529,291.402 68.2196,292.069 69.5,293.5C 67.4471,293.598 65.7804,292.931 64.5,291.5 Z"/></g>
<g><path style="opacity:0.263" fill="#d1d8da" d="M 147.5,291.5 C 149.764,292.219 152.097,292.552 154.5,292.5C 153.726,293.147 152.726,293.48 151.5,293.5C 149.645,293.66 148.312,292.993 147.5,291.5 Z"/></g>
<g><path style="opacity:0.247" fill="#c0c3c9" d="M 469.5,291.5 C 454.559,297.562 439.226,298.896 423.5,295.5C 439.06,296.398 454.393,295.065 469.5,291.5 Z"/></g>
<g><path style="opacity:0.29" fill="#caced3" d="M 69.5,293.5 C 72.1522,293.41 74.4855,294.076 76.5,295.5C 73.8478,295.59 71.5145,294.924 69.5,293.5 Z"/></g>
<g><path style="opacity:0.195" fill="#fee9c2" d="M 519.5,334.5 C 518.833,334.167 518.167,333.833 517.5,333.5C 513.326,330.519 508.659,328.685 503.5,328C 493.029,326.388 482.696,326.221 472.5,327.5C 467.807,327.54 463.141,327.873 458.5,328.5C 461.903,327.075 465.57,326.242 469.5,326C 479.5,325.333 489.5,325.333 499.5,326C 504.99,326.706 510.323,328.039 515.5,330C 517.751,330.748 519.084,332.248 519.5,334.5 Z"/></g>
<g><path style="opacity:0.988" fill="#f6b566" d="M 472.5,327.5 C 468.081,328.972 463.414,329.638 458.5,329.5C 457.167,329.5 455.833,329.5 454.5,329.5C 455.568,328.566 456.901,328.232 458.5,328.5C 463.141,327.873 467.807,327.54 472.5,327.5 Z"/></g>
<g><path style="opacity:1" fill="#fd990d" d="M 517.5,333.5 C 518.573,339.115 518.74,344.782 518,350.5C 516.582,356.723 515.415,363.056 514.5,369.5C 514.5,370.167 514.5,370.833 514.5,371.5C 512.874,373.942 511.541,376.609 510.5,379.5C 509.5,379.5 508.5,379.5 507.5,379.5C 507.326,382.874 506.826,386.207 506,389.5C 504.108,390.617 503.275,392.284 503.5,394.5C 502.5,394.5 501.5,394.5 500.5,394.5C 499.109,397.436 497.776,401.102 496.5,405.5C 493.839,410.161 490.173,413.827 485.5,416.5C 484.448,416.649 483.448,416.483 482.5,416C 483.704,412.284 484.538,408.45 485,404.5C 486.342,405.902 487.176,405.569 487.5,403.5C 488.316,398.112 489.316,392.779 490.5,387.5C 492.526,383.419 493.526,379.085 493.5,374.5C 493.5,374.167 493.5,373.833 493.5,373.5C 494.75,373.423 495.583,372.756 496,371.5C 497.373,365.025 497.539,358.691 496.5,352.5C 495.718,350.549 494.384,349.049 492.5,348C 480.95,345.771 469.283,344.937 457.5,345.5C 451.274,345.388 445.274,346.054 439.5,347.5C 437.833,347.5 436.167,347.5 434.5,347.5C 432.5,347.5 430.5,347.5 428.5,347.5C 428.351,346.448 428.517,345.448 429,344.5C 431.736,341.901 434.569,339.568 437.5,337.5C 439.713,336.227 442.046,335.227 444.5,334.5C 449.638,333.921 454.305,332.254 458.5,329.5C 463.414,329.638 468.081,328.972 472.5,327.5C 482.696,326.221 493.029,326.388 503.5,328C 508.659,328.685 513.326,330.519 517.5,333.5 Z"/></g>
<g><path style="opacity:1" fill="#f4a244" d="M 454.5,329.5 C 455.833,329.5 457.167,329.5 458.5,329.5C 454.305,332.254 449.638,333.921 444.5,334.5C 447.833,332.833 451.167,331.167 454.5,329.5 Z"/></g>
<g><path style="opacity:0.843" fill="#fdd3a0" d="M 454.5,329.5 C 451.167,331.167 447.833,332.833 444.5,334.5C 442.046,335.227 439.713,336.227 437.5,337.5C 435.883,338.038 434.216,338.371 432.5,338.5C 439.109,333.867 446.442,330.867 454.5,329.5 Z"/></g>
<g><path style="opacity:0.302" fill="#fedfb7" d="M 89.5,366.5 C 86.0171,365.799 82.6838,364.799 79.5,363.5C 69.569,358.87 59.569,354.204 49.5,349.5C 43.8527,346.65 38.186,343.65 32.5,340.5C 29.8994,337.372 26.566,336.205 22.5,337C 20.9003,339.64 21.2336,341.807 23.5,343.5C 23.5,344.167 23.5,344.833 23.5,345.5C 22.5041,345.586 21.6708,345.252 21,344.5C 18.278,337.12 20.778,334.287 28.5,336C 48.7129,346.873 69.0462,357.04 89.5,366.5 Z"/></g>
<g><path style="opacity:1" fill="#efa244" d="M 32.5,340.5 C 29.5641,339.594 26.5641,338.928 23.5,338.5C 23.5,340.167 23.5,341.833 23.5,343.5C 21.2336,341.807 20.9003,339.64 22.5,337C 26.566,336.205 29.8994,337.372 32.5,340.5 Z"/></g>
<g><path style="opacity:1" fill="#fd990d" d="M 32.5,340.5 C 38.186,343.65 43.8527,346.65 49.5,349.5C 51.7682,352.311 54.7682,354.145 58.5,355C 57.0526,358.724 54.386,361.057 50.5,362C 50.8333,362.333 51.1667,362.667 51.5,363C 48.9047,363.6 46.5713,363.1 44.5,361.5C 43.4154,359.413 41.7488,358.08 39.5,357.5C 38.5244,356.185 37.5244,354.852 36.5,353.5C 36.7093,352.914 37.0426,352.414 37.5,352C 33.0859,351.736 30.4192,349.569 29.5,345.5C 28.1667,345.5 26.8333,345.5 25.5,345.5C 24.8333,345.5 24.1667,345.5 23.5,345.5C 23.5,344.833 23.5,344.167 23.5,343.5C 23.5,341.833 23.5,340.167 23.5,338.5C 26.5641,338.928 29.5641,339.594 32.5,340.5 Z"/></g>
<g><path style="opacity:0.239" fill="#ffeac8" d="M 519.5,334.5 C 521.665,349.359 519.665,363.692 513.5,377.5C 513.517,375.435 513.85,373.435 514.5,371.5C 514.5,370.833 514.5,370.167 514.5,369.5C 516.807,363.832 518.307,357.832 519,351.5C 519.499,345.843 519.666,340.176 519.5,334.5 Z"/></g>
<g><path style="opacity:1" fill="#eea449" d="M 437.5,337.5 C 434.569,339.568 431.736,341.901 429,344.5C 428.517,345.448 428.351,346.448 428.5,347.5C 430.5,347.5 432.5,347.5 434.5,347.5C 432.393,348.468 430.059,348.802 427.5,348.5C 427.34,346.801 427.506,345.134 428,343.5C 429.707,341.963 431.207,340.296 432.5,338.5C 434.216,338.371 435.883,338.038 437.5,337.5 Z"/></g>
<g><path style="opacity:0.267" fill="#fde1bd" d="M 432.5,338.5 C 431.207,340.296 429.707,341.963 428,343.5C 427.506,345.134 427.34,346.801 427.5,348.5C 430.059,348.802 432.393,348.468 434.5,347.5C 436.167,347.5 437.833,347.5 439.5,347.5C 442.167,347.5 444.833,347.5 447.5,347.5C 440.75,349.444 433.75,349.944 426.5,349C 425.156,343.796 427.156,340.296 432.5,338.5 Z"/></g>
<g><path style="opacity:0.486" fill="#fabb72" d="M 457.5,345.5 C 454.833,346.167 452.167,346.833 449.5,347.5C 448.833,347.5 448.167,347.5 447.5,347.5C 444.833,347.5 442.167,347.5 439.5,347.5C 445.274,346.054 451.274,345.388 457.5,345.5 Z"/></g>
<g><path style="opacity:0.498" fill="#ffddba" d="M 23.5,345.5 C 24.1667,345.5 24.8333,345.5 25.5,345.5C 27.5,347.833 29.5,350.167 31.5,352.5C 28.2358,350.906 25.5691,348.573 23.5,345.5 Z"/></g>
<g><path style="opacity:0.612" fill="#fddaae" d="M 457.5,345.5 C 469.283,344.937 480.95,345.771 492.5,348C 494.384,349.049 495.718,350.549 496.5,352.5C 496.81,355.713 496.477,358.713 495.5,361.5C 495.466,359.433 495.466,357.266 495.5,355C 493.85,351 490.85,348.667 486.5,348C 474.193,346.459 461.859,346.292 449.5,347.5C 452.167,346.833 454.833,346.167 457.5,345.5 Z"/></g>
<g><path style="opacity:1" fill="#f89e37" d="M 25.5,345.5 C 26.8333,345.5 28.1667,345.5 29.5,345.5C 30.4192,349.569 33.0859,351.736 37.5,352C 37.0426,352.414 36.7093,352.914 36.5,353.5C 37.5244,354.852 38.5244,356.185 39.5,357.5C 38.8333,357.5 38.1667,357.5 37.5,357.5C 36.0892,355.086 34.0892,353.419 31.5,352.5C 29.5,350.167 27.5,347.833 25.5,345.5 Z"/></g>
<g><path style="opacity:1" fill="#f2a546" d="M 517.5,333.5 C 518.167,333.833 518.833,334.167 519.5,334.5C 519.666,340.176 519.499,345.843 519,351.5C 518.307,357.832 516.807,363.832 514.5,369.5C 515.415,363.056 516.582,356.723 518,350.5C 518.74,344.782 518.573,339.115 517.5,333.5 Z"/></g>
<g><path style="opacity:0.357" fill="#ffe3ba" d="M 31.5,352.5 C 34.0892,353.419 36.0892,355.086 37.5,357.5C 34.9108,356.581 32.9108,354.914 31.5,352.5 Z"/></g>
<g><path style="opacity:1" fill="#fa9c20" d="M 49.5,349.5 C 59.569,354.204 69.569,358.87 79.5,363.5C 80.1667,364.167 80.8333,364.833 81.5,365.5C 80.0689,366.082 78.7356,366.915 77.5,368C 79.0074,368.837 79.5074,370.004 79,371.5C 77.8289,370.107 76.3289,369.273 74.5,369C 76.9621,367.15 76.4621,365.983 73,365.5C 72.6667,365.833 72.3333,366.167 72,366.5C 70.3247,365.405 69.158,363.905 68.5,362C 65.1667,361.333 61.8333,361.333 58.5,362C 55.7364,363.544 55.9031,364.711 59,365.5C 59.6172,366.449 59.4506,367.282 58.5,368C 59.7932,368.49 61.1266,368.657 62.5,368.5C 62.5,369.5 62.5,370.5 62.5,371.5C 63.8221,371.33 64.9887,371.663 66,372.5C 66.813,374.436 67.313,376.436 67.5,378.5C 66.8333,378.5 66.1667,378.5 65.5,378.5C 63.7036,376.1 61.3702,374.433 58.5,373.5C 58.0269,372.094 57.0269,371.427 55.5,371.5C 54.7377,369.738 53.4044,368.738 51.5,368.5C 50.7377,366.738 49.4044,365.738 47.5,365.5C 46.5,364.167 45.5,362.833 44.5,361.5C 46.5713,363.1 48.9047,363.6 51.5,363C 51.1667,362.667 50.8333,362.333 50.5,362C 54.386,361.057 57.0526,358.724 58.5,355C 54.7682,354.145 51.7682,352.311 49.5,349.5 Z"/></g>
<g><path style="opacity:1" fill="#f4a64d" d="M 39.5,357.5 C 41.7488,358.08 43.4154,359.413 44.5,361.5C 43.8333,361.5 43.1667,361.5 42.5,361.5C 41.5,360.167 40.5,358.833 39.5,357.5 Z"/></g>
<g><path style="opacity:0.841" fill="#f9bb74" d="M 496.5,352.5 C 497.539,358.691 497.373,365.025 496,371.5C 495.583,372.756 494.75,373.423 493.5,373.5C 494.038,369.476 494.705,365.476 495.5,361.5C 496.477,358.713 496.81,355.713 496.5,352.5 Z"/></g>
<g><path style="opacity:0.365" fill="#fde2bb" d="M 37.5,357.5 C 38.1667,357.5 38.8333,357.5 39.5,357.5C 40.5,358.833 41.5,360.167 42.5,361.5C 40.2512,360.92 38.5846,359.587 37.5,357.5 Z"/></g>
<g><path style="opacity:0.318" fill="#ffe6bb" d="M 42.5,361.5 C 43.1667,361.5 43.8333,361.5 44.5,361.5C 45.5,362.833 46.5,364.167 47.5,365.5C 45.2512,364.92 43.5846,363.587 42.5,361.5 Z"/></g>
<g><path style="opacity:1" fill="#fe9907" d="M 81.5,365.5 C 85.5704,366.034 88.9038,367.868 91.5,371C 93.8098,371.497 96.1432,371.663 98.5,371.5C 99.5,371.5 100.5,371.5 101.5,371.5C 103.033,373.245 105.033,374.245 107.5,374.5C 112.183,375.845 116.849,377.178 121.5,378.5C 122.23,379.712 123.23,380.712 124.5,381.5C 128.105,382.539 131.772,383.205 135.5,383.5C 138.539,386.193 142.206,387.193 146.5,386.5C 149.01,386.927 151.343,387.593 153.5,388.5C 155.45,390.026 157.783,391.026 160.5,391.5C 167.404,393.271 174.404,394.271 181.5,394.5C 181.833,394.5 182.167,394.5 182.5,394.5C 183.325,396.322 183.658,397.989 183.5,399.5C 187.387,397.133 191.221,397.133 195,399.5C 199.106,398.959 203.272,398.959 207.5,399.5C 210.167,399.5 212.833,399.5 215.5,399.5C 218.385,399.194 221.052,399.527 223.5,400.5C 229.335,401.784 235.335,402.784 241.5,403.5C 264.33,404.663 287.33,404.83 310.5,404C 311.737,403.768 312.737,403.268 313.5,402.5C 321.274,403.102 328.607,402.102 335.5,399.5C 338.287,398.523 341.287,398.19 344.5,398.5C 352.46,398.053 360.126,396.72 367.5,394.5C 374.529,394.387 381.195,393.054 387.5,390.5C 391.324,388.559 395.324,387.225 399.5,386.5C 402.187,386.664 404.854,386.497 407.5,386C 410.501,385.262 413.168,384.096 415.5,382.5C 419.5,380.833 423.5,379.167 427.5,377.5C 428.833,377.5 430.167,377.5 431.5,377.5C 435.533,376.975 439.2,375.642 442.5,373.5C 444.214,372.262 446.214,371.595 448.5,371.5C 454.141,370.227 459.474,368.061 464.5,365C 467.221,364.398 469.887,364.565 472.5,365.5C 474.046,367.882 474.713,370.549 474.5,373.5C 471.008,376.742 467.342,379.742 463.5,382.5C 457.211,385.555 451.378,389.221 446,393.5C 436.393,398.269 426.893,403.269 417.5,408.5C 413.034,409.27 409.034,410.937 405.5,413.5C 394.016,416.495 382.682,419.995 371.5,424C 357.735,427.593 344.068,430.759 330.5,433.5C 326.821,433.724 323.154,434.058 319.5,434.5C 283.676,437.426 248.009,437.093 212.5,433.5C 205.872,432.511 199.205,431.844 192.5,431.5C 191.713,429.896 190.38,429.229 188.5,429.5C 188.389,428.883 188.056,428.383 187.5,428C 178.064,425.882 168.731,423.716 159.5,421.5C 158.167,421.5 156.833,421.5 155.5,421.5C 152.042,418.747 148.042,417.413 143.5,417.5C 143.167,416.5 142.5,415.833 141.5,415.5C 141.389,414.883 141.056,414.383 140.5,414C 141.624,413.751 142.624,413.251 143.5,412.5C 143,412.167 142.5,411.833 142,411.5C 138.407,413.206 135.241,412.706 132.5,410C 126.966,407.701 121.3,405.868 115.5,404.5C 114.652,402.907 113.319,401.74 111.5,401C 107.562,399.526 103.562,398.359 99.5,397.5C 98.4324,396.566 97.099,396.232 95.5,396.5C 94.4613,394.469 92.7946,393.136 90.5,392.5C 89.8333,392.5 89.1667,392.5 88.5,392.5C 88.1667,391.833 87.8333,391.167 87.5,390.5C 86.4975,388.989 85.8308,387.322 85.5,385.5C 83.0225,385.949 81.0225,385.283 79.5,383.5C 80.0253,382.808 80.6919,382.308 81.5,382C 79.9651,381.504 78.4651,381.67 77,382.5C 75.5936,381.586 74.0936,380.92 72.5,380.5C 71.8333,380.5 71.1667,380.5 70.5,380.5C 70.0269,379.094 69.0269,378.427 67.5,378.5C 67.313,376.436 66.813,374.436 66,372.5C 64.9887,371.663 63.8221,371.33 62.5,371.5C 62.5,370.5 62.5,369.5 62.5,368.5C 61.1266,368.657 59.7932,368.49 58.5,368C 59.4506,367.282 59.6172,366.449 59,365.5C 55.9031,364.711 55.7364,363.544 58.5,362C 61.8333,361.333 65.1667,361.333 68.5,362C 69.158,363.905 70.3247,365.405 72,366.5C 72.3333,366.167 72.6667,365.833 73,365.5C 76.4621,365.983 76.9621,367.15 74.5,369C 76.3289,369.273 77.8289,370.107 79,371.5C 79.5074,370.004 79.0074,368.837 77.5,368C 78.7356,366.915 80.0689,366.082 81.5,365.5 Z"/></g>
<g><path style="opacity:0.275" fill="#ffedcd" d="M 462.5,364.5 C 461.07,365.537 459.403,366.204 457.5,366.5C 458.635,364.787 460.302,364.12 462.5,364.5 Z"/></g>
<g><path style="opacity:0.314" fill="#ffe3c1" d="M 47.5,365.5 C 49.4044,365.738 50.7377,366.738 51.5,368.5C 49.5956,368.262 48.2623,367.262 47.5,365.5 Z"/></g>
<g><path style="opacity:1" fill="#f2ab56" d="M 464.5,363.5 C 466.857,363.337 469.19,363.503 471.5,364C 472.056,364.383 472.389,364.883 472.5,365.5C 469.887,364.565 467.221,364.398 464.5,365C 459.474,368.061 454.141,370.227 448.5,371.5C 451.372,369.649 454.372,367.983 457.5,366.5C 459.403,366.204 461.07,365.537 462.5,364.5C 462.842,363.662 463.508,363.328 464.5,363.5 Z"/></g>
<g><path style="opacity:0.035" fill="#fff6db" d="M 93.5,367.5 C 95.3797,367.229 96.713,367.896 97.5,369.5C 95.847,369.34 94.5137,368.674 93.5,367.5 Z"/></g>
<g><path style="opacity:0.333" fill="#ffe8ca" d="M 475.5,374.5 C 475.5,374.167 475.5,373.833 475.5,373.5C 476.172,370.058 475.172,367.391 472.5,365.5C 472.389,364.883 472.056,364.383 471.5,364C 469.19,363.503 466.857,363.337 464.5,363.5C 468.35,361.359 472.017,362.026 475.5,365.5C 476.803,368.645 476.803,371.645 475.5,374.5 Z"/></g>
<g><path style="opacity:0.298" fill="#ffe8bf" d="M 51.5,368.5 C 53.4044,368.738 54.7377,369.738 55.5,371.5C 53.5956,371.262 52.2623,370.262 51.5,368.5 Z"/></g>
<g><path style="opacity:1" fill="#f6ab51" d="M 79.5,363.5 C 82.6838,364.799 86.0171,365.799 89.5,366.5C 91.099,366.232 92.4324,366.566 93.5,367.5C 94.5137,368.674 95.847,369.34 97.5,369.5C 97.8333,370.167 98.1667,370.833 98.5,371.5C 96.1432,371.663 93.8098,371.497 91.5,371C 88.9038,367.868 85.5704,366.034 81.5,365.5C 80.8333,364.833 80.1667,364.167 79.5,363.5 Z"/></g>
<g><path style="opacity:0.106" fill="#ffeaca" d="M 97.5,369.5 C 100.916,369.528 103.916,370.528 106.5,372.5C 104.784,372.371 103.117,372.038 101.5,371.5C 100.5,371.5 99.5,371.5 98.5,371.5C 98.1667,370.833 97.8333,370.167 97.5,369.5 Z"/></g>
<g><path style="opacity:0.922" fill="#f0ab54" d="M 472.5,365.5 C 475.172,367.391 476.172,370.058 475.5,373.5C 475.167,373.5 474.833,373.5 474.5,373.5C 474.713,370.549 474.046,367.882 472.5,365.5 Z"/></g>
<g><path style="opacity:0.204" fill="#ffe7c1" d="M 55.5,371.5 C 57.0269,371.427 58.0269,372.094 58.5,373.5C 56.9731,373.573 55.9731,372.906 55.5,371.5 Z"/></g>
<g><path style="opacity:0.839" fill="#f2b86e" d="M 101.5,371.5 C 103.117,372.038 104.784,372.371 106.5,372.5C 106.833,373.167 107.167,373.833 107.5,374.5C 105.033,374.245 103.033,373.245 101.5,371.5 Z"/></g>
<g><path style="opacity:0.533" fill="#ffe4c1" d="M 457.5,366.5 C 454.372,367.983 451.372,369.649 448.5,371.5C 446.214,371.595 444.214,372.262 442.5,373.5C 440.435,373.517 438.435,373.85 436.5,374.5C 443.041,370.846 450.041,368.179 457.5,366.5 Z"/></g>
<g><path style="opacity:0.149" fill="#ffeccc" d="M 58.5,373.5 C 61.3702,374.433 63.7036,376.1 65.5,378.5C 62.6298,377.567 60.2964,375.9 58.5,373.5 Z"/></g>
<g><path style="opacity:0.043" fill="#fee5be" d="M 106.5,372.5 C 113.773,374.258 120.773,376.591 127.5,379.5C 125.435,379.483 123.435,379.15 121.5,378.5C 116.849,377.178 112.183,375.845 107.5,374.5C 107.167,373.833 106.833,373.167 106.5,372.5 Z"/></g>
<g><path style="opacity:0.627" fill="#fcdfb4" d="M 435.5,374.5 C 434.167,375.5 432.833,376.5 431.5,377.5C 430.167,377.5 428.833,377.5 427.5,377.5C 429.792,375.733 432.458,374.733 435.5,374.5 Z"/></g>
<g><path style="opacity:1" fill="#f2a850" d="M 442.5,373.5 C 439.2,375.642 435.533,376.975 431.5,377.5C 432.833,376.5 434.167,375.5 435.5,374.5C 435.833,374.5 436.167,374.5 436.5,374.5C 438.435,373.85 440.435,373.517 442.5,373.5 Z"/></g>
<g><path style="opacity:0.78" fill="#f8b164" d="M 514.5,371.5 C 513.85,373.435 513.517,375.435 513.5,377.5C 511.986,379.364 510.653,381.364 509.5,383.5C 509.433,382.041 509.766,380.708 510.5,379.5C 511.541,376.609 512.874,373.942 514.5,371.5 Z"/></g>
<g><path style="opacity:0.118" fill="#fff1d5" d="M 65.5,378.5 C 66.1667,378.5 66.8333,378.5 67.5,378.5C 67.8333,379.167 68.1667,379.833 68.5,380.5C 66.9731,380.573 65.9731,379.906 65.5,378.5 Z"/></g>
<g><path style="opacity:0.812" fill="#f5b871" d="M 67.5,378.5 C 69.0269,378.427 70.0269,379.094 70.5,380.5C 69.8333,380.5 69.1667,380.5 68.5,380.5C 68.1667,379.833 67.8333,379.167 67.5,378.5 Z"/></g>
<g><path style="opacity:0.086" fill="#fff3db" d="M 68.5,380.5 C 69.1667,380.5 69.8333,380.5 70.5,380.5C 70.8333,381.167 71.1667,381.833 71.5,382.5C 69.9731,382.573 68.9731,381.906 68.5,380.5 Z"/></g>
<g><path style="opacity:0.769" fill="#f9ba7a" d="M 70.5,380.5 C 71.1667,380.5 71.8333,380.5 72.5,380.5C 72.8333,381.167 73.1667,381.833 73.5,382.5C 72.8333,382.5 72.1667,382.5 71.5,382.5C 71.1667,381.833 70.8333,381.167 70.5,380.5 Z"/></g>
<g><path style="opacity:1" fill="#f8a547" d="M 121.5,378.5 C 123.435,379.15 125.435,379.483 127.5,379.5C 129.968,381.047 132.635,382.38 135.5,383.5C 131.772,383.205 128.105,382.539 124.5,381.5C 123.23,380.712 122.23,379.712 121.5,378.5 Z"/></g>
<g><path style="opacity:0.259" fill="#fee8c4" d="M 427.5,377.5 C 423.5,379.167 419.5,380.833 415.5,382.5C 410.139,383.523 404.806,384.523 399.5,385.5C 408.57,382.259 417.903,379.592 427.5,377.5 Z"/></g>
<g><path style="opacity:0.004" fill="#fff8e4" d="M 468.5,380.5 C 468.027,381.906 467.027,382.573 465.5,382.5C 465.973,381.094 466.973,380.427 468.5,380.5 Z"/></g>
<g><path style="opacity:0.082" fill="#fff0d1" d="M 71.5,382.5 C 72.1667,382.5 72.8333,382.5 73.5,382.5C 74.6935,383.272 75.6935,384.272 76.5,385.5C 74.326,385.25 72.6594,384.25 71.5,382.5 Z"/></g>
<g><path style="opacity:1" fill="#f7a13b" d="M 72.5,380.5 C 74.0936,380.92 75.5936,381.586 77,382.5C 78.4651,381.67 79.9651,381.504 81.5,382C 80.6919,382.308 80.0253,382.808 79.5,383.5C 81.0225,385.283 83.0225,385.949 85.5,385.5C 85.8308,387.322 86.4975,388.989 87.5,390.5C 86.1667,390.167 84.8333,389.833 83.5,389.5C 82.4863,388.326 81.153,387.66 79.5,387.5C 79.1788,385.952 78.1788,385.285 76.5,385.5C 75.6935,384.272 74.6935,383.272 73.5,382.5C 73.1667,381.833 72.8333,381.167 72.5,380.5 Z"/></g>
<g><path style="opacity:1" fill="#f3a549" d="M 135.5,383.5 C 139.479,383.742 143.146,384.742 146.5,386.5C 142.206,387.193 138.539,386.193 135.5,383.5 Z"/></g>
<g><path style="opacity:1" fill="#f2a94b" d="M 415.5,382.5 C 413.168,384.096 410.501,385.262 407.5,386C 404.854,386.497 402.187,386.664 399.5,386.5C 399.5,386.167 399.5,385.833 399.5,385.5C 404.806,384.523 410.139,383.523 415.5,382.5 Z"/></g>
<g><path style="opacity:0.09" fill="#ffeecd" d="M 76.5,385.5 C 78.1788,385.285 79.1788,385.952 79.5,387.5C 77.9731,387.573 76.9731,386.906 76.5,385.5 Z"/></g>
<g><path style="opacity:0.267" fill="#fde1b6" d="M 399.5,385.5 C 399.5,385.833 399.5,386.167 399.5,386.5C 395.324,387.225 391.324,388.559 387.5,390.5C 380.517,390.864 373.851,392.197 367.5,394.5C 361.21,395.541 354.877,396.208 348.5,396.5C 365.425,393.023 382.425,389.356 399.5,385.5 Z"/></g>
<g><path style="opacity:0.482" fill="#fedba9" d="M 493.5,374.5 C 493.526,379.085 492.526,383.419 490.5,387.5C 488.547,393.033 486.214,398.367 483.5,403.5C 486.459,393.621 489.792,383.954 493.5,374.5 Z"/></g>
<g><path style="opacity:0.149" fill="#fff3da" d="M 79.5,387.5 C 81.153,387.66 82.4863,388.326 83.5,389.5C 81.6203,389.771 80.287,389.104 79.5,387.5 Z"/></g>
<g><path style="opacity:0.11" fill="#ffe9c3" d="M 513.5,377.5 C 511.713,385.075 508.379,391.741 503.5,397.5C 503.5,396.833 503.5,396.167 503.5,395.5C 506.387,391.982 508.387,387.982 509.5,383.5C 510.653,381.364 511.986,379.364 513.5,377.5 Z"/></g>
<g><path style="opacity:0.122" fill="#ffe8c8" d="M 83.5,389.5 C 84.8333,389.833 86.1667,390.167 87.5,390.5C 87.8333,391.167 88.1667,391.833 88.5,392.5C 86.326,392.25 84.6594,391.25 83.5,389.5 Z"/></g>
<g><path style="opacity:0.153" fill="#fee2b9" d="M 127.5,379.5 C 156.51,387.9 185.844,394.234 215.5,398.5C 215.5,398.833 215.5,399.167 215.5,399.5C 212.833,399.5 210.167,399.5 207.5,399.5C 199.367,397.473 191.034,395.807 182.5,394.5C 182.167,394.5 181.833,394.5 181.5,394.5C 172.201,392.501 162.868,390.501 153.5,388.5C 151.343,387.593 149.01,386.927 146.5,386.5C 143.146,384.742 139.479,383.742 135.5,383.5C 132.635,382.38 129.968,381.047 127.5,379.5 Z"/></g>
<g><path style="opacity:1" fill="#f6a240" d="M 387.5,390.5 C 381.195,393.054 374.529,394.387 367.5,394.5C 373.851,392.197 380.517,390.864 387.5,390.5 Z"/></g>
<g><path style="opacity:0.075" fill="#fff3d7" d="M 88.5,392.5 C 89.1667,392.5 89.8333,392.5 90.5,392.5C 90.8333,393.167 91.1667,393.833 91.5,394.5C 89.9731,394.573 88.9731,393.906 88.5,392.5 Z"/></g>
<g><path style="opacity:1" fill="#f9a13c" d="M 153.5,388.5 C 162.868,390.501 172.201,392.501 181.5,394.5C 174.404,394.271 167.404,393.271 160.5,391.5C 157.783,391.026 155.45,390.026 153.5,388.5 Z"/></g>
<g><path style="opacity:0.694" fill="#ffd5a6" d="M 90.5,392.5 C 92.7946,393.136 94.4613,394.469 95.5,396.5C 93.847,396.34 92.5137,395.674 91.5,394.5C 91.1667,393.833 90.8333,393.167 90.5,392.5 Z"/></g>
<g><path style="opacity:1" fill="#f59d30" d="M 510.5,379.5 C 509.766,380.708 509.433,382.041 509.5,383.5C 508.387,387.982 506.387,391.982 503.5,395.5C 501.188,398.818 498.854,402.152 496.5,405.5C 497.776,401.102 499.109,397.436 500.5,394.5C 501.5,394.5 502.5,394.5 503.5,394.5C 503.275,392.284 504.108,390.617 506,389.5C 506.826,386.207 507.326,382.874 507.5,379.5C 508.5,379.5 509.5,379.5 510.5,379.5 Z"/></g>
<g><path style="opacity:0.992" fill="#f2a44b" d="M 367.5,394.5 C 360.126,396.72 352.46,398.053 344.5,398.5C 345.833,397.833 347.167,397.167 348.5,396.5C 354.877,396.208 361.21,395.541 367.5,394.5 Z"/></g>
<g><path style="opacity:0.255" fill="#fedaac" d="M 474.5,373.5 C 474.833,373.5 475.167,373.5 475.5,373.5C 475.5,373.833 475.5,374.167 475.5,374.5C 473.781,377.219 471.447,379.219 468.5,380.5C 466.973,380.427 465.973,381.094 465.5,382.5C 450.615,393.275 434.615,401.941 417.5,408.5C 426.893,403.269 436.393,398.269 446,393.5C 451.378,389.221 457.211,385.555 463.5,382.5C 467.342,379.742 471.008,376.742 474.5,373.5 Z"/></g>
<g><path style="opacity:0.18" fill="#feeac7" d="M 95.5,396.5 C 97.099,396.232 98.4324,396.566 99.5,397.5C 100.833,398.5 102.167,399.5 103.5,400.5C 100.246,400.206 97.5792,398.873 95.5,396.5 Z"/></g>
<g><path style="opacity:1" fill="#f79c2d" d="M 182.5,394.5 C 191.034,395.807 199.367,397.473 207.5,399.5C 203.272,398.959 199.106,398.959 195,399.5C 191.221,397.133 187.387,397.133 183.5,399.5C 183.658,397.989 183.325,396.322 182.5,394.5 Z"/></g>
<g><path style="opacity:0.318" fill="#ffe7c1" d="M 348.5,396.5 C 347.167,397.167 345.833,397.833 344.5,398.5C 341.287,398.19 338.287,398.523 335.5,399.5C 324.687,400.505 314.021,401.505 303.5,402.5C 276.799,402.88 250.133,402.214 223.5,400.5C 221.052,399.527 218.385,399.194 215.5,399.5C 215.5,399.167 215.5,398.833 215.5,398.5C 259.916,402.989 304.249,402.322 348.5,396.5 Z"/></g>
<g><path style="opacity:0.998" fill="#f3a74d" d="M 335.5,399.5 C 328.607,402.102 321.274,403.102 313.5,402.5C 310.167,402.5 306.833,402.5 303.5,402.5C 314.021,401.505 324.687,400.505 335.5,399.5 Z"/></g>
<g><path style="opacity:1" fill="#f4a23f" d="M 99.5,397.5 C 103.562,398.359 107.562,399.526 111.5,401C 113.319,401.74 114.652,402.907 115.5,404.5C 111.841,402.296 107.841,400.962 103.5,400.5C 102.167,399.5 100.833,398.5 99.5,397.5 Z"/></g>
<g><path style="opacity:0.99" fill="#f4ae60" d="M 223.5,400.5 C 250.133,402.214 276.799,402.88 303.5,402.5C 283.007,403.497 262.34,403.831 241.5,403.5C 235.335,402.784 229.335,401.784 223.5,400.5 Z"/></g>
<g><path style="opacity:0.722" fill="#fed9ac" d="M 103.5,400.5 C 107.841,400.962 111.841,402.296 115.5,404.5C 117.751,405.411 119.751,406.744 121.5,408.5C 120.127,408.657 118.793,408.49 117.5,408C 112.613,405.726 107.946,403.226 103.5,400.5 Z"/></g>
<g><path style="opacity:1" fill="#f49a2d" d="M 303.5,402.5 C 306.833,402.5 310.167,402.5 313.5,402.5C 312.737,403.268 311.737,403.768 310.5,404C 287.33,404.83 264.33,404.663 241.5,403.5C 262.34,403.831 283.007,403.497 303.5,402.5 Z"/></g>
<g><path style="opacity:1" fill="#f89d31" d="M 490.5,387.5 C 489.316,392.779 488.316,398.112 487.5,403.5C 487.176,405.569 486.342,405.902 485,404.5C 484.538,408.45 483.704,412.284 482.5,416C 483.448,416.483 484.448,416.649 485.5,416.5C 484.081,417.451 482.415,417.784 480.5,417.5C 481.093,412.728 482.093,408.061 483.5,403.5C 486.214,398.367 488.547,393.033 490.5,387.5 Z"/></g>
<g><path style="opacity:1" fill="#f4a033" d="M 115.5,404.5 C 121.3,405.868 126.966,407.701 132.5,410C 135.241,412.706 138.407,413.206 142,411.5C 142.5,411.833 143,412.167 143.5,412.5C 142.624,413.251 141.624,413.751 140.5,414C 141.056,414.383 141.389,414.883 141.5,415.5C 137.302,413.921 132.969,412.588 128.5,411.5C 128.167,411.5 127.833,411.5 127.5,411.5C 125.967,409.755 123.967,408.755 121.5,408.5C 119.751,406.744 117.751,405.411 115.5,404.5 Z"/></g>
<g><path style="opacity:0.314" fill="#fed9aa" d="M 503.5,395.5 C 503.5,396.167 503.5,396.833 503.5,397.5C 499.558,406.285 493.558,413.452 485.5,419C 481.819,420.314 479.486,419.147 478.5,415.5C 479.664,411.186 481.331,407.186 483.5,403.5C 482.093,408.061 481.093,412.728 480.5,417.5C 482.415,417.784 484.081,417.451 485.5,416.5C 490.173,413.827 493.839,410.161 496.5,405.5C 498.854,402.152 501.188,398.818 503.5,395.5 Z"/></g>
<g><path style="opacity:0.251" fill="#ffe2b5" d="M 121.5,408.5 C 123.967,408.755 125.967,409.755 127.5,411.5C 125.033,411.245 123.033,410.245 121.5,408.5 Z"/></g>
<g><path style="opacity:0.122" fill="#ffe6c7" d="M 417.5,408.5 C 415.078,410.268 412.412,411.768 409.5,413C 408.207,413.49 406.873,413.657 405.5,413.5C 409.034,410.937 413.034,409.27 417.5,408.5 Z"/></g>
<g><path style="opacity:0.514" fill="#fddbaf" d="M 128.5,411.5 C 132.969,412.588 137.302,413.921 141.5,415.5C 142.5,415.833 143.167,416.5 143.5,417.5C 138.762,416.302 134.095,414.802 129.5,413C 128.944,412.617 128.611,412.117 128.5,411.5 Z"/></g>
<g><path style="opacity:0.306" fill="#fed7a5" d="M 405.5,413.5 C 398.283,417.228 390.617,419.895 382.5,421.5C 380.302,421.12 378.635,421.787 377.5,423.5C 363.488,428.103 349.155,431.436 334.5,433.5C 333.167,433.5 331.833,433.5 330.5,433.5C 344.068,430.759 357.735,427.593 371.5,424C 382.682,419.995 394.016,416.495 405.5,413.5 Z"/></g>
<g><path style="opacity:0.424" fill="#fed3a8" d="M 143.5,417.5 C 148.042,417.413 152.042,418.747 155.5,421.5C 151.233,420.744 147.233,419.411 143.5,417.5 Z"/></g>
<g><path style="opacity:1" fill="#f5a950" d="M 159.5,421.5 C 168.731,423.716 178.064,425.882 187.5,428C 188.056,428.383 188.389,428.883 188.5,429.5C 185.518,429.037 182.518,428.704 179.5,428.5C 177.901,428.768 176.568,428.434 175.5,427.5C 173.562,425.837 171.228,425.171 168.5,425.5C 165.5,424.167 162.5,422.833 159.5,421.5 Z"/></g>
<g><path style="opacity:0.063" fill="#ffe5be" d="M 382.5,421.5 C 381.07,422.537 379.403,423.204 377.5,423.5C 378.635,421.787 380.302,421.12 382.5,421.5 Z"/></g>
<g><path style="opacity:0.451" fill="#ffdeb5" d="M 155.5,421.5 C 156.833,421.5 158.167,421.5 159.5,421.5C 162.5,422.833 165.5,424.167 168.5,425.5C 163.835,424.943 159.502,423.61 155.5,421.5 Z"/></g>
<g><path style="opacity:0.329" fill="#ffe2b2" d="M 168.5,425.5 C 171.228,425.171 173.562,425.837 175.5,427.5C 172.848,427.59 170.515,426.924 168.5,425.5 Z"/></g>
<g><path style="opacity:0.357" fill="#fdddac" d="M 179.5,428.5 C 182.518,428.704 185.518,429.037 188.5,429.5C 190.38,429.229 191.713,429.896 192.5,431.5C 187.908,431.118 183.575,430.118 179.5,428.5 Z"/></g>
<g><path style="opacity:0.843" fill="#fdd7a7" d="M 192.5,431.5 C 199.205,431.844 205.872,432.511 212.5,433.5C 213.5,434.167 214.5,434.833 215.5,435.5C 207.544,435.119 199.877,433.786 192.5,431.5 Z"/></g>
<g><path style="opacity:1" fill="#f5a03c" d="M 212.5,433.5 C 248.009,437.093 283.676,437.426 319.5,434.5C 309.084,436.633 298.417,437.8 287.5,438C 274.504,438.5 261.504,438.667 248.5,438.5C 237.496,437.555 226.496,436.555 215.5,435.5C 214.5,434.833 213.5,434.167 212.5,433.5 Z"/></g>
<g><path style="opacity:0.122" fill="#ffe6bf" d="M 330.5,433.5 C 331.833,433.5 333.167,433.5 334.5,433.5C 306.198,439.089 277.531,441.089 248.5,439.5C 248.5,439.167 248.5,438.833 248.5,438.5C 261.504,438.667 274.504,438.5 287.5,438C 298.417,437.8 309.084,436.633 319.5,434.5C 323.154,434.058 326.821,433.724 330.5,433.5 Z"/></g>
<g><path style="opacity:0.218" fill="#ffe7ca" d="M 215.5,435.5 C 226.496,436.555 237.496,437.555 248.5,438.5C 248.5,438.833 248.5,439.167 248.5,439.5C 237.261,438.998 226.261,437.664 215.5,435.5 Z"/></g>
</svg>
