<?xml version="1.0" encoding="UTF-8"?>
<!DOCTYPE svg PUBLIC "-//W3C//DTD SVG 1.1//EN" "http://www.w3.org/Graphics/SVG/1.1/DTD/svg11.dtd">
<svg xmlns="http://www.w3.org/2000/svg" version="1.1" width="308px" height="336px" style="shape-rendering:geometricPrecision; text-rendering:geometricPrecision; image-rendering:optimizeQuality; fill-rule:evenodd; clip-rule:evenodd" xmlns:xlink="http://www.w3.org/1999/xlink">
<g><path style="opacity:1" fill="#fcc278" d="M 200.5,17.5 C 194.639,16.6366 188.972,15.1366 183.5,13C 165.554,10.4067 147.554,9.90665 129.5,11.5C 153.764,6.10675 177.431,8.10675 200.5,17.5 Z"/></g>
<g><path style="opacity:1" fill="#f9bc69" d="M 129.5,11.5 C 118.41,15.8555 107.077,19.8555 95.5,23.5C 105.898,17.0605 117.231,13.0605 129.5,11.5 Z"/></g>
<g><path style="opacity:0.427" fill="#facc85" d="M 200.5,17.5 C 208.931,20.2138 216.597,24.2138 223.5,29.5C 215.298,26.2347 207.631,22.2347 200.5,17.5 Z"/></g>
<g><path style="opacity:1" fill="#fed01f" d="M 268.5,143.5 C 267.844,148.73 267.011,154.064 266,159.5C 265.586,159.957 265.086,160.291 264.5,160.5C 262.081,160.086 260.081,159.086 258.5,157.5C 260.764,158.219 263.097,158.552 265.5,158.5C 265.5,156.833 265.5,155.167 265.5,153.5C 264.942,151.436 263.775,149.77 262,148.5C 259.393,150.384 256.726,150.051 254,147.5C 238.154,149.18 221.988,149.847 205.5,149.5C 205.649,150.552 205.483,151.552 205,152.5C 204.292,151.619 203.458,150.953 202.5,150.5C 201.603,149.402 200.77,149.402 200,150.5C 199.818,153.226 199.318,155.893 198.5,158.5C 197.236,156.709 196.569,154.709 196.5,152.5C 197.761,149.302 198.428,145.969 198.5,142.5C 198.444,140.36 197.777,138.694 196.5,137.5C 196.586,136.504 196.252,135.671 195.5,135C 193.288,134.211 191.288,134.378 189.5,135.5C 187.364,136.653 185.364,137.986 183.5,139.5C 180.603,140.129 177.936,141.129 175.5,142.5C 171.526,142.769 167.86,143.936 164.5,146C 152.749,147.981 141.749,146.148 131.5,140.5C 130.192,139.768 128.858,138.934 127.5,138C 128.5,137.667 129.5,137.333 130.5,137C 127.912,135.868 125.412,135.701 123,136.5C 120.266,135.279 117.433,134.279 114.5,133.5C 106.782,134.897 104.449,139.23 107.5,146.5C 107.5,148.5 107.5,150.5 107.5,152.5C 105.738,152.357 104.071,152.691 102.5,153.5C 101.449,152.115 100.116,151.115 98.5,150.5C 84.272,152.957 70.4387,151.29 57,145.5C 54.2366,145.694 51.4032,145.694 48.5,145.5C 47.1166,148.076 46.2833,147.742 46,144.5C 45.3741,146.991 44.5407,146.991 43.5,144.5C 42.8332,139.015 42.1665,133.681 41.5,128.5C 41.7599,122.828 42.0932,117.161 42.5,111.5C 44.1303,106.4 45.297,101.066 46,95.5C 50.4214,89.9541 53.9214,83.7874 56.5,77C 61.1354,72.6811 64.6354,67.5144 67,61.5C 71.386,58.2365 75.2193,54.4032 78.5,50C 85.7243,46.7605 91.7243,42.0938 96.5,36C 98.8333,35.6667 101.167,35.3333 103.5,35C 104.833,34.3333 105.833,33.3333 106.5,32C 112.536,31.6398 117.869,29.6398 122.5,26C 125.479,25.1091 128.479,24.2757 131.5,23.5C 153.103,20.4932 174.103,22.6599 194.5,30C 210.31,35.8221 223.977,44.8221 235.5,57C 238.729,57.3563 240.229,59.1897 240,62.5C 245.362,68.5256 250.695,74.5256 256,80.5C 260.872,93.1221 264.539,106.122 267,119.5C 268.164,127.459 268.664,135.459 268.5,143.5 Z"/></g>
<g><path style="opacity:0.518" fill="#fad38e" d="M 223.5,29.5 C 224.922,29.7086 226.255,30.2086 227.5,31C 230.288,32.7186 232.621,34.8852 234.5,37.5C 230.219,35.5345 226.553,32.8678 223.5,29.5 Z"/></g>
<g><path style="opacity:1" fill="#f9bb67" d="M 95.5,23.5 C 95.6309,24.3764 95.2975,25.0431 94.5,25.5C 89.5017,27.0093 85.5017,29.8427 82.5,34C 80.257,35.1362 77.9237,35.9695 75.5,36.5C 81.1348,30.6761 87.8015,26.3428 95.5,23.5 Z"/></g>
<g><path style="opacity:0.518" fill="#fcd191" d="M 234.5,37.5 C 236.749,38.0798 238.415,39.4131 239.5,41.5C 237.205,40.8645 235.539,39.5311 234.5,37.5 Z"/></g>
<g><path style="opacity:0.929" fill="#fdc881" d="M 75.5,36.5 C 73.3633,39.973 70.3633,42.3064 66.5,43.5C 69.2085,40.7915 72.2085,38.4581 75.5,36.5 Z"/></g>
<g><path style="opacity:0.914" fill="#facb81" d="M 239.5,41.5 C 241.833,43.1667 243.833,45.1667 245.5,47.5C 242.5,46.5 240.5,44.5 239.5,41.5 Z"/></g>
<g><path style="opacity:0.933" fill="#fccc8b" d="M 245.5,47.5 C 248.573,49.5691 250.906,52.2358 252.5,55.5C 249.427,53.4309 247.094,50.7642 245.5,47.5 Z"/></g>
<g><path style="opacity:1" fill="#fc9f08" d="M 200.5,17.5 C 207.631,22.2347 215.298,26.2347 223.5,29.5C 226.553,32.8678 230.219,35.5345 234.5,37.5C 235.539,39.5311 237.205,40.8645 239.5,41.5C 240.5,44.5 242.5,46.5 245.5,47.5C 247.094,50.7642 249.427,53.4309 252.5,55.5C 253.08,57.7488 254.413,59.4154 256.5,60.5C 255.973,64.4567 257.639,66.7901 261.5,67.5C 263.52,74.5406 266.853,80.8739 271.5,86.5C 273.379,91.9838 274.546,97.6505 275,103.5C 276.55,104.591 277.717,105.924 278.5,107.5C 280.525,121.848 280.858,136.181 279.5,150.5C 278.178,150.33 277.011,150.663 276,151.5C 275.814,153.9 275.314,156.234 274.5,158.5C 273.948,152.985 272.114,152.319 269,156.5C 268.501,152.179 268.334,147.846 268.5,143.5C 268.664,135.459 268.164,127.459 267,119.5C 264.539,106.122 260.872,93.1221 256,80.5C 250.695,74.5256 245.362,68.5256 240,62.5C 240.229,59.1897 238.729,57.3563 235.5,57C 223.977,44.8221 210.31,35.8221 194.5,30C 174.103,22.6599 153.103,20.4932 131.5,23.5C 128.479,24.2757 125.479,25.1091 122.5,26C 117.869,29.6398 112.536,31.6398 106.5,32C 105.833,33.3333 104.833,34.3333 103.5,35C 101.167,35.3333 98.8333,35.6667 96.5,36C 91.7243,42.0938 85.7243,46.7605 78.5,50C 75.2193,54.4032 71.386,58.2365 67,61.5C 64.6354,67.5144 61.1354,72.6811 56.5,77C 53.9214,83.7874 50.4214,89.9541 46,95.5C 45.297,101.066 44.1303,106.4 42.5,111.5C 40.7831,119.268 39.7831,127.268 39.5,135.5C 40.2566,142.496 40.4233,149.496 40,156.5C 39.1495,159.612 37.9828,159.946 36.5,157.5C 34.9223,156.702 33.2556,156.202 31.5,156C 30.5783,153.706 29.5783,151.539 28.5,149.5C 28.5,148.833 28.5,148.167 28.5,147.5C 28.3335,138.161 28.5002,128.827 29,119.5C 30.8843,114.066 31.7177,108.399 31.5,102.5C 31.5,102.167 31.5,101.833 31.5,101.5C 34.2154,95.5599 37.0487,89.5599 40,83.5C 40.49,82.2068 40.6567,80.8734 40.5,79.5C 43.8684,75.8209 47.0351,71.8209 50,67.5C 51.128,65.6547 51.628,63.6547 51.5,61.5C 53.5869,60.4154 54.9202,58.7488 55.5,56.5C 59.1573,52.5413 62.824,48.5413 66.5,44.5C 66.5,44.1667 66.5,43.8333 66.5,43.5C 70.3633,42.3064 73.3633,39.973 75.5,36.5C 77.9237,35.9695 80.257,35.1362 82.5,34C 85.5017,29.8427 89.5017,27.0093 94.5,25.5C 95.2975,25.0431 95.6309,24.3764 95.5,23.5C 107.077,19.8555 118.41,15.8555 129.5,11.5C 147.554,9.90665 165.554,10.4067 183.5,13C 188.972,15.1366 194.639,16.6366 200.5,17.5 Z"/></g>
<g><path style="opacity:0.91" fill="#fcca88" d="M 66.5,44.5 C 62.824,48.5413 59.1573,52.5413 55.5,56.5C 57.7964,51.2381 61.463,47.2381 66.5,44.5 Z"/></g>
<g><path style="opacity:0.945" fill="#fccb83" d="M 252.5,55.5 C 254.587,56.5846 255.92,58.2512 256.5,60.5C 254.413,59.4154 253.08,57.7488 252.5,55.5 Z"/></g>
<g><path style="opacity:0.698" fill="#fdc87b" d="M 55.5,56.5 C 54.9202,58.7488 53.5869,60.4154 51.5,61.5C 52.0798,59.2512 53.4131,57.5846 55.5,56.5 Z"/></g>
<g><path style="opacity:1" fill="#fbb85d" d="M 256.5,60.5 C 258.9,62.2964 260.567,64.6298 261.5,67.5C 257.639,66.7901 255.973,64.4567 256.5,60.5 Z"/></g>
<g><path style="opacity:1" fill="#f8bf6c" d="M 261.5,67.5 C 266.118,73.0665 269.452,79.3998 271.5,86.5C 266.853,80.8739 263.52,74.5406 261.5,67.5 Z"/></g>
<g><path style="opacity:1" fill="#f6b75d" d="M 51.5,61.5 C 51.628,63.6547 51.128,65.6547 50,67.5C 47.0351,71.8209 43.8684,75.8209 40.5,79.5C 42.1284,74.9099 44.2951,70.5765 47,66.5C 48.0491,64.3825 49.5491,62.7158 51.5,61.5 Z"/></g>
<g><path style="opacity:1" fill="#c2a540" d="M 197.5,82.5 C 193.466,82.5045 189.466,82.8379 185.5,83.5C 185.611,82.8826 185.944,82.3826 186.5,82C 190.358,81.1901 194.024,81.3567 197.5,82.5 Z"/></g>
<g><path style="opacity:1" fill="#4b4126" d="M 197.5,82.5 C 198.514,83.6737 199.847,84.3404 201.5,84.5C 201.5,84.8333 201.5,85.1667 201.5,85.5C 195.821,84.3274 190.155,84.3274 184.5,85.5C 184.833,84.8333 185.167,84.1667 185.5,83.5C 189.466,82.8379 193.466,82.5045 197.5,82.5 Z"/></g>
<g><path style="opacity:1" fill="#c8a938" d="M 127.5,103.5 C 127.666,99.4862 127.499,95.4862 127,91.5C 126.241,89.9371 125.074,88.9371 123.5,88.5C 118.487,82.4539 112.487,81.1206 105.5,84.5C 104.833,84.5 104.167,84.5 103.5,84.5C 104.347,83.0337 105.68,82.2004 107.5,82C 124.054,80.3811 130.721,87.5478 127.5,103.5 Z"/></g>
<g><path style="opacity:1" fill="#fac67c" d="M 40.5,79.5 C 40.6567,80.8734 40.49,82.2068 40,83.5C 37.0487,89.5599 34.2154,95.5599 31.5,101.5C 33.3443,93.6194 36.3443,86.2861 40.5,79.5 Z"/></g>
<g><path style="opacity:1" fill="#6c5d2b" d="M 201.5,85.5 C 201.5,85.1667 201.5,84.8333 201.5,84.5C 204.453,86.2476 206.953,88.5809 209,91.5C 209.815,96.3522 209.648,101.019 208.5,105.5C 208.825,100.401 208.325,95.4012 207,90.5C 204.971,88.9675 203.138,87.3008 201.5,85.5 Z"/></g>
<g><path style="opacity:1" fill="#5d4e24" d="M 103.5,84.5 C 104.167,84.5 104.833,84.5 105.5,84.5C 102.874,86.8235 100.207,89.1568 97.5,91.5C 98.412,89.4048 99.5787,87.4048 101,85.5C 101.671,84.7476 102.504,84.4142 103.5,84.5 Z"/></g>
<g><path style="opacity:1" fill="#7e6a2c" d="M 184.5,85.5 C 182.578,88.0843 180.745,90.751 179,93.5C 178.502,96.8168 178.335,100.15 178.5,103.5C 177.355,99.6888 177.188,95.6888 178,91.5C 179.535,88.7063 181.702,86.7063 184.5,85.5 Z"/></g>
<g><path style="opacity:1" fill="#32343a" d="M 201.5,85.5 C 203.138,87.3008 204.971,88.9675 207,90.5C 208.325,95.4012 208.825,100.401 208.5,105.5C 207.11,106.899 206.11,108.566 205.5,110.5C 203.598,111.368 201.765,112.368 200,113.5C 198.699,113.361 197.866,112.695 197.5,111.5C 196.11,105.082 192.443,103.082 186.5,105.5C 183.467,105.868 180.8,105.202 178.5,103.5C 178.335,100.15 178.502,96.8168 179,93.5C 180.745,90.751 182.578,88.0843 184.5,85.5C 190.155,84.3274 195.821,84.3274 201.5,85.5 Z"/></g>
<g><path style="opacity:1" fill="#fdb104" d="M 227.5,99.5 C 238.649,98.4892 243.482,103.489 242,114.5C 239.581,119.039 235.748,121.039 230.5,120.5C 227.989,120.712 225.822,120.045 224,118.5C 222.676,114.554 222.009,110.554 222,106.5C 223.117,105.051 223.784,103.384 224,101.5C 225.302,100.915 226.469,100.249 227.5,99.5 Z"/></g>
<g><path style="opacity:1" fill="#fbb862" d="M 271.5,86.5 C 275.203,92.9491 277.536,99.9491 278.5,107.5C 277.717,105.924 276.55,104.591 275,103.5C 274.546,97.6505 273.379,91.9838 271.5,86.5 Z"/></g>
<g><path style="opacity:1" fill="#60522a" d="M 186.5,105.5 C 192.443,103.082 196.11,105.082 197.5,111.5C 195.259,106.933 191.593,104.933 186.5,105.5 Z"/></g>
<g><path style="opacity:1" fill="#5c4f20" d="M 178.5,103.5 C 180.8,105.202 183.467,105.868 186.5,105.5C 184.485,106.924 182.152,107.59 179.5,107.5C 178.766,106.292 178.433,104.959 178.5,103.5 Z"/></g>
<g><path style="opacity:1" fill="#dcbc3e" d="M 95.5,93.5 C 95.5,96.5 95.5,99.5 95.5,102.5C 95.7549,104.967 96.7549,106.967 98.5,108.5C 99.1667,108.833 99.8333,109.167 100.5,109.5C 101.52,111.352 103.02,112.685 105,113.5C 107.302,111.2 109.802,109.2 112.5,107.5C 110.15,109.213 109.15,111.547 109.5,114.5C 103.527,114.729 98.6932,112.396 95,107.5C 94.1849,102.648 94.3516,97.9811 95.5,93.5 Z"/></g>
<g><path style="opacity:1" fill="#32343b" d="M 123.5,88.5 C 123.347,91.5772 124.014,94.4105 125.5,97C 125.227,99.1509 124.561,101.151 123.5,103C 120.167,103.333 116.833,103.667 113.5,104C 110.435,105.982 107.602,108.149 105,110.5C 103.467,110.227 101.967,109.894 100.5,109.5C 99.8333,109.167 99.1667,108.833 98.5,108.5C 98.2451,106.033 97.2451,104.033 95.5,102.5C 95.5,99.5 95.5,96.5 95.5,93.5C 96.5,93.1667 97.1667,92.5 97.5,91.5C 100.207,89.1568 102.874,86.8235 105.5,84.5C 112.487,81.1206 118.487,82.4539 123.5,88.5 Z"/></g>
<g><path style="opacity:1" fill="#fcb003" d="M 74.5,99.5 C 86.1518,97.8924 90.9851,102.892 89,114.5C 85.7231,120.109 80.8897,121.942 74.5,120C 68.7768,115.491 67.6102,109.991 71,103.5C 73.0714,102.897 74.2381,101.564 74.5,99.5 Z"/></g>
<g><path style="opacity:1" fill="#957f2c" d="M 95.5,102.5 C 97.2451,104.033 98.2451,106.033 98.5,108.5C 96.7549,106.967 95.7549,104.967 95.5,102.5 Z"/></g>
<g><path style="opacity:1" fill="#493f29" d="M 123.5,88.5 C 125.074,88.9371 126.241,89.9371 127,91.5C 127.499,95.4862 127.666,99.4862 127.5,103.5C 126.972,104.721 126.305,105.887 125.5,107C 122.436,107.149 119.436,106.649 116.5,105.5C 114.645,105.34 113.312,106.007 112.5,107.5C 109.802,109.2 107.302,111.2 105,113.5C 103.02,112.685 101.52,111.352 100.5,109.5C 101.967,109.894 103.467,110.227 105,110.5C 107.602,108.149 110.435,105.982 113.5,104C 116.833,103.667 120.167,103.333 123.5,103C 124.561,101.151 125.227,99.1509 125.5,97C 124.014,94.4105 123.347,91.5772 123.5,88.5 Z"/></g>
<g><path style="opacity:1" fill="#d6ba3e" d="M 186.5,105.5 C 191.593,104.933 195.259,106.933 197.5,111.5C 197.866,112.695 198.699,113.361 200,113.5C 201.765,112.368 203.598,111.368 205.5,110.5C 203.423,116.02 200.089,116.853 195.5,113C 192.998,106.074 188.498,104.574 182,108.5C 180.93,108.472 180.097,108.139 179.5,107.5C 182.152,107.59 184.485,106.924 186.5,105.5 Z"/></g>
<g><path style="opacity:0.502" fill="#f9bf68" d="M 31.5,102.5 C 31.7177,108.399 30.8843,114.066 29,119.5C 28.5002,128.827 28.3335,138.161 28.5,147.5C 27.508,140.018 27.1746,132.352 27.5,124.5C 27.5924,116.827 28.9257,109.493 31.5,102.5 Z"/></g>
<g><path style="opacity:0.929" fill="#fbc87c" d="M 278.5,107.5 C 283.337,125.304 283.67,143.304 279.5,161.5C 279.167,161.5 278.833,161.5 278.5,161.5C 278.552,157.802 278.886,154.135 279.5,150.5C 280.858,136.181 280.525,121.848 278.5,107.5 Z"/></g>
<g><path style="opacity:1" fill="#615120" d="M 189.5,135.5 C 191.467,135.261 193.301,135.594 195,136.5C 195.498,139.817 195.665,143.15 195.5,146.5C 195.5,146.833 195.5,147.167 195.5,147.5C 195.167,147.5 194.833,147.5 194.5,147.5C 194.5,144.167 194.5,140.833 194.5,137.5C 190.681,137.414 187.015,138.081 183.5,139.5C 185.364,137.986 187.364,136.653 189.5,135.5 Z"/></g>
<g><path style="opacity:1" fill="#b29636" d="M 189.5,135.5 C 191.288,134.378 193.288,134.211 195.5,135C 196.252,135.671 196.586,136.504 196.5,137.5C 196.81,140.713 196.477,143.713 195.5,146.5C 195.665,143.15 195.498,139.817 195,136.5C 193.301,135.594 191.467,135.261 189.5,135.5 Z"/></g>
<g><path style="opacity:1" fill="#8a7733" d="M 123.5,139.5 C 125.117,140.038 126.784,140.371 128.5,140.5C 130.076,141.143 131.41,142.143 132.5,143.5C 129.053,142.917 126.053,141.584 123.5,139.5 Z"/></g>
<g><path style="opacity:1" fill="#76672a" d="M 183.5,139.5 C 181.211,141.387 178.545,142.721 175.5,143.5C 175.5,143.167 175.5,142.833 175.5,142.5C 177.936,141.129 180.603,140.129 183.5,139.5 Z"/></g>
<g><path style="opacity:1" fill="#e0c142" d="M 128.5,140.5 C 129.5,140.5 130.5,140.5 131.5,140.5C 141.749,146.148 152.749,147.981 164.5,146C 167.86,143.936 171.526,142.769 175.5,142.5C 175.5,142.833 175.5,143.167 175.5,143.5C 170.471,145.839 165.138,147.172 159.5,147.5C 154.833,147.5 150.167,147.5 145.5,147.5C 140.886,147.023 136.553,145.69 132.5,143.5C 131.41,142.143 130.076,141.143 128.5,140.5 Z"/></g>
<g><path style="opacity:1" fill="#393a41" d="M 194.5,147.5 C 194.167,148.833 193.833,150.167 193.5,151.5C 192.71,150.391 192.21,149.058 192,147.5C 191.5,148.5 191,149.5 190.5,150.5C 184.811,151.972 179.311,151.638 174,149.5C 170.937,149.935 170.77,150.768 173.5,152C 170.761,153.673 168.095,153.339 165.5,151C 163.527,150.505 161.527,150.338 159.5,150.5C 164.298,149.082 169.132,147.415 174,145.5C 175.03,145.164 175.53,144.497 175.5,143.5C 178.545,142.721 181.211,141.387 183.5,139.5C 187.015,138.081 190.681,137.414 194.5,137.5C 194.5,140.833 194.5,144.167 194.5,147.5 Z"/></g>
<g><path style="opacity:1" fill="#4c4531" d="M 175.5,143.5 C 175.53,144.497 175.03,145.164 174,145.5C 169.132,147.415 164.298,149.082 159.5,150.5C 155.629,150.815 151.962,150.482 148.5,149.5C 151.85,149.665 155.183,149.498 158.5,149C 159.056,148.617 159.389,148.117 159.5,147.5C 165.138,147.172 170.471,145.839 175.5,143.5 Z"/></g>
<g><path style="opacity:1" fill="#fed530" d="M 265.5,153.5 C 264.766,154.929 263.599,155.929 262,156.5C 260.333,155.833 258.667,155.167 257,154.5C 254.849,155.732 252.683,155.732 250.5,154.5C 241.345,156.948 232.012,157.948 222.5,157.5C 216.833,157.167 211.167,156.833 205.5,156.5C 203.585,154.929 202.585,152.929 202.5,150.5C 203.458,150.953 204.292,151.619 205,152.5C 205.483,151.552 205.649,150.552 205.5,149.5C 221.988,149.847 238.154,149.18 254,147.5C 256.726,150.051 259.393,150.384 262,148.5C 263.775,149.77 264.942,151.436 265.5,153.5 Z"/></g>
<g><path style="opacity:1" fill="#99894b" d="M 194.5,147.5 C 194.833,147.5 195.167,147.5 195.5,147.5C 195.022,154.108 193.022,160.108 189.5,165.5C 186.5,168.833 183.5,172.167 180.5,175.5C 180.167,175.5 179.833,175.5 179.5,175.5C 179.5,175.167 179.5,174.833 179.5,174.5C 182.802,171.026 185.968,167.359 189,163.5C 190.445,160.91 191.612,158.243 192.5,155.5C 192.833,154.167 193.167,152.833 193.5,151.5C 193.833,150.167 194.167,148.833 194.5,147.5 Z"/></g>
<g><path style="opacity:1" fill="#fed534" d="M 41.5,128.5 C 42.1665,133.681 42.8332,139.015 43.5,144.5C 44.5407,146.991 45.3741,146.991 46,144.5C 46.2833,147.742 47.1166,148.076 48.5,145.5C 51.4032,145.694 54.2366,145.694 57,145.5C 70.4387,151.29 84.272,152.957 98.5,150.5C 100.116,151.115 101.449,152.115 102.5,153.5C 104.071,152.691 105.738,152.357 107.5,152.5C 107.5,150.5 107.5,148.5 107.5,146.5C 107.351,145.448 107.517,144.448 108,143.5C 109.819,148.781 111.319,154.114 112.5,159.5C 111.178,159.33 110.011,159.663 109,160.5C 108.385,158.884 107.385,157.551 106,156.5C 103.398,157.451 101.065,158.784 99,160.5C 92.8286,157.674 87.1619,158.341 82,162.5C 80.2141,159.638 77.8808,158.972 75,160.5C 74.6667,159.833 74.3333,159.167 74,158.5C 72.1568,158.439 70.3234,158.773 68.5,159.5C 62.043,157.569 55.3763,157.069 48.5,158C 46.7663,160.057 44.7663,160.557 42.5,159.5C 41.5014,149.188 41.1681,138.855 41.5,128.5 Z"/></g>
<g><path style="opacity:1" fill="#43454c" d="M 119.5,137.5 C 121.062,137.733 122.395,138.4 123.5,139.5C 126.053,141.584 129.053,142.917 132.5,143.5C 136.553,145.69 140.886,147.023 145.5,147.5C 146.29,148.401 147.29,149.068 148.5,149.5C 151.962,150.482 155.629,150.815 159.5,150.5C 161.527,150.338 163.527,150.505 165.5,151C 168.095,153.339 170.761,153.673 173.5,152C 170.77,150.768 170.937,149.935 174,149.5C 179.311,151.638 184.811,151.972 190.5,150.5C 191,149.5 191.5,148.5 192,147.5C 192.21,149.058 192.71,150.391 193.5,151.5C 193.167,152.833 192.833,154.167 192.5,155.5C 190.956,155.703 189.622,156.37 188.5,157.5C 185.53,157.706 182.53,157.373 179.5,156.5C 173.664,157.225 167.998,158.559 162.5,160.5C 162.5,159.5 162.5,158.5 162.5,157.5C 150.449,157.187 138.449,157.521 126.5,158.5C 124.807,156.973 122.973,155.64 121,154.5C 119.397,154.871 117.897,155.205 116.5,155.5C 112.965,150.127 111.632,144.127 112.5,137.5C 114.833,137.5 117.167,137.5 119.5,137.5 Z"/></g>
<g><path style="opacity:1" fill="#87783c" d="M 145.5,147.5 C 150.167,147.5 154.833,147.5 159.5,147.5C 159.389,148.117 159.056,148.617 158.5,149C 155.183,149.498 151.85,149.665 148.5,149.5C 147.29,149.068 146.29,148.401 145.5,147.5 Z"/></g>
<g><path style="opacity:1" fill="#fad441" d="M 131.5,140.5 C 130.5,140.5 129.5,140.5 128.5,140.5C 126.784,140.371 125.117,140.038 123.5,139.5C 122.395,138.4 121.062,137.733 119.5,137.5C 116.665,135.082 113.831,135.082 111,137.5C 110.637,144.323 111.471,150.99 113.5,157.5C 114.395,160.738 114.395,163.905 113.5,167C 114.563,168.188 115.897,168.688 117.5,168.5C 117.833,171.5 116.5,172.833 113.5,172.5C 113.5,171.167 113.5,169.833 113.5,168.5C 111.861,168.074 110.528,168.074 109.5,168.5C 105.47,165.571 100.97,163.571 96,162.5C 90.0333,163.431 84.5333,165.431 79.5,168.5C 78.3049,166.703 76.6382,165.703 74.5,165.5C 72.8061,163.139 70.8061,161.139 68.5,159.5C 70.3234,158.773 72.1568,158.439 74,158.5C 74.3333,159.167 74.6667,159.833 75,160.5C 77.8808,158.972 80.2141,159.638 82,162.5C 87.1619,158.341 92.8286,157.674 99,160.5C 101.065,158.784 103.398,157.451 106,156.5C 107.385,157.551 108.385,158.884 109,160.5C 110.011,159.663 111.178,159.33 112.5,159.5C 111.319,154.114 109.819,148.781 108,143.5C 107.517,144.448 107.351,145.448 107.5,146.5C 104.449,139.23 106.782,134.897 114.5,133.5C 117.433,134.279 120.266,135.279 123,136.5C 125.412,135.701 127.912,135.868 130.5,137C 129.5,137.333 128.5,137.667 127.5,138C 128.858,138.934 130.192,139.768 131.5,140.5 Z"/></g>
<g><path style="opacity:1" fill="#fdd642" d="M 196.5,137.5 C 197.777,138.694 198.444,140.36 198.5,142.5C 198.428,145.969 197.761,149.302 196.5,152.5C 196.569,154.709 197.236,156.709 198.5,158.5C 199.318,155.893 199.818,153.226 200,150.5C 200.77,149.402 201.603,149.402 202.5,150.5C 202.585,152.929 203.585,154.929 205.5,156.5C 211.167,156.833 216.833,157.167 222.5,157.5C 232.012,157.948 241.345,156.948 250.5,154.5C 252.683,155.732 254.849,155.732 257,154.5C 258.667,155.167 260.333,155.833 262,156.5C 263.599,155.929 264.766,154.929 265.5,153.5C 265.5,155.167 265.5,156.833 265.5,158.5C 263.097,158.552 260.764,158.219 258.5,157.5C 252.568,157.05 246.901,157.884 241.5,160C 238.606,163.398 235.272,166.231 231.5,168.5C 227.959,166.47 224.292,164.637 220.5,163C 216.833,162.333 213.167,162.333 209.5,163C 208.584,163.278 207.918,163.778 207.5,164.5C 205.596,164.738 204.262,165.738 203.5,167.5C 201.291,168.92 199.291,170.587 197.5,172.5C 197.631,171.761 197.464,171.094 197,170.5C 194.281,171.444 191.448,171.777 188.5,171.5C 188.517,169.435 188.85,167.435 189.5,165.5C 193.022,160.108 195.022,154.108 195.5,147.5C 195.5,147.167 195.5,146.833 195.5,146.5C 196.477,143.713 196.81,140.713 196.5,137.5 Z"/></g>
<g><path style="opacity:1" fill="#57555c" d="M 192.5,155.5 C 191.612,158.243 190.445,160.91 189,163.5C 185.968,167.359 182.802,171.026 179.5,174.5C 177.073,170.895 174.407,167.395 171.5,164C 169.285,163.83 167.285,163.163 165.5,162C 163.833,161.333 162.167,161.333 160.5,162C 158.919,163.828 157.585,165.828 156.5,168C 154.866,168.494 153.199,168.66 151.5,168.5C 150.882,164.715 148.715,162.382 145,161.5C 142.992,161.307 141.492,161.974 140.5,163.5C 135.167,165.5 131.5,169.167 129.5,174.5C 129.158,175.338 128.492,175.672 127.5,175.5C 124.032,172.544 121.032,169.211 118.5,165.5C 118.5,164.833 118.5,164.167 118.5,163.5C 118.306,160.67 117.639,158.004 116.5,155.5C 117.897,155.205 119.397,154.871 121,154.5C 122.973,155.64 124.807,156.973 126.5,158.5C 138.449,157.521 150.449,157.187 162.5,157.5C 162.5,158.5 162.5,159.5 162.5,160.5C 167.998,158.559 173.664,157.225 179.5,156.5C 182.53,157.373 185.53,157.706 188.5,157.5C 189.622,156.37 190.956,155.703 192.5,155.5 Z"/></g>
<g><path style="opacity:1" fill="#665b36" d="M 119.5,137.5 C 117.167,137.5 114.833,137.5 112.5,137.5C 111.632,144.127 112.965,150.127 116.5,155.5C 117.639,158.004 118.306,160.67 118.5,163.5C 117.5,162.167 116.5,160.833 115.5,159.5C 114.833,158.833 114.167,158.167 113.5,157.5C 111.471,150.99 110.637,144.323 111,137.5C 113.831,135.082 116.665,135.082 119.5,137.5 Z"/></g>
<g><path style="opacity:1" fill="#b8a559" d="M 115.5,159.5 C 116.5,160.833 117.5,162.167 118.5,163.5C 118.5,164.167 118.5,164.833 118.5,165.5C 116.031,164.393 115.031,162.393 115.5,159.5 Z"/></g>
<g><path style="opacity:1" fill="#ab5d63" d="M 179.5,174.5 C 179.5,174.833 179.5,175.167 179.5,175.5C 179.167,175.5 178.833,175.5 178.5,175.5C 177.833,175.5 177.5,175.167 177.5,174.5C 174.848,168.683 170.348,165.349 164,164.5C 162.167,164.519 160.667,165.185 159.5,166.5C 157.96,170.053 155.293,171.22 151.5,170C 150.167,168 148.833,166 147.5,164C 145.19,163.503 142.857,163.337 140.5,163.5C 141.492,161.974 142.992,161.307 145,161.5C 148.715,162.382 150.882,164.715 151.5,168.5C 153.199,168.66 154.866,168.494 156.5,168C 157.585,165.828 158.919,163.828 160.5,162C 162.167,161.333 163.833,161.333 165.5,162C 167.285,163.163 169.285,163.83 171.5,164C 174.407,167.395 177.073,170.895 179.5,174.5 Z"/></g>
<g><path style="opacity:1" fill="#fcaf2b" d="M 268.5,143.5 C 268.334,147.846 268.501,152.179 269,156.5C 272.114,152.319 273.948,152.985 274.5,158.5C 275.314,156.234 275.814,153.9 276,151.5C 277.011,150.663 278.178,150.33 279.5,150.5C 278.886,154.135 278.552,157.802 278.5,161.5C 276.818,162.827 275.485,164.494 274.5,166.5C 273.518,167.141 272.518,167.807 271.5,168.5C 266.09,167.069 260.923,165.736 256,164.5C 249.915,165.312 243.748,165.812 237.5,166C 231.595,172 226.095,171.5 221,164.5C 216.669,164.682 212.169,164.682 207.5,164.5C 207.918,163.778 208.584,163.278 209.5,163C 213.167,162.333 216.833,162.333 220.5,163C 224.292,164.637 227.959,166.47 231.5,168.5C 235.272,166.231 238.606,163.398 241.5,160C 246.901,157.884 252.568,157.05 258.5,157.5C 260.081,159.086 262.081,160.086 264.5,160.5C 265.086,160.291 265.586,159.957 266,159.5C 267.011,154.064 267.844,148.73 268.5,143.5 Z"/></g>
<g><path style="opacity:0.604" fill="#fbd69b" d="M 278.5,161.5 C 278.833,161.5 279.167,161.5 279.5,161.5C 279.068,165.499 278.068,169.332 276.5,173C 280.163,173.572 283.497,174.738 286.5,176.5C 282.928,176.062 279.428,175.396 276,174.5C 276.184,170.098 277.018,165.765 278.5,161.5 Z"/></g>
<g><path style="opacity:0.522" fill="#fcda9f" d="M 27.5,124.5 C 27.1746,132.352 27.508,140.018 28.5,147.5C 28.5,148.167 28.5,148.833 28.5,149.5C 29.0085,154.872 29.8419,160.205 31,165.5C 31.2784,166.416 31.7784,167.082 32.5,167.5C 32.6633,169.857 32.4966,172.19 32,174.5C 30.0517,175.109 28.2184,175.776 26.5,176.5C 23.5251,177.655 20.8584,179.322 18.5,181.5C 21.0052,176.865 25.0052,174.365 30.5,174C 31.0219,173.439 31.3552,172.772 31.5,172C 26.831,156.286 25.4977,140.453 27.5,124.5 Z"/></g>
<g><path style="opacity:1" fill="#fdb234" d="M 42.5,111.5 C 42.0932,117.161 41.7599,122.828 41.5,128.5C 41.1681,138.855 41.5014,149.188 42.5,159.5C 44.7663,160.557 46.7663,160.057 48.5,158C 55.3763,157.069 62.043,157.569 68.5,159.5C 70.8061,161.139 72.8061,163.139 74.5,165.5C 73.9569,165.56 73.6236,165.893 73.5,166.5C 74.1667,167.5 74.8333,168.5 75.5,169.5C 73.6769,170.491 72.1769,171.824 71,173.5C 69.4933,171.992 67.8267,170.659 66,169.5C 65.6667,169.833 65.3333,170.167 65,170.5C 61.6336,169.626 58.3002,168.626 55,167.5C 52.9545,169.882 50.6211,171.882 48,173.5C 47.0764,171.505 45.9097,171.172 44.5,172.5C 41.9796,171.45 40.6462,172.45 40.5,175.5C 39.0222,175.762 37.6888,175.429 36.5,174.5C 36.2201,171.425 34.8868,169.092 32.5,167.5C 31.7784,167.082 31.2784,166.416 31,165.5C 29.8419,160.205 29.0085,154.872 28.5,149.5C 29.5783,151.539 30.5783,153.706 31.5,156C 33.2556,156.202 34.9223,156.702 36.5,157.5C 37.9828,159.946 39.1495,159.612 40,156.5C 40.4233,149.496 40.2566,142.496 39.5,135.5C 39.7831,127.268 40.7831,119.268 42.5,111.5 Z"/></g>
<g><path style="opacity:1" fill="#975d63" d="M 140.5,163.5 C 136.817,166.185 133.817,169.518 131.5,173.5C 130.833,173.833 130.167,174.167 129.5,174.5C 131.5,169.167 135.167,165.5 140.5,163.5 Z"/></g>
<g><path style="opacity:1" fill="#fcb73f" d="M 109.5,168.5 C 110.441,170.05 111.107,171.716 111.5,173.5C 111.5,175.167 111.5,176.833 111.5,178.5C 109.856,178.714 108.356,178.38 107,177.5C 103.896,180.429 101.396,179.929 99.5,176C 97.4664,174.994 95.2998,174.494 93,174.5C 88.7794,175.29 85.1128,175.29 82,174.5C 81,175.167 80,175.833 79,176.5C 77.2438,175.452 75.4104,175.452 73.5,176.5C 69.3541,174.231 65.0208,172.564 60.5,171.5C 58.3718,170.371 56.0385,170.204 53.5,171C 52.1068,172.171 51.2735,173.671 51,175.5C 49.0438,175.216 46.8771,175.216 44.5,175.5C 44.5,174.5 44.5,173.5 44.5,172.5C 45.9097,171.172 47.0764,171.505 48,173.5C 50.6211,171.882 52.9545,169.882 55,167.5C 58.3002,168.626 61.6336,169.626 65,170.5C 65.3333,170.167 65.6667,169.833 66,169.5C 67.8267,170.659 69.4933,171.992 71,173.5C 72.1769,171.824 73.6769,170.491 75.5,169.5C 74.8333,168.5 74.1667,167.5 73.5,166.5C 73.6236,165.893 73.9569,165.56 74.5,165.5C 76.6382,165.703 78.3049,166.703 79.5,168.5C 84.5333,165.431 90.0333,163.431 96,162.5C 100.97,163.571 105.47,165.571 109.5,168.5 Z"/></g>
<g><path style="opacity:1" fill="#fb646d" d="M 177.5,174.5 C 170.916,173.916 164.582,173.916 158.5,174.5C 158.167,173.833 157.833,173.167 157.5,172.5C 158.651,170.675 159.318,168.675 159.5,166.5C 160.667,165.185 162.167,164.519 164,164.5C 170.348,165.349 174.848,168.683 177.5,174.5 Z"/></g>
<g><path style="opacity:1" fill="#fdb43c" d="M 207.5,164.5 C 212.169,164.682 216.669,164.682 221,164.5C 226.095,171.5 231.595,172 237.5,166C 243.748,165.812 249.915,165.312 256,164.5C 260.923,165.736 266.09,167.069 271.5,168.5C 272.518,167.807 273.518,167.141 274.5,166.5C 274.66,168.199 274.494,169.866 274,171.5C 273.667,171.167 273.333,170.833 273,170.5C 272.612,171.428 271.945,172.095 271,172.5C 267.685,171.42 264.685,171.42 262,172.5C 256.855,169.089 251.355,168.589 245.5,171C 244.069,172.562 242.569,174.062 241,175.5C 240.167,174.5 239.333,173.5 238.5,172.5C 237.833,173.167 237.167,173.833 236.5,174.5C 233.933,174.222 231.267,174.056 228.5,174C 228,173.5 227.5,173 227,172.5C 225.542,173.747 224.042,173.747 222.5,172.5C 221.252,173.04 220.085,173.707 219,174.5C 214.944,173.609 211.111,172.943 207.5,172.5C 205.422,174.986 202.755,175.986 199.5,175.5C 200.308,172.55 201.642,169.883 203.5,167.5C 204.262,165.738 205.596,164.738 207.5,164.5 Z"/></g>
<g><path style="opacity:1" fill="#fdbd50" d="M 278.5,161.5 C 277.018,165.765 276.184,170.098 276,174.5C 279.428,175.396 282.928,176.062 286.5,176.5C 286.5,177.5 286.5,178.5 286.5,179.5C 287.5,179.5 288.5,179.5 289.5,179.5C 290.167,181.833 290.833,184.167 291.5,186.5C 288.05,184.029 284.05,182.863 279.5,183C 276.136,179.759 273.803,180.592 272.5,185.5C 271.667,184.5 270.833,183.5 270,182.5C 267.765,183.239 265.765,183.239 264,182.5C 262,185.167 260,185.167 258,182.5C 257.085,183.328 256.419,184.328 256,185.5C 255.601,185.272 255.435,184.938 255.5,184.5C 260.135,170.701 256.135,167.701 243.5,175.5C 242.6,178.716 240.933,181.382 238.5,183.5C 237.5,183.833 236.833,184.5 236.5,185.5C 234.231,187.582 231.731,189.582 229,191.5C 227.36,190.875 225.527,190.875 223.5,191.5C 224.443,185.797 223.11,180.797 219.5,176.5C 217.235,175.353 214.902,175.186 212.5,176C 211.177,176.816 210.511,177.983 210.5,179.5C 208.674,180.438 206.841,181.438 205,182.5C 202.942,181.706 200.942,181.373 199,181.5C 198.667,182.167 198.333,182.833 198,183.5C 197.833,182.167 197.667,180.833 197.5,179.5C 197.585,177.667 198.252,176.334 199.5,175.5C 202.755,175.986 205.422,174.986 207.5,172.5C 211.111,172.943 214.944,173.609 219,174.5C 220.085,173.707 221.252,173.04 222.5,172.5C 224.042,173.747 225.542,173.747 227,172.5C 227.5,173 228,173.5 228.5,174C 231.267,174.056 233.933,174.222 236.5,174.5C 237.167,173.833 237.833,173.167 238.5,172.5C 239.333,173.5 240.167,174.5 241,175.5C 242.569,174.062 244.069,172.562 245.5,171C 251.355,168.589 256.855,169.089 262,172.5C 264.685,171.42 267.685,171.42 271,172.5C 271.945,172.095 272.612,171.428 273,170.5C 273.333,170.833 273.667,171.167 274,171.5C 274.494,169.866 274.66,168.199 274.5,166.5C 275.485,164.494 276.818,162.827 278.5,161.5 Z"/></g>
<g><path style="opacity:1" fill="#fdbe4f" d="M 60.5,171.5 C 65.0208,172.564 69.3541,174.231 73.5,176.5C 75.4104,175.452 77.2438,175.452 79,176.5C 80,175.833 81,175.167 82,174.5C 85.1128,175.29 88.7794,175.29 93,174.5C 95.2998,174.494 97.4664,174.994 99.5,176C 101.396,179.929 103.896,180.429 107,177.5C 108.356,178.38 109.856,178.714 111.5,178.5C 111.5,176.833 111.5,175.167 111.5,173.5C 113.293,175.426 114.293,177.759 114.5,180.5C 114.719,181.675 114.386,182.675 113.5,183.5C 110.859,182.29 108.193,182.29 105.5,183.5C 103.235,182.568 101.235,181.235 99.5,179.5C 93.4529,174.679 89.4529,176.012 87.5,183.5C 87.6495,182.448 87.4828,181.448 87,180.5C 85.8181,182.235 84.1515,183.235 82,183.5C 78.5467,183.705 75.0467,183.372 71.5,182.5C 68.7712,177.771 65.1045,174.104 60.5,171.5 Z"/></g>
<g><path style="opacity:1" fill="#febd56" d="M 32.5,167.5 C 34.8868,169.092 36.2201,171.425 36.5,174.5C 37.6888,175.429 39.0222,175.762 40.5,175.5C 40.6462,172.45 41.9796,171.45 44.5,172.5C 44.5,173.5 44.5,174.5 44.5,175.5C 46.8771,175.216 49.0438,175.216 51,175.5C 51.2735,173.671 52.1068,172.171 53.5,171C 56.0385,170.204 58.3718,170.371 60.5,171.5C 58.2075,171.244 56.0408,171.577 54,172.5C 53.3219,176.221 53.4886,179.888 54.5,183.5C 53.2089,184.542 53.2089,185.708 54.5,187C 47.3669,187.617 40.5336,187.45 34,186.5C 30.3219,187.007 26.9886,188.34 24,190.5C 22.7308,189.095 22.2308,187.429 22.5,185.5C 21.5,185.5 20.5,185.5 19.5,185.5C 19.3505,184.448 19.5172,183.448 20,182.5C 22.3353,180.6 24.502,178.6 26.5,176.5C 28.2184,175.776 30.0517,175.109 32,174.5C 32.4966,172.19 32.6633,169.857 32.5,167.5 Z"/></g>
<g><path style="opacity:1" fill="#fbde66" d="M 113.5,157.5 C 114.167,158.167 114.833,158.833 115.5,159.5C 115.031,162.393 116.031,164.393 118.5,165.5C 121.032,169.211 124.032,172.544 127.5,175.5C 128.167,176.833 129.167,177.833 130.5,178.5C 130.488,181.142 131.821,182.475 134.5,182.5C 136.545,183.923 137.545,185.923 137.5,188.5C 132.602,187.644 127.935,185.977 123.5,183.5C 122.184,186.028 121.017,186.028 120,183.5C 119.586,183.957 119.086,184.291 118.5,184.5C 117.85,182.816 116.85,181.483 115.5,180.5C 115.167,180.5 114.833,180.5 114.5,180.5C 114.293,177.759 113.293,175.426 111.5,173.5C 111.107,171.716 110.441,170.05 109.5,168.5C 110.528,168.074 111.861,168.074 113.5,168.5C 113.5,169.833 113.5,171.167 113.5,172.5C 116.5,172.833 117.833,171.5 117.5,168.5C 115.897,168.688 114.563,168.188 113.5,167C 114.395,163.905 114.395,160.738 113.5,157.5 Z"/></g>
<g><path style="opacity:1" fill="#fb7075" d="M 140.5,163.5 C 142.857,163.337 145.19,163.503 147.5,164C 148.833,166 150.167,168 151.5,170C 155.293,171.22 157.96,170.053 159.5,166.5C 159.318,168.675 158.651,170.675 157.5,172.5C 157.833,173.167 158.167,173.833 158.5,174.5C 164.582,173.916 170.916,173.916 177.5,174.5C 177.5,175.167 177.833,175.5 178.5,175.5C 178.056,177.113 177.056,178.28 175.5,179C 164.536,183.238 153.203,184.572 141.5,183C 140.263,182.768 139.263,182.268 138.5,181.5C 136.572,179.753 134.406,178.087 132,176.5C 131.517,175.552 131.351,174.552 131.5,173.5C 133.817,169.518 136.817,166.185 140.5,163.5 Z"/></g>
<g><path style="opacity:1" fill="#f3936d" d="M 131.5,173.5 C 131.351,174.552 131.517,175.552 132,176.5C 134.406,178.087 136.572,179.753 138.5,181.5C 135.385,181.606 132.719,180.606 130.5,178.5C 129.167,177.833 128.167,176.833 127.5,175.5C 128.492,175.672 129.158,175.338 129.5,174.5C 130.167,174.167 130.833,173.833 131.5,173.5 Z"/></g>
<g><path style="opacity:1" fill="#fedf67" d="M 60.5,171.5 C 65.1045,174.104 68.7712,177.771 71.5,182.5C 71.5,182.833 71.5,183.167 71.5,183.5C 69.5965,184.357 67.5965,185.023 65.5,185.5C 63.131,183.697 60.631,183.03 58,183.5C 57.5357,184.094 57.369,184.761 57.5,185.5C 56.5,184.833 55.5,184.167 54.5,183.5C 53.4886,179.888 53.3219,176.221 54,172.5C 56.0408,171.577 58.2075,171.244 60.5,171.5 Z"/></g>
<g><path style="opacity:1" fill="#fedf67" d="M 255.5,184.5 C 254.508,184.328 253.842,184.662 253.5,185.5C 252.603,184.402 251.77,184.402 251,185.5C 250.692,184.692 250.192,184.025 249.5,183.5C 245.758,186.148 242.092,186.148 238.5,183.5C 240.933,181.382 242.6,178.716 243.5,175.5C 256.135,167.701 260.135,170.701 255.5,184.5 Z"/></g>
<g><path style="opacity:1" fill="#fede6d" d="M 223.5,191.5 C 222.833,191.5 222.167,191.5 221.5,191.5C 221.66,189.801 221.494,188.134 221,186.5C 220.085,187.328 219.419,188.328 219,189.5C 216.975,187.275 214.642,186.941 212,188.5C 211.085,187.672 210.419,186.672 210,185.5C 209.292,186.381 208.458,187.047 207.5,187.5C 208.552,184.807 209.552,182.14 210.5,179.5C 210.511,177.983 211.177,176.816 212.5,176C 214.902,175.186 217.235,175.353 219.5,176.5C 223.11,180.797 224.443,185.797 223.5,191.5 Z"/></g>
<g><path style="opacity:1" fill="#fdc465" d="M 291.5,186.5 C 291.805,192.256 289.139,195.256 283.5,195.5C 283.843,193.517 283.176,192.183 281.5,191.5C 280.769,189.111 279.102,187.777 276.5,187.5C 273.159,188.848 269.826,190.181 266.5,191.5C 265.448,191.351 264.448,191.517 263.5,192C 260.374,196.241 256.374,197.408 251.5,195.5C 249.941,196.074 248.441,196.74 247,197.5C 245.984,196.366 245.317,196.699 245,198.5C 244.617,197.944 244.117,197.611 243.5,197.5C 247.293,193.923 250.626,189.923 253.5,185.5C 253.842,184.662 254.508,184.328 255.5,184.5C 255.435,184.938 255.601,185.272 256,185.5C 256.419,184.328 257.085,183.328 258,182.5C 260,185.167 262,185.167 264,182.5C 265.765,183.239 267.765,183.239 270,182.5C 270.833,183.5 271.667,184.5 272.5,185.5C 273.803,180.592 276.136,179.759 279.5,183C 284.05,182.863 288.05,184.029 291.5,186.5 Z"/></g>
<g><path style="opacity:1" fill="#fcc676" d="M 178.5,175.5 C 178.833,175.5 179.167,175.5 179.5,175.5C 179.833,175.5 180.167,175.5 180.5,175.5C 179.883,177.229 178.883,178.729 177.5,180C 171.709,181.264 166.042,182.931 160.5,185C 151.544,186.134 142.878,185.3 134.5,182.5C 131.821,182.475 130.488,181.142 130.5,178.5C 132.719,180.606 135.385,181.606 138.5,181.5C 139.263,182.268 140.263,182.768 141.5,183C 153.203,184.572 164.536,183.238 175.5,179C 177.056,178.28 178.056,177.113 178.5,175.5 Z"/></g>
<g><path style="opacity:1" fill="#fee173" d="M 99.5,179.5 C 100.601,183.488 102.267,187.155 104.5,190.5C 99.2998,191.963 94.2998,192.63 89.5,192.5C 89.1667,192.5 88.8333,192.5 88.5,192.5C 87.5975,189.609 87.2641,186.609 87.5,183.5C 89.4529,176.012 93.4529,174.679 99.5,179.5 Z"/></g>
<g><path style="opacity:1" fill="#fee275" d="M 189.5,165.5 C 188.85,167.435 188.517,169.435 188.5,171.5C 191.448,171.777 194.281,171.444 197,170.5C 197.464,171.094 197.631,171.761 197.5,172.5C 195.759,178.304 193.759,183.971 191.5,189.5C 190.778,190.551 189.778,191.218 188.5,191.5C 184.941,191.284 181.441,191.618 178,192.5C 176.503,191.523 175.003,190.523 173.5,189.5C 169.293,191.676 164.96,192.01 160.5,190.5C 154.5,191.167 148.5,191.833 142.5,192.5C 140.278,191.222 137.944,190.222 135.5,189.5C 130.953,190.95 126.286,191.784 121.5,192C 122.252,192.671 122.586,193.504 122.5,194.5C 121.542,194.047 120.708,193.381 120,192.5C 118.2,188.574 116.7,184.574 115.5,180.5C 116.85,181.483 117.85,182.816 118.5,184.5C 119.086,184.291 119.586,183.957 120,183.5C 121.017,186.028 122.184,186.028 123.5,183.5C 127.935,185.977 132.602,187.644 137.5,188.5C 137.545,185.923 136.545,183.923 134.5,182.5C 142.878,185.3 151.544,186.134 160.5,185C 166.042,182.931 171.709,181.264 177.5,180C 178.883,178.729 179.883,177.229 180.5,175.5C 183.5,172.167 186.5,168.833 189.5,165.5 Z"/></g>
<g><path style="opacity:1" fill="#fdc665" d="M 87.5,183.5 C 87.2641,186.609 87.5975,189.609 88.5,192.5C 87.1548,196.457 84.4881,197.457 80.5,195.5C 80.2914,194.078 79.7914,192.745 79,191.5C 76.7155,188.568 74.2155,185.902 71.5,183.5C 71.5,183.167 71.5,182.833 71.5,182.5C 75.0467,183.372 78.5467,183.705 82,183.5C 84.1515,183.235 85.8181,182.235 87,180.5C 87.4828,181.448 87.6495,182.448 87.5,183.5 Z"/></g>
<g><path style="opacity:1" fill="#fcc762" d="M 203.5,167.5 C 201.642,169.883 200.308,172.55 199.5,175.5C 198.252,176.334 197.585,177.667 197.5,179.5C 197.667,180.833 197.833,182.167 198,183.5C 198.333,182.833 198.667,182.167 199,181.5C 200.942,181.373 202.942,181.706 205,182.5C 206.841,181.438 208.674,180.438 210.5,179.5C 209.552,182.14 208.552,184.807 207.5,187.5C 205.863,189.316 204.363,191.316 203,193.5C 201.015,189.486 198.348,188.819 195,191.5C 194.259,190.359 193.425,190.359 192.5,191.5C 191.702,191.043 191.369,190.376 191.5,189.5C 193.759,183.971 195.759,178.304 197.5,172.5C 199.291,170.587 201.291,168.92 203.5,167.5 Z"/></g>
<g><path style="opacity:1" fill="#fee582" d="M 188.5,191.5 C 187.343,193.678 186.01,195.678 184.5,197.5C 165.219,197.609 145.386,197.609 125,197.5C 124.292,196.619 123.458,195.953 122.5,195.5C 122.5,195.167 122.5,194.833 122.5,194.5C 122.586,193.504 122.252,192.671 121.5,192C 126.286,191.784 130.953,190.95 135.5,189.5C 137.944,190.222 140.278,191.222 142.5,192.5C 148.5,191.833 154.5,191.167 160.5,190.5C 164.96,192.01 169.293,191.676 173.5,189.5C 175.003,190.523 176.503,191.523 178,192.5C 181.441,191.618 184.941,191.284 188.5,191.5 Z"/></g>
<g><path style="opacity:1" fill="#fee37d" d="M 71.5,183.5 C 74.2155,185.902 76.7155,188.568 79,191.5C 79.7914,192.745 80.2914,194.078 80.5,195.5C 80.5,196.167 80.5,196.833 80.5,197.5C 76.1356,197.562 71.4689,197.562 66.5,197.5C 63.182,193.693 60.182,189.693 57.5,185.5C 57.369,184.761 57.5357,184.094 58,183.5C 60.631,183.03 63.131,183.697 65.5,185.5C 67.5965,185.023 69.5965,184.357 71.5,183.5 Z"/></g>
<g><path style="opacity:1" fill="#fee47e" d="M 238.5,183.5 C 242.092,186.148 245.758,186.148 249.5,183.5C 250.192,184.025 250.692,184.692 251,185.5C 251.77,184.402 252.603,184.402 253.5,185.5C 250.626,189.923 247.293,193.923 243.5,197.5C 242.5,198.167 241.5,198.833 240.5,199.5C 236.603,200.371 232.603,200.371 228.5,199.5C 229.176,197.141 230.009,194.808 231,192.5C 233.325,190.499 235.158,188.166 236.5,185.5C 236.833,184.5 237.5,183.833 238.5,183.5 Z"/></g>
<g><path style="opacity:1" fill="#fdc86d" d="M 26.5,176.5 C 24.502,178.6 22.3353,180.6 20,182.5C 19.5172,183.448 19.3505,184.448 19.5,185.5C 20.5,185.5 21.5,185.5 22.5,185.5C 22.2308,187.429 22.7308,189.095 24,190.5C 26.9886,188.34 30.3219,187.007 34,186.5C 40.5336,187.45 47.3669,187.617 54.5,187C 53.2089,185.708 53.2089,184.542 54.5,183.5C 55.5,184.167 56.5,184.833 57.5,185.5C 60.182,189.693 63.182,193.693 66.5,197.5C 66.5,197.833 66.5,198.167 66.5,198.5C 64.9681,199.37 63.4681,199.036 62,197.5C 59.9935,198.669 57.8268,199.335 55.5,199.5C 51.5278,198.355 48.5278,196.022 46.5,192.5C 42.0094,190.59 37.3427,189.257 32.5,188.5C 30.6455,188.34 29.3121,189.007 28.5,190.5C 27.6981,191.952 27.1981,193.618 27,195.5C 26.2825,194.549 25.4491,194.383 24.5,195C 23.8448,196.487 22.8448,197.653 21.5,198.5C 19.9291,197.691 18.2624,197.357 16.5,197.5C 16.1534,191.943 16.8201,186.61 18.5,181.5C 20.8584,179.322 23.5251,177.655 26.5,176.5 Z"/></g>
<g><path style="opacity:1" fill="#fdc96d" d="M 99.5,179.5 C 101.235,181.235 103.235,182.568 105.5,183.5C 108.193,182.29 110.859,182.29 113.5,183.5C 114.386,182.675 114.719,181.675 114.5,180.5C 114.833,180.5 115.167,180.5 115.5,180.5C 116.7,184.574 118.2,188.574 120,192.5C 120.708,193.381 121.542,194.047 122.5,194.5C 122.5,194.833 122.5,195.167 122.5,195.5C 122.5,196.167 122.5,196.833 122.5,197.5C 121.469,198.249 120.302,198.915 119,199.5C 116.908,198.36 114.741,198.36 112.5,199.5C 111.201,198.91 110.368,197.91 110,196.5C 109.536,197.094 109.369,197.761 109.5,198.5C 107.838,195.88 106.172,193.213 104.5,190.5C 102.267,187.155 100.601,183.488 99.5,179.5 Z"/></g>
<g><path style="opacity:1" fill="#fdce78" d="M 207.5,187.5 C 206.294,191.577 204.294,195.243 201.5,198.5C 199.79,200.2 197.79,201.533 195.5,202.5C 194.252,201.96 193.085,201.293 192,200.5C 191.667,201.167 191.333,201.833 191,202.5C 188.441,202.285 185.607,202.285 182.5,202.5C 183.441,200.95 184.107,199.284 184.5,197.5C 186.01,195.678 187.343,193.678 188.5,191.5C 189.778,191.218 190.778,190.551 191.5,189.5C 191.369,190.376 191.702,191.043 192.5,191.5C 193.425,190.359 194.259,190.359 195,191.5C 198.348,188.819 201.015,189.486 203,193.5C 204.363,191.316 205.863,189.316 207.5,187.5 Z"/></g>
<g><path style="opacity:1" fill="#fee585" d="M 221.5,191.5 C 220.069,193.189 219.236,195.189 219,197.5C 218.184,198.823 217.017,199.489 215.5,199.5C 210.608,199.402 205.942,199.736 201.5,200.5C 201.5,199.833 201.5,199.167 201.5,198.5C 204.294,195.243 206.294,191.577 207.5,187.5C 208.458,187.047 209.292,186.381 210,185.5C 210.419,186.672 211.085,187.672 212,188.5C 214.642,186.941 216.975,187.275 219,189.5C 219.419,188.328 220.085,187.328 221,186.5C 221.494,188.134 221.66,189.801 221.5,191.5 Z"/></g>
<g><path style="opacity:1" fill="#fee791" d="M 66.5,198.5 C 66.5,198.167 66.5,197.833 66.5,197.5C 71.4689,197.562 76.1356,197.562 80.5,197.5C 84.1749,200.194 86.1749,203.86 86.5,208.5C 83.4299,206.479 80.0966,206.145 76.5,207.5C 72.9103,204.843 69.5769,201.843 66.5,198.5 Z"/></g>
<g><path style="opacity:1" fill="#fee68c" d="M 104.5,190.5 C 106.172,193.213 107.838,195.88 109.5,198.5C 110.833,200.833 112.167,203.167 113.5,205.5C 111.956,205.297 110.622,204.63 109.5,203.5C 106.189,204.353 102.856,204.186 99.5,203C 98.526,200.335 97.8593,200.169 97.5,202.5C 93.6818,200.023 91.0151,196.689 89.5,192.5C 94.2998,192.63 99.2998,191.963 104.5,190.5 Z"/></g>
<g><path style="opacity:1" fill="#fee892" d="M 122.5,195.5 C 123.458,195.953 124.292,196.619 125,197.5C 145.386,197.609 165.219,197.609 184.5,197.5C 184.107,199.284 183.441,200.95 182.5,202.5C 181.833,202.5 181.5,202.833 181.5,203.5C 179.456,204.031 177.789,205.198 176.5,207C 163.925,207.177 151.425,207.677 139,208.5C 137.644,207.62 136.144,207.286 134.5,207.5C 130.187,204.519 126.187,201.185 122.5,197.5C 122.5,196.833 122.5,196.167 122.5,195.5 Z"/></g>
<g><path style="opacity:1" fill="#fdd283" d="M 266.5,191.5 C 259.32,196.591 252.32,201.924 245.5,207.5C 243.813,208.918 241.98,210.251 240,211.5C 238.56,209.954 236.727,209.121 234.5,209C 236.341,205.674 238.341,202.508 240.5,199.5C 241.5,198.833 242.5,198.167 243.5,197.5C 244.117,197.611 244.617,197.944 245,198.5C 245.317,196.699 245.984,196.366 247,197.5C 248.441,196.74 249.941,196.074 251.5,195.5C 256.374,197.408 260.374,196.241 263.5,192C 264.448,191.517 265.448,191.351 266.5,191.5 Z"/></g>
<g><path style="opacity:1" fill="#fee790" d="M 55.5,199.5 C 57.7198,202.287 60.3864,204.62 63.5,206.5C 62.4168,206.461 61.4168,206.127 60.5,205.5C 58.1173,207.763 55.4506,208.43 52.5,207.5C 50.6639,208.028 48.9972,208.694 47.5,209.5C 45.4214,209.029 43.4214,208.363 41.5,207.5C 38.7557,204.438 35.4224,202.104 31.5,200.5C 29.02,197.639 28.02,194.306 28.5,190.5C 29.3121,189.007 30.6455,188.34 32.5,188.5C 37.3427,189.257 42.0094,190.59 46.5,192.5C 48.5278,196.022 51.5278,198.355 55.5,199.5 Z"/></g>
<g><path style="opacity:1" fill="#fdd188" d="M 18.5,181.5 C 16.8201,186.61 16.1534,191.943 16.5,197.5C 18.2624,197.357 19.9291,197.691 21.5,198.5C 22.8448,197.653 23.8448,196.487 24.5,195C 25.4491,194.383 26.2825,194.549 27,195.5C 27.1981,193.618 27.6981,191.952 28.5,190.5C 28.02,194.306 29.02,197.639 31.5,200.5C 35.4224,202.104 38.7557,204.438 41.5,207.5C 38.8497,208.606 36.0163,209.273 33,209.5C 28.4932,208.733 23.9932,208.067 19.5,207.5C 20.0738,203.733 18.9071,200.733 16,198.5C 15.5012,194.514 15.3345,190.514 15.5,186.5C 15.7497,184.326 16.7497,182.659 18.5,181.5 Z"/></g>
<g><path style="opacity:1" fill="#fdd387" d="M 88.5,192.5 C 88.8333,192.5 89.1667,192.5 89.5,192.5C 91.0151,196.689 93.6818,200.023 97.5,202.5C 98.9418,203.82 99.6085,205.486 99.5,207.5C 96.9065,208.853 94.0732,209.519 91,209.5C 89.2933,209.492 87.7933,209.158 86.5,208.5C 86.1749,203.86 84.1749,200.194 80.5,197.5C 80.5,196.833 80.5,196.167 80.5,195.5C 84.4881,197.457 87.1548,196.457 88.5,192.5 Z"/></g>
<g><path style="opacity:1" fill="#fdd691" d="M 201.5,198.5 C 201.5,199.167 201.5,199.833 201.5,200.5C 198.143,204.257 195.143,208.257 192.5,212.5C 191.833,212.833 191.167,213.167 190.5,213.5C 188.574,214.242 186.741,215.242 185,216.5C 180.552,215.645 176.219,215.312 172,215.5C 171.722,216.416 171.222,217.082 170.5,217.5C 170.5,216.833 170.5,216.167 170.5,215.5C 174.167,211.5 177.833,207.5 181.5,203.5C 181.5,202.833 181.833,202.5 182.5,202.5C 185.607,202.285 188.441,202.285 191,202.5C 191.333,201.833 191.667,201.167 192,200.5C 193.085,201.293 194.252,201.96 195.5,202.5C 197.79,201.533 199.79,200.2 201.5,198.5 Z"/></g>
<g><path style="opacity:1" fill="#fdd184" d="M 236.5,185.5 C 235.158,188.166 233.325,190.499 231,192.5C 230.009,194.808 229.176,197.141 228.5,199.5C 226.171,201.841 224.171,204.508 222.5,207.5C 220.808,208.969 218.808,209.635 216.5,209.5C 213.855,209.217 211.521,208.883 209.5,208.5C 210.931,205.119 212.931,202.119 215.5,199.5C 217.017,199.489 218.184,198.823 219,197.5C 219.236,195.189 220.069,193.189 221.5,191.5C 222.167,191.5 222.833,191.5 223.5,191.5C 225.527,190.875 227.36,190.875 229,191.5C 231.731,189.582 234.231,187.582 236.5,185.5 Z"/></g>
<g><path style="opacity:1" fill="#fee791" d="M 281.5,191.5 C 281.613,194.049 280.946,196.382 279.5,198.5C 275.482,201.524 271.482,204.524 267.5,207.5C 266.167,207.833 264.833,208.167 263.5,208.5C 258.36,207.439 253.526,207.439 249,208.5C 248.667,207.833 248.333,207.167 248,206.5C 247.329,207.252 246.496,207.586 245.5,207.5C 252.32,201.924 259.32,196.591 266.5,191.5C 269.826,190.181 273.159,188.848 276.5,187.5C 279.102,187.777 280.769,189.111 281.5,191.5 Z"/></g>
<g><path style="opacity:1" fill="#fdd186" d="M 286.5,176.5 C 289.5,177.5 291.5,179.5 292.5,182.5C 294.312,187.283 294.812,192.283 294,197.5C 291.388,200.389 289.555,203.722 288.5,207.5C 285.248,209.582 282.082,209.249 279,206.5C 277.899,208.394 276.566,209.061 275,208.5C 272.182,209.128 269.515,210.128 267,211.5C 266.5,211.333 266,211.167 265.5,211C 266.305,209.887 266.972,208.721 267.5,207.5C 271.482,204.524 275.482,201.524 279.5,198.5C 280.946,196.382 281.613,194.049 281.5,191.5C 283.176,192.183 283.843,193.517 283.5,195.5C 289.139,195.256 291.805,192.256 291.5,186.5C 290.833,184.167 290.167,181.833 289.5,179.5C 288.5,179.5 287.5,179.5 286.5,179.5C 286.5,178.5 286.5,177.5 286.5,176.5 Z"/></g>
<g><path style="opacity:1" fill="#fdd99b" d="M 292.5,182.5 C 294.41,183.975 295.576,185.975 296,188.5C 296.817,193.145 296.317,197.645 294.5,202C 294.989,203.138 295.322,204.305 295.5,205.5C 297.674,210.953 298.007,216.62 296.5,222.5C 294.314,218.602 292.148,218.602 290,222.5C 289.764,220.881 288.931,219.881 287.5,219.5C 286.666,212.896 282.999,210.729 276.5,213C 273.213,214.227 269.879,215.394 266.5,216.5C 263.435,216.456 260.268,216.456 257,216.5C 256.722,215.584 256.222,214.918 255.5,214.5C 258.167,212.5 260.833,210.5 263.5,208.5C 264.833,208.167 266.167,207.833 267.5,207.5C 266.972,208.721 266.305,209.887 265.5,211C 266,211.167 266.5,211.333 267,211.5C 269.515,210.128 272.182,209.128 275,208.5C 276.566,209.061 277.899,208.394 279,206.5C 282.082,209.249 285.248,209.582 288.5,207.5C 289.555,203.722 291.388,200.389 294,197.5C 294.812,192.283 294.312,187.283 292.5,182.5 Z"/></g>
<g><path style="opacity:1" fill="#fdd99b" d="M 15.5,186.5 C 15.3345,190.514 15.5012,194.514 16,198.5C 18.9071,200.733 20.0738,203.733 19.5,207.5C 23.9932,208.067 28.4932,208.733 33,209.5C 36.0163,209.273 38.8497,208.606 41.5,207.5C 43.4214,208.363 45.4214,209.029 47.5,209.5C 48.1667,209.5 48.5,209.833 48.5,210.5C 49.3816,212.384 50.8816,213.717 53,214.5C 53.4828,215.448 53.6495,216.448 53.5,217.5C 45.6105,216.199 37.7772,214.533 30,212.5C 27.9907,212.758 26.1573,213.425 24.5,214.5C 23.7784,214.918 23.2784,215.584 23,216.5C 21.3333,216.167 19.6667,215.833 18,215.5C 16.8904,217.037 15.3904,217.703 13.5,217.5C 13.0551,212.899 13.7217,208.565 15.5,204.5C 15.8039,203.85 16.1373,203.183 16.5,202.5C 13.4625,197.145 13.1291,191.812 15.5,186.5 Z"/></g>
<g><path style="opacity:1" fill="#fdd792" d="M 122.5,197.5 C 126.187,201.185 130.187,204.519 134.5,207.5C 136.596,210.262 138.262,213.262 139.5,216.5C 139.631,217.239 139.464,217.906 139,218.5C 136.037,213.284 131.537,211.451 125.5,213C 124.436,214.511 123.103,214.677 121.5,213.5C 117.883,211.883 115.216,209.216 113.5,205.5C 112.167,203.167 110.833,200.833 109.5,198.5C 109.369,197.761 109.536,197.094 110,196.5C 110.368,197.91 111.201,198.91 112.5,199.5C 114.741,198.36 116.908,198.36 119,199.5C 120.302,198.915 121.469,198.249 122.5,197.5 Z"/></g>
<g><path style="opacity:1" fill="#fce8a1" d="M 215.5,199.5 C 212.931,202.119 210.931,205.119 209.5,208.5C 211.521,208.883 213.855,209.217 216.5,209.5C 218.808,209.635 220.808,208.969 222.5,207.5C 224.171,204.508 226.171,201.841 228.5,199.5C 232.603,200.371 236.603,200.371 240.5,199.5C 238.341,202.508 236.341,205.674 234.5,209C 236.727,209.121 238.56,209.954 240,211.5C 241.98,210.251 243.813,208.918 245.5,207.5C 246.496,207.586 247.329,207.252 248,206.5C 248.333,207.167 248.667,207.833 249,208.5C 253.526,207.439 258.36,207.439 263.5,208.5C 260.833,210.5 258.167,212.5 255.5,214.5C 251.244,217.327 247.244,220.66 243.5,224.5C 242.312,223.952 241.145,223.619 240,223.5C 239.817,220.635 239.317,217.969 238.5,215.5C 230.167,215.5 221.833,215.5 213.5,215.5C 212.833,215.5 212.167,215.5 211.5,215.5C 204.529,217.362 198.363,218.029 193,217.5C 192.506,215.866 192.34,214.199 192.5,212.5C 195.143,208.257 198.143,204.257 201.5,200.5C 205.942,199.736 210.608,199.402 215.5,199.5 Z"/></g>
<g><path style="opacity:1" fill="#fdd995" d="M 66.5,198.5 C 69.5769,201.843 72.9103,204.843 76.5,207.5C 79.1844,209.876 80.5177,212.876 80.5,216.5C 77.6802,216.752 75.0135,216.252 72.5,215C 69.6306,211.962 66.6306,209.129 63.5,206.5C 60.3864,204.62 57.7198,202.287 55.5,199.5C 57.8268,199.335 59.9935,198.669 62,197.5C 63.4681,199.036 64.9681,199.37 66.5,198.5 Z"/></g>
<g><path style="opacity:1" fill="#feedaa" d="M 181.5,203.5 C 177.833,207.5 174.167,211.5 170.5,215.5C 168.172,216.736 167.006,218.736 167,221.5C 159.434,219.716 151.601,218.882 143.5,219C 142.167,218.333 142.167,217.667 143.5,217C 142.552,216.517 141.552,216.351 140.5,216.5C 140.167,216.5 139.833,216.5 139.5,216.5C 138.262,213.262 136.596,210.262 134.5,207.5C 136.144,207.286 137.644,207.62 139,208.5C 151.425,207.677 163.925,207.177 176.5,207C 177.789,205.198 179.456,204.031 181.5,203.5 Z"/></g>
<g><path style="opacity:1" fill="#feedac" d="M 113.5,205.5 C 115.216,209.216 117.883,211.883 121.5,213.5C 121.351,214.552 121.517,215.552 122,216.5C 123.852,218.957 125.686,221.291 127.5,223.5C 122.434,222.232 117.1,222.232 111.5,223.5C 111.672,222.508 111.338,221.842 110.5,221.5C 109.5,221.5 108.5,221.5 107.5,221.5C 99.6738,219.853 91.6738,219.519 83.5,220.5C 81.9783,223.908 79.8116,224.241 77,221.5C 74.0044,222.035 71.1711,222.702 68.5,223.5C 67.603,222.402 66.7697,222.402 66,223.5C 61.2563,217.65 55.423,213.317 48.5,210.5C 48.5,209.833 48.1667,209.5 47.5,209.5C 48.9972,208.694 50.6639,208.028 52.5,207.5C 55.4506,208.43 58.1173,207.763 60.5,205.5C 61.4168,206.127 62.4168,206.461 63.5,206.5C 66.6306,209.129 69.6306,211.962 72.5,215C 75.0135,216.252 77.6802,216.752 80.5,216.5C 80.5177,212.876 79.1844,209.876 76.5,207.5C 80.0966,206.145 83.4299,206.479 86.5,208.5C 87.7933,209.158 89.2933,209.492 91,209.5C 94.0732,209.519 96.9065,208.853 99.5,207.5C 99.6085,205.486 98.9418,203.82 97.5,202.5C 97.8593,200.169 98.526,200.335 99.5,203C 102.856,204.186 106.189,204.353 109.5,203.5C 110.622,204.63 111.956,205.297 113.5,205.5 Z"/></g>
<g><path style="opacity:1" fill="#fde7b2" d="M 48.5,210.5 C 55.423,213.317 61.2563,217.65 66,223.5C 66.7697,222.402 67.603,222.402 68.5,223.5C 68.2606,225.467 68.5939,227.301 69.5,229C 65.2587,230.379 61.592,229.212 58.5,225.5C 58.6716,224.508 58.3382,223.842 57.5,223.5C 57.5,222.833 57.1667,222.5 56.5,222.5C 52.3467,221.834 48.0134,221.501 43.5,221.5C 38.7784,221.508 34.4451,222.175 30.5,223.5C 28.7376,223.643 27.0709,223.309 25.5,222.5C 24.52,219.914 24.1866,217.247 24.5,214.5C 26.1573,213.425 27.9907,212.758 30,212.5C 37.7772,214.533 45.6105,216.199 53.5,217.5C 53.6495,216.448 53.4828,215.448 53,214.5C 50.8816,213.717 49.3816,212.384 48.5,210.5 Z"/></g>
<g><path style="opacity:1" fill="#fde1b1" d="M 255.5,214.5 C 256.222,214.918 256.722,215.584 257,216.5C 260.268,216.456 263.435,216.456 266.5,216.5C 262.943,219.705 258.943,222.372 254.5,224.5C 252.307,225.68 249.974,226.68 247.5,227.5C 246.5,226.167 245.5,226.167 244.5,227.5C 243.614,226.675 243.281,225.675 243.5,224.5C 247.244,220.66 251.244,217.327 255.5,214.5 Z"/></g>
<g><path style="opacity:1" fill="#fdf2c2" d="M 107.5,221.5 C 99.9809,221.175 92.6476,221.508 85.5,222.5C 84.5233,225.287 84.19,228.287 84.5,231.5C 83.5178,232.141 82.5178,232.807 81.5,233.5C 75.6753,233.184 70.1753,233.184 65,233.5C 63.1825,231.355 61.6825,231.355 60.5,233.5C 59.914,233.291 59.414,232.957 59,232.5C 58.5034,230.19 58.3367,227.857 58.5,225.5C 61.592,229.212 65.2587,230.379 69.5,229C 68.5939,227.301 68.2606,225.467 68.5,223.5C 71.1711,222.702 74.0044,222.035 77,221.5C 79.8116,224.241 81.9783,223.908 83.5,220.5C 91.6738,219.519 99.6738,219.853 107.5,221.5 Z"/></g>
<g><path style="opacity:1" fill="#fef2bd" d="M 192.5,212.5 C 192.34,214.199 192.506,215.866 193,217.5C 198.363,218.029 204.529,217.362 211.5,215.5C 211.666,219.514 211.499,223.514 211,227.5C 210,231.167 208.333,231.5 206,228.5C 197.77,228.63 189.27,228.963 180.5,229.5C 180.5,228.5 180.5,227.5 180.5,226.5C 183.58,222.025 186.913,217.692 190.5,213.5C 191.167,213.167 191.833,212.833 192.5,212.5 Z"/></g>
<g><path style="opacity:1" fill="#fef0b8" d="M 287.5,219.5 C 284.307,221.682 280.974,223.682 277.5,225.5C 274.598,224.93 271.765,225.596 269,227.5C 265,227.5 261,227.5 257,227.5C 255.955,226.627 255.122,225.627 254.5,224.5C 258.943,222.372 262.943,219.705 266.5,216.5C 269.879,215.394 273.213,214.227 276.5,213C 282.999,210.729 286.666,212.896 287.5,219.5 Z"/></g>
<g><path style="opacity:1" fill="#fee4b9" d="M 15.5,204.5 C 13.7217,208.565 13.0551,212.899 13.5,217.5C 15.3904,217.703 16.8904,217.037 18,215.5C 19.6667,215.833 21.3333,216.167 23,216.5C 23.2784,215.584 23.7784,214.918 24.5,214.5C 24.1866,217.247 24.52,219.914 25.5,222.5C 27.0709,223.309 28.7376,223.643 30.5,223.5C 30.5,226.167 30.5,228.833 30.5,231.5C 25.7014,232.091 21.2014,232.424 17,232.5C 16.3333,231.833 15.6667,231.167 15,230.5C 14.3465,225.526 13.1799,220.692 11.5,216C 11.9172,213.502 12.2505,211.002 12.5,208.5C 12.7376,206.596 13.7376,205.262 15.5,204.5 Z"/></g>
<g><path style="opacity:1" fill="#fee3b3" d="M 139.5,216.5 C 139.833,216.5 140.167,216.5 140.5,216.5C 141.807,220.784 143.474,224.784 145.5,228.5C 145.631,229.239 145.464,229.906 145,230.5C 140.38,229.264 135.88,229.264 131.5,230.5C 130.167,228.167 128.833,225.833 127.5,223.5C 125.686,221.291 123.852,218.957 122,216.5C 121.517,215.552 121.351,214.552 121.5,213.5C 123.103,214.677 124.436,214.511 125.5,213C 131.537,211.451 136.037,213.284 139,218.5C 139.464,217.906 139.631,217.239 139.5,216.5 Z"/></g>
<g><path style="opacity:1" fill="#fef2bd" d="M 170.5,215.5 C 170.5,216.167 170.5,216.833 170.5,217.5C 169.514,219.426 168.514,221.426 167.5,223.5C 166.883,223.611 166.383,223.944 166,224.5C 165.667,226.5 165.333,228.5 165,230.5C 162.667,229.833 160.333,229.167 158,228.5C 154.137,228.774 149.97,228.774 145.5,228.5C 143.474,224.784 141.807,220.784 140.5,216.5C 141.552,216.351 142.552,216.517 143.5,217C 142.167,217.667 142.167,218.333 143.5,219C 151.601,218.882 159.434,219.716 167,221.5C 167.006,218.736 168.172,216.736 170.5,215.5 Z"/></g>
<g><path style="opacity:1" fill="#fee3b2" d="M 190.5,213.5 C 186.913,217.692 183.58,222.025 180.5,226.5C 178.273,228.931 176.106,228.931 174,226.5C 172.178,226.968 170.011,227.301 167.5,227.5C 167.5,226.167 167.5,224.833 167.5,223.5C 168.514,221.426 169.514,219.426 170.5,217.5C 171.222,217.082 171.722,216.416 172,215.5C 176.219,215.312 180.552,215.645 185,216.5C 186.741,215.242 188.574,214.242 190.5,213.5 Z"/></g>
<g><path style="opacity:1" fill="#131313" d="M 214.5,216.5 C 221.833,216.5 229.167,216.5 236.5,216.5C 236.5,227.5 236.5,238.5 236.5,249.5C 237.791,249.737 238.791,249.404 239.5,248.5C 239.5,248.167 239.5,247.833 239.5,247.5C 240.167,247.167 240.833,246.833 241.5,246.5C 243.967,246.245 245.967,245.245 247.5,243.5C 252.5,242.167 257.5,242.167 262.5,243.5C 269.597,245.926 275.263,250.259 279.5,256.5C 279.833,257.833 280.167,259.167 280.5,260.5C 282.762,272.086 283.095,283.753 281.5,295.5C 281.008,297.819 280.008,299.819 278.5,301.5C 277.027,302.072 275.693,302.905 274.5,304C 275.833,304.667 275.833,305.333 274.5,306C 272.193,306.309 270.026,307.142 268,308.5C 267.333,309.167 267.333,309.833 268,310.5C 270.178,307.532 271.344,307.865 271.5,311.5C 269.973,311.427 268.973,312.094 268.5,313.5C 268.5,314.167 268.167,314.5 267.5,314.5C 264.654,314.552 262.32,315.552 260.5,317.5C 260.167,317.5 259.833,317.5 259.5,317.5C 255.833,317.5 252.167,317.5 248.5,317.5C 243.163,316.502 238.83,313.836 235.5,309.5C 234.698,308.115 234.031,308.282 233.5,310C 232.767,311.766 232.433,313.599 232.5,315.5C 226.5,315.5 220.5,315.5 214.5,315.5C 214.5,282.5 214.5,249.5 214.5,216.5 Z M 251.5,263.5 C 254.542,265.224 256.375,267.891 257,271.5C 258.251,279.475 257.417,287.141 254.5,294.5C 251.332,297.056 247.666,298.056 243.5,297.5C 242.329,296.655 240.995,295.989 239.5,295.5C 239.167,295.5 238.833,295.5 238.5,295.5C 238.194,285.75 238.527,276.084 239.5,266.5C 240.167,266.5 240.5,266.167 240.5,265.5C 243.92,263.778 247.586,263.111 251.5,263.5 Z"/></g>
<g><path style="opacity:1" fill="#121212" d="M 56.5,257.5 C 66.1667,257.5 75.8333,257.5 85.5,257.5C 86.4948,246.346 86.8281,235.012 86.5,223.5C 93.8333,223.5 101.167,223.5 108.5,223.5C 108.5,254.167 108.5,284.833 108.5,315.5C 101.167,315.5 93.8333,315.5 86.5,315.5C 86.8284,303.322 86.4951,291.322 85.5,279.5C 75.8333,278.167 66.1667,278.167 56.5,279.5C 55.5049,291.322 55.1716,303.322 55.5,315.5C 48.1667,315.5 40.8333,315.5 33.5,315.5C 33.5,284.833 33.5,254.167 33.5,223.5C 40.8333,223.5 48.1667,223.5 55.5,223.5C 55.1719,235.012 55.5052,246.346 56.5,257.5 Z M 57.5,252.5 C 66.5588,253.041 75.5588,253.708 84.5,254.5C 75.8955,256.471 66.8955,257.138 57.5,256.5C 57.5,255.167 57.5,253.833 57.5,252.5 Z"/></g>
<g><path style="opacity:1" fill="#302e20" d="M 236.5,216.5 C 236.842,227.372 237.842,238.039 239.5,248.5C 238.791,249.404 237.791,249.737 236.5,249.5C 236.5,238.5 236.5,227.5 236.5,216.5 Z"/></g>
<g><path style="opacity:1" fill="#fee8c2" d="M 295.5,205.5 C 296.458,205.953 297.292,206.619 298,207.5C 300.814,212.932 300.981,218.265 298.5,223.5C 298.167,223.5 297.833,223.5 297.5,223.5C 296.883,223.611 296.383,223.944 296,224.5C 295.223,227.429 295.39,230.263 296.5,233C 294.374,234.286 292.041,235.119 289.5,235.5C 286.738,233.913 283.738,232.913 280.5,232.5C 273.106,234.722 266.273,236.055 260,236.5C 259.312,235.668 259.479,235.002 260.5,234.5C 264.968,232.701 268.802,230.701 272,228.5C 272.333,228.833 272.667,229.167 273,229.5C 274.25,227.807 275.75,226.473 277.5,225.5C 280.974,223.682 284.307,221.682 287.5,219.5C 288.931,219.881 289.764,220.881 290,222.5C 292.148,218.602 294.314,218.602 296.5,222.5C 298.007,216.62 297.674,210.953 295.5,205.5 Z"/></g>
<g><path style="opacity:1" fill="#7f7963" d="M 213.5,216.5 C 213.5,216.167 213.5,215.833 213.5,215.5C 221.833,215.5 230.167,215.5 238.5,215.5C 238.5,223.167 238.5,230.833 238.5,238.5C 238.19,241.713 238.523,244.713 239.5,247.5C 239.5,247.833 239.5,248.167 239.5,248.5C 237.842,238.039 236.842,227.372 236.5,216.5C 229.167,216.5 221.833,216.5 214.5,216.5C 214.167,216.5 213.833,216.5 213.5,216.5 Z"/></g>
<g><path style="opacity:1" fill="#fcf2d2" d="M 211.5,215.5 C 212.167,215.5 212.833,215.5 213.5,215.5C 213.5,215.833 213.5,216.167 213.5,216.5C 212.507,225.318 212.173,234.318 212.5,243.5C 211.842,242.602 211.176,241.602 210.5,240.5C 209.833,241.5 209.167,242.5 208.5,243.5C 207.757,242.092 206.923,240.759 206,239.5C 203.833,241.464 201.499,241.798 199,240.5C 198.667,241.167 198.333,241.833 198,242.5C 196.687,241.427 195.187,240.76 193.5,240.5C 189.659,241.794 185.825,241.794 182,240.5C 180.441,241.029 178.941,241.696 177.5,242.5C 174.316,239.054 170.816,238.72 167,241.5C 165.757,239.237 163.924,238.403 161.5,239C 162.167,239.333 162.833,239.667 163.5,240C 161.22,240.233 159.22,241.066 157.5,242.5C 155.167,241.833 152.833,241.167 150.5,240.5C 137.326,241.764 123.993,241.764 110.5,240.5C 110.5,234.167 110.5,227.833 110.5,221.5C 111.338,221.842 111.672,222.508 111.5,223.5C 111.146,227.637 111.646,231.637 113,235.5C 117,235.5 121,235.5 125,235.5C 126.667,234.833 128.333,234.167 130,233.5C 130.333,233.833 130.667,234.167 131,234.5C 132.334,233.122 132.501,231.789 131.5,230.5C 135.88,229.264 140.38,229.264 145,230.5C 145.464,229.906 145.631,229.239 145.5,228.5C 149.97,228.774 154.137,228.774 158,228.5C 160.333,229.167 162.667,229.833 165,230.5C 165.333,228.5 165.667,226.5 166,224.5C 166.383,223.944 166.883,223.611 167.5,223.5C 167.5,224.833 167.5,226.167 167.5,227.5C 170.011,227.301 172.178,226.968 174,226.5C 176.106,228.931 178.273,228.931 180.5,226.5C 180.5,227.5 180.5,228.5 180.5,229.5C 189.27,228.963 197.77,228.63 206,228.5C 208.333,231.5 210,231.167 211,227.5C 211.499,223.514 211.666,219.514 211.5,215.5 Z"/></g>
<g><path style="opacity:1" fill="#fef3c6" d="M 127.5,223.5 C 128.833,225.833 130.167,228.167 131.5,230.5C 132.501,231.789 132.334,233.122 131,234.5C 130.667,234.167 130.333,233.833 130,233.5C 128.333,234.167 126.667,234.833 125,235.5C 121,235.5 117,235.5 113,235.5C 111.646,231.637 111.146,227.637 111.5,223.5C 117.1,222.232 122.434,222.232 127.5,223.5 Z"/></g>
<g><path style="opacity:1" fill="#fef4d3" d="M 238.5,215.5 C 239.317,217.969 239.817,220.635 240,223.5C 241.145,223.619 242.312,223.952 243.5,224.5C 243.281,225.675 243.614,226.675 244.5,227.5C 245.5,226.167 246.5,226.167 247.5,227.5C 249.974,226.68 252.307,225.68 254.5,224.5C 255.122,225.627 255.955,226.627 257,227.5C 261,227.5 265,227.5 269,227.5C 271.765,225.596 274.598,224.93 277.5,225.5C 275.75,226.473 274.25,227.807 273,229.5C 272.667,229.167 272.333,228.833 272,228.5C 268.802,230.701 264.968,232.701 260.5,234.5C 259.479,235.002 259.312,235.668 260,236.5C 266.273,236.055 273.106,234.722 280.5,232.5C 283.738,232.913 286.738,233.913 289.5,235.5C 292.041,235.119 294.374,234.286 296.5,233C 295.39,230.263 295.223,227.429 296,224.5C 296.383,223.944 296.883,223.611 297.5,223.5C 296.815,228.777 296.815,234.111 297.5,239.5C 295.097,239.607 293.264,238.607 292,236.5C 290.638,238.436 288.805,239.769 286.5,240.5C 285.098,241.842 285.431,242.676 287.5,243C 285.833,243.667 284.167,243.667 282.5,243C 283.28,241.927 283.113,240.76 282,239.5C 278.443,240.16 274.276,240.827 269.5,241.5C 262.837,240.953 256.17,240.453 249.5,240C 248.234,239.691 247.067,239.191 246,238.5C 243.507,242.419 241.007,242.419 238.5,238.5C 238.5,230.833 238.5,223.167 238.5,215.5 Z"/></g>
<g><path style="opacity:1" fill="#feefd2" d="M 12.5,208.5 C 12.2505,211.002 11.9172,213.502 11.5,216C 13.1799,220.692 14.3465,225.526 15,230.5C 15.6667,231.167 16.3333,231.833 17,232.5C 21.2014,232.424 25.7014,232.091 30.5,231.5C 30.5,233.833 30.5,236.167 30.5,238.5C 25.5844,240.6 20.4178,241.934 15,242.5C 14.3333,241.833 13.6667,241.167 13,240.5C 12.5014,236.848 12.3347,233.182 12.5,229.5C 11.5232,225.396 10.8566,221.23 10.5,217C 10.3603,213.85 11.027,211.017 12.5,208.5 Z"/></g>
<g><path style="opacity:1" fill="#f6f0e4" d="M 12.5,229.5 C 12.3347,233.182 12.5014,236.848 13,240.5C 13.6667,241.167 14.3333,241.833 15,242.5C 20.4178,241.934 25.5844,240.6 30.5,238.5C 30.2053,240.735 30.5386,242.735 31.5,244.5C 31.5,268.167 31.5,291.833 31.5,315.5C 30.5029,295.674 30.1695,275.674 30.5,255.5C 18.8677,254.701 12.2011,248.534 10.5,237C 10.6462,234.24 11.3128,231.74 12.5,229.5 Z"/></g>
<g><path style="opacity:1" fill="#c5bb9f" d="M 56.5,222.5 C 48.5,222.5 40.5,222.5 32.5,222.5C 31.5084,229.648 31.175,236.981 31.5,244.5C 30.5386,242.735 30.2053,240.735 30.5,238.5C 30.5,236.167 30.5,233.833 30.5,231.5C 30.5,228.833 30.5,226.167 30.5,223.5C 34.4451,222.175 38.7784,221.508 43.5,221.5C 48.0134,221.501 52.3467,221.834 56.5,222.5 Z"/></g>
<g><path style="opacity:1" fill="#fcf5e3" d="M 297.5,223.5 C 297.833,223.5 298.167,223.5 298.5,223.5C 298.481,225.06 298.148,226.56 297.5,228C 301.328,236.931 299.662,244.598 292.5,251C 287.983,252.987 283.65,254.82 279.5,256.5C 275.263,250.259 269.597,245.926 262.5,243.5C 262.389,242.883 262.056,242.383 261.5,242C 257.167,241.333 252.833,241.333 248.5,242C 247.944,242.383 247.611,242.883 247.5,243.5C 245.033,243.755 243.033,244.755 241.5,246.5C 240.833,246.833 240.167,247.167 239.5,247.5C 238.523,244.713 238.19,241.713 238.5,238.5C 241.007,242.419 243.507,242.419 246,238.5C 247.067,239.191 248.234,239.691 249.5,240C 256.17,240.453 262.837,240.953 269.5,241.5C 274.276,240.827 278.443,240.16 282,239.5C 283.113,240.76 283.28,241.927 282.5,243C 284.167,243.667 285.833,243.667 287.5,243C 285.431,242.676 285.098,241.842 286.5,240.5C 288.805,239.769 290.638,238.436 292,236.5C 293.264,238.607 295.097,239.607 297.5,239.5C 296.815,234.111 296.815,228.777 297.5,223.5 Z"/></g>
<g><path style="opacity:1" fill="#f7f3e4" d="M 212.5,243.5 C 212.5,255.833 212.5,268.167 212.5,280.5C 211.67,271.009 211.17,261.342 211,251.5C 206.598,251.017 202.098,251.017 197.5,251.5C 198.036,248.302 197.369,245.635 195.5,243.5C 187.167,243.5 178.833,243.5 170.5,243.5C 170.5,246.5 170.5,249.5 170.5,252.5C 165.238,252.195 160.072,252.529 155,253.5C 154.5,266.496 154.333,279.496 154.5,292.5C 154.167,292.5 153.833,292.5 153.5,292.5C 153.5,276.167 153.5,259.833 153.5,243.5C 144.983,243.174 136.65,243.507 128.5,244.5C 128.5,249.5 128.5,254.5 128.5,259.5C 127.539,257.735 127.205,255.735 127.5,253.5C 122.167,252.167 116.833,252.167 111.5,253.5C 111.822,259.358 111.489,265.025 110.5,270.5C 110.5,260.5 110.5,250.5 110.5,240.5C 123.993,241.764 137.326,241.764 150.5,240.5C 152.833,241.167 155.167,241.833 157.5,242.5C 159.22,241.066 161.22,240.233 163.5,240C 162.833,239.667 162.167,239.333 161.5,239C 163.924,238.403 165.757,239.237 167,241.5C 170.816,238.72 174.316,239.054 177.5,242.5C 178.941,241.696 180.441,241.029 182,240.5C 185.825,241.794 189.659,241.794 193.5,240.5C 195.187,240.76 196.687,241.427 198,242.5C 198.333,241.833 198.667,241.167 199,240.5C 201.499,241.798 203.833,241.464 206,239.5C 206.923,240.759 207.757,242.092 208.5,243.5C 209.167,242.5 209.833,241.5 210.5,240.5C 211.176,241.602 211.842,242.602 212.5,243.5 Z"/></g>
<g><path style="opacity:1" fill="#9d9b90" d="M 56.5,222.5 C 57.1667,222.5 57.5,222.833 57.5,223.5C 57.5,230.833 57.5,238.167 57.5,245.5C 57.5,247.833 57.5,250.167 57.5,252.5C 57.5,253.833 57.5,255.167 57.5,256.5C 66.8955,257.138 75.8955,256.471 84.5,254.5C 84.5,250.833 84.5,247.167 84.5,243.5C 84.5,239.5 84.5,235.5 84.5,231.5C 84.19,228.287 84.5233,225.287 85.5,222.5C 85.5,234.167 85.5,245.833 85.5,257.5C 75.8333,257.5 66.1667,257.5 56.5,257.5C 56.5,245.833 56.5,234.167 56.5,222.5 Z M 57.5,252.5 C 66.5588,253.041 75.5588,253.708 84.5,254.5C 75.8955,256.471 66.8955,257.138 57.5,256.5C 57.5,255.167 57.5,253.833 57.5,252.5 Z"/></g>
<g><path style="opacity:1" fill="#fef8e0" d="M 57.5,223.5 C 58.3382,223.842 58.6716,224.508 58.5,225.5C 58.3367,227.857 58.5034,230.19 59,232.5C 59.414,232.957 59.914,233.291 60.5,233.5C 61.6825,231.355 63.1825,231.355 65,233.5C 70.1753,233.184 75.6753,233.184 81.5,233.5C 82.5178,232.807 83.5178,232.141 84.5,231.5C 84.5,235.5 84.5,239.5 84.5,243.5C 83.7515,244.531 83.0848,245.698 82.5,247C 74.8982,247.364 67.3982,247.531 60,247.5C 58.9889,246.944 58.1556,246.278 57.5,245.5C 57.5,238.167 57.5,230.833 57.5,223.5 Z"/></g>
<g><path style="opacity:1" fill="#beb6a6" d="M 262.5,243.5 C 257.5,242.167 252.5,242.167 247.5,243.5C 247.611,242.883 247.944,242.383 248.5,242C 252.833,241.333 257.167,241.333 261.5,242C 262.056,242.383 262.389,242.883 262.5,243.5 Z"/></g>
<g><path style="opacity:1" fill="#121212" d="M 152.5,245.5 C 152.17,261.342 152.504,277.009 153.5,292.5C 153.833,292.5 154.167,292.5 154.5,292.5C 154.932,293.71 155.599,294.71 156.5,295.5C 157.694,296.777 159.36,297.444 161.5,297.5C 163.64,297.444 165.306,296.777 166.5,295.5C 168.749,294.92 170.415,293.587 171.5,291.5C 172.496,276.342 172.83,261.009 172.5,245.5C 180.167,245.5 187.833,245.5 195.5,245.5C 195.5,268.833 195.5,292.167 195.5,315.5C 189.132,315.83 182.798,315.496 176.5,314.5C 175.626,312.253 175.292,309.92 175.5,307.5C 173.5,307.5 171.5,307.5 169.5,307.5C 167.943,307.76 166.943,309.76 166.5,313.5C 166.5,314.167 166.167,314.5 165.5,314.5C 163.801,314.34 162.134,314.506 160.5,315C 159.244,315.417 158.577,316.25 158.5,317.5C 158.167,317.5 157.833,317.5 157.5,317.5C 153.167,317.5 148.833,317.5 144.5,317.5C 144.167,317.5 143.833,317.5 143.5,317.5C 141.434,315.801 139.1,314.468 136.5,313.5C 134.11,311.733 132.443,309.4 131.5,306.5C 131.354,302.613 130.687,298.946 129.5,295.5C 129.5,278.833 129.5,262.167 129.5,245.5C 137.167,245.5 144.833,245.5 152.5,245.5 Z M 170.5,252.5 C 170.667,265.504 170.5,278.504 170,291.5C 168.624,292.705 167.458,294.038 166.5,295.5C 163.133,296.747 159.799,296.747 156.5,295.5C 155.599,294.71 154.932,293.71 154.5,292.5C 154.333,279.496 154.5,266.496 155,253.5C 160.072,252.529 165.238,252.195 170.5,252.5 Z"/></g>
<g><path style="opacity:1" fill="#78776b" d="M 247.5,243.5 C 245.967,245.245 243.967,246.245 241.5,246.5C 243.033,244.755 245.033,243.755 247.5,243.5 Z"/></g>
<g><path style="opacity:0.586" fill="#8b8b8b" d="M 195.5,244.5 C 196.495,255.321 196.828,266.321 196.5,277.5C 197.976,290.691 197.643,303.691 195.5,316.5C 195.5,316.167 195.5,315.833 195.5,315.5C 195.5,292.167 195.5,268.833 195.5,245.5C 195.5,245.167 195.5,244.833 195.5,244.5 Z"/></g>
<g><path style="opacity:0.807" fill="#fdfcf4" d="M 84.5,243.5 C 84.5,247.167 84.5,250.833 84.5,254.5C 75.5588,253.708 66.5588,253.041 57.5,252.5C 57.5,250.167 57.5,247.833 57.5,245.5C 58.1556,246.278 58.9889,246.944 60,247.5C 67.3982,247.531 74.8982,247.364 82.5,247C 83.0848,245.698 83.7515,244.531 84.5,243.5 Z"/></g>
<g><path style="opacity:1" fill="#42413e" d="M 85.5,222.5 C 93.5,222.5 101.5,222.5 109.5,222.5C 109.5,253.833 109.5,285.167 109.5,316.5C 101.5,317.833 93.5,317.833 85.5,316.5C 85.5,304.167 85.5,291.833 85.5,279.5C 86.4951,291.322 86.8284,303.322 86.5,315.5C 93.8333,315.5 101.167,315.5 108.5,315.5C 108.5,284.833 108.5,254.167 108.5,223.5C 101.167,223.5 93.8333,223.5 86.5,223.5C 86.8281,235.012 86.4948,246.346 85.5,257.5C 85.5,245.833 85.5,234.167 85.5,222.5 Z"/></g>
<g><path style="opacity:0.739" fill="#797771" d="M 85.5,222.5 C 92.6476,221.508 99.9809,221.175 107.5,221.5C 108.5,221.5 109.5,221.5 110.5,221.5C 110.5,227.833 110.5,234.167 110.5,240.5C 110.5,250.5 110.5,260.5 110.5,270.5C 110.83,286.009 110.496,301.342 109.5,316.5C 109.5,285.167 109.5,253.833 109.5,222.5C 101.5,222.5 93.5,222.5 85.5,222.5 Z"/></g>
<g><path style="opacity:0.908" fill="#656360" d="M 128.5,244.5 C 136.65,243.507 144.983,243.174 153.5,243.5C 153.5,259.833 153.5,276.167 153.5,292.5C 152.504,277.009 152.17,261.342 152.5,245.5C 144.684,244.508 136.684,244.174 128.5,244.5 Z"/></g>
<g><path style="opacity:1" fill="#252421" d="M 32.5,222.5 C 40.5,222.5 48.5,222.5 56.5,222.5C 56.5,234.167 56.5,245.833 56.5,257.5C 55.5052,246.346 55.1719,235.012 55.5,223.5C 48.1667,223.5 40.8333,223.5 33.5,223.5C 33.5,254.167 33.5,284.833 33.5,315.5C 40.8333,315.5 48.1667,315.5 55.5,315.5C 55.1716,303.322 55.5049,291.322 56.5,279.5C 56.5,291.833 56.5,304.167 56.5,316.5C 48.5,316.5 40.5,316.5 32.5,316.5C 32.5,285.167 32.5,253.833 32.5,222.5 Z"/></g>
<g><path style="opacity:0.928" fill="#8f8e8b" d="M 32.5,222.5 C 32.5,253.833 32.5,285.167 32.5,316.5C 40.5,316.5 48.5,316.5 56.5,316.5C 52.5139,317.166 48.3472,317.499 44,317.5C 39.4428,317.491 35.2762,316.825 31.5,315.5C 31.5,291.833 31.5,268.167 31.5,244.5C 31.175,236.981 31.5084,229.648 32.5,222.5 Z"/></g>
<g><path style="opacity:0.895" fill="#2d2c2a" d="M 128.5,244.5 C 136.684,244.174 144.684,244.508 152.5,245.5C 144.833,245.5 137.167,245.5 129.5,245.5C 129.5,262.167 129.5,278.833 129.5,295.5C 129.167,295.5 128.833,295.5 128.5,295.5C 128.5,283.5 128.5,271.5 128.5,259.5C 128.5,254.5 128.5,249.5 128.5,244.5 Z"/></g>
<g><path style="opacity:0.399" fill="#8d8b88" d="M 195.5,243.5 C 195.5,243.833 195.5,244.167 195.5,244.5C 187.5,244.5 179.5,244.5 171.5,244.5C 171.5,260.167 171.5,275.833 171.5,291.5C 170.415,293.587 168.749,294.92 166.5,295.5C 167.458,294.038 168.624,292.705 170,291.5C 170.5,278.504 170.667,265.504 170.5,252.5C 170.5,249.5 170.5,246.5 170.5,243.5C 178.833,243.5 187.167,243.5 195.5,243.5 Z"/></g>
<g><path style="opacity:1" fill="#2c2b29" d="M 195.5,244.5 C 195.5,244.833 195.5,245.167 195.5,245.5C 187.833,245.5 180.167,245.5 172.5,245.5C 172.83,261.009 172.496,276.342 171.5,291.5C 171.5,275.833 171.5,260.167 171.5,244.5C 179.5,244.5 187.5,244.5 195.5,244.5 Z"/></g>
<g><path style="opacity:0.116" fill="#d0cfce" d="M 195.5,244.5 C 195.5,244.167 195.5,243.833 195.5,243.5C 197.369,245.635 198.036,248.302 197.5,251.5C 197.826,260.349 197.493,269.016 196.5,277.5C 196.828,266.321 196.495,255.321 195.5,244.5 Z"/></g>
<g><path style="opacity:1" fill="#363533" d="M 213.5,216.5 C 213.833,216.5 214.167,216.5 214.5,216.5C 214.5,249.5 214.5,282.5 214.5,315.5C 220.5,315.5 226.5,315.5 232.5,315.5C 229.742,316.818 226.576,317.485 223,317.5C 219.648,317.498 216.482,317.165 213.5,316.5C 213.5,283.167 213.5,249.833 213.5,216.5 Z"/></g>
<g><path style="opacity:0.459" fill="#7b7b7b" d="M 251.5,263.5 C 247.586,263.111 243.92,263.778 240.5,265.5C 240.577,264.25 241.244,263.417 242.5,263C 245.696,262.195 248.696,262.362 251.5,263.5 Z"/></g>
<g><path style="opacity:0.407" fill="#7c7c7c" d="M 239.5,266.5 C 238.527,276.084 238.194,285.75 238.5,295.5C 237.834,290.845 237.501,286.012 237.5,281C 237.506,275.784 238.173,270.951 239.5,266.5 Z"/></g>
<g><path style="opacity:0.76" fill="#5b5b5b" d="M 280.5,260.5 C 282.011,262.476 282.844,264.809 283,267.5C 283.167,271.333 283.333,275.167 283.5,279C 283.689,284.752 283.022,290.252 281.5,295.5C 283.095,283.753 282.762,272.086 280.5,260.5 Z"/></g>
<g><path style="opacity:0.427" fill="#818181" d="M 85.5,279.5 C 85.5,291.833 85.5,304.167 85.5,316.5C 84.5048,304.345 84.1714,292.011 84.5,279.5C 75.5,279.5 66.5,279.5 57.5,279.5C 57.8286,292.011 57.4952,304.345 56.5,316.5C 56.5,304.167 56.5,291.833 56.5,279.5C 66.1667,278.167 75.8333,278.167 85.5,279.5 Z"/></g>
<g><path style="opacity:0.886" fill="#6b6b6b" d="M 254.5,294.5 C 254.426,296.411 253.426,297.578 251.5,298C 248.633,298.801 245.966,298.634 243.5,297.5C 247.666,298.056 251.332,297.056 254.5,294.5 Z"/></g>
<g><path style="opacity:0.175" fill="#898989" d="M 156.5,295.5 C 159.799,296.747 163.133,296.747 166.5,295.5C 165.306,296.777 163.64,297.444 161.5,297.5C 159.36,297.444 157.694,296.777 156.5,295.5 Z"/></g>
<g><path style="opacity:0.063" fill="#8b8b8b" d="M 239.5,295.5 C 240.995,295.989 242.329,296.655 243.5,297.5C 241.517,297.843 240.183,297.176 239.5,295.5 Z"/></g>
<g><path style="opacity:0.514" fill="#93928e" d="M 213.5,216.5 C 213.5,249.833 213.5,283.167 213.5,316.5C 212.033,304.647 211.7,292.647 212.5,280.5C 212.5,268.167 212.5,255.833 212.5,243.5C 212.173,234.318 212.507,225.318 213.5,216.5 Z"/></g>
<g><path style="opacity:0.796" fill="#666666" d="M 128.5,295.5 C 128.833,295.5 129.167,295.5 129.5,295.5C 130.687,298.946 131.354,302.613 131.5,306.5C 129.742,303.146 128.742,299.479 128.5,295.5 Z"/></g>
<g><path style="opacity:1" fill="#393939" d="M 278.5,301.5 C 277.149,305.542 274.815,308.875 271.5,311.5C 271.344,307.865 270.178,307.532 268,310.5C 267.333,309.833 267.333,309.167 268,308.5C 270.026,307.142 272.193,306.309 274.5,306C 275.833,305.333 275.833,304.667 274.5,304C 275.693,302.905 277.027,302.072 278.5,301.5 Z"/></g>
<g><path style="opacity:0.137" fill="#7f7f7f" d="M 235.5,309.5 C 234.797,311.629 233.797,313.629 232.5,315.5C 232.433,313.599 232.767,311.766 233.5,310C 234.031,308.282 234.698,308.115 235.5,309.5 Z"/></g>
<g><path style="opacity:0.012" fill="#919191" d="M 271.5,311.5 C 271.027,312.906 270.027,313.573 268.5,313.5C 268.973,312.094 269.973,311.427 271.5,311.5 Z"/></g>
<g><path style="opacity:0.941" fill="#525252" d="M 165.5,314.5 C 163.574,316.293 161.241,317.293 158.5,317.5C 158.577,316.25 159.244,315.417 160.5,315C 162.134,314.506 163.801,314.34 165.5,314.5 Z"/></g>
<g><path style="opacity:0.789" fill="#5a5a5a" d="M 195.5,315.5 C 195.5,315.833 195.5,316.167 195.5,316.5C 189.347,317.653 183.014,317.82 176.5,317C 174.965,314.376 173.798,311.543 173,308.5C 171.223,310.79 169.056,312.457 166.5,313.5C 166.943,309.76 167.943,307.76 169.5,307.5C 171.5,307.5 173.5,307.5 175.5,307.5C 175.292,309.92 175.626,312.253 176.5,314.5C 182.798,315.496 189.132,315.83 195.5,315.5 Z"/></g>
<g><path style="opacity:0.663" fill="#5b5b5b" d="M 136.5,313.5 C 139.1,314.468 141.434,315.801 143.5,317.5C 140.454,317.275 138.121,315.942 136.5,313.5 Z"/></g>
<g><path style="opacity:0.318" fill="#747474" d="M 267.5,314.5 C 265.491,316.065 263.157,317.065 260.5,317.5C 262.32,315.552 264.654,314.552 267.5,314.5 Z"/></g>
<g><path style="opacity:0.681" fill="#777777" d="M 144.5,317.5 C 148.833,317.5 153.167,317.5 157.5,317.5C 153.167,320.167 148.833,320.167 144.5,317.5 Z"/></g>
<g><path style="opacity:0.594" fill="#777777" d="M 248.5,317.5 C 252.167,317.5 255.833,317.5 259.5,317.5C 255.833,320.167 252.167,320.167 248.5,317.5 Z"/></g>
</svg>
