<svg id="svg" version="1.1" xmlns="http://www.w3.org/2000/svg" xmlns:xlink="http://www.w3.org/1999/xlink" width="400" height="390.32258064516134" viewBox="0, 0, 400,390.32258064516134"><g id="svgg"><path id="path0" d="M357.031 88.495 C 354.131 88.997,350.176 89.685,348.242 90.025 C 346.309 90.364,339.980 91.437,334.180 92.408 C 324.131 94.091,317.213 95.288,312.500 96.159 C 311.318 96.378,310.008 96.548,309.588 96.539 C 309.169 96.529,308.608 96.701,308.342 96.922 C 308.076 97.142,307.541 97.283,307.152 97.234 C 306.763 97.185,306.182 97.255,305.859 97.389 C 305.537 97.523,298.857 98.702,291.016 100.010 C 248.878 107.038,241.595 108.282,241.225 108.512 C 241.002 108.650,240.469 108.778,240.039 108.797 C 239.609 108.816,238.270 109.050,237.063 109.316 C 235.856 109.582,234.713 109.764,234.524 109.721 C 234.335 109.677,233.916 109.748,233.594 109.878 C 233.271 110.008,227.031 111.106,219.727 112.318 C 212.422 113.530,201.348 115.390,195.117 116.452 C 188.887 117.514,183.174 118.481,182.422 118.601 C 181.670 118.721,178.506 119.252,175.391 119.782 C 172.275 120.312,169.054 120.833,168.231 120.941 C 167.409 121.048,166.305 121.300,165.778 121.500 C 165.007 121.794,133.552 127.207,119.141 129.527 C 117.314 129.821,114.502 130.291,112.891 130.572 L 109.961 131.082 109.971 134.193 C 109.982 137.682,110.503 152.633,110.760 156.836 C 110.943 159.831,111.269 166.782,111.547 173.574 C 111.760 178.787,112.007 183.707,112.297 188.477 C 112.414 190.410,112.949 203.418,113.485 217.383 C 114.021 231.348,114.552 244.883,114.665 247.461 C 114.778 250.039,115.831 276.934,117.005 307.227 C 119.487 371.298,119.217 365.234,119.591 365.234 C 119.755 365.234,120.889 363.960,122.111 362.402 C 123.334 360.845,124.528 359.393,124.765 359.176 C 125.118 358.852,126.540 357.078,128.205 354.883 C 128.368 354.668,129.559 353.133,130.852 351.471 C 132.145 349.809,133.203 348.351,133.203 348.231 C 133.203 348.111,133.845 347.319,134.629 346.472 C 135.413 345.624,136.502 344.270,137.048 343.462 C 137.595 342.653,138.228 341.804,138.455 341.573 C 140.063 339.939,146.484 331.714,146.484 331.288 C 146.484 331.088,146.616 330.866,146.777 330.794 C 146.938 330.723,147.811 329.697,148.717 328.516 C 149.622 327.334,150.765 325.904,151.256 325.337 C 151.747 324.771,152.676 323.655,153.320 322.856 C 153.965 322.058,154.712 321.172,154.980 320.887 C 155.249 320.602,155.469 320.270,155.469 320.150 C 155.469 320.029,155.724 319.621,156.036 319.243 C 156.347 318.864,158.040 316.709,159.797 314.453 C 161.554 312.197,163.321 310.000,163.724 309.570 C 164.128 309.141,166.420 306.240,168.820 303.125 C 171.219 300.010,175.519 294.533,178.376 290.954 C 181.233 287.375,184.380 283.288,185.370 281.872 C 186.360 280.456,187.332 279.297,187.530 279.297 C 187.728 279.297,187.891 279.119,187.891 278.903 C 187.891 278.686,188.397 277.979,189.015 277.332 C 189.634 276.684,190.643 275.412,191.258 274.503 C 191.873 273.595,192.648 272.588,192.979 272.266 C 193.311 271.943,195.108 269.658,196.974 267.188 C 198.839 264.717,200.896 262.080,201.544 261.328 C 202.193 260.576,204.352 257.851,206.342 255.273 C 210.148 250.343,214.495 244.862,214.862 244.531 C 215.062 244.351,222.006 235.266,223.953 232.639 C 224.421 232.006,225.508 230.669,226.367 229.667 C 228.279 227.439,228.793 226.799,230.278 224.805 C 230.917 223.945,231.536 223.154,231.651 223.047 C 231.767 222.939,232.559 221.887,233.411 220.709 C 234.264 219.531,236.279 216.969,237.891 215.017 C 239.502 213.064,241.212 210.952,241.692 210.323 C 242.171 209.694,243.563 207.861,244.786 206.250 C 246.732 203.685,252.382 196.509,258.128 189.303 C 259.136 188.039,260.488 186.262,261.133 185.354 C 261.777 184.447,263.247 182.581,264.398 181.208 C 267.934 176.990,268.996 175.667,270.636 173.438 C 271.506 172.256,272.799 170.500,273.511 169.537 C 274.222 168.573,275.159 167.430,275.592 166.998 C 276.627 165.965,280.192 161.455,282.749 157.947 C 286.406 152.927,288.469 151.621,292.081 152.040 C 294.053 152.269,294.543 152.434,295.318 153.125 C 295.679 153.447,296.474 154.063,297.084 154.492 C 297.694 154.922,299.083 155.971,300.171 156.823 C 302.084 158.323,302.526 158.697,305.469 161.307 C 306.221 161.974,308.770 164.000,311.133 165.808 C 313.496 167.617,316.221 169.815,317.188 170.692 C 318.154 171.570,320.241 173.294,321.824 174.523 C 323.408 175.752,326.635 178.340,328.996 180.273 C 331.357 182.207,333.867 184.229,334.574 184.766 C 335.282 185.303,337.591 187.150,339.707 188.870 C 341.823 190.590,344.170 192.462,344.922 193.029 C 345.674 193.597,346.685 194.437,347.168 194.897 C 347.651 195.357,348.047 195.647,348.047 195.542 C 348.047 195.436,348.530 195.807,349.121 196.366 C 349.712 196.925,352.832 199.473,356.055 202.030 C 359.277 204.586,362.793 207.439,363.867 208.371 C 367.313 211.359,368.462 212.284,374.414 216.867 C 375.901 218.012,380.021 221.396,380.664 222.001 C 381.094 222.405,383.994 224.731,387.109 227.169 C 390.225 229.607,393.740 232.485,394.922 233.565 C 397.397 235.826,398.273 236.097,397.856 234.473 C 397.705 233.882,397.503 232.959,397.409 232.422 C 397.171 231.074,392.746 211.106,391.781 207.031 C 390.333 200.915,389.037 195.127,388.871 194.034 C 388.781 193.438,388.599 192.776,388.467 192.563 C 388.335 192.349,388.156 191.782,388.069 191.302 C 387.982 190.822,387.486 188.672,386.967 186.523 C 386.449 184.375,385.653 180.947,385.199 178.906 C 383.328 170.501,379.961 155.167,379.667 153.711 C 379.493 152.852,378.885 150.215,378.315 147.852 C 377.745 145.488,377.197 143.027,377.098 142.383 C 376.998 141.738,376.819 140.947,376.701 140.625 C 376.583 140.303,376.399 139.512,376.292 138.867 C 376.186 138.223,375.941 137.503,375.748 137.269 C 375.555 137.034,375.513 136.726,375.655 136.585 C 375.797 136.443,375.714 135.932,375.471 135.449 C 375.228 134.966,372.984 125.342,370.485 114.063 C 367.985 102.783,365.861 93.203,365.763 92.773 C 365.666 92.344,365.389 90.981,365.146 89.746 C 364.620 87.063,364.987 87.119,357.031 88.495 M290.100 386.652 C 289.353 387.477,289.277 387.891,289.872 387.891 C 290.379 387.891,291.174 387.074,291.309 386.416 C 291.452 385.714,290.841 385.833,290.100 386.652 " stroke="none" fill="#447cf4" fill-rule="evenodd"></path><path id="path1" d="M177.344 8.641 C 174.658 9.936,172.153 11.091,171.777 11.208 C 171.401 11.324,171.094 11.585,171.094 11.787 C 171.094 11.990,170.938 12.059,170.747 11.941 C 170.557 11.824,170.184 11.989,169.918 12.309 C 169.653 12.629,169.305 12.891,169.146 12.891 C 168.986 12.891,166.503 14.004,163.627 15.366 C 160.751 16.727,157.695 18.159,156.836 18.547 C 155.977 18.935,151.318 21.212,146.484 23.607 C 141.650 26.003,136.816 28.339,135.742 28.799 C 134.668 29.259,130.852 31.054,127.262 32.787 C 123.673 34.520,120.610 35.938,120.457 35.938 C 120.304 35.938,119.901 36.179,119.562 36.474 C 119.223 36.769,114.902 38.899,109.961 41.208 C 98.051 46.772,95.807 47.865,95.114 48.440 C 94.793 48.706,94.529 48.770,94.525 48.583 C 94.522 48.396,94.390 48.422,94.232 48.641 C 93.974 48.999,90.018 50.933,82.813 54.224 C 79.856 55.574,72.903 58.983,71.484 59.777 C 70.947 60.078,70.420 60.333,70.313 60.345 C 70.205 60.356,68.447 61.186,66.406 62.189 C 57.778 66.427,48.737 70.703,48.405 70.703 C 47.996 70.703,44.054 72.728,43.753 73.092 C 43.644 73.224,42.850 73.690,41.989 74.126 L 40.423 74.920 39.108 81.112 C 38.385 84.518,37.611 87.655,37.387 88.082 C 37.164 88.510,36.939 89.213,36.888 89.645 C 36.837 90.076,36.433 91.924,35.989 93.750 C 35.028 97.713,34.022 102.223,29.106 124.609 C 27.053 133.955,25.183 141.977,24.950 142.435 C 24.717 142.894,24.485 143.788,24.435 144.422 C 24.385 145.056,24.249 145.735,24.132 145.932 C 24.015 146.128,23.799 146.904,23.651 147.656 C 23.503 148.408,23.046 150.430,22.635 152.148 C 22.225 153.867,19.860 164.502,17.381 175.781 C 14.901 187.061,12.762 196.553,12.627 196.875 C 12.329 197.588,12.581 196.549,10.211 206.836 C 7.662 217.902,2.734 240.192,2.734 240.657 C 2.734 241.784,4.068 240.477,6.836 236.638 C 8.555 234.254,10.840 231.244,11.914 229.948 C 12.988 228.653,15.130 225.911,16.673 223.855 C 18.216 221.799,20.589 218.637,21.946 216.829 C 23.304 215.020,24.593 213.350,24.813 213.118 C 25.032 212.885,25.911 211.816,26.766 210.742 C 27.621 209.668,28.452 208.730,28.613 208.659 C 28.774 208.587,28.906 208.352,28.906 208.136 C 28.906 207.747,30.256 205.957,37.507 196.726 C 39.552 194.122,42.629 190.079,44.343 187.740 C 46.058 185.401,48.340 182.425,49.414 181.126 C 50.488 179.827,52.630 177.083,54.173 175.027 C 55.716 172.971,58.089 169.809,59.446 168.000 C 60.804 166.192,62.093 164.522,62.313 164.290 C 62.532 164.057,63.411 162.988,64.266 161.914 C 65.121 160.840,65.952 159.902,66.113 159.831 C 66.274 159.759,66.406 159.524,66.406 159.307 C 66.406 158.919,67.756 157.129,75.007 147.897 C 77.052 145.294,80.129 141.251,81.843 138.912 C 83.558 136.573,85.840 133.597,86.914 132.298 C 87.988 130.999,90.130 128.255,91.673 126.199 C 93.216 124.143,95.589 120.981,96.946 119.172 C 98.304 117.364,99.593 115.694,99.813 115.461 C 100.032 115.229,100.911 114.160,101.766 113.086 C 102.621 112.012,103.452 111.074,103.613 111.003 C 103.774 110.931,103.906 110.696,103.906 110.479 C 103.906 110.091,105.256 108.301,112.507 99.069 C 114.552 96.466,117.629 92.422,119.343 90.084 C 121.058 87.745,123.340 84.769,124.414 83.470 C 125.488 82.171,127.630 79.426,129.173 77.371 C 130.716 75.315,133.089 72.153,134.446 70.344 C 135.804 68.535,137.093 66.866,137.313 66.633 C 137.532 66.401,138.411 65.332,139.266 64.258 C 140.121 63.184,140.952 62.246,141.113 62.174 C 141.274 62.103,141.406 61.867,141.406 61.651 C 141.406 61.263,142.756 59.473,150.007 50.241 C 152.052 47.638,155.129 43.594,156.843 41.256 C 158.558 38.917,160.840 35.941,161.914 34.642 C 162.988 33.343,165.130 30.598,166.673 28.542 C 168.216 26.487,170.589 23.325,171.946 21.516 C 173.304 19.707,174.593 18.037,174.813 17.805 C 175.032 17.573,175.911 16.504,176.766 15.430 C 177.621 14.355,178.452 13.418,178.613 13.346 C 178.774 13.275,178.906 13.031,178.906 12.804 C 178.906 12.577,179.873 11.194,181.055 9.732 C 184.511 5.454,184.163 5.352,177.344 8.641 M92.876 149.121 C 88.880 154.367,88.115 155.352,86.882 156.836 C 85.262 158.785,82.850 161.960,79.196 166.950 C 77.640 169.075,75.258 172.136,73.902 173.753 C 72.546 175.369,70.612 177.829,69.605 179.218 C 66.989 182.828,62.784 188.442,62.525 188.672 C 62.000 189.138,59.519 192.130,58.984 192.943 C 57.567 195.096,50.180 204.865,48.774 206.445 C 47.895 207.432,45.325 210.821,41.696 215.778 C 40.140 217.903,37.758 220.965,36.402 222.581 C 35.046 224.197,33.112 226.657,32.105 228.047 C 29.489 231.656,25.284 237.270,25.025 237.500 C 24.500 237.966,22.019 240.958,21.484 241.771 C 19.814 244.309,12.320 254.167,11.319 255.142 C 8.572 257.819,8.579 259.102,11.361 262.109 C 12.454 263.291,15.427 266.982,17.968 270.313 C 20.508 273.643,23.475 277.334,24.561 278.516 C 25.646 279.697,26.541 280.782,26.548 280.926 C 26.556 281.071,28.866 284.059,31.681 287.567 C 37.092 294.309,44.684 303.829,47.516 307.422 C 48.447 308.604,49.443 309.834,49.730 310.156 C 50.572 311.105,56.264 318.310,58.678 321.484 C 59.904 323.096,61.538 325.094,62.311 325.924 C 63.083 326.754,64.451 328.424,65.352 329.635 C 67.485 332.503,72.684 339.114,73.320 339.768 C 73.593 340.049,74.646 341.357,75.660 342.675 C 78.475 346.332,85.421 355.080,86.905 356.836 C 88.548 358.779,94.647 366.522,96.484 368.996 C 97.235 370.009,98.293 371.290,98.834 371.844 C 99.374 372.398,100.752 374.038,101.895 375.488 C 103.038 376.938,104.134 378.125,104.331 378.125 C 104.824 378.125,104.902 380.643,102.711 325.781 C 101.625 298.604,100.647 273.027,100.536 268.945 C 100.425 264.863,100.190 261.172,100.012 260.742 C 99.835 260.313,98.788 236.055,97.686 206.836 C 95.562 150.538,95.391 146.875,94.899 146.875 C 94.728 146.875,93.817 147.886,92.876 149.121 " stroke="none" fill="#9bc4fc" fill-rule="evenodd"></path><path id="path2" d="M291.797 170.367 C 291.797 170.849,288.391 175.179,285.917 177.842 C 285.074 178.750,284.383 179.710,284.380 179.977 C 284.377 180.244,284.023 180.682,283.594 180.950 C 283.164 181.218,282.813 181.579,282.813 181.751 C 282.813 181.923,282.635 182.277,282.419 182.536 C 282.202 182.796,281.144 184.150,280.067 185.547 C 277.144 189.338,274.774 192.277,273.861 193.245 C 273.413 193.720,273.047 194.228,273.047 194.375 C 273.047 194.522,272.289 195.540,271.362 196.638 C 270.435 197.735,268.060 200.742,266.084 203.320 C 264.108 205.898,262.260 208.271,261.977 208.594 C 261.695 208.916,260.275 210.674,258.823 212.500 C 257.371 214.326,255.627 216.506,254.947 217.345 C 254.267 218.183,253.639 219.059,253.550 219.291 C 253.376 219.750,251.168 222.542,249.499 224.414 C 247.799 226.321,244.531 230.418,244.531 230.642 C 244.531 230.757,244.281 231.160,243.976 231.539 C 243.670 231.917,241.967 234.072,240.192 236.328 C 238.416 238.584,236.756 240.605,236.503 240.820 C 236.250 241.035,235.303 242.231,234.400 243.477 C 232.448 246.172,225.902 254.642,224.114 256.788 C 220.384 261.264,215.531 267.482,215.236 268.164 C 215.050 268.594,213.844 270.147,212.558 271.616 C 211.271 273.085,209.321 275.458,208.225 276.889 C 207.130 278.321,204.888 281.250,203.243 283.398 C 201.599 285.547,199.933 287.534,199.541 287.815 C 199.149 288.096,198.828 288.515,198.828 288.746 C 198.828 288.977,198.521 289.452,198.145 289.802 C 196.095 291.709,196.188 292.545,198.695 294.727 C 201.195 296.903,208.530 303.446,212.500 307.042 C 214.326 308.696,217.677 311.699,219.945 313.716 C 222.214 315.733,225.994 319.141,228.345 321.289 C 230.696 323.438,233.559 325.986,234.706 326.953 C 235.854 327.920,237.439 329.326,238.229 330.078 C 241.143 332.854,244.821 336.191,247.268 338.281 C 248.652 339.463,250.228 340.878,250.771 341.426 C 251.971 342.637,258.358 348.385,261.097 350.718 C 262.191 351.650,264.327 353.584,265.845 355.015 C 269.704 358.655,271.712 360.445,274.417 362.655 C 275.704 363.707,277.550 365.377,278.517 366.366 C 280.802 368.701,286.270 373.583,288.164 374.979 C 288.981 375.581,290.791 377.237,292.188 378.660 C 295.053 381.579,295.319 381.673,296.468 380.176 C 298.009 378.166,300.189 375.439,303.323 371.603 C 305.043 369.497,307.459 366.437,308.691 364.803 C 309.924 363.170,311.505 361.204,312.204 360.435 C 314.934 357.436,315.619 356.622,316.293 355.576 C 316.678 354.980,317.203 354.229,317.461 353.906 C 317.720 353.584,319.377 351.475,321.144 349.219 C 322.911 346.963,324.752 344.678,325.235 344.141 C 325.718 343.604,328.590 340.000,331.617 336.133 C 334.644 332.266,337.296 328.926,337.510 328.711 C 337.724 328.496,339.079 326.826,340.521 325.000 C 341.963 323.174,343.235 321.592,343.348 321.484 C 343.977 320.889,346.484 317.600,346.484 317.371 C 346.484 317.065,348.727 314.339,351.135 311.719 C 352.024 310.752,353.494 308.926,354.403 307.660 C 356.537 304.689,362.725 296.965,363.983 295.703 C 364.519 295.166,365.239 294.279,365.584 293.731 C 366.238 292.693,374.310 282.370,375.447 281.117 C 375.806 280.722,378.050 277.910,380.434 274.867 C 385.399 268.531,386.412 267.260,391.117 261.451 C 396.134 255.258,396.083 255.328,396.089 254.633 C 396.093 254.053,393.849 252.107,386.842 246.619 C 385.514 245.578,382.764 243.320,380.730 241.602 C 378.697 239.883,375.389 237.207,373.380 235.654 C 371.371 234.102,368.917 232.081,367.927 231.162 C 366.938 230.244,365.536 229.053,364.813 228.516 C 362.972 227.149,353.526 219.576,352.344 218.519 C 351.807 218.039,350.313 216.808,349.023 215.785 C 345.140 212.701,338.880 207.634,338.672 207.405 C 338.564 207.287,336.193 205.353,333.402 203.107 C 330.611 200.861,327.798 198.541,327.152 197.951 C 326.505 197.361,325.800 196.878,325.585 196.877 C 325.369 196.876,324.293 196.025,323.192 194.987 C 321.330 193.229,317.287 189.921,312.060 185.879 C 310.851 184.945,308.478 182.972,306.786 181.496 C 305.095 180.019,302.744 178.092,301.563 177.212 C 298.372 174.836,293.183 170.591,293.034 170.234 C 292.833 169.753,291.797 169.865,291.797 170.367 M112.200 196.094 C 112.200 196.846,112.280 197.153,112.379 196.777 C 112.477 196.401,112.477 195.786,112.379 195.410 C 112.280 195.034,112.200 195.342,112.200 196.094 M348.047 195.845 C 348.047 195.953,348.574 196.416,349.219 196.875 C 349.863 197.334,350.391 197.622,350.391 197.514 C 350.391 197.407,349.863 196.943,349.219 196.484 C 348.574 196.025,348.047 195.738,348.047 195.845 " stroke="none" fill="#044cd4" fill-rule="evenodd"></path><path id="path3" d="M205.354 2.637 C 202.301 6.805,199.167 10.750,198.814 10.872 C 198.607 10.944,198.438 11.165,198.438 11.364 C 198.438 11.563,197.075 13.446,195.410 15.548 C 193.745 17.649,191.592 20.486,190.625 21.851 C 189.658 23.215,187.978 25.405,186.892 26.717 C 185.806 28.028,182.750 32.002,180.100 35.547 C 177.451 39.092,175.053 42.256,174.771 42.578 C 174.308 43.106,172.883 44.758,171.582 46.273 C 171.313 46.586,171.094 46.948,171.094 47.076 C 171.094 47.205,169.979 48.756,168.616 50.521 C 167.253 52.287,165.106 55.089,163.844 56.749 C 162.583 58.408,161.413 59.766,161.244 59.766 C 161.076 59.766,160.938 59.943,160.938 60.160 C 160.938 60.377,159.575 62.274,157.910 64.376 C 156.245 66.478,154.092 69.314,153.125 70.679 C 152.158 72.044,150.478 74.233,149.392 75.545 C 148.306 76.857,145.250 80.830,142.600 84.375 C 139.951 87.920,137.553 91.084,137.271 91.406 C 136.808 91.934,135.383 93.586,134.082 95.101 C 133.813 95.414,133.594 95.776,133.594 95.905 C 133.594 96.034,132.479 97.584,131.116 99.349 C 129.753 101.115,127.606 103.917,126.344 105.577 C 125.083 107.236,123.913 108.594,123.744 108.594 C 123.576 108.594,123.438 108.789,123.438 109.028 C 123.438 109.267,122.734 110.302,121.875 111.328 C 120.398 113.092,119.947 114.063,120.605 114.062 C 120.936 114.061,141.068 110.616,142.578 110.302 C 143.115 110.190,143.906 110.054,144.336 109.999 C 144.766 109.944,145.381 109.793,145.703 109.664 C 146.025 109.534,155.957 107.816,167.773 105.847 C 179.590 103.877,194.795 101.308,201.563 100.138 C 208.330 98.968,214.219 97.961,214.648 97.901 C 215.078 97.840,215.693 97.677,216.016 97.539 C 216.338 97.400,226.621 95.614,238.867 93.570 C 251.113 91.527,265.703 89.049,271.289 88.065 C 276.875 87.081,282.236 86.193,283.203 86.093 C 284.170 85.993,285.313 85.748,285.742 85.548 C 286.172 85.349,300.234 82.896,316.992 80.098 C 356.402 73.518,354.714 73.814,355.932 73.278 C 357.642 72.524,357.752 72.593,346.875 67.563 C 335.554 62.327,332.920 61.037,332.648 60.597 C 332.498 60.354,332.035 60.156,331.618 60.156 C 331.201 60.156,330.859 59.970,330.859 59.743 C 330.859 59.515,330.684 59.438,330.469 59.570 C 330.254 59.703,330.078 59.596,330.078 59.333 C 330.078 59.070,329.975 58.958,329.848 59.084 C 329.722 59.210,328.272 58.644,326.626 57.824 C 324.980 57.005,320.908 55.067,317.578 53.518 C 314.248 51.969,309.854 49.852,307.813 48.814 C 303.721 46.733,291.014 40.625,290.775 40.625 C 290.693 40.625,285.571 38.142,279.394 35.107 C 273.218 32.072,266.670 28.926,264.844 28.117 C 263.018 27.307,258.535 25.150,254.883 23.323 C 251.230 21.497,247.187 19.520,245.898 18.932 C 244.609 18.343,239.775 16.016,235.156 13.760 C 217.335 5.056,208.168 0.781,207.329 0.781 C 206.991 0.781,206.102 1.616,205.354 2.637 M112.208 193.555 C 112.212 194.414,112.292 194.720,112.386 194.234 C 112.479 193.748,112.476 193.045,112.378 192.671 C 112.280 192.298,112.204 192.695,112.208 193.555 M100.481 271.875 C 100.481 272.627,100.562 272.935,100.660 272.559 C 100.758 272.183,100.758 271.567,100.660 271.191 C 100.562 270.815,100.481 271.123,100.481 271.875 " stroke="none" fill="#6ca4fc" fill-rule="evenodd"></path><path id="path4" d="M184.656 306.934 C 179.888 312.932,176.562 317.278,176.556 317.518 C 176.553 317.658,175.665 318.740,174.583 319.922 C 172.844 321.820,171.030 324.140,165.574 331.445 C 164.771 332.520,163.035 334.629,161.715 336.133 C 160.395 337.637,158.860 339.570,158.304 340.430 C 157.502 341.668,151.219 349.710,149.225 352.050 C 147.963 353.530,139.253 364.799,138.731 365.625 C 138.392 366.162,137.253 367.561,136.200 368.733 C 135.147 369.905,132.282 373.508,129.832 376.740 C 127.382 379.973,124.502 383.663,123.431 384.942 C 122.360 386.220,121.484 387.406,121.484 387.578 C 121.484 387.750,157.095 387.891,200.618 387.891 C 263.749 387.891,279.721 387.792,279.596 387.402 C 279.510 387.134,277.702 385.462,275.579 383.688 C 273.456 381.914,270.303 379.067,268.574 377.362 C 266.845 375.656,264.199 373.264,262.695 372.045 C 261.191 370.826,257.818 367.803,255.198 365.327 C 252.578 362.851,249.955 360.511,249.368 360.126 C 248.782 359.741,246.023 357.262,243.238 354.616 C 240.452 351.970,237.802 349.555,237.348 349.250 C 236.451 348.646,233.980 346.432,229.068 341.828 C 227.330 340.199,224.694 337.838,223.208 336.580 C 221.723 335.323,218.926 332.830,216.992 331.041 C 208.177 322.884,187.369 304.319,187.028 304.307 C 186.876 304.301,185.809 305.483,184.656 306.934 " stroke="none" fill="#2c3494" fill-rule="evenodd"></path><path id="path5" d="" stroke="none" fill="#4c78f8" fill-rule="evenodd"></path><path id="path6" d="M111.809 183.203 C 111.809 183.955,111.890 184.263,111.988 183.887 C 112.086 183.511,112.086 182.896,111.988 182.520 C 111.890 182.144,111.809 182.451,111.809 183.203 M112.200 191.016 C 112.200 191.768,112.280 192.075,112.379 191.699 C 112.477 191.323,112.477 190.708,112.379 190.332 C 112.280 189.956,112.200 190.264,112.200 191.016 " stroke="none" fill="#4c78fc" fill-rule="evenodd"></path><path id="path7" d="" stroke="none" fill="#4c78f8" fill-rule="evenodd"></path><path id="path8" d="" stroke="none" fill="#4c78f8" fill-rule="evenodd"></path></g></svg>