<?xml version="1.0" encoding="UTF-8"?>
<!DOCTYPE svg PUBLIC "-//W3C//DTD SVG 1.1//EN" "http://www.w3.org/Graphics/SVG/1.1/DTD/svg11.dtd">
<svg xmlns="http://www.w3.org/2000/svg" version="1.1" width="499px" height="500px" style="shape-rendering:geometricPrecision; text-rendering:geometricPrecision; image-rendering:optimizeQuality; fill-rule:evenodd; clip-rule:evenodd" xmlns:xlink="http://www.w3.org/1999/xlink">
<g><path style="opacity:1" fill="#7396d9" d="M 171.5,163.5 C 160.167,163.5 148.833,163.5 137.5,163.5C 142.925,162.016 148.591,161.349 154.5,161.5C 160.409,161.349 166.075,162.016 171.5,163.5 Z"/></g>
<g><path style="opacity:0.918" fill="#98bff1" d="M 357.5,162.5 C 349.152,162.543 340.819,162.876 332.5,163.5C 337.423,162.046 342.589,161.379 348,161.5C 351.352,161.502 354.518,161.835 357.5,162.5 Z"/></g>
<g><path style="opacity:0.996" fill="#4188ee" d="M 357.5,162.5 C 362.5,162.498 367.167,163.498 371.5,165.5C 373.102,167.074 375.102,167.741 377.5,167.5C 378.833,168.5 380.167,169.5 381.5,170.5C 373.732,168.078 365.732,166.912 357.5,167C 359.044,166.71 360.377,166.044 361.5,165C 352.167,164.333 342.833,164.333 333.5,165C 326.487,166.177 326.154,167.344 332.5,168.5C 332.716,173.727 331.049,174.56 327.5,171C 324.607,169.851 321.607,169.351 318.5,169.5C 318.833,168.833 319.167,168.167 319.5,167.5C 320.93,166.463 322.597,165.796 324.5,165.5C 327.228,165.829 329.562,165.163 331.5,163.5C 331.833,163.5 332.167,163.5 332.5,163.5C 340.819,162.876 349.152,162.543 357.5,162.5 Z"/></g>
<g><path style="opacity:0.557" fill="#a4c8f3" d="M 173.5,163.5 C 176.067,163.721 178.401,164.388 180.5,165.5C 177.772,165.829 175.438,165.163 173.5,163.5 Z"/></g>
<g><path style="opacity:0.808" fill="#aacaf6" d="M 331.5,163.5 C 329.562,165.163 327.228,165.829 324.5,165.5C 326.599,164.388 328.933,163.721 331.5,163.5 Z"/></g>
<g><path style="opacity:0.859" fill="#8aade6" d="M 133.5,164.5 C 128.767,166.744 123.767,168.411 118.5,169.5C 123.085,166.86 128.085,165.194 133.5,164.5 Z"/></g>
<g><path style="opacity:0.553" fill="#a7c3f6" d="M 371.5,165.5 C 373.786,165.595 375.786,166.262 377.5,167.5C 375.102,167.741 373.102,167.074 371.5,165.5 Z"/></g>
<g><path style="opacity:0.376" fill="#afcbf2" d="M 186.5,167.5 C 188.553,167.402 190.22,168.069 191.5,169.5C 189.447,169.598 187.78,168.931 186.5,167.5 Z"/></g>
<g><path style="opacity:0.847" fill="#9ac4f7" d="M 319.5,167.5 C 319.167,168.167 318.833,168.833 318.5,169.5C 317.167,169.5 315.833,169.5 314.5,169.5C 315.93,168.463 317.597,167.796 319.5,167.5 Z"/></g>
<g><path style="opacity:0.224" fill="#a8d2f9" d="M 191.5,169.5 C 193.553,169.402 195.22,170.069 196.5,171.5C 194.447,171.598 192.78,170.931 191.5,169.5 Z"/></g>
<g><path style="opacity:1" fill="#0865e1" d="M 183.5,166.5 C 184.791,166.263 185.791,166.596 186.5,167.5C 187.78,168.931 189.447,169.598 191.5,169.5C 192.78,170.931 194.447,171.598 196.5,171.5C 196.5,171.833 196.5,172.167 196.5,172.5C 198.331,174.776 200.664,176.609 203.5,178C 205.436,178.813 207.436,179.313 209.5,179.5C 210.492,179.328 211.158,179.662 211.5,180.5C 212.035,182.446 213.368,183.446 215.5,183.5C 216.539,185.531 218.205,186.864 220.5,187.5C 222.191,188.864 223.858,190.197 225.5,191.5C 225.5,192.833 226.167,193.5 227.5,193.5C 228.523,195.846 229.523,198.179 230.5,200.5C 232.216,200.629 233.883,200.962 235.5,201.5C 237.766,205.436 240.766,208.769 244.5,211.5C 245.757,214.427 247.757,216.761 250.5,218.5C 251.08,220.749 252.413,222.415 254.5,223.5C 261.146,233.12 268.146,242.454 275.5,251.5C 275.66,253.153 276.326,254.486 277.5,255.5C 277.5,256.167 277.833,256.5 278.5,256.5C 278.427,258.027 279.094,259.027 280.5,259.5C 280.427,261.027 281.094,262.027 282.5,262.5C 282.427,264.027 283.094,265.027 284.5,265.5C 284.427,267.027 285.094,268.027 286.5,268.5C 286.427,270.027 287.094,271.027 288.5,271.5C 288.427,273.027 289.094,274.027 290.5,274.5C 291.338,274.842 291.672,275.508 291.5,276.5C 291.5,277.167 291.5,277.833 291.5,278.5C 291.207,280.689 290.707,282.689 290,284.5C 290.333,284.833 290.667,285.167 291,285.5C 291.71,284.027 292.876,283.36 294.5,283.5C 294.567,285.401 294.233,287.234 293.5,289C 293.905,289.945 294.572,290.612 295.5,291C 294.833,291.333 294.167,291.667 293.5,292C 294.478,295.926 293.478,299.426 290.5,302.5C 291.242,303.287 292.075,303.953 293,304.5C 294.036,321.73 293.536,338.896 291.5,356C 291.691,358.05 292.358,359.883 293.5,361.5C 292.726,362.711 291.893,362.711 291,361.5C 290.333,366.833 289.667,366.833 289,361.5C 288.333,360.167 287.667,360.167 287,361.5C 285.366,359.163 283.533,357.163 281.5,355.5C 281.167,354.5 280.5,353.833 279.5,353.5C 278.662,353.158 278.328,352.492 278.5,351.5C 277.483,347.448 275.483,344.115 272.5,341.5C 272.446,339.368 271.446,338.035 269.5,337.5C 269.5,337.167 269.5,336.833 269.5,336.5C 269.13,333.733 267.796,331.733 265.5,330.5C 264.662,330.158 264.328,329.492 264.5,328.5C 264.25,326.326 263.25,324.659 261.5,323.5C 260.662,323.158 260.328,322.492 260.5,321.5C 260.573,319.973 259.906,318.973 258.5,318.5C 257.662,318.158 257.328,317.492 257.5,316.5C 257.573,314.973 256.906,313.973 255.5,313.5C 254.662,313.158 254.328,312.492 254.5,311.5C 254.167,310.167 253.833,308.833 253.5,307.5C 253.5,306.167 253.5,304.833 253.5,303.5C 251.61,303.703 250.11,303.037 249,301.5C 241.667,290.011 234.167,278.678 226.5,267.5C 226.5,266.167 225.833,265.5 224.5,265.5C 221.776,257.354 217.109,250.687 210.5,245.5C 210.158,244.662 209.492,244.328 208.5,244.5C 207.919,240.255 205.586,237.589 201.5,236.5C 200.85,234.565 200.517,232.565 200.5,230.5C 198.833,230.5 197.167,230.5 195.5,230.5C 194.5,230.167 193.833,229.5 193.5,228.5C 192.089,226.086 190.089,224.419 187.5,223.5C 187.027,222.094 186.027,221.427 184.5,221.5C 184.027,220.094 183.027,219.427 181.5,219.5C 180.508,219.672 179.842,219.338 179.5,218.5C 178.313,216.025 176.313,215.025 173.5,215.5C 172.365,213.787 170.698,213.12 168.5,213.5C 168.167,213.5 167.833,213.5 167.5,213.5C 164.98,212.082 162.313,211.082 159.5,210.5C 159.631,209.624 159.298,208.957 158.5,208.5C 156.941,207.926 155.441,207.26 154,206.5C 153.177,194.379 153.511,182.379 155,170.5C 154.333,173.167 153.667,173.167 153,170.5C 152.333,173.167 151.667,173.167 151,170.5C 150.333,173.167 149.667,173.167 149,170.5C 148.333,173.167 147.667,173.167 147,170.5C 146.195,172.901 145.362,172.734 144.5,170C 145.191,168.933 145.691,167.766 146,166.5C 146.333,166.833 146.667,167.167 147,167.5C 148.171,166.107 149.671,165.273 151.5,165C 157.833,164.333 164.167,164.333 170.5,165C 170.833,165.333 171.167,165.667 171.5,166C 170.5,167.667 169.167,169 167.5,170C 170.146,170.497 172.813,170.664 175.5,170.5C 175.5,169.167 175.5,167.833 175.5,166.5C 178.167,166.5 180.833,166.5 183.5,166.5 Z"/></g>
<g><path style="opacity:1" fill="#0a65de" d="M 137.5,163.5 C 148.833,163.5 160.167,163.5 171.5,163.5C 172.167,163.5 172.833,163.5 173.5,163.5C 175.438,165.163 177.772,165.829 180.5,165.5C 181.791,165.263 182.791,165.596 183.5,166.5C 180.833,166.5 178.167,166.5 175.5,166.5C 175.5,167.833 175.5,169.167 175.5,170.5C 172.813,170.664 170.146,170.497 167.5,170C 169.167,169 170.5,167.667 171.5,166C 171.167,165.667 170.833,165.333 170.5,165C 164.167,164.333 157.833,164.333 151.5,165C 149.671,165.273 148.171,166.107 147,167.5C 146.667,167.167 146.333,166.833 146,166.5C 145.691,167.766 145.191,168.933 144.5,170C 145.362,172.734 146.195,172.901 147,170.5C 147.667,173.167 148.333,173.167 149,170.5C 149.667,173.167 150.333,173.167 151,170.5C 151.667,173.167 152.333,173.167 153,170.5C 153.667,173.167 154.333,173.167 155,170.5C 153.511,182.379 153.177,194.379 154,206.5C 155.441,207.26 156.941,207.926 158.5,208.5C 159.298,208.957 159.631,209.624 159.5,210.5C 153.465,210.537 147.465,211.037 141.5,212C 139.121,212.716 137.121,213.883 135.5,215.5C 135.158,216.338 134.492,216.672 133.5,216.5C 131.833,216.5 130.167,216.5 128.5,216.5C 128.5,217.5 128.5,218.5 128.5,219.5C 126.833,219.5 125.167,219.5 123.5,219.5C 123.5,220.833 123.5,222.167 123.5,223.5C 121.973,223.427 120.973,224.094 120.5,225.5C 118.804,227.525 117.137,229.525 115.5,231.5C 113.938,231.733 112.605,232.4 111.5,233.5C 108.013,234.445 106.68,236.778 107.5,240.5C 106.094,240.973 105.427,241.973 105.5,243.5C 105.573,245.027 104.906,246.027 103.5,246.5C 101.75,247.659 100.75,249.326 100.5,251.5C 99.2262,254.76 97.5595,257.76 95.5,260.5C 93.8958,261.287 93.2291,262.62 93.5,264.5C 92.2719,265.306 91.2719,266.306 90.5,267.5C 90.5,266.167 90.5,264.833 90.5,263.5C 89.5,263.5 88.5,263.5 87.5,263.5C 88.1323,272.455 86.7989,272.789 83.5,264.5C 83.622,262.006 84.622,261.339 86.5,262.5C 87.4519,260.955 87.7852,259.288 87.5,257.5C 84.8431,257.838 82.5098,257.171 80.5,255.5C 80.1667,255.833 79.8333,256.167 79.5,256.5C 82.2647,259.704 81.9314,262.537 78.5,265C 68.5056,265.5 58.5056,265.666 48.5,265.5C 48.6633,267.857 48.4966,270.19 48,272.5C 44.9096,274.106 44.0763,273.44 45.5,270.5C 44.3877,268.61 43.5544,266.61 43,264.5C 42.2832,269.22 42.4498,273.886 43.5,278.5C 42.8826,278.389 42.3826,278.056 42,277.5C 41.5012,273.514 41.3345,269.514 41.5,265.5C 41.5,264.167 41.5,262.833 41.5,261.5C 44.1648,259.165 45.4982,256.165 45.5,252.5C 45.2627,251.209 45.596,250.209 46.5,249.5C 47.5,249.5 48.5,249.5 49.5,249.5C 49.2308,247.571 49.7308,245.905 51,244.5C 53.6979,248.814 55.6979,248.48 57,243.5C 57.6836,241.521 57.1836,239.854 55.5,238.5C 59.8466,234.464 61.8466,229.464 61.5,223.5C 62.1098,222.609 62.4431,221.609 62.5,220.5C 63.9063,220.027 64.573,219.027 64.5,217.5C 65.9063,217.027 66.573,216.027 66.5,214.5C 67.9063,214.027 68.573,213.027 68.5,211.5C 70.2624,210.738 71.2624,209.404 71.5,207.5C 71.8333,206.5 72.5,205.833 73.5,205.5C 75.914,204.089 77.5806,202.089 78.5,199.5C 81.5,196.833 84.5,194.167 87.5,191.5C 90.5,189.167 93.1667,186.5 95.5,183.5C 97.4044,183.262 98.7377,182.262 99.5,180.5C 101.027,180.573 102.027,179.906 102.5,178.5C 104.027,178.573 105.027,177.906 105.5,176.5C 107.848,176.408 109.514,175.408 110.5,173.5C 113.393,173.969 115.393,172.969 116.5,170.5C 116.842,169.662 117.508,169.328 118.5,169.5C 123.767,168.411 128.767,166.744 133.5,164.5C 134.568,163.566 135.901,163.232 137.5,163.5 Z"/></g>
<g><path style="opacity:0.635" fill="#9ec2f6" d="M 314.5,169.5 C 313.514,171.408 311.848,172.408 309.5,172.5C 310.659,170.75 312.326,169.75 314.5,169.5 Z"/></g>
<g><path style="opacity:1" fill="#85b3ef" d="M 377.5,167.5 C 382.251,168.71 386.584,170.71 390.5,173.5C 387.196,173.261 384.196,172.261 381.5,170.5C 380.167,169.5 378.833,168.5 377.5,167.5 Z"/></g>
<g><path style="opacity:1" fill="#648bda" d="M 116.5,170.5 C 115.393,172.969 113.393,173.969 110.5,173.5C 112.181,171.992 114.181,170.992 116.5,170.5 Z"/></g>
<g><path style="opacity:0.255" fill="#b9d2f7" d="M 196.5,172.5 C 196.5,172.167 196.5,171.833 196.5,171.5C 198.674,171.75 200.341,172.75 201.5,174.5C 199.716,174.107 198.05,173.441 196.5,172.5 Z"/></g>
<g><path style="opacity:0.71" fill="#8eb8f3" d="M 309.5,172.5 C 308.514,174.408 306.848,175.408 304.5,175.5C 305.659,173.75 307.326,172.75 309.5,172.5 Z"/></g>
<g><path style="opacity:0.616" fill="#94aeec" d="M 110.5,173.5 C 109.514,175.408 107.848,176.408 105.5,176.5C 106.659,174.75 108.326,173.75 110.5,173.5 Z"/></g>
<g><path style="opacity:0.235" fill="#acd1f5" d="M 203.5,175.5 C 205.027,175.427 206.027,176.094 206.5,177.5C 204.973,177.573 203.973,176.906 203.5,175.5 Z"/></g>
<g><path style="opacity:0.686" fill="#99b5f3" d="M 105.5,176.5 C 105.027,177.906 104.027,178.573 102.5,178.5C 102.973,177.094 103.973,176.427 105.5,176.5 Z"/></g>
<g><path style="opacity:1" fill="#577dd3" d="M 196.5,172.5 C 198.05,173.441 199.716,174.107 201.5,174.5C 202.492,174.328 203.158,174.662 203.5,175.5C 203.973,176.906 204.973,177.573 206.5,177.5C 208.027,177.427 209.027,178.094 209.5,179.5C 207.436,179.313 205.436,178.813 203.5,178C 200.664,176.609 198.331,174.776 196.5,172.5 Z"/></g>
<g><path style="opacity:1" fill="#90b9f0" d="M 391.5,173.5 C 395.221,175.354 398.554,177.687 401.5,180.5C 396.903,179.772 393.57,177.439 391.5,173.5 Z"/></g>
<g><path style="opacity:1" fill="#6b9fe9" d="M 304.5,175.5 C 303.856,178.804 301.856,180.138 298.5,179.5C 300.147,177.674 302.147,176.34 304.5,175.5 Z"/></g>
<g><path style="opacity:0.686" fill="#9bbcf4" d="M 102.5,178.5 C 102.027,179.906 101.027,180.573 99.5,180.5C 99.9731,179.094 100.973,178.427 102.5,178.5 Z"/></g>
<g><path style="opacity:0.004" fill="#d0eaff" d="M 401.5,180.5 C 403.027,180.427 404.027,181.094 404.5,182.5C 402.973,182.573 401.973,181.906 401.5,180.5 Z"/></g>
<g><path style="opacity:0.518" fill="#a4bff4" d="M 99.5,180.5 C 98.7377,182.262 97.4044,183.262 95.5,183.5C 96.2623,181.738 97.5956,180.738 99.5,180.5 Z"/></g>
<g><path style="opacity:0.847" fill="#98bceb" d="M 211.5,180.5 C 213.23,181.026 214.564,182.026 215.5,183.5C 213.368,183.446 212.035,182.446 211.5,180.5 Z"/></g>
<g><path style="opacity:0.859" fill="#8abef3" d="M 298.5,179.5 C 297.415,181.587 295.749,182.92 293.5,183.5C 294.585,181.413 296.251,180.08 298.5,179.5 Z"/></g>
<g><path style="opacity:0.518" fill="#9fc3ec" d="M 215.5,183.5 C 217.754,184.124 219.421,185.457 220.5,187.5C 218.205,186.864 216.539,185.531 215.5,183.5 Z"/></g>
<g><path style="opacity:0.498" fill="#a2ccf8" d="M 404.5,182.5 C 406.909,183.701 408.909,185.367 410.5,187.5C 407.638,186.753 405.638,185.086 404.5,182.5 Z"/></g>
<g><path style="opacity:0.741" fill="#8aa9e6" d="M 95.5,183.5 C 93.1667,186.5 90.5,189.167 87.5,191.5C 87.5,191.167 87.5,190.833 87.5,190.5C 89.5691,187.427 92.2358,185.094 95.5,183.5 Z"/></g>
<g><path style="opacity:0.816" fill="#86b7f2" d="M 293.5,183.5 C 291.431,186.573 288.764,188.906 285.5,190.5C 287.569,187.427 290.236,185.094 293.5,183.5 Z"/></g>
<g><path style="opacity:1" fill="#6ca1e9" d="M 410.5,187.5 C 412.167,188.5 413.5,189.833 414.5,191.5C 411.858,191.512 410.525,190.179 410.5,187.5 Z"/></g>
<g><path style="opacity:0.616" fill="#a7caef" d="M 225.5,191.5 C 226.5,191.833 227.167,192.5 227.5,193.5C 226.167,193.5 225.5,192.833 225.5,191.5 Z"/></g>
<g><path style="opacity:0.902" fill="#80b2f0" d="M 414.5,191.5 C 416.167,192.5 417.5,193.833 418.5,195.5C 416.167,195.167 414.833,193.833 414.5,191.5 Z"/></g>
<g><path style="opacity:0.486" fill="#bbd9ff" d="M 285.5,190.5 C 282.833,193.833 279.833,196.833 276.5,199.5C 278.5,195.5 281.5,192.5 285.5,190.5 Z"/></g>
<g><path style="opacity:0.898" fill="#9bc2f3" d="M 418.5,195.5 C 421.573,197.569 423.906,200.236 425.5,203.5C 422.427,201.431 420.094,198.764 418.5,195.5 Z"/></g>
<g><path style="opacity:0.463" fill="#b0d3fc" d="M 87.5,190.5 C 87.5,190.833 87.5,191.167 87.5,191.5C 84.5,194.167 81.5,196.833 78.5,199.5C 80.5,195.5 83.5,192.5 87.5,190.5 Z"/></g>
<g><path style="opacity:1" fill="#628ada" d="M 227.5,193.5 C 230.5,195.833 233.167,198.5 235.5,201.5C 233.883,200.962 232.216,200.629 230.5,200.5C 229.523,198.179 228.523,195.846 227.5,193.5 Z"/></g>
<g><path style="opacity:0.741" fill="#93b5e9" d="M 78.5,199.5 C 77.5806,202.089 75.914,204.089 73.5,205.5C 74.4194,202.911 76.086,200.911 78.5,199.5 Z"/></g>
<g><path style="opacity:0.796" fill="#aac4f0" d="M 235.5,201.5 C 239.234,204.231 242.234,207.564 244.5,211.5C 240.766,208.769 237.766,205.436 235.5,201.5 Z"/></g>
<g><path style="opacity:0.682" fill="#98bdf8" d="M 276.5,199.5 C 274.906,202.764 272.573,205.431 269.5,207.5C 271.094,204.236 273.427,201.569 276.5,199.5 Z"/></g>
<g><path style="opacity:0.843" fill="#99c5f3" d="M 425.5,203.5 C 427.587,204.585 428.92,206.251 429.5,208.5C 427.413,207.415 426.08,205.749 425.5,203.5 Z"/></g>
<g><path style="opacity:0.596" fill="#adcaf6" d="M 71.5,207.5 C 71.2624,209.404 70.2624,210.738 68.5,211.5C 68.7376,209.596 69.7376,208.262 71.5,207.5 Z"/></g>
<g><path style="opacity:0.82" fill="#93c3f4" d="M 429.5,208.5 C 431.262,209.262 432.262,210.596 432.5,212.5C 430.738,211.738 429.738,210.404 429.5,208.5 Z"/></g>
<g><path style="opacity:0.753" fill="#a2c3f4" d="M 269.5,207.5 C 268.243,210.427 266.243,212.761 263.5,214.5C 264.757,211.573 266.757,209.239 269.5,207.5 Z"/></g>
<g><path style="opacity:0.843" fill="#99b4e8" d="M 244.5,211.5 C 247.243,213.239 249.243,215.573 250.5,218.5C 247.757,216.761 245.757,214.427 244.5,211.5 Z"/></g>
<g><path style="opacity:0.451" fill="#a4c7f5" d="M 68.5,211.5 C 68.573,213.027 67.9063,214.027 66.5,214.5C 66.427,212.973 67.0937,211.973 68.5,211.5 Z"/></g>
<g><path style="opacity:0.055" fill="#abc8f3" d="M 159.5,210.5 C 162.313,211.082 164.98,212.082 167.5,213.5C 156.629,210.644 145.962,211.31 135.5,215.5C 137.121,213.883 139.121,212.716 141.5,212C 147.465,211.037 153.465,210.537 159.5,210.5 Z"/></g>
<g><path style="opacity:0.847" fill="#89afeb" d="M 168.5,213.5 C 170.698,213.12 172.365,213.787 173.5,215.5C 171.597,215.204 169.93,214.537 168.5,213.5 Z"/></g>
<g><path style="opacity:0.502" fill="#aacefb" d="M 432.5,212.5 C 434.262,213.262 435.262,214.596 435.5,216.5C 433.738,215.738 432.738,214.404 432.5,212.5 Z"/></g>
<g><path style="opacity:0.906" fill="#92b1e5" d="M 173.5,215.5 C 176.313,215.025 178.313,216.025 179.5,218.5C 177.456,217.492 175.456,216.492 173.5,215.5 Z"/></g>
<g><path style="opacity:0.78" fill="#9ac4f2" d="M 263.5,214.5 C 262.471,217.891 260.471,220.557 257.5,222.5C 259.016,219.467 261.016,216.8 263.5,214.5 Z"/></g>
<g><path style="opacity:0.471" fill="#9db8f4" d="M 66.5,214.5 C 66.573,216.027 65.9063,217.027 64.5,217.5C 64.427,215.973 65.0937,214.973 66.5,214.5 Z"/></g>
<g><path style="opacity:0.996" fill="#839fe4" d="M 133.5,216.5 C 132.101,217.89 130.434,218.89 128.5,219.5C 128.5,218.5 128.5,217.5 128.5,216.5C 130.167,216.5 131.833,216.5 133.5,216.5 Z"/></g>
<g><path style="opacity:1" fill="#0981fa" d="M 381.5,170.5 C 384.196,172.261 387.196,173.261 390.5,173.5C 390.833,173.5 391.167,173.5 391.5,173.5C 393.57,177.439 396.903,179.772 401.5,180.5C 401.973,181.906 402.973,182.573 404.5,182.5C 405.638,185.086 407.638,186.753 410.5,187.5C 410.525,190.179 411.858,191.512 414.5,191.5C 414.833,193.833 416.167,195.167 418.5,195.5C 420.094,198.764 422.427,201.431 425.5,203.5C 426.08,205.749 427.413,207.415 429.5,208.5C 429.738,210.404 430.738,211.738 432.5,212.5C 432.738,214.404 433.738,215.738 435.5,216.5C 435.427,218.027 436.094,219.027 437.5,219.5C 437.427,221.027 438.094,222.027 439.5,222.5C 439.241,224.989 440.241,226.656 442.5,227.5C 443.338,227.842 443.672,228.508 443.5,229.5C 443.5,230.167 443.5,230.833 443.5,231.5C 444.06,233.801 444.56,236.134 445,238.5C 445.667,237.167 446.333,237.167 447,238.5C 448.128,240.345 448.628,242.345 448.5,244.5C 449.5,244.5 450.5,244.5 451.5,244.5C 451.166,247.491 452.166,249.824 454.5,251.5C 454.166,254.491 455.166,256.824 457.5,258.5C 457.12,260.698 457.787,262.365 459.5,263.5C 459.259,265.898 459.926,267.898 461.5,269.5C 461.5,270.833 461.5,272.167 461.5,273.5C 462.035,277.819 462.535,282.152 463,286.5C 463.333,286.167 463.667,285.833 464,285.5C 464.437,289.417 465.271,293.25 466.5,297C 466.212,299.187 465.878,301.354 465.5,303.5C 466.5,303.5 467.5,303.5 468.5,303.5C 468.054,306.01 468.72,308.01 470.5,309.5C 470.379,315.631 471.046,321.631 472.5,327.5C 472.667,342.837 472.5,358.17 472,373.5C 471.667,374.833 471.333,376.167 471,377.5C 469.484,373.895 468.151,370.228 467,366.5C 465.977,367.6 465.477,368.933 465.5,370.5C 467.046,376.027 467.879,381.694 468,387.5C 469.487,386.259 470.32,386.759 470.5,389C 469.055,392.972 467.389,396.805 465.5,400.5C 466.374,402.747 466.708,405.08 466.5,407.5C 466.5,408.833 466.5,410.167 466.5,411.5C 466.672,412.492 466.338,413.158 465.5,413.5C 464.069,414.78 463.402,416.447 463.5,418.5C 461.896,419.287 461.229,420.62 461.5,422.5C 458.039,424.415 456.372,427.415 456.5,431.5C 456.5,432.167 456.167,432.5 455.5,432.5C 454.833,432.833 454.167,433.167 453.5,433.5C 453.483,431.972 452.816,431.472 451.5,432C 452.337,433.011 452.67,434.178 452.5,435.5C 450.396,435.201 448.396,435.534 446.5,436.5C 447.246,437.736 447.579,439.07 447.5,440.5C 446.5,440.5 445.5,440.5 444.5,440.5C 444.5,441.833 444.5,443.167 444.5,444.5C 442.833,444.5 441.167,444.5 439.5,444.5C 439.5,445.5 439.5,446.5 439.5,447.5C 437.801,447.34 436.134,447.506 434.5,448C 435.252,448.671 435.586,449.504 435.5,450.5C 433.821,450.285 432.821,450.952 432.5,452.5C 429.512,452.439 426.679,453.105 424,454.5C 421.267,452.572 420.1,453.239 420.5,456.5C 413.597,458.074 406.597,459.408 399.5,460.5C 394.249,458.636 394.249,456.636 399.5,454.5C 397.376,453.851 395.376,453.017 393.5,452C 398.04,450.227 402.706,448.893 407.5,448C 406.342,437.559 406.342,427.059 407.5,416.5C 410.059,416.61 412.392,415.944 414.5,414.5C 406.677,413.833 399.01,413.167 391.5,412.5C 395.5,412.5 399.5,412.5 403.5,412.5C 406.811,412.693 409.478,411.693 411.5,409.5C 415.824,408.841 418.824,406.508 420.5,402.5C 422.262,401.738 423.262,400.404 423.5,398.5C 426.126,396.236 427.459,393.236 427.5,389.5C 429.614,388.093 431.114,386.093 432,383.5C 432.827,369.327 432.661,355.327 431.5,341.5C 431.46,336.807 431.127,332.141 430.5,327.5C 430.87,320.196 430.203,313.03 428.5,306C 429.239,302.173 429.406,298.34 429,294.5C 428.667,294.167 428.333,293.833 428,293.5C 427.667,295.167 427.333,296.833 427,298.5C 426.665,296.497 425.832,294.83 424.5,293.5C 424.507,290.962 424.841,288.462 425.5,286C 423.026,280.63 423.026,275.296 425.5,270C 425.37,268.941 424.87,268.108 424,267.5C 423.185,269.623 422.185,271.623 421,273.5C 419.282,269.371 417.116,265.704 414.5,262.5C 414.167,261.5 413.5,260.833 412.5,260.5C 410.326,257.485 408.659,254.151 407.5,250.5C 407.771,248.62 407.104,247.287 405.5,246.5C 405.715,244.821 405.048,243.821 403.5,243.5C 402.662,243.158 402.328,242.492 402.5,241.5C 402.5,239.833 402.5,238.167 402.5,236.5C 401.5,236.5 400.5,236.5 399.5,236.5C 398.833,234.833 398.167,233.167 397.5,231.5C 395.863,228.246 393.863,225.246 391.5,222.5C 392.95,221.15 393.617,219.484 393.5,217.5C 391.723,217.786 390.056,218.453 388.5,219.5C 387.01,218.16 385.344,217.16 383.5,216.5C 382.078,215.075 380.411,214.075 378.5,213.5C 377.08,210.412 374.747,208.412 371.5,207.5C 370.833,207.5 370.167,207.5 369.5,207.5C 369.074,205.715 367.908,204.715 366,204.5C 362.988,203.131 359.821,202.464 356.5,202.5C 354.585,202.784 352.919,202.451 351.5,201.5C 349.257,200.188 346.59,199.522 343.5,199.5C 339.149,199.709 334.815,200.043 330.5,200.5C 330.5,201.5 330.5,202.5 330.5,203.5C 329.07,204.537 327.403,205.204 325.5,205.5C 322.956,205.104 320.789,205.771 319,207.5C 317.035,206.115 315.202,206.282 313.5,208C 314.308,208.308 314.975,208.808 315.5,209.5C 309.563,209.776 306.23,212.776 305.5,218.5C 303.345,218.372 301.345,218.872 299.5,220C 300.406,221.699 300.739,223.533 300.5,225.5C 298.833,225.5 297.167,225.5 295.5,225.5C 295.633,228.587 294.3,230.587 291.5,231.5C 290.566,232.568 290.232,233.901 290.5,235.5C 289.167,235.5 287.833,235.5 286.5,235.5C 284.805,241.367 282.138,246.7 278.5,251.5C 277.5,251.5 276.5,251.5 275.5,251.5C 268.146,242.454 261.146,233.12 254.5,223.5C 255.609,223.443 256.609,223.11 257.5,222.5C 260.471,220.557 262.471,217.891 263.5,214.5C 266.243,212.761 268.243,210.427 269.5,207.5C 272.573,205.431 274.906,202.764 276.5,199.5C 279.833,196.833 282.833,193.833 285.5,190.5C 288.764,188.906 291.431,186.573 293.5,183.5C 295.749,182.92 297.415,181.587 298.5,179.5C 301.856,180.138 303.856,178.804 304.5,175.5C 306.848,175.408 308.514,174.408 309.5,172.5C 311.848,172.408 313.514,171.408 314.5,169.5C 315.833,169.5 317.167,169.5 318.5,169.5C 321.607,169.351 324.607,169.851 327.5,171C 331.049,174.56 332.716,173.727 332.5,168.5C 326.154,167.344 326.487,166.177 333.5,165C 342.833,164.333 352.167,164.333 361.5,165C 360.377,166.044 359.044,166.71 357.5,167C 365.732,166.912 373.732,168.078 381.5,170.5 Z"/></g>
<g><path style="opacity:1" fill="#3d88ee" d="M 383.5,216.5 C 385.344,217.16 387.01,218.16 388.5,219.5C 390.056,218.453 391.723,217.786 393.5,217.5C 393.617,219.484 392.95,221.15 391.5,222.5C 393.863,225.246 395.863,228.246 397.5,231.5C 396.833,231.5 396.167,231.5 395.5,231.5C 395.573,229.973 394.906,228.973 393.5,228.5C 392.5,228.167 391.833,227.5 391.5,226.5C 391.5,224.5 390.5,223.5 388.5,223.5C 387.167,221.833 385.833,220.167 384.5,218.5C 384.167,217.833 383.833,217.167 383.5,216.5 Z"/></g>
<g><path style="opacity:0.733" fill="#acd2f9" d="M 378.5,213.5 C 380.411,214.075 382.078,215.075 383.5,216.5C 383.833,217.167 384.167,217.833 384.5,218.5C 381.911,217.581 379.911,215.914 378.5,213.5 Z"/></g>
<g><path style="opacity:1" fill="#699ef2" d="M 325.5,205.5 C 321.072,208.077 316.739,210.91 312.5,214C 308.631,218.037 304.631,221.87 300.5,225.5C 300.739,223.533 300.406,221.699 299.5,220C 301.345,218.872 303.345,218.372 305.5,218.5C 306.23,212.776 309.563,209.776 315.5,209.5C 314.975,208.808 314.308,208.308 313.5,208C 315.202,206.282 317.035,206.115 319,207.5C 320.789,205.771 322.956,205.104 325.5,205.5 Z"/></g>
<g><path style="opacity:0.31" fill="#b7d8fb" d="M 369.5,207.5 C 370.167,207.5 370.833,207.5 371.5,207.5C 371.833,208.167 372.167,208.833 372.5,209.5C 370.973,209.573 369.973,208.906 369.5,207.5 Z"/></g>
<g><path style="opacity:1" fill="#74a6ee" d="M 371.5,207.5 C 374.747,208.412 377.08,210.412 378.5,213.5C 376.223,212.551 374.223,211.218 372.5,209.5C 372.167,208.833 371.833,208.167 371.5,207.5 Z"/></g>
<g><path style="opacity:1" fill="#7cb0f1" d="M 356.5,202.5 C 359.821,202.464 362.988,203.131 366,204.5C 367.908,204.715 369.074,205.715 369.5,207.5C 365.013,206.008 360.68,204.342 356.5,202.5 Z"/></g>
<g><path style="opacity:0.988" fill="#6aa2ee" d="M 351.5,201.5 C 344.398,201.251 337.398,201.918 330.5,203.5C 330.5,202.5 330.5,201.5 330.5,200.5C 334.815,200.043 339.149,199.709 343.5,199.5C 346.59,199.522 349.257,200.188 351.5,201.5 Z"/></g>
<g><path style="opacity:0.302" fill="#c0ddfd" d="M 435.5,216.5 C 436.906,216.973 437.573,217.973 437.5,219.5C 436.094,219.027 435.427,218.027 435.5,216.5 Z"/></g>
<g><path style="opacity:0.439" fill="#a5bdf9" d="M 64.5,217.5 C 64.573,219.027 63.9063,220.027 62.5,220.5C 62.427,218.973 63.0937,217.973 64.5,217.5 Z"/></g>
<g><path style="opacity:1" fill="#7794de" d="M 128.5,219.5 C 127.055,221.063 125.389,222.396 123.5,223.5C 123.5,222.167 123.5,220.833 123.5,219.5C 125.167,219.5 126.833,219.5 128.5,219.5 Z"/></g>
<g><path style="opacity:0.765" fill="#a1bdef" d="M 250.5,218.5 C 252.587,219.585 253.92,221.251 254.5,223.5C 252.413,222.415 251.08,220.749 250.5,218.5 Z"/></g>
<g><path style="opacity:0.325" fill="#b9d1fd" d="M 181.5,219.5 C 183.027,219.427 184.027,220.094 184.5,221.5C 182.973,221.573 181.973,220.906 181.5,219.5 Z"/></g>
<g><path style="opacity:0.627" fill="#acc4f3" d="M 184.5,221.5 C 186.027,221.427 187.027,222.094 187.5,223.5C 185.973,223.573 184.973,222.906 184.5,221.5 Z"/></g>
<g><path style="opacity:0.259" fill="#c6defc" d="M 437.5,219.5 C 438.906,219.973 439.573,220.973 439.5,222.5C 438.094,222.027 437.427,221.027 437.5,219.5 Z"/></g>
<g><path style="opacity:0.361" fill="#add1fc" d="M 62.5,220.5 C 62.4431,221.609 62.1098,222.609 61.5,223.5C 61.1667,223.5 60.8333,223.5 60.5,223.5C 60.427,221.973 61.0937,220.973 62.5,220.5 Z"/></g>
<g><path style="opacity:0.431" fill="#cbe4ff" d="M 388.5,223.5 C 390.5,223.5 391.5,224.5 391.5,226.5C 390.167,225.833 389.167,224.833 388.5,223.5 Z"/></g>
<g><path style="opacity:0.004" fill="#d4e2fa" d="M 123.5,223.5 C 123.027,224.906 122.027,225.573 120.5,225.5C 120.973,224.094 121.973,223.427 123.5,223.5 Z"/></g>
<g><path style="opacity:0.525" fill="#abcaf5" d="M 187.5,223.5 C 190.089,224.419 192.089,226.086 193.5,228.5C 190.911,227.581 188.911,225.914 187.5,223.5 Z"/></g>
<g><path style="opacity:1" fill="#88b2f0" d="M 439.5,222.5 C 440.89,223.899 441.89,225.566 442.5,227.5C 440.241,226.656 439.241,224.989 439.5,222.5 Z"/></g>
<g><path style="opacity:0.992" fill="#729bdf" d="M 59.5,225.5 C 59.4077,227.848 58.4077,229.514 56.5,230.5C 56.7497,228.326 57.7497,226.659 59.5,225.5 Z"/></g>
<g><path style="opacity:0.008" fill="#d2e9fb" d="M 393.5,228.5 C 394.906,228.973 395.573,229.973 395.5,231.5C 394.094,231.027 393.427,230.027 393.5,228.5 Z"/></g>
<g><path style="opacity:1" fill="#5b83de" d="M 195.5,230.5 C 197.167,230.5 198.833,230.5 200.5,230.5C 200.517,232.565 200.85,234.565 201.5,236.5C 199.167,234.833 197.167,232.833 195.5,230.5 Z"/></g>
<g><path style="opacity:1" fill="#68a3f2" d="M 300.5,225.5 C 297.848,229.482 294.848,233.149 291.5,236.5C 291.5,234.833 291.5,233.167 291.5,231.5C 294.3,230.587 295.633,228.587 295.5,225.5C 297.167,225.5 298.833,225.5 300.5,225.5 Z"/></g>
<g><path style="opacity:0.82" fill="#a4c7f3" d="M 395.5,231.5 C 396.167,231.5 396.833,231.5 397.5,231.5C 398.167,233.167 398.833,234.833 399.5,236.5C 397.457,235.421 396.124,233.754 395.5,231.5 Z"/></g>
<g><path style="opacity:0.235" fill="#c2e1fb" d="M 443.5,229.5 C 444.906,229.973 445.573,230.973 445.5,232.5C 444.833,232.167 444.167,231.833 443.5,231.5C 443.5,230.833 443.5,230.167 443.5,229.5 Z"/></g>
<g><path style="opacity:0.122" fill="#abc9f2" d="M 115.5,231.5 C 114.5,233.167 113.167,234.5 111.5,235.5C 111.5,234.833 111.5,234.167 111.5,233.5C 112.605,232.4 113.938,231.733 115.5,231.5 Z"/></g>
<g><path style="opacity:1" fill="#6385d7" d="M 111.5,233.5 C 111.5,234.167 111.5,234.833 111.5,235.5C 110.876,237.754 109.543,239.421 107.5,240.5C 106.68,236.778 108.013,234.445 111.5,233.5 Z"/></g>
<g><path style="opacity:0.969" fill="#8cbaed" d="M 445.5,232.5 C 446.674,233.514 447.34,234.847 447.5,236.5C 445.824,235.817 445.157,234.483 445.5,232.5 Z"/></g>
<g><path style="opacity:1" fill="#5d98eb" d="M 443.5,231.5 C 444.167,231.833 444.833,232.167 445.5,232.5C 445.157,234.483 445.824,235.817 447.5,236.5C 449.341,238.849 450.674,241.515 451.5,244.5C 450.5,244.5 449.5,244.5 448.5,244.5C 448.628,242.345 448.128,240.345 447,238.5C 446.333,237.167 445.667,237.167 445,238.5C 444.56,236.134 444.06,233.801 443.5,231.5 Z"/></g>
<g><path style="opacity:1" fill="#75a6e8" d="M 399.5,236.5 C 400.5,236.5 401.5,236.5 402.5,236.5C 402.5,238.167 402.5,239.833 402.5,241.5C 401.11,240.101 400.11,238.434 399.5,236.5 Z"/></g>
<g><path style="opacity:0.98" fill="#7494e0" d="M 56.5,230.5 C 56.0819,234.349 54.4152,237.349 51.5,239.5C 52.4097,236.008 54.0764,233.008 56.5,230.5 Z"/></g>
<g><path style="opacity:1" fill="#698dda" d="M 201.5,236.5 C 205.586,237.589 207.919,240.255 208.5,244.5C 205.705,242.249 203.372,239.582 201.5,236.5 Z"/></g>
<g><path style="opacity:0.133" fill="#bbd7f9" d="M 290.5,237.5 C 290.262,239.404 289.262,240.738 287.5,241.5C 287.738,239.596 288.738,238.262 290.5,237.5 Z"/></g>
<g><path style="opacity:0.047" fill="#b2cdf8" d="M 107.5,240.5 C 107.573,242.027 106.906,243.027 105.5,243.5C 105.427,241.973 106.094,240.973 107.5,240.5 Z"/></g>
<g><path style="opacity:0.992" fill="#7f9edf" d="M 51.5,239.5 C 51.8432,241.483 51.1765,242.817 49.5,243.5C 49.6596,241.847 50.3263,240.514 51.5,239.5 Z"/></g>
<g><path style="opacity:1" fill="#266bd9" d="M 60.5,223.5 C 60.8333,223.5 61.1667,223.5 61.5,223.5C 61.8466,229.464 59.8466,234.464 55.5,238.5C 57.1836,239.854 57.6836,241.521 57,243.5C 55.6979,248.48 53.6979,248.814 51,244.5C 49.7308,245.905 49.2308,247.571 49.5,249.5C 48.5,249.5 47.5,249.5 46.5,249.5C 46.9925,247.181 47.9925,245.181 49.5,243.5C 51.1765,242.817 51.8432,241.483 51.5,239.5C 54.4152,237.349 56.0819,234.349 56.5,230.5C 58.4077,229.514 59.4077,227.848 59.5,225.5C 59.3284,224.508 59.6618,223.842 60.5,223.5 Z"/></g>
<g><path style="opacity:0.859" fill="#96c1ef" d="M 403.5,243.5 C 405.048,243.821 405.715,244.821 405.5,246.5C 404.599,245.71 403.932,244.71 403.5,243.5 Z"/></g>
<g><path style="opacity:0.486" fill="#adc7f7" d="M 208.5,244.5 C 209.492,244.328 210.158,244.662 210.5,245.5C 211.11,246.391 211.443,247.391 211.5,248.5C 210.026,247.564 209.026,246.23 208.5,244.5 Z"/></g>
<g><path style="opacity:0.125" fill="#c6e1f9" d="M 285.5,244.5 C 285.573,246.027 284.906,247.027 283.5,247.5C 283.427,245.973 284.094,244.973 285.5,244.5 Z"/></g>
<g><path style="opacity:1" fill="#3e89ec" d="M 291.5,231.5 C 291.5,233.167 291.5,234.833 291.5,236.5C 291.5,237.167 291.167,237.5 290.5,237.5C 288.738,238.262 287.738,239.596 287.5,241.5C 287.573,243.027 286.906,244.027 285.5,244.5C 284.094,244.973 283.427,245.973 283.5,247.5C 282.094,247.973 281.427,248.973 281.5,250.5C 280.094,250.973 279.427,251.973 279.5,253.5C 278.167,253.5 277.5,254.167 277.5,255.5C 276.326,254.486 275.66,253.153 275.5,251.5C 276.5,251.5 277.5,251.5 278.5,251.5C 282.138,246.7 284.805,241.367 286.5,235.5C 287.833,235.5 289.167,235.5 290.5,235.5C 290.232,233.901 290.566,232.568 291.5,231.5 Z"/></g>
<g><path style="opacity:0.925" fill="#94c1ee" d="M 451.5,244.5 C 453.065,246.509 454.065,248.843 454.5,251.5C 452.166,249.824 451.166,247.491 451.5,244.5 Z"/></g>
<g><path style="opacity:0.286" fill="#b1ccf8" d="M 103.5,246.5 C 103.25,248.674 102.25,250.341 100.5,251.5C 100.75,249.326 101.75,247.659 103.5,246.5 Z"/></g>
<g><path style="opacity:0.365" fill="#add5fd" d="M 405.5,246.5 C 407.104,247.287 407.771,248.62 407.5,250.5C 406.326,249.486 405.66,248.153 405.5,246.5 Z"/></g>
<g><path style="opacity:0.129" fill="#bae5fd" d="M 283.5,247.5 C 283.573,249.027 282.906,250.027 281.5,250.5C 281.427,248.973 282.094,247.973 283.5,247.5 Z"/></g>
<g><path style="opacity:0.965" fill="#6888dd" d="M 210.5,245.5 C 217.109,250.687 221.776,257.354 224.5,265.5C 221.512,261.538 218.512,257.538 215.5,253.5C 215.573,251.973 214.906,250.973 213.5,250.5C 212.5,250.167 211.833,249.5 211.5,248.5C 211.443,247.391 211.11,246.391 210.5,245.5 Z"/></g>
<g><path style="opacity:0.047" fill="#cbdffc" d="M 213.5,250.5 C 214.906,250.973 215.573,251.973 215.5,253.5C 214.094,253.027 213.427,252.027 213.5,250.5 Z"/></g>
<g><path style="opacity:0.11" fill="#cbe3fd" d="M 281.5,250.5 C 281.573,252.027 280.906,253.027 279.5,253.5C 279.427,251.973 280.094,250.973 281.5,250.5 Z"/></g>
<g><path style="opacity:0.525" fill="#9bbff9" d="M 279.5,253.5 C 279.443,254.609 279.11,255.609 278.5,256.5C 277.833,256.5 277.5,256.167 277.5,255.5C 277.5,254.167 278.167,253.5 279.5,253.5 Z"/></g>
<g><path style="opacity:0.91" fill="#90c3f6" d="M 454.5,251.5 C 456.065,253.509 457.065,255.843 457.5,258.5C 455.166,256.824 454.166,254.491 454.5,251.5 Z"/></g>
<g><path style="opacity:0.98" fill="#7ea1e0" d="M 45.5,252.5 C 45.4982,256.165 44.1648,259.165 41.5,261.5C 42.0749,258.088 43.4082,255.088 45.5,252.5 Z"/></g>
<g><path style="opacity:0.459" fill="#a5c0f5" d="M 278.5,256.5 C 279.906,256.973 280.573,257.973 280.5,259.5C 279.094,259.027 278.427,258.027 278.5,256.5 Z"/></g>
<g><path style="opacity:0.427" fill="#a1c0f5" d="M 280.5,259.5 C 281.906,259.973 282.573,260.973 282.5,262.5C 281.094,262.027 280.427,261.027 280.5,259.5 Z"/></g>
<g><path style="opacity:0.792" fill="#a0c6f7" d="M 457.5,258.5 C 458.537,259.93 459.204,261.597 459.5,263.5C 457.787,262.365 457.12,260.698 457.5,258.5 Z"/></g>
<g><path style="opacity:0.522" fill="#9cbcee" d="M 95.5,260.5 C 95.7709,262.38 95.1042,263.713 93.5,264.5C 93.2291,262.62 93.8958,261.287 95.5,260.5 Z"/></g>
<g><path style="opacity:1" fill="#0565e3" d="M 90.5,267.5 C 90.5,268.833 90.5,270.167 90.5,271.5C 88.9925,273.181 87.9925,275.181 87.5,277.5C 86.213,278.768 85.213,278.435 84.5,276.5C 83.554,278.075 83.554,279.742 84.5,281.5C 83.1635,284.009 82.3302,286.676 82,289.5C 81.5,289 81,288.5 80.5,288C 72.1667,287.333 63.8333,287.333 55.5,288C 63.5207,288.168 71.5207,288.668 79.5,289.5C 70.3176,290.205 61.1509,290.872 52,291.5C 50.5232,290.556 49.5232,289.223 49,287.5C 48.5172,288.448 48.3505,289.448 48.5,290.5C 47.5,290.5 46.5,290.5 45.5,290.5C 45.5,289.5 45.5,288.5 45.5,287.5C 40.2206,287.25 39.3873,288.916 43,292.5C 43.8141,294.902 43.6474,297.235 42.5,299.5C 41.4164,298.335 40.5831,297.002 40,295.5C 39.5014,291.848 39.3347,288.182 39.5,284.5C 40.8333,284.5 42.1667,284.5 43.5,284.5C 43.5,282.5 43.5,280.5 43.5,278.5C 42.4498,273.886 42.2832,269.22 43,264.5C 43.5544,266.61 44.3877,268.61 45.5,270.5C 44.0763,273.44 44.9096,274.106 48,272.5C 48.4966,270.19 48.6633,267.857 48.5,265.5C 58.5056,265.666 68.5056,265.5 78.5,265C 81.9314,262.537 82.2647,259.704 79.5,256.5C 79.8333,256.167 80.1667,255.833 80.5,255.5C 82.5098,257.171 84.8431,257.838 87.5,257.5C 87.7852,259.288 87.4519,260.955 86.5,262.5C 84.622,261.339 83.622,262.006 83.5,264.5C 86.7989,272.789 88.1323,272.455 87.5,263.5C 88.5,263.5 89.5,263.5 90.5,263.5C 90.5,264.833 90.5,266.167 90.5,267.5 Z"/></g>
<g><path style="opacity:0.808" fill="#a3bcee" d="M 41.5,261.5 C 41.5,262.833 41.5,264.167 41.5,265.5C 40.8333,265.833 40.1667,266.167 39.5,266.5C 39.7959,264.597 40.4625,262.93 41.5,261.5 Z"/></g>
<g><path style="opacity:0.443" fill="#9dc7ee" d="M 282.5,262.5 C 283.906,262.973 284.573,263.973 284.5,265.5C 283.094,265.027 282.427,264.027 282.5,262.5 Z"/></g>
<g><path style="opacity:0.604" fill="#92b2ec" d="M 93.5,264.5 C 93.2927,267.241 92.2927,269.574 90.5,271.5C 90.5,270.167 90.5,268.833 90.5,267.5C 91.2719,266.306 92.2719,265.306 93.5,264.5 Z"/></g>
<g><path style="opacity:0.588" fill="#b7dafd" d="M 459.5,263.5 C 460.738,265.214 461.405,267.214 461.5,269.5C 459.926,267.898 459.259,265.898 459.5,263.5 Z"/></g>
<g><path style="opacity:0.384" fill="#accafa" d="M 284.5,265.5 C 285.906,265.973 286.573,266.973 286.5,268.5C 285.094,268.027 284.427,267.027 284.5,265.5 Z"/></g>
<g><path style="opacity:0.553" fill="#99bdf6" d="M 224.5,265.5 C 225.833,265.5 226.5,266.167 226.5,267.5C 226.573,269.027 225.906,270.027 224.5,270.5C 225.562,268.766 225.562,267.099 224.5,265.5 Z"/></g>
<g><path style="opacity:0.29" fill="#aed6fc" d="M 412.5,260.5 C 413.5,260.833 414.167,261.5 414.5,262.5C 415.8,266.096 416.8,269.763 417.5,273.5C 415.263,269.466 413.596,265.132 412.5,260.5 Z"/></g>
<g><path style="opacity:0.812" fill="#91b5ec" d="M 39.5,267.5 C 39.8799,269.698 39.2132,271.365 37.5,272.5C 37.7959,270.597 38.4625,268.93 39.5,267.5 Z"/></g>
<g><path style="opacity:0.357" fill="#b0d1f8" d="M 286.5,268.5 C 287.906,268.973 288.573,269.973 288.5,271.5C 287.094,271.027 286.427,270.027 286.5,268.5 Z"/></g>
<g><path style="opacity:0.576" fill="#bddffe" d="M 461.5,269.5 C 462.738,271.214 463.405,273.214 463.5,275.5C 462.833,274.833 462.167,274.167 461.5,273.5C 461.5,272.167 461.5,270.833 461.5,269.5 Z"/></g>
<g><path style="opacity:0.231" fill="#c4ddff" d="M 288.5,271.5 C 289.906,271.973 290.573,272.973 290.5,274.5C 289.094,274.027 288.427,273.027 288.5,271.5 Z"/></g>
<g><path style="opacity:0.345" fill="#a6ccf6" d="M 90.5,271.5 C 90.0198,274.443 89.0198,277.11 87.5,279.5C 87.5,278.833 87.5,278.167 87.5,277.5C 87.9925,275.181 88.9925,273.181 90.5,271.5 Z"/></g>
<g><path style="opacity:0.973" fill="#8fb6f1" d="M 224.5,270.5 C 224.5,271.167 224.5,271.833 224.5,272.5C 223.9,273.9 222.9,274.9 221.5,275.5C 221.75,273.326 222.75,271.659 224.5,270.5 Z"/></g>
<g><path style="opacity:0.675" fill="#9dc8f8" d="M 417.5,273.5 C 419.28,274.99 419.946,276.99 419.5,279.5C 418.262,277.786 417.595,275.786 417.5,273.5 Z"/></g>
<g><path style="opacity:0.808" fill="#96b8f0" d="M 37.5,273.5 C 37.8799,275.698 37.2132,277.365 35.5,278.5C 35.7959,276.597 36.4625,274.93 37.5,273.5 Z"/></g>
<g><path style="opacity:0.459" fill="#a3cafc" d="M 221.5,275.5 C 221.573,277.027 220.906,278.027 219.5,278.5C 219.427,276.973 220.094,275.973 221.5,275.5 Z"/></g>
<g><path style="opacity:1" fill="#0b81fa" d="M 226.5,267.5 C 234.167,278.678 241.667,290.011 249,301.5C 250.11,303.037 251.61,303.703 253.5,303.5C 253.5,304.833 253.5,306.167 253.5,307.5C 252.833,307.5 252.167,307.5 251.5,307.5C 250.662,307.158 250.328,306.492 250.5,305.5C 249.432,304.566 248.099,304.232 246.5,304.5C 246.5,306.167 246.5,307.833 246.5,309.5C 246.672,310.492 246.338,311.158 245.5,311.5C 242.224,313.903 240.224,317.237 239.5,321.5C 239.672,322.492 239.338,323.158 238.5,323.5C 236.025,324.687 235.025,326.687 235.5,329.5C 234.094,329.973 233.427,330.973 233.5,332.5C 230.144,334.532 228.477,337.532 228.5,341.5C 228.672,342.492 228.338,343.158 227.5,343.5C 225.952,343.821 225.285,344.821 225.5,346.5C 225.34,348.153 224.674,349.486 223.5,350.5C 222.094,350.973 221.427,351.973 221.5,353.5C 221.672,354.492 221.338,355.158 220.5,355.5C 217.916,356.048 216.916,357.715 217.5,360.5C 213.44,360.724 211.107,362.891 210.5,367C 208.888,367.72 207.388,367.554 206,366.5C 205.333,368.167 205.333,369.833 206,371.5C 207.368,369.185 208.201,369.185 208.5,371.5C 207.453,373.056 206.786,374.723 206.5,376.5C 205.5,376.5 204.5,376.5 203.5,376.5C 203.326,378.861 202.993,381.194 202.5,383.5C 202.167,384.167 201.833,384.833 201.5,385.5C 200.5,385.5 199.5,385.5 198.5,385.5C 198.616,388.91 196.95,390.244 193.5,389.5C 193.916,392.36 192.916,394.526 190.5,396C 191.148,397.44 191.481,398.94 191.5,400.5C 189.62,402.926 188.287,405.592 187.5,408.5C 186.094,408.973 185.427,409.973 185.5,411.5C 184.5,411.5 183.5,411.5 182.5,411.5C 182.5,412.833 182.5,414.167 182.5,415.5C 182.5,416.167 182.167,416.5 181.5,416.5C 180.094,416.973 179.427,417.973 179.5,419.5C 179.167,420.5 178.5,421.167 177.5,421.5C 176.094,421.973 175.427,422.973 175.5,424.5C 173.801,424.34 172.134,424.506 170.5,425C 171.536,426.776 171.536,428.609 170.5,430.5C 169.849,429.909 169.182,429.243 168.5,428.5C 166.5,430.5 164.5,432.5 162.5,434.5C 161.548,436.045 161.215,437.712 161.5,439.5C 161.5,440.167 161.167,440.5 160.5,440.5C 158.938,440.733 157.605,441.4 156.5,442.5C 151.656,441.025 150.323,441.025 152.5,442.5C 152.634,444.292 152.301,445.958 151.5,447.5C 151.027,448.906 150.027,449.573 148.5,449.5C 146.973,449.427 145.973,450.094 145.5,451.5C 145.158,452.338 144.492,452.672 143.5,452.5C 142.167,452.5 140.833,452.5 139.5,452.5C 134.702,454.303 129.702,455.47 124.5,456C 122.774,457.53 120.774,458.53 118.5,459C 109.865,460.081 101.199,460.581 92.5,460.5C 90.0504,460.702 87.717,460.369 85.5,459.5C 83.8984,457.926 81.8984,457.259 79.5,457.5C 76.9867,454.569 73.6533,453.235 69.5,453.5C 69.4894,451.983 68.8228,450.816 67.5,450C 64.9064,449.37 62.5731,448.203 60.5,446.5C 61.4537,443.575 60.4537,442.908 57.5,444.5C 54.8544,442.521 52.5211,440.188 50.5,437.5C 49.5832,436.873 48.5832,436.539 47.5,436.5C 45.7819,434.777 44.4486,432.777 43.5,430.5C 43.1667,429.167 42.8333,427.833 42.5,426.5C 42.5106,424.983 43.1772,423.816 44.5,423C 43.552,422.517 42.552,422.351 41.5,422.5C 41.762,421.022 41.4287,419.689 40.5,418.5C 39.914,418.709 39.414,419.043 39,419.5C 36.7225,414.998 35.0558,410.331 34,405.5C 32.4225,401.215 30.5891,397.215 28.5,393.5C 27.8333,385.167 27.1667,376.833 26.5,368.5C 27.8471,367.829 29.0138,367.829 30,368.5C 30.3108,366.444 30.8108,364.444 31.5,362.5C 30.3897,357.889 30.2231,353.222 31,348.5C 31.498,351.482 31.6646,354.482 31.5,357.5C 42.5428,357.546 53.3761,357.546 64,357.5C 63.5616,362.797 63.5616,368.13 64,373.5C 64.217,371.605 65.0503,369.605 66.5,367.5C 67.1667,368.5 67.8333,369.5 68.5,370.5C 69.7112,369.726 69.7112,368.893 68.5,368C 70.2791,361.106 71.1124,353.94 71,346.5C 71.3826,345.944 71.8826,345.611 72.5,345.5C 72.5,347.5 72.5,349.5 72.5,351.5C 71.2872,361.34 71.2872,371.34 72.5,381.5C 72.3333,383.167 72.1667,384.833 72,386.5C 71.4646,384.729 70.6313,384.396 69.5,385.5C 70.9721,390.14 73.4721,394.14 77,397.5C 77.3333,396.833 77.6667,396.167 78,395.5C 79.9068,398.444 82.0734,401.11 84.5,403.5C 85.6049,404.6 86.9382,405.267 88.5,405.5C 90.1457,407.929 92.1457,410.095 94.5,412C 101.287,413.626 107.954,413.792 114.5,412.5C 117.716,412.655 120.383,411.655 122.5,409.5C 123.514,408.326 124.847,407.66 126.5,407.5C 128.027,407.573 129.027,406.906 129.5,405.5C 131.749,404.92 133.415,403.587 134.5,401.5C 137.833,400.167 140.167,397.833 141.5,394.5C 143.914,393.089 145.581,391.089 146.5,388.5C 148.587,387.415 149.92,385.749 150.5,383.5C 152.262,382.738 153.262,381.404 153.5,379.5C 154.906,379.027 155.573,378.027 155.5,376.5C 156.906,376.027 157.573,375.027 157.5,373.5C 159.262,372.738 160.262,371.404 160.5,369.5C 161.906,369.027 162.573,368.027 162.5,366.5C 163.906,366.027 164.573,365.027 164.5,363.5C 165.906,363.027 166.573,362.027 166.5,360.5C 167.906,360.027 168.573,359.027 168.5,357.5C 169.906,357.027 170.573,356.027 170.5,354.5C 171.906,354.027 172.573,353.027 172.5,351.5C 173.906,351.027 174.573,350.027 174.5,348.5C 175.906,348.027 176.573,347.027 176.5,345.5C 176.328,344.508 176.662,343.842 177.5,343.5C 178.906,343.027 179.573,342.027 179.5,340.5C 180.906,340.027 181.573,339.027 181.5,337.5C 182.906,337.027 183.573,336.027 183.5,334.5C 184.906,334.027 185.573,333.027 185.5,331.5C 185.328,330.508 185.662,329.842 186.5,329.5C 187.906,329.027 188.573,328.027 188.5,326.5C 189.906,326.027 190.573,325.027 190.5,323.5C 191.167,323.167 191.833,322.833 192.5,322.5C 193.496,322.586 194.329,322.252 195,321.5C 197.274,317.678 199.108,313.678 200.5,309.5C 200.5,308.833 200.5,308.167 200.5,307.5C 201.906,307.027 202.573,306.027 202.5,304.5C 203.906,304.027 204.573,303.027 204.5,301.5C 205.906,301.027 206.573,300.027 206.5,298.5C 207.167,298.167 207.833,297.833 208.5,297.5C 209.161,298.718 209.828,300.051 210.5,301.5C 211.251,300.624 211.751,299.624 212,298.5C 215.997,299.579 216.164,298.412 212.5,295C 213.893,292.822 215.56,291.822 217.5,292C 218.239,290.235 218.239,288.235 217.5,286C 218.976,284.287 220.31,282.453 221.5,280.5C 222.086,280.709 222.586,281.043 223,281.5C 223.684,280.216 223.517,279.049 222.5,278C 224.155,276.556 224.822,274.722 224.5,272.5C 224.5,271.833 224.5,271.167 224.5,270.5C 225.906,270.027 226.573,269.027 226.5,267.5 Z"/></g>
<g><path style="opacity:0.353" fill="#b0cbfb" d="M 291.5,276.5 C 292.906,276.973 293.573,277.973 293.5,279.5C 292.833,279.167 292.167,278.833 291.5,278.5C 291.5,277.833 291.5,277.167 291.5,276.5 Z"/></g>
<g><path style="opacity:1" fill="#1c82f2" d="M 224.5,272.5 C 224.822,274.722 224.155,276.556 222.5,278C 223.517,279.049 223.684,280.216 223,281.5C 222.586,281.043 222.086,280.709 221.5,280.5C 220.31,282.453 218.976,284.287 217.5,286C 218.239,288.235 218.239,290.235 217.5,292C 215.56,291.822 213.893,292.822 212.5,295C 216.164,298.412 215.997,299.579 212,298.5C 211.751,299.624 211.251,300.624 210.5,301.5C 209.828,300.051 209.161,298.718 208.5,297.5C 208.5,296.833 208.5,296.167 208.5,295.5C 208.328,294.508 208.662,293.842 209.5,293.5C 210.906,293.027 211.573,292.027 211.5,290.5C 212.906,290.027 213.573,289.027 213.5,287.5C 214.906,287.027 215.573,286.027 215.5,284.5C 216.906,284.027 217.573,283.027 217.5,281.5C 218.906,281.027 219.573,280.027 219.5,278.5C 220.906,278.027 221.573,277.027 221.5,275.5C 222.9,274.9 223.9,273.9 224.5,272.5 Z"/></g>
<g><path style="opacity:0.694" fill="#a6cffa" d="M 463.5,276.5 C 464.924,278.515 465.59,280.848 465.5,283.5C 464.076,281.485 463.41,279.152 463.5,276.5 Z"/></g>
<g><path style="opacity:0.424" fill="#aac9fc" d="M 219.5,278.5 C 219.573,280.027 218.906,281.027 217.5,281.5C 217.427,279.973 218.094,278.973 219.5,278.5 Z"/></g>
<g><path style="opacity:0.631" fill="#b5d0f6" d="M 87.5,279.5 C 86.4054,284.784 84.7387,289.784 82.5,294.5C 83.2085,289.041 84.8752,284.041 87.5,279.5 Z"/></g>
<g><path style="opacity:0.247" fill="#c0dcf9" d="M 293.5,279.5 C 294.906,279.973 295.573,280.973 295.5,282.5C 294.094,282.027 293.427,281.027 293.5,279.5 Z"/></g>
<g><path style="opacity:0.682" fill="#a2c7f5" d="M 35.5,279.5 C 35.5905,282.152 34.9238,284.485 33.5,286.5C 33.4095,283.848 34.0762,281.515 35.5,279.5 Z"/></g>
<g><path style="opacity:0.561" fill="#aed1fb" d="M 419.5,279.5 C 421.41,282.452 422.41,285.786 422.5,289.5C 420.899,286.45 419.899,283.116 419.5,279.5 Z"/></g>
<g><path style="opacity:1" fill="#3386f0" d="M 414.5,262.5 C 417.116,265.704 419.282,269.371 421,273.5C 422.185,271.623 423.185,269.623 424,267.5C 424.87,268.108 425.37,268.941 425.5,270C 423.026,275.296 423.026,280.63 425.5,286C 424.841,288.462 424.507,290.962 424.5,293.5C 424.167,293.5 423.833,293.5 423.5,293.5C 422.566,292.432 422.232,291.099 422.5,289.5C 422.41,285.786 421.41,282.452 419.5,279.5C 419.946,276.99 419.28,274.99 417.5,273.5C 416.8,269.763 415.8,266.096 414.5,262.5 Z"/></g>
<g><path style="opacity:0.384" fill="#abd4fc" d="M 217.5,281.5 C 217.573,283.027 216.906,284.027 215.5,284.5C 215.427,282.973 216.094,281.973 217.5,281.5 Z"/></g>
<g><path style="opacity:0.361" fill="#b2dbfd" d="M 215.5,284.5 C 215.573,286.027 214.906,287.027 213.5,287.5C 213.427,285.973 214.094,284.973 215.5,284.5 Z"/></g>
<g><path style="opacity:0.294" fill="#acd8fc" d="M 296.5,284.5 C 297.906,284.973 298.573,285.973 298.5,287.5C 297.094,287.027 296.427,286.027 296.5,284.5 Z"/></g>
<g><path style="opacity:0.604" fill="#aed8f9" d="M 465.5,283.5 C 467.04,285.838 467.706,288.505 467.5,291.5C 466.232,289.095 465.565,286.428 465.5,283.5 Z"/></g>
<g><path style="opacity:0.333" fill="#bbd8fc" d="M 213.5,287.5 C 213.573,289.027 212.906,290.027 211.5,290.5C 211.427,288.973 212.094,287.973 213.5,287.5 Z"/></g>
<g><path style="opacity:0.4" fill="#a7c7f9" d="M 299.5,289.5 C 300.906,289.973 301.573,290.973 301.5,292.5C 300.094,292.027 299.427,291.027 299.5,289.5 Z"/></g>
<g><path style="opacity:0.306" fill="#a9ddfd" d="M 211.5,290.5 C 211.573,292.027 210.906,293.027 209.5,293.5C 209.427,291.973 210.094,290.973 211.5,290.5 Z"/></g>
<g><path style="opacity:0.208" fill="#bfdffa" d="M 301.5,292.5 C 302.906,292.973 303.573,293.973 303.5,295.5C 302.833,295.167 302.167,294.833 301.5,294.5C 301.5,293.833 301.5,293.167 301.5,292.5 Z"/></g>
<g><path style="opacity:1" fill="#096ee7" d="M 41.5,265.5 C 41.3345,269.514 41.5012,273.514 42,277.5C 42.3826,278.056 42.8826,278.389 43.5,278.5C 43.5,280.5 43.5,282.5 43.5,284.5C 42.1667,284.5 40.8333,284.5 39.5,284.5C 39.3347,288.182 39.5014,291.848 40,295.5C 40.5831,297.002 41.4164,298.335 42.5,299.5C 43.6474,297.235 43.8141,294.902 43,292.5C 39.3873,288.916 40.2206,287.25 45.5,287.5C 45.5,288.5 45.5,289.5 45.5,290.5C 46.5,290.5 47.5,290.5 48.5,290.5C 48.3505,289.448 48.5172,288.448 49,287.5C 49.5232,289.223 50.5232,290.556 52,291.5C 61.1509,290.872 70.3176,290.205 79.5,289.5C 71.5207,288.668 63.5207,288.168 55.5,288C 63.8333,287.333 72.1667,287.333 80.5,288C 81,288.5 81.5,289 82,289.5C 82.3302,286.676 83.1635,284.009 84.5,281.5C 83.554,279.742 83.554,278.075 84.5,276.5C 85.213,278.435 86.213,278.768 87.5,277.5C 87.5,278.167 87.5,278.833 87.5,279.5C 84.8752,284.041 83.2085,289.041 82.5,294.5C 80.1167,298.01 78.7834,302.01 78.5,306.5C 77.9604,309.865 77.2937,313.198 76.5,316.5C 75.0762,318.515 74.4095,320.848 74.5,323.5C 73.8423,322.602 73.1757,321.602 72.5,320.5C 71.4871,324.219 70.3204,327.886 69,331.5C 68.2607,329.779 67.4274,328.113 66.5,326.5C 65.1374,327.879 64.1374,327.713 63.5,326C 65.981,320.577 66.1476,315.077 64,309.5C 61.9587,310.752 59.6254,311.419 57,311.5C 48.6868,309.786 40.1868,309.119 31.5,309.5C 30.7564,306.05 32.0897,304.384 35.5,304.5C 35.7852,302.712 35.4519,301.045 34.5,299.5C 33.7492,300.376 33.2492,301.376 33,302.5C 32.5012,298.514 32.3345,294.514 32.5,290.5C 32.2322,288.901 32.5655,287.568 33.5,286.5C 34.9238,284.485 35.5905,282.152 35.5,279.5C 35.5,279.167 35.5,278.833 35.5,278.5C 37.2132,277.365 37.8799,275.698 37.5,273.5C 37.5,273.167 37.5,272.833 37.5,272.5C 39.2132,271.365 39.8799,269.698 39.5,267.5C 39.5,267.167 39.5,266.833 39.5,266.5C 40.1667,266.167 40.8333,265.833 41.5,265.5 Z"/></g>
<g><path style="opacity:0.933" fill="#608fdb" d="M 301.5,294.5 C 302.167,294.833 302.833,295.167 303.5,295.5C 304.338,295.842 304.672,296.508 304.5,297.5C 304.5,298.167 304.5,298.833 304.5,299.5C 303.11,298.101 302.11,296.434 301.5,294.5 Z"/></g>
<g><path style="opacity:0.455" fill="#a5cbfc" d="M 208.5,295.5 C 208.5,296.167 208.5,296.833 208.5,297.5C 207.833,297.833 207.167,298.167 206.5,298.5C 206.427,296.973 207.094,295.973 208.5,295.5 Z"/></g>
<g><path style="opacity:0.918" fill="#9ebbed" d="M 82.5,294.5 C 81.9034,298.619 80.9034,302.619 79.5,306.5C 79.1667,306.5 78.8333,306.5 78.5,306.5C 78.7834,302.01 80.1167,298.01 82.5,294.5 Z"/></g>
<g><path style="opacity:0.231" fill="#bfdcfc" d="M 304.5,297.5 C 305.906,297.973 306.573,298.973 306.5,300.5C 305.833,300.167 305.167,299.833 304.5,299.5C 304.5,298.833 304.5,298.167 304.5,297.5 Z"/></g>
<g><path style="opacity:0.42" fill="#a5d2fd" d="M 206.5,298.5 C 206.573,300.027 205.906,301.027 204.5,301.5C 204.427,299.973 205.094,298.973 206.5,298.5 Z"/></g>
<g><path style="opacity:1" fill="#498fef" d="M 461.5,273.5 C 462.167,274.167 462.833,274.833 463.5,275.5C 463.5,275.833 463.5,276.167 463.5,276.5C 463.41,279.152 464.076,281.485 465.5,283.5C 465.565,286.428 466.232,289.095 467.5,291.5C 469.246,295.889 470.246,300.556 470.5,305.5C 470.5,306.833 470.5,308.167 470.5,309.5C 468.72,308.01 468.054,306.01 468.5,303.5C 467.5,303.5 466.5,303.5 465.5,303.5C 465.878,301.354 466.212,299.187 466.5,297C 465.271,293.25 464.437,289.417 464,285.5C 463.667,285.833 463.333,286.167 463,286.5C 462.535,282.152 462.035,277.819 461.5,273.5 Z"/></g>
<g><path style="opacity:1" fill="#106ce6" d="M 291.5,278.5 C 292.167,278.833 292.833,279.167 293.5,279.5C 293.427,281.027 294.094,282.027 295.5,282.5C 296.338,282.842 296.672,283.508 296.5,284.5C 296.427,286.027 297.094,287.027 298.5,287.5C 299.338,287.842 299.672,288.508 299.5,289.5C 299.427,291.027 300.094,292.027 301.5,292.5C 301.5,293.167 301.5,293.833 301.5,294.5C 302.11,296.434 303.11,298.101 304.5,299.5C 305.167,299.833 305.833,300.167 306.5,300.5C 307.338,300.842 307.672,301.508 307.5,302.5C 307.427,304.027 308.094,305.027 309.5,305.5C 310.338,305.842 310.672,306.508 310.5,307.5C 310.427,309.027 311.094,310.027 312.5,310.5C 313.338,310.842 313.672,311.508 313.5,312.5C 313.427,314.027 314.094,315.027 315.5,315.5C 315.241,317.989 316.241,319.656 318.5,320.5C 319.338,320.842 319.672,321.508 319.5,322.5C 319.5,323.167 319.5,323.833 319.5,324.5C 320.11,326.434 321.11,328.101 322.5,329.5C 323.167,329.5 323.5,329.833 323.5,330.5C 323.167,333.5 321.5,335.167 318.5,335.5C 318.336,338.187 318.503,340.854 319,343.5C 320.205,342.929 321.372,342.262 322.5,341.5C 322.291,340.914 321.957,340.414 321.5,340C 322.772,338.693 323.772,337.193 324.5,335.5C 325.292,337.465 325.959,339.465 326.5,341.5C 323.574,344.355 321.407,347.689 320,351.5C 319.667,350.5 319.333,349.5 319,348.5C 318.165,361.201 316.998,373.868 315.5,386.5C 315.167,387.5 314.833,388.5 314.5,389.5C 312.81,386.976 310.643,384.976 308,383.5C 309,386.5 310,389.5 311,392.5C 309.981,393.687 308.814,394.687 307.5,395.5C 307.308,393.195 306.974,390.862 306.5,388.5C 305.859,389.993 304.859,390.993 303.5,391.5C 303.144,389.81 302.144,388.81 300.5,388.5C 299.662,388.158 299.328,387.492 299.5,386.5C 299.573,384.973 298.906,383.973 297.5,383.5C 296.662,383.158 296.328,382.492 296.5,381.5C 296.446,379.368 295.446,378.035 293.5,377.5C 292.326,376.486 291.66,375.153 291.5,373.5C 291.573,371.973 290.906,370.973 289.5,370.5C 289.715,368.821 289.048,367.821 287.5,367.5C 287.5,367.167 287.5,366.833 287.5,366.5C 287.13,363.733 285.796,361.733 283.5,360.5C 282.662,360.158 282.328,359.492 282.5,358.5C 282.443,357.391 282.11,356.391 281.5,355.5C 283.533,357.163 285.366,359.163 287,361.5C 287.667,360.167 288.333,360.167 289,361.5C 289.667,366.833 290.333,366.833 291,361.5C 291.893,362.711 292.726,362.711 293.5,361.5C 292.358,359.883 291.691,358.05 291.5,356C 293.536,338.896 294.036,321.73 293,304.5C 292.075,303.953 291.242,303.287 290.5,302.5C 293.478,299.426 294.478,295.926 293.5,292C 294.167,291.667 294.833,291.333 295.5,291C 294.572,290.612 293.905,289.945 293.5,289C 294.233,287.234 294.567,285.401 294.5,283.5C 292.876,283.36 291.71,284.027 291,285.5C 290.667,285.167 290.333,284.833 290,284.5C 290.707,282.689 291.207,280.689 291.5,278.5 Z"/></g>
<g><path style="opacity:0.341" fill="#aadbfa" d="M 204.5,301.5 C 204.573,303.027 203.906,304.027 202.5,304.5C 202.427,302.973 203.094,301.973 204.5,301.5 Z"/></g>
<g><path style="opacity:0.251" fill="#c4ddfb" d="M 307.5,302.5 C 308.906,302.973 309.573,303.973 309.5,305.5C 308.094,305.027 307.427,304.027 307.5,302.5 Z"/></g>
<g><path style="opacity:0.98" fill="#89b6f0" d="M 250.5,305.5 C 248.726,306.37 247.393,307.703 246.5,309.5C 246.5,307.833 246.5,306.167 246.5,304.5C 248.099,304.232 249.432,304.566 250.5,305.5 Z"/></g>
<g><path style="opacity:0.345" fill="#aed9fc" d="M 202.5,304.5 C 202.573,306.027 201.906,307.027 200.5,307.5C 200.427,305.973 201.094,304.973 202.5,304.5 Z"/></g>
<g><path style="opacity:0.612" fill="#acd2f9" d="M 425.5,301.5 C 426.222,301.918 426.722,302.584 427,303.5C 428.272,311.127 429.105,318.794 429.5,326.5C 427.864,318.348 426.531,310.014 425.5,301.5 Z"/></g>
<g><path style="opacity:0.765" fill="#a9bcef" d="M 251.5,307.5 C 252.167,307.5 252.833,307.5 253.5,307.5C 253.833,308.833 254.167,310.167 254.5,311.5C 253.026,310.564 252.026,309.23 251.5,307.5 Z"/></g>
<g><path style="opacity:0.286" fill="#c0ddff" d="M 200.5,307.5 C 200.5,308.167 200.5,308.833 200.5,309.5C 199.833,309.833 199.167,310.167 198.5,310.5C 198.427,308.973 199.094,307.973 200.5,307.5 Z"/></g>
<g><path style="opacity:0.235" fill="#c1dbfe" d="M 310.5,307.5 C 311.906,307.973 312.573,308.973 312.5,310.5C 311.094,310.027 310.427,309.027 310.5,307.5 Z"/></g>
<g><path style="opacity:0.259" fill="#b7d8fa" d="M 78.5,306.5 C 78.8333,306.5 79.1667,306.5 79.5,306.5C 78.942,311.709 77.942,316.709 76.5,321.5C 76.5,319.833 76.5,318.167 76.5,316.5C 77.2937,313.198 77.9604,309.865 78.5,306.5 Z"/></g>
<g><path style="opacity:1" fill="#4b8fee" d="M 423.5,293.5 C 423.833,293.5 424.167,293.5 424.5,293.5C 425.832,294.83 426.665,296.497 427,298.5C 427.333,296.833 427.667,295.167 428,293.5C 428.333,293.833 428.667,294.167 429,294.5C 429.406,298.34 429.239,302.173 428.5,306C 430.203,313.03 430.87,320.196 430.5,327.5C 430.167,327.5 429.833,327.5 429.5,327.5C 429.5,327.167 429.5,326.833 429.5,326.5C 429.105,318.794 428.272,311.127 427,303.5C 426.722,302.584 426.222,301.918 425.5,301.5C 424.232,299.095 423.565,296.428 423.5,293.5 Z"/></g>
<g><path style="opacity:0.353" fill="#b1d6fd" d="M 197.5,312.5 C 197.573,314.027 196.906,315.027 195.5,315.5C 195.427,313.973 196.094,312.973 197.5,312.5 Z"/></g>
<g><path style="opacity:0.443" fill="#a9cef6" d="M 245.5,311.5 C 244,315.173 242,318.506 239.5,321.5C 240.224,317.237 242.224,313.903 245.5,311.5 Z"/></g>
<g><path style="opacity:0.263" fill="#c3d9fa" d="M 313.5,312.5 C 314.906,312.973 315.573,313.973 315.5,315.5C 314.094,315.027 313.427,314.027 313.5,312.5 Z"/></g>
<g><path style="opacity:1" fill="#3d8ae9" d="M 200.5,309.5 C 199.108,313.678 197.274,317.678 195,321.5C 194.329,322.252 193.496,322.586 192.5,322.5C 192.5,321.833 192.5,321.167 192.5,320.5C 192.328,319.508 192.662,318.842 193.5,318.5C 194.906,318.027 195.573,317.027 195.5,315.5C 196.906,315.027 197.573,314.027 197.5,312.5C 197.328,311.508 197.662,310.842 198.5,310.5C 199.167,310.167 199.833,309.833 200.5,309.5 Z"/></g>
<g><path style="opacity:0.192" fill="#b2d6fa" d="M 255.5,313.5 C 256.906,313.973 257.573,314.973 257.5,316.5C 256.094,316.027 255.427,315.027 255.5,313.5 Z"/></g>
<g><path style="opacity:0.31" fill="#bcdefe" d="M 195.5,315.5 C 195.573,317.027 194.906,318.027 193.5,318.5C 193.427,316.973 194.094,315.973 195.5,315.5 Z"/></g>
<g><path style="opacity:0.247" fill="#a2c5f0" d="M 315.5,315.5 C 316.89,316.899 317.89,318.566 318.5,320.5C 316.241,319.656 315.241,317.989 315.5,315.5 Z"/></g>
<g><path style="opacity:0.176" fill="#c0d9fb" d="M 258.5,318.5 C 259.906,318.973 260.573,319.973 260.5,321.5C 259.094,321.027 258.427,320.027 258.5,318.5 Z"/></g>
<g><path style="opacity:0.459" fill="#9dcdfb" d="M 192.5,320.5 C 192.5,321.167 192.5,321.833 192.5,322.5C 191.833,322.833 191.167,323.167 190.5,323.5C 190.427,321.973 191.094,320.973 192.5,320.5 Z"/></g>
<g><path style="opacity:1" fill="#0f75ee" d="M 32.5,290.5 C 32.3345,294.514 32.5012,298.514 33,302.5C 33.2492,301.376 33.7492,300.376 34.5,299.5C 35.4519,301.045 35.7852,302.712 35.5,304.5C 32.0897,304.384 30.7564,306.05 31.5,309.5C 40.1868,309.119 48.6868,309.786 57,311.5C 59.6254,311.419 61.9587,310.752 64,309.5C 66.1476,315.077 65.981,320.577 63.5,326C 64.1374,327.713 65.1374,327.879 66.5,326.5C 67.4274,328.113 68.2607,329.779 69,331.5C 70.3204,327.886 71.4871,324.219 72.5,320.5C 73.1757,321.602 73.8423,322.602 74.5,323.5C 72.9332,329.026 72.2665,334.692 72.5,340.5C 71.7784,340.082 71.2784,339.416 71,338.5C 70.6667,338.833 70.3333,339.167 70,339.5C 69.8265,343.541 69.3265,347.541 68.5,351.5C 68.364,346.299 67.6973,340.965 66.5,335.5C 65.7492,334.624 65.2492,333.624 65,332.5C 63.6081,335.278 63.1081,338.278 63.5,341.5C 52.1667,341.5 40.8333,341.5 29.5,341.5C 29.6495,342.552 29.4828,343.552 29,344.5C 28.3292,343.748 27.4959,343.414 26.5,343.5C 27.4904,331.53 28.157,319.53 28.5,307.5C 29.0873,301.544 30.4207,295.878 32.5,290.5 Z"/></g>
<g><path style="opacity:0.275" fill="#abdaf9" d="M 319.5,322.5 C 320.906,322.973 321.573,323.973 321.5,325.5C 320.833,325.167 320.167,324.833 319.5,324.5C 319.5,323.833 319.5,323.167 319.5,322.5 Z"/></g>
<g><path style="opacity:1" fill="#75acf0" d="M 470.5,305.5 C 472.415,312.576 473.415,319.909 473.5,327.5C 473.167,327.5 472.833,327.5 472.5,327.5C 471.046,321.631 470.379,315.631 470.5,309.5C 470.5,308.167 470.5,306.833 470.5,305.5 Z"/></g>
<g><path style="opacity:0.369" fill="#afd2fd" d="M 190.5,323.5 C 190.573,325.027 189.906,326.027 188.5,326.5C 188.427,324.973 189.094,323.973 190.5,323.5 Z"/></g>
<g><path style="opacity:0.263" fill="#acd9f6" d="M 238.5,323.5 C 238.008,325.819 237.008,327.819 235.5,329.5C 235.025,326.687 236.025,324.687 238.5,323.5 Z"/></g>
<g><path style="opacity:0.243" fill="#c1d7fa" d="M 261.5,323.5 C 263.25,324.659 264.25,326.326 264.5,328.5C 262.75,327.341 261.75,325.674 261.5,323.5 Z"/></g>
<g><path style="opacity:1" fill="#5888d9" d="M 319.5,324.5 C 320.167,324.833 320.833,325.167 321.5,325.5C 322.338,325.842 322.672,326.508 322.5,327.5C 322.5,328.167 322.5,328.833 322.5,329.5C 321.11,328.101 320.11,326.434 319.5,324.5 Z"/></g>
<g><path style="opacity:0.322" fill="#bbdefd" d="M 188.5,326.5 C 188.573,328.027 187.906,329.027 186.5,329.5C 186.427,327.973 187.094,326.973 188.5,326.5 Z"/></g>
<g><path style="opacity:0.278" fill="#b9d7fb" d="M 322.5,327.5 C 323.906,327.973 324.573,328.973 324.5,330.5C 324.167,330.5 323.833,330.5 323.5,330.5C 323.5,329.833 323.167,329.5 322.5,329.5C 322.5,328.833 322.5,328.167 322.5,327.5 Z"/></g>
<g><path style="opacity:1" fill="#4b87e1" d="M 76.5,316.5 C 76.5,318.167 76.5,319.833 76.5,321.5C 76.3841,324.86 76.0508,328.193 75.5,331.5C 73.8643,335.21 73.1977,339.21 73.5,343.5C 73.1667,343.5 72.8333,343.5 72.5,343.5C 72.5,342.5 72.5,341.5 72.5,340.5C 72.2665,334.692 72.9332,329.026 74.5,323.5C 74.4095,320.848 75.0762,318.515 76.5,316.5 Z"/></g>
<g><path style="opacity:0.871" fill="#9ab8ed" d="M 265.5,330.5 C 267.796,331.733 269.13,333.733 269.5,336.5C 267.684,334.882 266.351,332.882 265.5,330.5 Z"/></g>
<g><path style="opacity:0.094" fill="#d1ebff" d="M 235.5,329.5 C 235.573,331.027 234.906,332.027 233.5,332.5C 233.427,330.973 234.094,329.973 235.5,329.5 Z"/></g>
<g><path style="opacity:0.447" fill="#a5cbfa" d="M 185.5,331.5 C 185.573,333.027 184.906,334.027 183.5,334.5C 183.427,332.973 184.094,331.973 185.5,331.5 Z"/></g>
<g><path style="opacity:0.373" fill="#b2cbfa" d="M 325.5,332.5 C 326.906,332.973 327.573,333.973 327.5,335.5C 326.094,335.027 325.427,334.027 325.5,332.5 Z"/></g>
<g><path style="opacity:0.341" fill="#aed9fb" d="M 183.5,334.5 C 183.573,336.027 182.906,337.027 181.5,337.5C 181.427,335.973 182.094,334.973 183.5,334.5 Z"/></g>
<g><path style="opacity:0.831" fill="#9cc2f3" d="M 233.5,332.5 C 232.226,335.76 230.56,338.76 228.5,341.5C 228.477,337.532 230.144,334.532 233.5,332.5 Z"/></g>
<g><path style="opacity:0.765" fill="#a0c1f1" d="M 269.5,337.5 C 271.446,338.035 272.446,339.368 272.5,341.5C 271.026,340.564 270.026,339.23 269.5,337.5 Z"/></g>
<g><path style="opacity:0.22" fill="#c3defb" d="M 327.5,335.5 C 328.906,335.973 329.573,336.973 329.5,338.5C 328.094,338.027 327.427,337.027 327.5,335.5 Z"/></g>
<g><path style="opacity:0.361" fill="#c7e0f9" d="M 75.5,331.5 C 75.0815,337.669 74.4149,343.669 73.5,349.5C 73.5,347.5 73.5,345.5 73.5,343.5C 73.1977,339.21 73.8643,335.21 75.5,331.5 Z"/></g>
<g><path style="opacity:0.318" fill="#bfd8fd" d="M 181.5,337.5 C 181.573,339.027 180.906,340.027 179.5,340.5C 179.427,338.973 180.094,337.973 181.5,337.5 Z"/></g>
<g><path style="opacity:1" fill="#0a6ee8" d="M 323.5,330.5 C 323.833,330.5 324.167,330.5 324.5,330.5C 325.338,330.842 325.672,331.508 325.5,332.5C 325.427,334.027 326.094,335.027 327.5,335.5C 327.427,337.027 328.094,338.027 329.5,338.5C 330.338,338.842 330.672,339.508 330.5,340.5C 330.427,342.027 331.094,343.027 332.5,343.5C 333.338,343.842 333.672,344.508 333.5,345.5C 333.427,347.027 334.094,348.027 335.5,348.5C 335.427,350.027 336.094,351.027 337.5,351.5C 338.338,351.842 338.672,352.508 338.5,353.5C 338.427,355.027 339.094,356.027 340.5,356.5C 340.427,358.027 341.094,359.027 342.5,359.5C 342.427,361.027 343.094,362.027 344.5,362.5C 345.338,362.842 345.672,363.508 345.5,364.5C 345.427,366.027 346.094,367.027 347.5,367.5C 347.427,369.027 348.094,370.027 349.5,370.5C 349.427,372.027 350.094,373.027 351.5,373.5C 351.5,374.167 351.5,374.833 351.5,375.5C 351.539,376.583 351.873,377.583 352.5,378.5C 349.527,380.147 346.86,382.147 344.5,384.5C 344.167,385.667 343.833,386.833 343.5,388C 342.5,401 341.5,414 340.5,427C 342.728,430.117 342.561,432.95 340,435.5C 338.961,434.29 337.794,433.29 336.5,432.5C 333.825,431.522 332.325,429.522 332,426.5C 331.329,427.252 330.496,427.586 329.5,427.5C 329.167,426.5 328.5,425.833 327.5,425.5C 327.525,420.874 325.525,417.541 321.5,415.5C 319.694,413.911 318.361,411.911 317.5,409.5C 316.423,408.295 315.09,407.628 313.5,407.5C 313.446,405.368 312.446,404.035 310.5,403.5C 309.662,403.158 309.328,402.492 309.5,401.5C 308.864,399.205 307.531,397.539 305.5,396.5C 305.5,396.167 305.5,395.833 305.5,395.5C 305.267,393.938 304.6,392.605 303.5,391.5C 304.859,390.993 305.859,389.993 306.5,388.5C 306.974,390.862 307.308,393.195 307.5,395.5C 308.814,394.687 309.981,393.687 311,392.5C 310,389.5 309,386.5 308,383.5C 310.643,384.976 312.81,386.976 314.5,389.5C 314.833,388.5 315.167,387.5 315.5,386.5C 316.998,373.868 318.165,361.201 319,348.5C 319.333,349.5 319.667,350.5 320,351.5C 321.407,347.689 323.574,344.355 326.5,341.5C 325.959,339.465 325.292,337.465 324.5,335.5C 323.772,337.193 322.772,338.693 321.5,340C 321.957,340.414 322.291,340.914 322.5,341.5C 321.372,342.262 320.205,342.929 319,343.5C 318.503,340.854 318.336,338.187 318.5,335.5C 321.5,335.167 323.167,333.5 323.5,330.5 Z"/></g>
<g><path style="opacity:1" fill="#047af3" d="M 72.5,340.5 C 72.5,341.5 72.5,342.5 72.5,343.5C 72.5,344.167 72.5,344.833 72.5,345.5C 71.8826,345.611 71.3826,345.944 71,346.5C 71.1124,353.94 70.2791,361.106 68.5,368C 69.7112,368.893 69.7112,369.726 68.5,370.5C 67.8333,369.5 67.1667,368.5 66.5,367.5C 65.0503,369.605 64.217,371.605 64,373.5C 63.5616,368.13 63.5616,362.797 64,357.5C 53.3761,357.546 42.5428,357.546 31.5,357.5C 31.6646,354.482 31.498,351.482 31,348.5C 30.2231,353.222 30.3897,357.889 31.5,362.5C 30.8108,364.444 30.3108,366.444 30,368.5C 29.0138,367.829 27.8471,367.829 26.5,368.5C 26.5,360.167 26.5,351.833 26.5,343.5C 27.4959,343.414 28.3292,343.748 29,344.5C 29.4828,343.552 29.6495,342.552 29.5,341.5C 40.8333,341.5 52.1667,341.5 63.5,341.5C 63.1081,338.278 63.6081,335.278 65,332.5C 65.2492,333.624 65.7492,334.624 66.5,335.5C 67.6973,340.965 68.364,346.299 68.5,351.5C 69.3265,347.541 69.8265,343.541 70,339.5C 70.3333,339.167 70.6667,338.833 71,338.5C 71.2784,339.416 71.7784,340.082 72.5,340.5 Z"/></g>
<g><path style="opacity:0.278" fill="#c3dfff" d="M 179.5,340.5 C 179.573,342.027 178.906,343.027 177.5,343.5C 177.427,341.973 178.094,340.973 179.5,340.5 Z"/></g>
<g><path style="opacity:0.996" fill="#90b0eb" d="M 272.5,341.5 C 275.483,344.115 277.483,347.448 278.5,351.5C 276,348.506 274,345.173 272.5,341.5 Z"/></g>
<g><path style="opacity:0.275" fill="#c6dbfe" d="M 330.5,340.5 C 331.906,340.973 332.573,341.973 332.5,343.5C 331.094,343.027 330.427,342.027 330.5,340.5 Z"/></g>
<g><path style="opacity:0.167" fill="#cbe9fd" d="M 429.5,327.5 C 429.833,327.5 430.167,327.5 430.5,327.5C 431.127,332.141 431.46,336.807 431.5,341.5C 431.5,350.833 431.5,360.167 431.5,369.5C 431.167,369.5 430.833,369.5 430.5,369.5C 430.651,355.484 430.318,341.484 429.5,327.5 Z"/></g>
<g><path style="opacity:0.008" fill="#cee3fb" d="M 227.5,343.5 C 227.573,345.027 226.906,346.027 225.5,346.5C 225.285,344.821 225.952,343.821 227.5,343.5 Z"/></g>
<g><path style="opacity:0.09" fill="#c9eafe" d="M 474.5,339.5 C 475.659,350.659 475.826,361.992 475,373.5C 474.704,378.728 473.871,383.728 472.5,388.5C 473.999,372.206 474.665,355.873 474.5,339.5 Z"/></g>
<g><path style="opacity:0.467" fill="#a5c8fd" d="M 176.5,345.5 C 176.573,347.027 175.906,348.027 174.5,348.5C 174.427,346.973 175.094,345.973 176.5,345.5 Z"/></g>
<g><path style="opacity:0.369" fill="#adccf8" d="M 333.5,345.5 C 334.906,345.973 335.573,346.973 335.5,348.5C 334.094,348.027 333.427,347.027 333.5,345.5 Z"/></g>
<g><path style="opacity:0.447" fill="#a5cffd" d="M 174.5,348.5 C 174.573,350.027 173.906,351.027 172.5,351.5C 172.427,349.973 173.094,348.973 174.5,348.5 Z"/></g>
<g><path style="opacity:0.275" fill="#c7daf9" d="M 335.5,348.5 C 336.906,348.973 337.573,349.973 337.5,351.5C 336.094,351.027 335.427,350.027 335.5,348.5 Z"/></g>
<g><path style="opacity:1" fill="#5f93e9" d="M 28.5,307.5 C 28.157,319.53 27.4904,331.53 26.5,343.5C 26.5,351.833 26.5,360.167 26.5,368.5C 27.1667,376.833 27.8333,385.167 28.5,393.5C 28.1667,393.5 27.8333,393.5 27.5,393.5C 26.0109,389.764 25.3442,385.764 25.5,381.5C 25.5,364.167 25.5,346.833 25.5,329.5C 25.4386,321.891 26.4386,314.558 28.5,307.5 Z"/></g>
<g><path style="opacity:0.157" fill="#c8e5fd" d="M 223.5,350.5 C 223.573,352.027 222.906,353.027 221.5,353.5C 221.427,351.973 222.094,350.973 223.5,350.5 Z"/></g>
<g><path style="opacity:0.451" fill="#aacffb" d="M 172.5,351.5 C 172.573,353.027 171.906,354.027 170.5,354.5C 170.427,352.973 171.094,351.973 172.5,351.5 Z"/></g>
<g><path style="opacity:0.216" fill="#c1d8fb" d="M 279.5,353.5 C 280.5,353.833 281.167,354.5 281.5,355.5C 282.11,356.391 282.443,357.391 282.5,358.5C 280.75,357.341 279.75,355.674 279.5,353.5 Z"/></g>
<g><path style="opacity:0.42" fill="#a6c6f7" d="M 338.5,353.5 C 339.906,353.973 340.573,354.973 340.5,356.5C 339.094,356.027 338.427,355.027 338.5,353.5 Z"/></g>
<g><path style="opacity:0.349" fill="#abd8fd" d="M 170.5,354.5 C 170.573,356.027 169.906,357.027 168.5,357.5C 168.427,355.973 169.094,354.973 170.5,354.5 Z"/></g>
<g><path style="opacity:0.941" fill="#90b8eb" d="M 25.5,329.5 C 25.5,346.833 25.5,364.167 25.5,381.5C 24.0202,373.384 23.3536,365.05 23.5,356.5C 23.3959,347.291 24.0625,338.291 25.5,329.5 Z"/></g>
<g><path style="opacity:0.875" fill="#97c1f2" d="M 220.5,355.5 C 220.25,357.674 219.25,359.341 217.5,360.5C 216.916,357.715 217.916,356.048 220.5,355.5 Z"/></g>
<g><path style="opacity:0.318" fill="#b2d8fd" d="M 340.5,356.5 C 341.906,356.973 342.573,357.973 342.5,359.5C 341.094,359.027 340.427,358.027 340.5,356.5 Z"/></g>
<g><path style="opacity:0.38" fill="#afd6fe" d="M 168.5,357.5 C 168.573,359.027 167.906,360.027 166.5,360.5C 166.427,358.973 167.094,357.973 168.5,357.5 Z"/></g>
<g><path style="opacity:0.867" fill="#9bb7ed" d="M 283.5,360.5 C 285.796,361.733 287.13,363.733 287.5,366.5C 285.684,364.882 284.351,362.882 283.5,360.5 Z"/></g>
<g><path style="opacity:0.263" fill="#c2d7fd" d="M 342.5,359.5 C 343.906,359.973 344.573,360.973 344.5,362.5C 343.094,362.027 342.427,361.027 342.5,359.5 Z"/></g>
<g><path style="opacity:0.392" fill="#b5d5ff" d="M 166.5,360.5 C 166.573,362.027 165.906,363.027 164.5,363.5C 164.427,361.973 165.094,360.973 166.5,360.5 Z"/></g>
<g><path style="opacity:1" fill="#87b2ef" d="M 215.5,364.5 C 214.89,366.434 213.89,368.101 212.5,369.5C 212.201,367.396 212.534,365.396 213.5,363.5C 214.183,363.863 214.85,364.196 215.5,364.5 Z"/></g>
<g><path style="opacity:0.404" fill="#aed5fd" d="M 164.5,363.5 C 164.573,365.027 163.906,366.027 162.5,366.5C 162.427,364.973 163.094,363.973 164.5,363.5 Z"/></g>
<g><path style="opacity:0.678" fill="#a1bff5" d="M 345.5,364.5 C 346.906,364.973 347.573,365.973 347.5,367.5C 346.094,367.027 345.427,366.027 345.5,364.5 Z"/></g>
<g><path style="opacity:0.702" fill="#9dc9f7" d="M 162.5,366.5 C 162.573,368.027 161.906,369.027 160.5,369.5C 160.427,367.973 161.094,366.973 162.5,366.5 Z"/></g>
<g><path style="opacity:0.773" fill="#9ec4ed" d="M 287.5,367.5 C 289.048,367.821 289.715,368.821 289.5,370.5C 288.599,369.71 287.932,368.71 287.5,367.5 Z"/></g>
<g><path style="opacity:0.424" fill="#a8c8fa" d="M 347.5,367.5 C 348.906,367.973 349.573,368.973 349.5,370.5C 348.094,370.027 347.427,369.027 347.5,367.5 Z"/></g>
<g><path style="opacity:0.545" fill="#a3cefa" d="M 160.5,369.5 C 160.262,371.404 159.262,372.738 157.5,373.5C 157.738,371.596 158.738,370.262 160.5,369.5 Z"/></g>
<g><path style="opacity:0.655" fill="#9bc8f8" d="M 349.5,370.5 C 350.906,370.973 351.573,371.973 351.5,373.5C 350.094,373.027 349.427,372.027 349.5,370.5 Z"/></g>
<g><path style="opacity:0.129" fill="#cbddf9" d="M 289.5,370.5 C 290.906,370.973 291.573,371.973 291.5,373.5C 290.094,373.027 289.427,372.027 289.5,370.5 Z"/></g>
<g><path style="opacity:0.686" fill="#97c1f3" d="M 351.5,373.5 C 352.906,373.973 353.573,374.973 353.5,376.5C 352.833,376.167 352.167,375.833 351.5,375.5C 351.5,374.833 351.5,374.167 351.5,373.5 Z"/></g>
<g><path style="opacity:1" fill="#418bf1" d="M 472.5,327.5 C 472.833,327.5 473.167,327.5 473.5,327.5C 474.483,331.298 474.817,335.298 474.5,339.5C 474.665,355.873 473.999,372.206 472.5,388.5C 472.167,394.516 470.834,400.183 468.5,405.5C 467.833,406.167 467.167,406.833 466.5,407.5C 466.708,405.08 466.374,402.747 465.5,400.5C 467.389,396.805 469.055,392.972 470.5,389C 470.32,386.759 469.487,386.259 468,387.5C 467.879,381.694 467.046,376.027 465.5,370.5C 465.477,368.933 465.977,367.6 467,366.5C 468.151,370.228 469.484,373.895 471,377.5C 471.333,376.167 471.667,374.833 472,373.5C 472.5,358.17 472.667,342.837 472.5,327.5 Z"/></g>
<g><path style="opacity:0.373" fill="#a9d7fc" d="M 157.5,373.5 C 157.573,375.027 156.906,376.027 155.5,376.5C 155.427,374.973 156.094,373.973 157.5,373.5 Z"/></g>
<g><path style="opacity:0.18" fill="#badefd" d="M 209.5,374.5 C 209.573,376.027 208.906,377.027 207.5,377.5C 207.427,375.973 208.094,374.973 209.5,374.5 Z"/></g>
<g><path style="opacity:0.855" fill="#96c3f5" d="M 430.5,369.5 C 430.833,369.5 431.167,369.5 431.5,369.5C 431.773,375.216 430.773,380.549 428.5,385.5C 429.167,380.167 429.833,374.833 430.5,369.5 Z"/></g>
<g><path style="opacity:1" fill="#508ff0" d="M 217.5,360.5 C 217.34,362.153 216.674,363.486 215.5,364.5C 214.85,364.196 214.183,363.863 213.5,363.5C 212.534,365.396 212.201,367.396 212.5,369.5C 212.25,371.674 211.25,373.341 209.5,374.5C 208.094,374.973 207.427,375.973 207.5,377.5C 205.273,378.401 204.273,380.067 204.5,382.5C 203.833,382.833 203.167,383.167 202.5,383.5C 202.993,381.194 203.326,378.861 203.5,376.5C 204.5,376.5 205.5,376.5 206.5,376.5C 206.786,374.723 207.453,373.056 208.5,371.5C 208.201,369.185 207.368,369.185 206,371.5C 205.333,369.833 205.333,368.167 206,366.5C 207.388,367.554 208.888,367.72 210.5,367C 211.107,362.891 213.44,360.724 217.5,360.5 Z"/></g>
<g><path style="opacity:0.796" fill="#9ec0f1" d="M 293.5,377.5 C 295.446,378.035 296.446,379.368 296.5,381.5C 295.026,380.564 294.026,379.23 293.5,377.5 Z"/></g>
<g><path style="opacity:0.965" fill="#81b3f2" d="M 72.5,343.5 C 72.8333,343.5 73.1667,343.5 73.5,343.5C 73.5,345.5 73.5,347.5 73.5,349.5C 73.571,359.876 74.2377,370.209 75.5,380.5C 75.5,381.167 75.5,381.833 75.5,382.5C 74.1127,380.123 73.2794,377.457 73,374.5C 72.5003,366.841 72.3336,359.174 72.5,351.5C 72.5,349.5 72.5,347.5 72.5,345.5C 72.5,344.833 72.5,344.167 72.5,343.5 Z"/></g>
<g><path style="opacity:0.455" fill="#a3d0fc" d="M 155.5,376.5 C 155.573,378.027 154.906,379.027 153.5,379.5C 153.427,377.973 154.094,376.973 155.5,376.5 Z"/></g>
<g><path style="opacity:0.431" fill="#a4c7f9" d="M 353.5,376.5 C 354.906,376.973 355.573,377.973 355.5,379.5C 354.094,379.027 353.427,378.027 353.5,376.5 Z"/></g>
<g><path style="opacity:0.282" fill="#a5d1f9" d="M 207.5,377.5 C 207.25,379.674 206.25,381.341 204.5,382.5C 204.273,380.067 205.273,378.401 207.5,377.5 Z"/></g>
<g><path style="opacity:0.78" fill="#9ec7f8" d="M 153.5,379.5 C 153.262,381.404 152.262,382.738 150.5,383.5C 150.738,381.596 151.738,380.262 153.5,379.5 Z"/></g>
<g><path style="opacity:1" fill="#0572ec" d="M 351.5,375.5 C 352.167,375.833 352.833,376.167 353.5,376.5C 353.427,378.027 354.094,379.027 355.5,379.5C 355.738,381.404 356.738,382.738 358.5,383.5C 358.427,385.027 359.094,386.027 360.5,386.5C 360.738,388.404 361.738,389.738 363.5,390.5C 364.419,393.089 366.086,395.089 368.5,396.5C 368.833,398.833 370.167,400.167 372.5,400.5C 372.5,402.5 373.5,403.5 375.5,403.5C 376.035,405.446 377.368,406.446 379.5,406.5C 380.37,408.274 381.703,409.607 383.5,410.5C 382.571,411.315 381.571,412.148 380.5,413C 381.416,413.374 382.25,413.874 383,414.5C 384.091,425.183 384.257,435.85 383.5,446.5C 386.807,447.158 389.64,447.158 392,446.5C 392.692,447.025 393.192,447.692 393.5,448.5C 391.234,449.314 388.9,449.814 386.5,450C 387.451,450.718 387.617,451.551 387,452.5C 385.559,453.26 384.059,453.926 382.5,454.5C 378.187,453.229 373.854,453.229 369.5,454.5C 366.694,452.936 363.694,452.27 360.5,452.5C 359.432,451.566 358.099,451.232 356.5,451.5C 356.027,450.094 355.027,449.427 353.5,449.5C 353.027,448.094 352.027,447.427 350.5,447.5C 349.738,445.738 348.404,444.738 346.5,444.5C 344.761,441.757 342.427,439.757 339.5,438.5C 338.5,438.167 337.833,437.5 337.5,436.5C 337.167,435.167 336.833,433.833 336.5,432.5C 337.794,433.29 338.961,434.29 340,435.5C 342.561,432.95 342.728,430.117 340.5,427C 341.5,414 342.5,401 343.5,388C 343.833,386.833 344.167,385.667 344.5,384.5C 346.86,382.147 349.527,380.147 352.5,378.5C 351.873,377.583 351.539,376.583 351.5,375.5 Z"/></g>
<g><path style="opacity:1" fill="#4792f0" d="M 431.5,341.5 C 432.661,355.327 432.827,369.327 432,383.5C 431.114,386.093 429.614,388.093 427.5,389.5C 427.232,387.901 427.566,386.568 428.5,385.5C 430.773,380.549 431.773,375.216 431.5,369.5C 431.5,360.167 431.5,350.833 431.5,341.5 Z"/></g>
<g><path style="opacity:0.525" fill="#9cccf8" d="M 355.5,379.5 C 357.262,380.262 358.262,381.596 358.5,383.5C 356.738,382.738 355.738,381.404 355.5,379.5 Z"/></g>
<g><path style="opacity:1" fill="#1981f1" d="M 72.5,351.5 C 72.3336,359.174 72.5003,366.841 73,374.5C 73.2794,377.457 74.1127,380.123 75.5,382.5C 75.5516,385.346 76.5516,387.68 78.5,389.5C 78.5,389.833 78.5,390.167 78.5,390.5C 78.1201,392.698 78.7868,394.365 80.5,395.5C 80.427,397.027 81.0937,398.027 82.5,398.5C 82.427,400.027 83.0937,401.027 84.5,401.5C 84.5,402.167 84.5,402.833 84.5,403.5C 82.0734,401.11 79.9068,398.444 78,395.5C 77.6667,396.167 77.3333,396.833 77,397.5C 73.4721,394.14 70.9721,390.14 69.5,385.5C 70.6313,384.396 71.4646,384.729 72,386.5C 72.1667,384.833 72.3333,383.167 72.5,381.5C 71.2872,371.34 71.2872,361.34 72.5,351.5 Z"/></g>
<g><path style="opacity:0.729" fill="#a2d0f8" d="M 75.5,380.5 C 76.6693,383.341 77.6693,386.341 78.5,389.5C 76.5516,387.68 75.5516,385.346 75.5,382.5C 75.5,381.833 75.5,381.167 75.5,380.5 Z"/></g>
<g><path style="opacity:0.773" fill="#a2c5f7" d="M 150.5,383.5 C 149.92,385.749 148.587,387.415 146.5,388.5C 147.08,386.251 148.413,384.585 150.5,383.5 Z"/></g>
<g><path style="opacity:0.278" fill="#a8d1f9" d="M 204.5,382.5 C 204.25,384.674 203.25,386.341 201.5,387.5C 201.5,386.833 201.5,386.167 201.5,385.5C 201.833,384.833 202.167,384.167 202.5,383.5C 203.167,383.167 203.833,382.833 204.5,382.5 Z"/></g>
<g><path style="opacity:0.627" fill="#a6c8f8" d="M 358.5,383.5 C 359.906,383.973 360.573,384.973 360.5,386.5C 359.094,386.027 358.427,385.027 358.5,383.5 Z"/></g>
<g><path style="opacity:0.153" fill="#c8dcfc" d="M 297.5,383.5 C 298.906,383.973 299.573,384.973 299.5,386.5C 298.094,386.027 297.427,385.027 297.5,383.5 Z"/></g>
<g><path style="opacity:0.843" fill="#a3c0f2" d="M 300.5,388.5 C 302.144,388.81 303.144,389.81 303.5,391.5C 304.6,392.605 305.267,393.938 305.5,395.5C 303.11,393.733 301.443,391.4 300.5,388.5 Z"/></g>
<g><path style="opacity:0.592" fill="#9cc0f1" d="M 360.5,386.5 C 362.262,387.262 363.262,388.596 363.5,390.5C 361.738,389.738 360.738,388.404 360.5,386.5 Z"/></g>
<g><path style="opacity:0.2" fill="#c7e1fb" d="M 201.5,387.5 C 201.34,389.153 200.674,390.486 199.5,391.5C 199.229,389.62 199.896,388.287 201.5,387.5 Z"/></g>
<g><path style="opacity:0.529" fill="#a8ccf9" d="M 146.5,388.5 C 145.581,391.089 143.914,393.089 141.5,394.5C 142.419,391.911 144.086,389.911 146.5,388.5 Z"/></g>
<g><path style="opacity:0.784" fill="#a0c0f6" d="M 363.5,390.5 C 365.914,391.911 367.581,393.911 368.5,396.5C 366.086,395.089 364.419,393.089 363.5,390.5 Z"/></g>
<g><path style="opacity:0.898" fill="#83b7f1" d="M 427.5,389.5 C 427.459,393.236 426.126,396.236 423.5,398.5C 424.463,395.256 425.796,392.256 427.5,389.5 Z"/></g>
<g><path style="opacity:0.851" fill="#8bbaf7" d="M 78.5,390.5 C 79.5375,391.93 80.2041,393.597 80.5,395.5C 78.7868,394.365 78.1201,392.698 78.5,390.5 Z"/></g>
<g><path style="opacity:1" fill="#3f89f2" d="M 201.5,385.5 C 201.5,386.167 201.5,386.833 201.5,387.5C 199.896,388.287 199.229,389.62 199.5,391.5C 199.5,392.167 199.167,392.5 198.5,392.5C 197.094,392.973 196.427,393.973 196.5,395.5C 196.573,397.027 195.906,398.027 194.5,398.5C 193.5,399.167 192.5,399.833 191.5,400.5C 191.481,398.94 191.148,397.44 190.5,396C 192.916,394.526 193.916,392.36 193.5,389.5C 196.95,390.244 198.616,388.91 198.5,385.5C 199.5,385.5 200.5,385.5 201.5,385.5 Z"/></g>
<g><path style="opacity:0.133" fill="#cce5fd" d="M 198.5,392.5 C 198.573,394.027 197.906,395.027 196.5,395.5C 196.427,393.973 197.094,392.973 198.5,392.5 Z"/></g>
<g><path style="opacity:0.027" fill="#c2e5fe" d="M 27.5,393.5 C 27.8333,393.5 28.1667,393.5 28.5,393.5C 29.0916,396.127 29.4249,398.794 29.5,401.5C 28.2318,399.095 27.5651,396.428 27.5,393.5 Z"/></g>
<g><path style="opacity:0.729" fill="#a9c7f5" d="M 305.5,396.5 C 307.531,397.539 308.864,399.205 309.5,401.5C 307.457,400.421 306.124,398.754 305.5,396.5 Z"/></g>
<g><path style="opacity:0.31" fill="#aad7fd" d="M 80.5,395.5 C 81.9063,395.973 82.573,396.973 82.5,398.5C 81.0937,398.027 80.427,397.027 80.5,395.5 Z"/></g>
<g><path style="opacity:0.851" fill="#7eb0ef" d="M 141.5,394.5 C 140.167,397.833 137.833,400.167 134.5,401.5C 136.5,398.833 138.833,396.5 141.5,394.5 Z"/></g>
<g><path style="opacity:0.82" fill="#8fb5ee" d="M 368.5,396.5 C 370.167,397.5 371.5,398.833 372.5,400.5C 370.167,400.167 368.833,398.833 368.5,396.5 Z"/></g>
<g><path style="opacity:0.58" fill="#a9d5f8" d="M 82.5,398.5 C 83.9063,398.973 84.573,399.973 84.5,401.5C 83.0937,401.027 82.427,400.027 82.5,398.5 Z"/></g>
<g><path style="opacity:0.745" fill="#a5caf9" d="M 423.5,398.5 C 423.262,400.404 422.262,401.738 420.5,402.5C 420.738,400.596 421.738,399.262 423.5,398.5 Z"/></g>
<g><path style="opacity:0.78" fill="#91b9ec" d="M 372.5,400.5 C 373.833,401.167 374.833,402.167 375.5,403.5C 373.5,403.5 372.5,402.5 372.5,400.5 Z"/></g>
<g><path style="opacity:0.843" fill="#8fbaf3" d="M 84.5,401.5 C 86.1667,402.5 87.5,403.833 88.5,405.5C 86.9382,405.267 85.6049,404.6 84.5,403.5C 84.5,402.833 84.5,402.167 84.5,401.5 Z"/></g>
<g><path style="opacity:0.494" fill="#a0cff6" d="M 134.5,401.5 C 133.415,403.587 131.749,404.92 129.5,405.5C 130.585,403.413 132.251,402.08 134.5,401.5 Z"/></g>
<g><path style="opacity:0.788" fill="#86b3f1" d="M 420.5,402.5 C 418.824,406.508 415.824,408.841 411.5,409.5C 414.642,407.42 417.642,405.086 420.5,402.5 Z"/></g>
<g><path style="opacity:0.373" fill="#a2c7f3" d="M 194.5,398.5 C 192.938,402.392 190.605,405.725 187.5,408.5C 188.287,405.592 189.62,402.926 191.5,400.5C 192.5,399.833 193.5,399.167 194.5,398.5 Z"/></g>
<g><path style="opacity:0.584" fill="#a0c1f1" d="M 310.5,403.5 C 312.446,404.035 313.446,405.368 313.5,407.5C 312.026,406.564 311.026,405.23 310.5,403.5 Z"/></g>
<g><path style="opacity:0.533" fill="#a8c7f6" d="M 375.5,403.5 C 377.23,404.026 378.564,405.026 379.5,406.5C 377.368,406.446 376.035,405.446 375.5,403.5 Z"/></g>
<g><path style="opacity:0.714" fill="#9bc7f8" d="M 30.5,404.5 C 32.2798,405.99 32.9465,407.99 32.5,410.5C 31.2616,408.786 30.595,406.786 30.5,404.5 Z"/></g>
<g><path style="opacity:0.612" fill="#aecbf8" d="M 129.5,405.5 C 129.027,406.906 128.027,407.573 126.5,407.5C 126.973,406.094 127.973,405.427 129.5,405.5 Z"/></g>
<g><path style="opacity:0.886" fill="#a1c1f6" d="M 379.5,406.5 C 382.032,407.596 384.365,408.929 386.5,410.5C 385.5,410.5 384.5,410.5 383.5,410.5C 381.703,409.607 380.37,408.274 379.5,406.5 Z"/></g>
<g><path style="opacity:1" fill="#739be3" d="M 313.5,407.5 C 315.09,407.628 316.423,408.295 317.5,409.5C 318.361,411.911 319.694,413.911 321.5,415.5C 322.167,417.167 322.833,418.833 323.5,420.5C 319.432,416.761 316.099,412.428 313.5,407.5 Z"/></g>
<g><path style="opacity:0.396" fill="#bed7fe" d="M 468.5,405.5 C 468.405,407.786 467.738,409.786 466.5,411.5C 466.5,410.167 466.5,408.833 466.5,407.5C 467.167,406.833 467.833,406.167 468.5,405.5 Z"/></g>
<g><path style="opacity:0.004" fill="#d7edff" d="M 187.5,408.5 C 187.573,410.027 186.906,411.027 185.5,411.5C 185.427,409.973 186.094,408.973 187.5,408.5 Z"/></g>
<g><path style="opacity:0.596" fill="#a9cbf2" d="M 94.5,409.5 C 96.6976,409.875 98.6976,410.542 100.5,411.5C 97.9899,411.946 95.9899,411.28 94.5,409.5 Z"/></g>
<g><path style="opacity:0.835" fill="#afd3fa" d="M 122.5,409.5 C 120.383,411.655 117.716,412.655 114.5,412.5C 109.968,412.818 105.634,412.485 101.5,411.5C 108.632,411.892 115.632,411.225 122.5,409.5 Z"/></g>
<g><path style="opacity:1" fill="#5893e7" d="M 88.5,405.5 C 90.7952,406.475 92.7952,407.808 94.5,409.5C 95.9899,411.28 97.9899,411.946 100.5,411.5C 100.833,411.5 101.167,411.5 101.5,411.5C 105.634,412.485 109.968,412.818 114.5,412.5C 107.954,413.792 101.287,413.626 94.5,412C 92.1457,410.095 90.1457,407.929 88.5,405.5 Z"/></g>
<g><path style="opacity:0.031" fill="#cfeffe" d="M 386.5,410.5 C 392.121,411.354 397.788,411.687 403.5,411.5C 403.5,411.833 403.5,412.167 403.5,412.5C 399.5,412.5 395.5,412.5 391.5,412.5C 389.447,412.598 387.78,411.931 386.5,410.5 Z"/></g>
<g><path style="opacity:0.871" fill="#7eabf0" d="M 411.5,409.5 C 409.478,411.693 406.811,412.693 403.5,412.5C 403.5,412.167 403.5,411.833 403.5,411.5C 406.167,410.833 408.833,410.167 411.5,409.5 Z"/></g>
<g><path style="opacity:0.945" fill="#8eb8f1" d="M 185.5,411.5 C 184.974,413.23 183.974,414.564 182.5,415.5C 182.5,414.167 182.5,412.833 182.5,411.5C 183.5,411.5 184.5,411.5 185.5,411.5 Z"/></g>
<g><path style="opacity:1" fill="#0a79f1" d="M 383.5,410.5 C 384.5,410.5 385.5,410.5 386.5,410.5C 387.78,411.931 389.447,412.598 391.5,412.5C 399.01,413.167 406.677,413.833 414.5,414.5C 412.392,415.944 410.059,416.61 407.5,416.5C 406.342,427.059 406.342,437.559 407.5,448C 402.706,448.893 398.04,450.227 393.5,452C 395.376,453.017 397.376,453.851 399.5,454.5C 394.249,456.636 394.249,458.636 399.5,460.5C 393.5,460.5 387.5,460.5 381.5,460.5C 379.379,460.675 377.379,460.341 375.5,459.5C 372.2,457.358 368.533,456.025 364.5,455.5C 363.41,454.143 362.076,453.143 360.5,452.5C 363.694,452.27 366.694,452.936 369.5,454.5C 373.854,453.229 378.187,453.229 382.5,454.5C 384.059,453.926 385.559,453.26 387,452.5C 387.617,451.551 387.451,450.718 386.5,450C 388.9,449.814 391.234,449.314 393.5,448.5C 393.192,447.692 392.692,447.025 392,446.5C 389.64,447.158 386.807,447.158 383.5,446.5C 384.257,435.85 384.091,425.183 383,414.5C 382.25,413.874 381.416,413.374 380.5,413C 381.571,412.148 382.571,411.315 383.5,410.5 Z"/></g>
<g><path style="opacity:0.212" fill="#bde2fe" d="M 33.5,412.5 C 34.9313,413.78 35.5979,415.447 35.5,417.5C 34.0687,416.22 33.4021,414.553 33.5,412.5 Z"/></g>
<g><path style="opacity:0.263" fill="#beddfd" d="M 465.5,413.5 C 465.598,415.553 464.931,417.22 463.5,418.5C 463.402,416.447 464.069,414.78 465.5,413.5 Z"/></g>
<g><path style="opacity:0.02" fill="#b9e7fe" d="M 181.5,416.5 C 181.573,418.027 180.906,419.027 179.5,419.5C 179.427,417.973 180.094,416.973 181.5,416.5 Z"/></g>
<g><path style="opacity:1" fill="#498ff0" d="M 28.5,393.5 C 30.5891,397.215 32.4225,401.215 34,405.5C 35.0558,410.331 36.7225,414.998 39,419.5C 39.414,419.043 39.914,418.709 40.5,418.5C 41.4287,419.689 41.762,421.022 41.5,422.5C 42.552,422.351 43.552,422.517 44.5,423C 43.1772,423.816 42.5106,424.983 42.5,426.5C 41.8333,426.5 41.1667,426.5 40.5,426.5C 39.3263,425.486 38.6596,424.153 38.5,422.5C 38.573,420.973 37.9063,419.973 36.5,419.5C 35.6618,419.158 35.3284,418.492 35.5,417.5C 35.5979,415.447 34.9313,413.78 33.5,412.5C 32.6618,412.158 32.3284,411.492 32.5,410.5C 32.9465,407.99 32.2798,405.99 30.5,404.5C 29.596,403.791 29.2627,402.791 29.5,401.5C 29.4249,398.794 29.0916,396.127 28.5,393.5 Z"/></g>
<g><path style="opacity:1" fill="#3f7edf" d="M 321.5,415.5 C 325.525,417.541 327.525,420.874 327.5,425.5C 326.5,425.167 325.833,424.5 325.5,423.5C 325.5,422.167 324.833,421.5 323.5,421.5C 323.5,421.167 323.5,420.833 323.5,420.5C 322.833,418.833 322.167,417.167 321.5,415.5 Z"/></g>
<g><path style="opacity:0.337" fill="#b8dbfa" d="M 463.5,418.5 C 463.34,420.153 462.674,421.486 461.5,422.5C 461.229,420.62 461.896,419.287 463.5,418.5 Z"/></g>
<g><path style="opacity:0.204" fill="#c7ddfe" d="M 36.5,419.5 C 37.9063,419.973 38.573,420.973 38.5,422.5C 37.0937,422.027 36.427,421.027 36.5,419.5 Z"/></g>
<g><path style="opacity:0.545" fill="#bcd3f3" d="M 323.5,421.5 C 324.833,421.5 325.5,422.167 325.5,423.5C 324.5,423.167 323.833,422.5 323.5,421.5 Z"/></g>
<g><path style="opacity:0.031" fill="#bee4fd" d="M 177.5,421.5 C 177.573,423.027 176.906,424.027 175.5,424.5C 175.427,422.973 176.094,421.973 177.5,421.5 Z"/></g>
<g><path style="opacity:1" fill="#83b0f5" d="M 175.5,424.5 C 173.823,426.54 172.156,428.54 170.5,430.5C 171.536,428.609 171.536,426.776 170.5,425C 172.134,424.506 173.801,424.34 175.5,424.5 Z"/></g>
<g><path style="opacity:0.91" fill="#8fbdf3" d="M 40.5,426.5 C 41.1667,426.5 41.8333,426.5 42.5,426.5C 42.8333,427.833 43.1667,429.167 43.5,430.5C 42.0256,429.564 41.0256,428.23 40.5,426.5 Z"/></g>
<g><path style="opacity:0.008" fill="#d3e6fe" d="M 327.5,425.5 C 328.5,425.833 329.167,426.5 329.5,427.5C 329.5,427.833 329.5,428.167 329.5,428.5C 328.094,428.027 327.427,427.027 327.5,425.5 Z"/></g>
<g><path style="opacity:0.941" fill="#86b3ee" d="M 461.5,422.5 C 460.59,425.992 458.924,428.992 456.5,431.5C 456.372,427.415 458.039,424.415 461.5,422.5 Z"/></g>
<g><path style="opacity:1" fill="#638fda" d="M 336.5,432.5 C 336.833,433.833 337.167,435.167 337.5,436.5C 334.5,434.167 331.833,431.5 329.5,428.5C 329.5,428.167 329.5,427.833 329.5,427.5C 330.496,427.586 331.329,427.252 332,426.5C 332.325,429.522 333.825,431.522 336.5,432.5 Z"/></g>
<g><path style="opacity:0.027" fill="#bbe4fb" d="M 455.5,432.5 C 455.573,434.027 454.906,435.027 453.5,435.5C 453.5,434.833 453.5,434.167 453.5,433.5C 454.167,433.167 454.833,432.833 455.5,432.5 Z"/></g>
<g><path style="opacity:1" fill="#649cf0" d="M 170.5,430.5 C 167.833,433.833 164.833,436.833 161.5,439.5C 161.215,437.712 161.548,436.045 162.5,434.5C 164.5,432.5 166.5,430.5 168.5,428.5C 169.182,429.243 169.849,429.909 170.5,430.5 Z"/></g>
<g><path style="opacity:1" fill="#699ff2" d="M 453.5,433.5 C 453.5,434.167 453.5,434.833 453.5,435.5C 449.452,441.882 444.118,446.882 437.5,450.5C 436.833,450.5 436.167,450.5 435.5,450.5C 435.586,449.504 435.252,448.671 434.5,448C 436.134,447.506 437.801,447.34 439.5,447.5C 439.5,446.5 439.5,445.5 439.5,444.5C 441.167,444.5 442.833,444.5 444.5,444.5C 444.5,443.167 444.5,441.833 444.5,440.5C 445.5,440.5 446.5,440.5 447.5,440.5C 447.579,439.07 447.246,437.736 446.5,436.5C 448.396,435.534 450.396,435.201 452.5,435.5C 452.67,434.178 452.337,433.011 451.5,432C 452.816,431.472 453.483,431.972 453.5,433.5 Z"/></g>
<g><path style="opacity:0.765" fill="#98c3f6" d="M 47.5,436.5 C 48.5832,436.539 49.5832,436.873 50.5,437.5C 52.5211,440.188 54.8544,442.521 57.5,444.5C 57.5,444.833 57.5,445.167 57.5,445.5C 53.5644,443.234 50.2311,440.234 47.5,436.5 Z"/></g>
<g><path style="opacity:0.816" fill="#a0c1f3" d="M 339.5,438.5 C 342.427,439.757 344.761,441.757 346.5,444.5C 343.573,443.243 341.239,441.243 339.5,438.5 Z"/></g>
<g><path style="opacity:1" fill="#70a1f5" d="M 156.5,442.5 C 156.5,442.833 156.5,443.167 156.5,443.5C 155.415,445.587 153.749,446.92 151.5,447.5C 152.301,445.958 152.634,444.292 152.5,442.5C 150.323,441.025 151.656,441.025 156.5,442.5 Z"/></g>
<g><path style="opacity:0.02" fill="#c4e9fe" d="M 160.5,440.5 C 159.738,442.262 158.404,443.262 156.5,443.5C 156.5,443.167 156.5,442.833 156.5,442.5C 157.605,441.4 158.938,440.733 160.5,440.5 Z"/></g>
<g><path style="opacity:1" fill="#639cec" d="M 69.5,453.5 C 68.5084,453.672 67.8417,453.338 67.5,452.5C 67.0269,451.094 66.0269,450.427 64.5,450.5C 61.6298,449.567 59.2964,447.9 57.5,445.5C 57.5,445.167 57.5,444.833 57.5,444.5C 60.4537,442.908 61.4537,443.575 60.5,446.5C 62.5731,448.203 64.9064,449.37 67.5,450C 68.8228,450.816 69.4894,451.983 69.5,453.5 Z"/></g>
<g><path style="opacity:0.796" fill="#9ac0f1" d="M 346.5,444.5 C 348.404,444.738 349.738,445.738 350.5,447.5C 348.596,447.262 347.262,446.262 346.5,444.5 Z"/></g>
<g><path style="opacity:0.71" fill="#97c4f2" d="M 350.5,447.5 C 352.027,447.427 353.027,448.094 353.5,449.5C 351.973,449.573 350.973,448.906 350.5,447.5 Z"/></g>
<g><path style="opacity:0.024" fill="#bae6fd" d="M 148.5,449.5 C 148.027,450.906 147.027,451.573 145.5,451.5C 145.973,450.094 146.973,449.427 148.5,449.5 Z"/></g>
<g><path style="opacity:0.431" fill="#a3c5f7" d="M 353.5,449.5 C 355.027,449.427 356.027,450.094 356.5,451.5C 354.973,451.573 353.973,450.906 353.5,449.5 Z"/></g>
<g><path style="opacity:1" fill="#90b6f0" d="M 435.5,450.5 C 436.167,450.5 436.833,450.5 437.5,450.5C 436.101,451.89 434.434,452.89 432.5,453.5C 432.5,453.167 432.5,452.833 432.5,452.5C 432.821,450.952 433.821,450.285 435.5,450.5 Z"/></g>
<g><path style="opacity:0.329" fill="#b2d7fb" d="M 64.5,450.5 C 66.0269,450.427 67.0269,451.094 67.5,452.5C 65.9731,452.573 64.9731,451.906 64.5,450.5 Z"/></g>
<g><path style="opacity:1" fill="#84a8e6" d="M 356.5,451.5 C 358.099,451.232 359.432,451.566 360.5,452.5C 362.076,453.143 363.41,454.143 364.5,455.5C 361.279,455.104 358.612,453.771 356.5,451.5 Z"/></g>
<g><path style="opacity:0.918" fill="#94b8f2" d="M 139.5,452.5 C 140.833,452.5 142.167,452.5 143.5,452.5C 141.967,454.245 139.967,455.245 137.5,455.5C 138.167,454.5 138.833,453.5 139.5,452.5 Z"/></g>
<g><path style="opacity:1" fill="#77a5f0" d="M 432.5,452.5 C 432.5,452.833 432.5,453.167 432.5,453.5C 430.447,453.402 428.78,454.069 427.5,455.5C 424.369,454.908 422.036,455.908 420.5,458.5C 407.568,462.68 394.568,463.347 381.5,460.5C 387.5,460.5 393.5,460.5 399.5,460.5C 406.597,459.408 413.597,458.074 420.5,456.5C 420.1,453.239 421.267,452.572 424,454.5C 426.679,453.105 429.512,452.439 432.5,452.5 Z"/></g>
<g><path style="opacity:0.192" fill="#bfdffd" d="M 432.5,453.5 C 431.22,454.931 429.553,455.598 427.5,455.5C 428.78,454.069 430.447,453.402 432.5,453.5 Z"/></g>
<g><path style="opacity:0.933" fill="#7dacf0" d="M 69.5,453.5 C 73.6533,453.235 76.9867,454.569 79.5,457.5C 75.8632,456.737 72.5299,455.403 69.5,453.5 Z"/></g>
<g><path style="opacity:0.941" fill="#97bcf2" d="M 364.5,455.5 C 368.533,456.025 372.2,457.358 375.5,459.5C 371.463,458.935 367.797,457.601 364.5,455.5 Z"/></g>
<g><path style="opacity:0.624" fill="#94bef3" d="M 427.5,455.5 C 425.491,457.065 423.157,458.065 420.5,458.5C 422.036,455.908 424.369,454.908 427.5,455.5 Z"/></g>
<g><path style="opacity:0.671" fill="#afd5f3" d="M 79.5,457.5 C 81.8984,457.259 83.8984,457.926 85.5,459.5C 83.2143,459.405 81.2143,458.738 79.5,457.5 Z"/></g>
<g><path style="opacity:1" fill="#699def" d="M 139.5,452.5 C 138.833,453.5 138.167,454.5 137.5,455.5C 134.203,457.601 130.537,458.935 126.5,459.5C 122.267,459.539 118.267,460.205 114.5,461.5C 107.003,462.612 99.6694,462.278 92.5,460.5C 101.199,460.581 109.865,460.081 118.5,459C 120.774,458.53 122.774,457.53 124.5,456C 129.702,455.47 134.702,454.303 139.5,452.5 Z"/></g>
<g><path style="opacity:0.224" fill="#c2e0fd" d="M 126.5,459.5 C 122.764,460.989 118.764,461.656 114.5,461.5C 118.267,460.205 122.267,459.539 126.5,459.5 Z"/></g>
</svg>
