<?xml version="1.0" encoding="UTF-8"?>
<!DOCTYPE svg PUBLIC "-//W3C//DTD SVG 1.1//EN" "http://www.w3.org/Graphics/SVG/1.1/DTD/svg11.dtd">
<svg xmlns="http://www.w3.org/2000/svg" version="1.1" width="519px" height="481px" style="shape-rendering:geometricPrecision; text-rendering:geometricPrecision; image-rendering:optimizeQuality; fill-rule:evenodd; clip-rule:evenodd" xmlns:xlink="http://www.w3.org/1999/xlink">
<g><path style="opacity:0.443" fill="#f5e49b" d="M 28.5,29.5 C 42.7354,28.1779 57.0688,28.1779 71.5,29.5C 98.6718,29.1688 125.672,29.5021 152.5,30.5C 125.167,30.5 97.8333,30.5 70.5,30.5C 70.1667,30.5 69.8333,30.5 69.5,30.5C 56.0102,29.5043 42.3435,29.171 28.5,29.5 Z"/></g>
<g><path style="opacity:1" fill="#020001" d="M 69.5,30.5 C 69.5,170.833 69.5,311.167 69.5,451.5C 55.8333,451.5 42.1667,451.5 28.5,451.5C 28.5,311.167 28.5,170.833 28.5,30.5C 42.1667,30.5 55.8333,30.5 69.5,30.5 Z"/></g>
<g><path style="opacity:1" fill="#010101" d="M 407.5,30.5 C 407.5,57.8333 407.5,85.1667 407.5,112.5C 394.167,112.5 380.833,112.5 367.5,112.5C 367.5,85.1667 367.5,57.8333 367.5,30.5C 380.833,30.5 394.167,30.5 407.5,30.5 Z"/></g>
<g><path style="opacity:0.423" fill="#656565" d="M 28.5,29.5 C 42.3435,29.171 56.0102,29.5043 69.5,30.5C 55.8333,30.5 42.1667,30.5 28.5,30.5C 28.5,170.833 28.5,311.167 28.5,451.5C 42.1667,451.5 55.8333,451.5 69.5,451.5C 69.5,452.167 69.5,452.833 69.5,453.5C 55.5,453.5 41.5,453.5 27.5,453.5C 27.8141,312.447 27.4807,171.614 26.5,31C 27.0442,30.2828 27.7109,29.7828 28.5,29.5 Z"/></g>
<g><path style="opacity:1" fill="#fecc02" d="M 492.5,113.5 C 465.925,113.587 439.258,113.587 412.5,113.5C 411.517,86.5444 411.184,59.5444 411.5,32.5C 438.5,32.5 465.5,32.5 492.5,32.5C 492.5,59.5 492.5,86.5 492.5,113.5 Z"/></g>
<g><path style="opacity:1" fill="#fdcc01" d="M 152.5,113.5 C 125.661,113.169 98.9948,113.502 72.5,114.5C 72.1667,114.5 71.8333,114.5 71.5,114.5C 71.4326,113.041 71.7659,111.708 72.5,110.5C 72.8862,84.551 73.8862,58.551 75.5,32.5C 101.167,32.5 126.833,32.5 152.5,32.5C 152.5,59.5 152.5,86.5 152.5,113.5 Z"/></g>
<g><path style="opacity:1" fill="#eacb3b" d="M 70.5,30.5 C 97.8333,30.5 125.167,30.5 152.5,30.5C 152.833,30.5 153.167,30.5 153.5,30.5C 153.5,30.8333 153.5,31.1667 153.5,31.5C 126.831,31.3334 100.165,31.5 73.5,32C 72.5052,58.0924 72.1719,84.259 72.5,110.5C 71.7659,111.708 71.4326,113.041 71.5,114.5C 71.1667,114.5 70.8333,114.5 70.5,114.5C 70.5,86.5 70.5,58.5 70.5,30.5 Z"/></g>
<g><path style="opacity:0.349" fill="#8e8e8d" d="M 408.5,29.5 C 408.5,29.8333 408.5,30.1667 408.5,30.5C 408.167,30.5 407.833,30.5 407.5,30.5C 394.167,30.5 380.833,30.5 367.5,30.5C 367.5,57.8333 367.5,85.1667 367.5,112.5C 367.5,112.833 367.5,113.167 367.5,113.5C 367.167,113.5 366.833,113.5 366.5,113.5C 366.5,112.833 366.5,112.167 366.5,111.5C 366.025,84.505 365.859,57.505 366,30.5C 367.085,29.7069 368.252,29.0402 369.5,28.5C 382.594,28.2575 395.594,28.5909 408.5,29.5 Z"/></g>
<g><path style="opacity:1" fill="#281100" d="M 407.5,30.5 C 407.833,30.5 408.167,30.5 408.5,30.5C 408.5,58.1667 408.5,85.8333 408.5,113.5C 394.833,113.5 381.167,113.5 367.5,113.5C 367.5,113.167 367.5,112.833 367.5,112.5C 380.833,112.5 394.167,112.5 407.5,112.5C 407.5,85.1667 407.5,57.8333 407.5,30.5 Z"/></g>
<g><path style="opacity:1" fill="#795506" d="M 408.5,30.5 C 408.833,30.5 409.167,30.5 409.5,30.5C 409.5,58.1667 409.5,85.8333 409.5,113.5C 409.5,113.833 409.5,114.167 409.5,114.5C 395.167,114.5 380.833,114.5 366.5,114.5C 366.5,114.167 366.5,113.833 366.5,113.5C 366.833,113.5 367.167,113.5 367.5,113.5C 381.167,113.5 394.833,113.5 408.5,113.5C 408.5,85.8333 408.5,58.1667 408.5,30.5 Z"/></g>
<g><path style="opacity:0.573" fill="#f7e292" d="M 494.5,199.5 C 494.167,199.5 493.833,199.5 493.5,199.5C 493.5,198.833 493.5,198.167 493.5,197.5C 493.5,169.833 493.5,142.167 493.5,114.5C 493.5,86.5 493.5,58.5 493.5,30.5C 465.5,30.5 437.5,30.5 409.5,30.5C 409.167,30.5 408.833,30.5 408.5,30.5C 408.5,30.1667 408.5,29.8333 408.5,29.5C 436.761,28.3425 465.095,28.1759 493.5,29C 494,29.5 494.5,30 495,30.5C 495.817,86.8553 495.65,143.189 494.5,199.5 Z"/></g>
<g><path style="opacity:1" fill="#f4ce23" d="M 153.5,31.5 C 154.498,58.6616 154.831,85.9949 154.5,113.5C 153.833,113.5 153.167,113.5 152.5,113.5C 152.5,86.5 152.5,59.5 152.5,32.5C 126.833,32.5 101.167,32.5 75.5,32.5C 73.8862,58.551 72.8862,84.551 72.5,110.5C 72.1719,84.259 72.5052,58.0924 73.5,32C 100.165,31.5 126.831,31.3334 153.5,31.5 Z"/></g>
<g><path style="opacity:0.604" fill="#ebd569" d="M 153.5,31.5 C 153.5,31.1667 153.5,30.8333 153.5,30.5C 155.177,58.2204 156.177,86.2204 156.5,114.5C 155.833,114.5 155.167,114.5 154.5,114.5C 154.5,114.167 154.5,113.833 154.5,113.5C 154.831,85.9949 154.498,58.6616 153.5,31.5 Z"/></g>
<g><path style="opacity:1" fill="#efc632" d="M 409.5,30.5 C 437.5,30.5 465.5,30.5 493.5,30.5C 493.5,58.5 493.5,86.5 493.5,114.5C 493.167,114.5 492.833,114.5 492.5,114.5C 492.5,114.167 492.5,113.833 492.5,113.5C 492.5,86.5 492.5,59.5 492.5,32.5C 465.5,32.5 438.5,32.5 411.5,32.5C 411.184,59.5444 411.517,86.5444 412.5,113.5C 411.5,113.5 410.5,113.5 409.5,113.5C 409.5,85.8333 409.5,58.1667 409.5,30.5 Z"/></g>
<g><path style="opacity:0.201" fill="#e5d1a6" d="M 366.5,111.5 C 366.5,112.167 366.5,112.833 366.5,113.5C 366.5,113.833 366.5,114.167 366.5,114.5C 352.5,114.5 338.5,114.5 324.5,114.5C 310.5,114.5 296.5,114.5 282.5,114.5C 310.554,114.15 338.554,113.15 366.5,111.5 Z"/></g>
<g><path style="opacity:1" fill="#fab602" d="M 152.5,113.5 C 153.167,113.5 153.833,113.5 154.5,113.5C 154.5,113.833 154.5,114.167 154.5,114.5C 127.167,115.833 99.8333,115.833 72.5,114.5C 98.9948,113.502 125.661,113.169 152.5,113.5 Z"/></g>
<g><path style="opacity:0.765" fill="#f0bc59" d="M 156.5,114.5 C 184.338,114.169 212.005,114.502 239.5,115.5C 239.5,115.833 239.5,116.167 239.5,116.5C 211.736,115.841 184.069,115.175 156.5,114.5 Z"/></g>
<g><path style="opacity:1" fill="#fab603" d="M 409.5,113.5 C 410.5,113.5 411.5,113.5 412.5,113.5C 439.258,113.587 465.925,113.587 492.5,113.5C 492.5,113.833 492.5,114.167 492.5,114.5C 465.005,115.498 437.338,115.831 409.5,115.5C 409.5,115.167 409.5,114.833 409.5,114.5C 409.5,114.167 409.5,113.833 409.5,113.5 Z"/></g>
<g><path style="opacity:1" fill="#010000" d="M 282.5,115.5 C 295.833,115.5 309.167,115.5 322.5,115.5C 322.5,142.5 322.5,169.5 322.5,196.5C 309.167,196.5 295.833,196.5 282.5,196.5C 282.5,169.5 282.5,142.5 282.5,115.5 Z"/></g>
<g><path style="opacity:1" fill="#fda301" d="M 239.5,197.5 C 239.5,197.833 239.5,198.167 239.5,198.5C 183.933,197.571 128.266,197.238 72.5,197.5C 72.3336,189.826 72.5003,182.159 73,174.5C 73.6667,175.833 74.3333,175.833 75,174.5C 75.1667,169.5 75.3333,164.5 75.5,159.5C 74.3091,147.298 73.3091,134.965 72.5,122.5C 72.8333,121.167 73.1667,119.833 73.5,118.5C 86.6744,118.151 99.1744,118.151 111,118.5C 123.087,116.722 135.253,116.388 147.5,117.5C 148.246,118.736 148.579,120.07 148.5,121.5C 146.833,121.5 145.167,121.5 143.5,121.5C 143.5,122.5 143.5,123.5 143.5,124.5C 148.539,123.574 153.539,123.574 158.5,124.5C 159.287,123.758 159.953,122.925 160.5,122C 163.833,121.667 167.167,121.333 170.5,121C 171.833,119.667 171.833,118.333 170.5,117C 188.164,116.5 205.83,116.333 223.5,116.5C 223.714,118.144 223.38,119.644 222.5,121C 223.5,121.333 224.5,121.667 225.5,122C 223.164,124.048 223.164,125.882 225.5,127.5C 226.974,124.677 227.308,121.844 226.5,119C 231.876,115.963 234.876,117.463 235.5,123.5C 234.604,125.801 234.438,128.134 235,130.5C 235.333,130.167 235.667,129.833 236,129.5C 236.333,130.833 236.667,132.167 237,133.5C 237.333,133.167 237.667,132.833 238,132.5C 238.168,154.337 238.668,176.004 239.5,197.5 Z"/></g>
<g><path style="opacity:1" fill="#fda302" d="M 492.5,114.5 C 492.833,114.5 493.167,114.5 493.5,114.5C 493.5,142.167 493.5,169.833 493.5,197.5C 492.833,197.5 492.5,197.833 492.5,198.5C 438.832,198.667 385.166,198.5 331.5,198C 329.618,197.802 327.952,197.302 326.5,196.5C 326.5,169.833 326.5,143.167 326.5,116.5C 354.166,116.151 381.833,115.817 409.5,115.5C 437.338,115.831 465.005,115.498 492.5,114.5 Z"/></g>
<g><path style="opacity:1" fill="#f4a318" d="M 70.5,114.5 C 70.8333,114.5 71.1667,114.5 71.5,114.5C 71.8333,114.5 72.1667,114.5 72.5,114.5C 99.8333,115.833 127.167,115.833 154.5,114.5C 155.167,114.5 155.833,114.5 156.5,114.5C 184.069,115.175 211.736,115.841 239.5,116.5C 239.5,143.5 239.5,170.5 239.5,197.5C 238.668,176.004 238.168,154.337 238,132.5C 237.667,132.833 237.333,133.167 237,133.5C 236.667,132.167 236.333,130.833 236,129.5C 235.667,129.833 235.333,130.167 235,130.5C 234.438,128.134 234.604,125.801 235.5,123.5C 234.876,117.463 231.876,115.963 226.5,119C 227.308,121.844 226.974,124.677 225.5,127.5C 223.164,125.882 223.164,124.048 225.5,122C 224.5,121.667 223.5,121.333 222.5,121C 223.38,119.644 223.714,118.144 223.5,116.5C 205.83,116.333 188.164,116.5 170.5,117C 171.833,118.333 171.833,119.667 170.5,121C 167.167,121.333 163.833,121.667 160.5,122C 159.953,122.925 159.287,123.758 158.5,124.5C 153.539,123.574 148.539,123.574 143.5,124.5C 143.5,123.5 143.5,122.5 143.5,121.5C 145.167,121.5 146.833,121.5 148.5,121.5C 148.579,120.07 148.246,118.736 147.5,117.5C 135.253,116.388 123.087,116.722 111,118.5C 99.1744,118.151 86.6744,118.151 73.5,118.5C 73.1667,119.833 72.8333,121.167 72.5,122.5C 73.3091,134.965 74.3091,147.298 75.5,159.5C 75.3333,164.5 75.1667,169.5 75,174.5C 74.3333,175.833 73.6667,175.833 73,174.5C 72.5003,182.159 72.3336,189.826 72.5,197.5C 72.5,197.833 72.5,198.167 72.5,198.5C 72.1667,198.5 71.8333,198.5 71.5,198.5C 70.502,170.672 70.1687,142.672 70.5,114.5 Z"/></g>
<g><path style="opacity:1" fill="#351b0d" d="M 282.5,115.5 C 282.5,115.167 282.5,114.833 282.5,114.5C 296.5,114.5 310.5,114.5 324.5,114.5C 324.5,142.167 324.5,169.833 324.5,197.5C 310.579,198.482 296.579,198.815 282.5,198.5C 282.5,197.833 282.5,197.167 282.5,196.5C 295.833,196.5 309.167,196.5 322.5,196.5C 322.5,169.5 322.5,142.5 322.5,115.5C 309.167,115.5 295.833,115.5 282.5,115.5 Z"/></g>
<g><path style="opacity:0.065" fill="#ffeeb3" d="M 71.5,29.5 C 98.6636,28.3364 125.997,28.1697 153.5,29C 154.624,29.2492 155.624,29.7492 156.5,30.5C 156.19,57.955 156.523,85.455 157.5,113C 185.405,113.171 213.239,113.671 241,114.5C 241.5,141.831 241.667,169.165 241.5,196.5C 240.833,169.5 240.167,142.5 239.5,115.5C 212.005,114.502 184.338,114.169 156.5,114.5C 156.177,86.2204 155.177,58.2204 153.5,30.5C 153.167,30.5 152.833,30.5 152.5,30.5C 125.672,29.5021 98.6718,29.1688 71.5,29.5 Z"/></g>
<g><path style="opacity:0.487" fill="#f8d587" d="M 239.5,115.5 C 240.167,142.5 240.833,169.5 241.5,196.5C 250.5,197.167 259.5,197.833 268.5,198.5C 258.833,198.5 249.167,198.5 239.5,198.5C 239.5,198.167 239.5,197.833 239.5,197.5C 239.5,170.5 239.5,143.5 239.5,116.5C 239.5,116.167 239.5,115.833 239.5,115.5 Z"/></g>
<g><path style="opacity:1" fill="#d7952e" d="M 324.5,114.5 C 338.5,114.5 352.5,114.5 366.5,114.5C 380.833,114.5 395.167,114.5 409.5,114.5C 409.5,114.833 409.5,115.167 409.5,115.5C 381.833,115.817 354.166,116.151 326.5,116.5C 326.5,143.167 326.5,169.833 326.5,196.5C 325.833,196.833 325.167,197.167 324.5,197.5C 324.5,169.833 324.5,142.167 324.5,114.5 Z"/></g>
<g><path style="opacity:1" fill="#fe900d" d="M 72.5,197.5 C 128.266,197.238 183.933,197.571 239.5,198.5C 239.5,198.833 239.5,199.167 239.5,199.5C 238.833,199.5 238.167,199.5 237.5,199.5C 182.331,199.832 127.331,199.499 72.5,198.5C 72.5,198.167 72.5,197.833 72.5,197.5 Z"/></g>
<g><path style="opacity:0.355" fill="#c59f80" d="M 282.5,114.5 C 282.5,114.833 282.5,115.167 282.5,115.5C 282.5,142.5 282.5,169.5 282.5,196.5C 282.5,197.167 282.5,197.833 282.5,198.5C 282.5,198.833 282.5,199.167 282.5,199.5C 268.167,199.5 253.833,199.5 239.5,199.5C 239.5,199.167 239.5,198.833 239.5,198.5C 249.167,198.5 258.833,198.5 268.5,198.5C 272.767,198.797 276.934,198.464 281,197.5C 281.168,169.664 281.668,141.997 282.5,114.5 Z"/></g>
<g><path style="opacity:1" fill="#a6511a" d="M 324.5,197.5 C 324.5,198.167 324.5,198.833 324.5,199.5C 310.5,199.5 296.5,199.5 282.5,199.5C 282.5,199.167 282.5,198.833 282.5,198.5C 296.579,198.815 310.579,198.482 324.5,197.5 Z"/></g>
<g><path style="opacity:1" fill="#f47b09" d="M 71.5,198.5 C 71.8333,198.5 72.1667,198.5 72.5,198.5C 127.331,199.499 182.331,199.832 237.5,199.5C 184.336,200.499 131.003,200.832 77.5,200.5C 75.549,200.227 74.049,200.893 73,202.5C 72.5,229.498 72.3334,256.498 72.5,283.5C 72.1667,283.5 71.8333,283.5 71.5,283.5C 71.5,255.167 71.5,226.833 71.5,198.5 Z"/></g>
<g><path style="opacity:1" fill="#f98204" d="M 326.5,196.5 C 327.952,197.302 329.618,197.802 331.5,198C 385.166,198.5 438.832,198.667 492.5,198.5C 438.51,200.496 384.177,201.162 329.5,200.5C 328.081,199.549 326.415,199.216 324.5,199.5C 324.5,198.833 324.5,198.167 324.5,197.5C 325.167,197.167 325.833,196.833 326.5,196.5 Z"/></g>
<g><path style="opacity:1" fill="#fe6d01" d="M 77.5,200.5 C 77.6107,201.117 77.944,201.617 78.5,202C 127.522,202.176 176.522,202.676 225.5,203.5C 227.187,203.24 228.687,202.573 230,201.5C 231.487,202.155 232.653,203.155 233.5,204.5C 231.307,206.382 231.973,206.882 235.5,206C 234.612,204.283 235.279,203.116 237.5,202.5C 239.036,203.249 240.369,204.249 241.5,205.5C 245.311,203.594 249.311,202.261 253.5,201.5C 262.168,202.08 270.835,202.747 279.5,203.5C 276.893,204.318 274.226,204.818 271.5,205C 282.156,206 292.823,206.333 303.5,206C 302.167,205.333 302.167,204.667 303.5,204C 298.467,203.829 293.467,203.329 288.5,202.5C 299.478,201.87 310.478,201.87 321.5,202.5C 321.714,204.144 321.38,205.644 320.5,207C 324.132,207.573 324.798,206.739 322.5,204.5C 323.875,201.453 326.208,200.12 329.5,200.5C 329.5,202.833 329.5,205.167 329.5,207.5C 332.47,207.254 333.803,205.588 333.5,202.5C 334.822,202.33 335.989,202.663 337,203.5C 386.111,202.822 435.278,202.155 484.5,201.5C 486.299,201.577 487.966,202.077 489.5,203C 488.779,228.294 488.112,253.794 487.5,279.5C 487.833,280.167 488.167,280.833 488.5,281.5C 489.333,257.174 489.833,232.84 490,208.5C 490.333,229.167 490.667,249.833 491,270.5C 492.29,274.73 492.79,279.064 492.5,283.5C 465.5,283.5 438.5,283.5 411.5,283.5C 410.833,283.5 410.167,283.5 409.5,283.5C 409.167,283.5 408.833,283.5 408.5,283.5C 380.5,282.167 352.5,282.167 324.5,283.5C 324.167,283.5 323.833,283.5 323.5,283.5C 323.167,283.5 322.833,283.5 322.5,283.5C 296.167,283.5 269.833,283.5 243.5,283.5C 214.402,282.172 185.402,282.172 156.5,283.5C 155.833,283.5 155.5,283.833 155.5,284.5C 155.167,284.5 154.833,284.5 154.5,284.5C 127.092,283.52 99.7586,283.186 72.5,283.5C 72.3334,256.498 72.5,229.498 73,202.5C 74.049,200.893 75.549,200.227 77.5,200.5 Z"/></g>
<g><path style="opacity:1" fill="#f57009" d="M 493.5,197.5 C 493.5,198.167 493.5,198.833 493.5,199.5C 493.5,227.5 493.5,255.5 493.5,283.5C 493.167,283.5 492.833,283.5 492.5,283.5C 492.79,279.064 492.29,274.73 491,270.5C 490.667,249.833 490.333,229.167 490,208.5C 489.833,232.84 489.333,257.174 488.5,281.5C 488.167,280.833 487.833,280.167 487.5,279.5C 488.112,253.794 488.779,228.294 489.5,203C 487.966,202.077 486.299,201.577 484.5,201.5C 435.278,202.155 386.111,202.822 337,203.5C 335.989,202.663 334.822,202.33 333.5,202.5C 333.803,205.588 332.47,207.254 329.5,207.5C 329.5,205.167 329.5,202.833 329.5,200.5C 384.177,201.162 438.51,200.496 492.5,198.5C 492.5,197.833 492.833,197.5 493.5,197.5 Z"/></g>
<g><path style="opacity:1" fill="#f5710c" d="M 237.5,199.5 C 238.167,199.5 238.833,199.5 239.5,199.5C 253.833,199.5 268.167,199.5 282.5,199.5C 296.5,199.5 310.5,199.5 324.5,199.5C 326.415,199.216 328.081,199.549 329.5,200.5C 326.208,200.12 323.875,201.453 322.5,204.5C 324.798,206.739 324.132,207.573 320.5,207C 321.38,205.644 321.714,204.144 321.5,202.5C 310.478,201.87 299.478,201.87 288.5,202.5C 293.467,203.329 298.467,203.829 303.5,204C 302.167,204.667 302.167,205.333 303.5,206C 292.823,206.333 282.156,206 271.5,205C 274.226,204.818 276.893,204.318 279.5,203.5C 270.835,202.747 262.168,202.08 253.5,201.5C 249.311,202.261 245.311,203.594 241.5,205.5C 240.369,204.249 239.036,203.249 237.5,202.5C 235.279,203.116 234.612,204.283 235.5,206C 231.973,206.882 231.307,206.382 233.5,204.5C 232.653,203.155 231.487,202.155 230,201.5C 228.687,202.573 227.187,203.24 225.5,203.5C 176.522,202.676 127.522,202.176 78.5,202C 77.944,201.617 77.6107,201.117 77.5,200.5C 131.003,200.832 184.336,200.499 237.5,199.5 Z"/></g>
<g><path style="opacity:0.461" fill="#e79358" d="M 324.5,283.5 C 352.5,282.167 380.5,282.167 408.5,283.5C 394.833,283.5 381.167,283.5 367.5,283.5C 366.209,283.263 365.209,283.596 364.5,284.5C 352.167,284.5 339.833,284.5 327.5,284.5C 326.791,283.596 325.791,283.263 324.5,283.5 Z"/></g>
<g><path style="opacity:0.035" fill="#ffddb8" d="M 156.5,283.5 C 169.167,283.5 181.833,283.5 194.5,283.5C 194.5,283.833 194.5,284.167 194.5,284.5C 181.833,284.5 169.167,284.5 156.5,284.5C 156.81,287.713 156.477,290.713 155.5,293.5C 155.5,290.5 155.5,287.5 155.5,284.5C 155.5,283.833 155.833,283.5 156.5,283.5 Z"/></g>
<g><path style="opacity:1" fill="#020202" d="M 197.5,284.5 C 200.5,284.5 203.5,284.5 206.5,284.5C 216.372,285.189 226.372,285.856 236.5,286.5C 237.5,313.492 237.833,340.492 237.5,367.5C 224.167,367.5 210.833,367.5 197.5,367.5C 197.5,339.833 197.5,312.167 197.5,284.5 Z"/></g>
<g><path style="opacity:1" fill="#010001" d="M 367.5,285.5 C 380.833,285.5 394.167,285.5 407.5,285.5C 407.5,340.833 407.5,396.167 407.5,451.5C 394.167,451.5 380.833,451.5 367.5,451.5C 367.5,396.167 367.5,340.833 367.5,285.5 Z"/></g>
<g><path style="opacity:0.352" fill="#7b7a7a" d="M 364.5,284.5 C 365.209,283.596 366.209,283.263 367.5,283.5C 367.5,283.833 367.5,284.167 367.5,284.5C 367.5,284.833 367.5,285.167 367.5,285.5C 367.5,340.833 367.5,396.167 367.5,451.5C 380.833,451.5 394.167,451.5 407.5,451.5C 407.833,451.5 408.167,451.5 408.5,451.5C 408.833,452.167 409.167,452.833 409.5,453.5C 395.496,453.667 381.496,453.5 367.5,453C 367,452.5 366.5,452 366,451.5C 365.419,407.831 365.586,364.165 366.5,320.5C 366.499,308.148 365.832,296.148 364.5,284.5 Z"/></g>
<g><path style="opacity:1" fill="#fc480d" d="M 411.5,283.5 C 438.5,283.5 465.5,283.5 492.5,283.5C 492.833,283.5 493.167,283.5 493.5,283.5C 493.5,311.5 493.5,339.5 493.5,367.5C 493.167,367.5 492.833,367.5 492.5,367.5C 465.5,367.5 438.5,367.5 411.5,367.5C 411.5,339.5 411.5,311.5 411.5,283.5 Z"/></g>
<g><path style="opacity:1" fill="#270000" d="M 206.5,284.5 C 217.167,284.5 227.833,284.5 238.5,284.5C 238.5,312.167 238.5,339.833 238.5,367.5C 238.167,367.5 237.833,367.5 237.5,367.5C 237.833,340.492 237.5,313.492 236.5,286.5C 226.372,285.856 216.372,285.189 206.5,284.5 Z"/></g>
<g><path style="opacity:1" fill="#fc480e" d="M 71.5,283.5 C 71.8333,283.5 72.1667,283.5 72.5,283.5C 99.7586,283.186 127.092,283.52 154.5,284.5C 154.5,312.167 154.5,339.833 154.5,367.5C 154.167,367.5 153.833,367.5 153.5,367.5C 153.167,367.5 152.833,367.5 152.5,367.5C 125.833,367.5 99.1667,367.5 72.5,367.5C 72.1667,367.5 71.8333,367.5 71.5,367.5C 71.5,339.5 71.5,311.5 71.5,283.5 Z"/></g>
<g><path style="opacity:1" fill="#560d02" d="M 197.5,284.5 C 197.5,284.167 197.5,283.833 197.5,283.5C 211.5,283.5 225.5,283.5 239.5,283.5C 239.831,311.672 239.498,339.672 238.5,367.5C 238.5,339.833 238.5,312.167 238.5,284.5C 227.833,284.5 217.167,284.5 206.5,284.5C 203.5,284.5 200.5,284.5 197.5,284.5 Z"/></g>
<g><path style="opacity:1" fill="#320100" d="M 367.5,285.5 C 367.5,285.167 367.5,284.833 367.5,284.5C 381.167,284.5 394.833,284.5 408.5,284.5C 408.5,340.167 408.5,395.833 408.5,451.5C 408.167,451.5 407.833,451.5 407.5,451.5C 407.5,396.167 407.5,340.833 407.5,285.5C 394.167,285.5 380.833,285.5 367.5,285.5 Z"/></g>
<g><path style="opacity:1" fill="#6c1207" d="M 367.5,284.5 C 367.5,284.167 367.5,283.833 367.5,283.5C 381.167,283.5 394.833,283.5 408.5,283.5C 408.833,283.5 409.167,283.5 409.5,283.5C 409.5,283.833 409.5,284.167 409.5,284.5C 409.5,340.167 409.5,395.833 409.5,451.5C 409.167,451.5 408.833,451.5 408.5,451.5C 408.5,395.833 408.5,340.167 408.5,284.5C 394.833,284.5 381.167,284.5 367.5,284.5 Z"/></g>
<g><path style="opacity:1" fill="#e74c29" d="M 409.5,284.5 C 409.5,284.167 409.5,283.833 409.5,283.5C 410.167,283.5 410.833,283.5 411.5,283.5C 411.5,311.5 411.5,339.5 411.5,367.5C 411.167,367.5 410.833,367.5 410.5,367.5C 410.831,339.662 410.498,311.995 409.5,284.5 Z"/></g>
<g><path style="opacity:0.147" fill="#feae93" d="M 324.5,283.5 C 325.791,283.263 326.791,283.596 327.5,284.5C 325.836,311.985 324.836,339.652 324.5,367.5C 324.5,339.5 324.5,311.5 324.5,283.5 Z"/></g>
<g><path style="opacity:0.442" fill="#ea9275" d="M 154.5,284.5 C 154.833,284.5 155.167,284.5 155.5,284.5C 155.5,287.5 155.5,290.5 155.5,293.5C 155.908,318.121 155.908,342.788 155.5,367.5C 155.167,367.5 154.833,367.5 154.5,367.5C 154.5,339.833 154.5,312.167 154.5,284.5 Z"/></g>
<g><path style="opacity:0.14" fill="#b1b0b0" d="M 194.5,284.5 C 194.5,284.167 194.5,283.833 194.5,283.5C 195.5,283.5 196.5,283.5 197.5,283.5C 197.5,283.833 197.5,284.167 197.5,284.5C 197.5,312.167 197.5,339.833 197.5,367.5C 197.164,339.652 196.164,311.985 194.5,284.5 Z"/></g>
<g><path style="opacity:0.964" fill="#e35420" d="M 156.5,283.5 C 185.402,282.172 214.402,282.172 243.5,283.5C 242.535,310.808 242.201,338.141 242.5,365.5C 268.175,365.833 293.842,365.5 319.5,364.5C 320.242,363.713 321.075,363.047 322,362.5C 322.5,336.169 322.667,309.835 322.5,283.5C 322.833,283.5 323.167,283.5 323.5,283.5C 323.5,311.167 323.5,338.833 323.5,366.5C 296.165,366.667 268.831,366.5 241.5,366C 240.837,338.402 240.171,310.902 239.5,283.5C 225.5,283.5 211.5,283.5 197.5,283.5C 196.5,283.5 195.5,283.5 194.5,283.5C 181.833,283.5 169.167,283.5 156.5,283.5 Z"/></g>
<g><path style="opacity:0.693" fill="#cf6846" d="M 239.5,283.5 C 240.171,310.902 240.837,338.402 241.5,366C 268.831,366.5 296.165,366.667 323.5,366.5C 323.5,338.833 323.5,311.167 323.5,283.5C 323.833,283.5 324.167,283.5 324.5,283.5C 324.5,311.5 324.5,339.5 324.5,367.5C 282.167,368.833 239.833,368.833 197.5,367.5C 210.833,367.5 224.167,367.5 237.5,367.5C 237.833,367.5 238.167,367.5 238.5,367.5C 239.498,339.672 239.831,311.672 239.5,283.5 Z"/></g>
<g><path style="opacity:1" fill="#fc480d" d="M 243.5,283.5 C 269.833,283.5 296.167,283.5 322.5,283.5C 322.667,309.835 322.5,336.169 322,362.5C 321.075,363.047 320.242,363.713 319.5,364.5C 293.842,365.5 268.175,365.833 242.5,365.5C 242.201,338.141 242.535,310.808 243.5,283.5 Z"/></g>
<g><path style="opacity:1" fill="#a22e16" d="M 69.5,30.5 C 69.8333,30.5 70.1667,30.5 70.5,30.5C 70.5,58.5 70.5,86.5 70.5,114.5C 70.1687,142.672 70.502,170.672 71.5,198.5C 71.5,226.833 71.5,255.167 71.5,283.5C 71.5,311.5 71.5,339.5 71.5,367.5C 71.5,395.5 71.5,423.5 71.5,451.5C 70.8333,451.5 70.1667,451.5 69.5,451.5C 69.5,311.167 69.5,170.833 69.5,30.5 Z"/></g>
<g><path style="opacity:1" fill="#ba251d" d="M 409.5,284.5 C 410.498,311.995 410.831,339.662 410.5,367.5C 410.176,395.574 410.509,423.574 411.5,451.5C 410.833,451.5 410.167,451.5 409.5,451.5C 409.5,395.833 409.5,340.167 409.5,284.5 Z"/></g>
<g><path style="opacity:0.972" fill="#e01b25" d="M 71.5,367.5 C 71.8333,367.5 72.1667,367.5 72.5,367.5C 72.5,394.167 72.5,420.833 72.5,447.5C 72.5,448.5 72.5,449.5 72.5,450.5C 99.1667,450.5 125.833,450.5 152.5,450.5C 153.475,422.865 153.808,395.199 153.5,367.5C 153.833,367.5 154.167,367.5 154.5,367.5C 154.5,395.5 154.5,423.5 154.5,451.5C 126.833,451.5 99.1667,451.5 71.5,451.5C 71.5,423.5 71.5,395.5 71.5,367.5 Z"/></g>
<g><path style="opacity:1" fill="#f5091b" d="M 152.5,367.5 C 152.833,367.5 153.167,367.5 153.5,367.5C 153.808,395.199 153.475,422.865 152.5,450.5C 125.833,450.5 99.1667,450.5 72.5,450.5C 72.5,449.5 72.5,448.5 72.5,447.5C 85.6796,448.797 99.0129,449.464 112.5,449.5C 125.167,449.333 137.833,449.167 150.5,449C 151.171,421.833 151.837,394.667 152.5,367.5 Z"/></g>
<g><path style="opacity:1" fill="#fe0410" d="M 72.5,367.5 C 99.1667,367.5 125.833,367.5 152.5,367.5C 151.837,394.667 151.171,421.833 150.5,449C 137.833,449.167 125.167,449.333 112.5,449.5C 99.0129,449.464 85.6796,448.797 72.5,447.5C 72.5,420.833 72.5,394.167 72.5,367.5 Z"/></g>
<g><path style="opacity:0.949" fill="#df1a20" d="M 410.5,367.5 C 410.833,367.5 411.167,367.5 411.5,367.5C 411.192,395.199 411.525,422.865 412.5,450.5C 439.167,450.5 465.833,450.5 492.5,450.5C 492.5,422.833 492.5,395.167 492.5,367.5C 492.833,367.5 493.167,367.5 493.5,367.5C 493.5,395.5 493.5,423.5 493.5,451.5C 466.167,451.5 438.833,451.5 411.5,451.5C 410.509,423.574 410.176,395.574 410.5,367.5 Z"/></g>
<g><path style="opacity:1" fill="#fe0410" d="M 411.5,367.5 C 438.5,367.5 465.5,367.5 492.5,367.5C 492.5,395.167 492.5,422.833 492.5,450.5C 465.833,450.5 439.167,450.5 412.5,450.5C 411.525,422.865 411.192,395.199 411.5,367.5 Z"/></g>
<g><path style="opacity:0.599" fill="#e8706d" d="M 154.5,367.5 C 154.833,367.5 155.167,367.5 155.5,367.5C 155.259,392.176 155.592,416.843 156.5,441.5C 156.589,445.285 156.089,448.952 155,452.5C 126.574,453.495 98.0739,453.829 69.5,453.5C 69.5,452.833 69.5,452.167 69.5,451.5C 70.1667,451.5 70.8333,451.5 71.5,451.5C 99.1667,451.5 126.833,451.5 154.5,451.5C 154.5,423.5 154.5,395.5 154.5,367.5 Z"/></g>
<g><path style="opacity:0.5" fill="#e56d68" d="M 493.5,199.5 C 493.833,199.5 494.167,199.5 494.5,199.5C 494.667,283.834 494.5,368.167 494,452.5C 465.907,453.495 437.741,453.828 409.5,453.5C 409.167,452.833 408.833,452.167 408.5,451.5C 408.833,451.5 409.167,451.5 409.5,451.5C 410.167,451.5 410.833,451.5 411.5,451.5C 438.833,451.5 466.167,451.5 493.5,451.5C 493.5,423.5 493.5,395.5 493.5,367.5C 493.5,339.5 493.5,311.5 493.5,283.5C 493.5,255.5 493.5,227.5 493.5,199.5 Z"/></g>
</svg>
