<?xml version="1.0" encoding="UTF-8"?>
<!DOCTYPE svg PUBLIC "-//W3C//DTD SVG 1.1//EN" "http://www.w3.org/Graphics/SVG/1.1/DTD/svg11.dtd">
<svg xmlns="http://www.w3.org/2000/svg" version="1.1" width="500px" height="500px" style="shape-rendering:geometricPrecision; text-rendering:geometricPrecision; image-rendering:optimizeQuality; fill-rule:evenodd; clip-rule:evenodd" xmlns:xlink="http://www.w3.org/1999/xlink">
<g><path style="opacity:0.851" fill="#75788d" d="M 239.5,137.5 C 236.905,132.588 234.571,127.421 232.5,122C 231.325,117.502 230.325,113.002 229.5,108.5C 227.87,94.2018 226.37,79.8684 225,65.5C 223.33,61.5655 222.163,57.5655 221.5,53.5C 219.823,45.9282 218.656,38.2615 218,30.5C 216.413,29.273 215.079,29.6063 214,31.5C 208.931,59.2595 204.931,87.2595 202,115.5C 201.422,118.53 200.255,121.197 198.5,123.5C 203.401,93.9609 207.568,64.2942 211,34.5C 210.793,29.8874 212.793,26.8874 217,25.5C 219.78,27.8013 221.447,30.8013 222,34.5C 225.12,58.8129 228.12,83.1462 231,107.5C 233.133,117.728 235.966,127.728 239.5,137.5 Z"/></g>
<g><path style="opacity:0.561" fill="#565f7e" d="M 289.5,29.5 C 290.776,31.5625 291.61,33.8958 292,36.5C 293.361,51.1894 294.861,65.8561 296.5,80.5C 292.989,63.8105 290.655,46.8105 289.5,29.5 Z"/></g>
<g><path style="opacity:0.996" fill="#8690b4" d="M 289.5,29.5 C 290.655,46.8105 292.989,63.8105 296.5,80.5C 298.539,97.7884 301.873,114.788 306.5,131.5C 304.167,127.092 301.667,122.758 299,118.5C 298.667,114.833 298.333,111.167 298,107.5C 297.581,106.328 296.915,105.328 296,104.5C 295.667,96.8333 295.333,89.1667 295,81.5C 292.595,70.2302 290.595,58.8969 289,47.5C 288.667,41.8333 288.333,36.1667 288,30.5C 286.667,29.1667 285.333,29.1667 284,30.5C 283.216,41.8208 281.382,52.8208 278.5,63.5C 279.798,52.5565 280.798,41.5565 281.5,30.5C 282.474,26.9911 284.807,25.8244 288.5,27C 289.252,27.6708 289.586,28.5041 289.5,29.5 Z"/></g>
<g><path style="opacity:0.184" fill="#4d5273" d="M 281.5,30.5 C 280.798,41.5565 279.798,52.5565 278.5,63.5C 276.754,70.7219 275.754,78.0552 275.5,85.5C 275.167,85.5 274.833,85.5 274.5,85.5C 275.897,66.9078 278.23,48.5745 281.5,30.5 Z"/></g>
<g><path style="opacity:1" fill="#b0bffc" d="M 452.5,245.5 C 429.455,243.905 406.455,241.738 383.5,239C 381.641,237.019 379.308,236.019 376.5,236C 364.894,235.271 353.56,233.604 342.5,231C 334.836,228.389 327.169,225.889 319.5,223.5C 315.892,220.753 311.892,218.586 307.5,217C 301.509,210.651 294.509,205.984 286.5,203C 282.791,199.491 279.125,195.991 275.5,192.5C 274.264,191.754 272.93,191.421 271.5,191.5C 271.334,188.832 270.334,186.498 268.5,184.5C 262.824,178.823 257.491,172.823 252.5,166.5C 247.463,168.588 244.296,172.255 243,177.5C 239.576,179.696 237.243,182.696 236,186.5C 226.003,196.326 215.503,205.66 204.5,214.5C 203.833,214.833 203.167,215.167 202.5,215.5C 195.339,217.416 189.005,220.916 183.5,226C 175.531,228.46 167.531,230.793 159.5,233C 155.809,233.42 152.142,233.92 148.5,234.5C 158.638,231.207 168.972,228.041 179.5,225C 186.794,221.066 194.127,217.066 201.5,213C 205.849,209.165 210.516,205.831 215.5,203C 224.014,193.801 232.847,184.968 242,176.5C 243.182,172.968 244.848,169.634 247,166.5C 247.671,165.748 248.504,165.414 249.5,165.5C 252.348,164.935 255.181,164.602 258,164.5C 259.556,159.901 261.556,155.568 264,151.5C 264.333,149.5 264.667,147.5 265,145.5C 268.289,143.603 269.289,140.937 268,137.5C 274.775,129.458 277.442,120.125 276,109.5C 276.368,108.09 277.201,107.09 278.5,106.5C 279.167,100.167 279.833,93.8333 280.5,87.5C 282.015,85.4527 282.849,83.1193 283,80.5C 283.189,86.4083 284.189,86.7416 286,81.5C 286.932,83.766 288.266,85.766 290,87.5C 290.414,87.0426 290.914,86.7093 291.5,86.5C 291.94,92.799 292.107,99.1323 292,105.5C 292.093,108.007 292.926,110.174 294.5,112C 293.729,117.37 294.729,122.537 297.5,127.5C 297.167,128.167 296.833,128.833 296.5,129.5C 299.851,134.358 303.018,139.358 306,144.5C 307,149.5 308,154.5 309,159.5C 311.944,161.372 313.111,164.039 312.5,167.5C 314.995,168.199 317.328,169.199 319.5,170.5C 320.036,175.939 321.869,180.939 325,185.5C 325.333,184.833 325.667,184.167 326,183.5C 331.127,185.805 333.627,189.805 333.5,195.5C 336.136,196.971 338.636,198.637 341,200.5C 341.333,200.167 341.667,199.833 342,199.5C 343.098,200.967 344.598,201.801 346.5,202C 347.568,205.718 349.568,208.885 352.5,211.5C 353.086,211.291 353.586,210.957 354,210.5C 357.222,213.388 360.722,215.888 364.5,218C 366.833,218.333 369.167,218.667 371.5,219C 372.462,221.594 374.129,223.594 376.5,225C 381.817,227.638 387.15,230.305 392.5,233C 394.5,233.333 396.5,233.667 398.5,234C 401.269,235.806 404.269,237.306 407.5,238.5C 420.715,241.043 434.048,242.709 447.5,243.5C 449.291,244.17 450.958,244.837 452.5,245.5 Z"/></g>
<g><path style="opacity:1" fill="#d0d3f3" d="M 221.5,53.5 C 221.334,61.1739 221.5,68.8406 222,76.5C 222.915,77.3279 223.581,78.3279 224,79.5C 224.313,89.6224 226.147,99.2891 229.5,108.5C 230.325,113.002 231.325,117.502 232.5,122C 234.571,127.421 236.905,132.588 239.5,137.5C 240.017,141.222 240.85,144.888 242,148.5C 244.05,152.389 245.883,156.389 247.5,160.5C 246.717,162.076 245.55,163.409 244,164.5C 242.276,160.052 240.276,155.719 238,151.5C 232.85,149.026 232.017,145.526 235.5,141C 231.655,136.437 229.322,131.27 228.5,125.5C 227.005,123.83 225.672,121.997 224.5,120C 224.461,115.864 224.461,111.698 224.5,107.5C 222.459,104.081 220.959,100.414 220,96.5C 217.619,95.565 215.119,95.2317 212.5,95.5C 212.649,94.448 212.483,93.448 212,92.5C 212.104,99.9947 210.437,106.995 207,113.5C 206.825,117.211 206.325,120.878 205.5,124.5C 204.833,125.167 204.167,125.833 203.5,126.5C 202.675,130.122 202.175,133.789 202,137.5C 201.282,138.451 200.449,138.617 199.5,138C 201.65,135.445 201.983,132.612 200.5,129.5C 199.457,131.849 198.124,133.849 196.5,135.5C 197.486,131.557 198.152,127.557 198.5,123.5C 200.255,121.197 201.422,118.53 202,115.5C 204.931,87.2595 208.931,59.2595 214,31.5C 215.079,29.6063 216.413,29.273 218,30.5C 218.656,38.2615 219.823,45.9282 221.5,53.5 Z"/></g>
<g><path style="opacity:0.945" fill="#aeb1ca" d="M 221.5,53.5 C 222.163,57.5655 223.33,61.5655 225,65.5C 226.37,79.8684 227.87,94.2018 229.5,108.5C 226.147,99.2891 224.313,89.6224 224,79.5C 223.581,78.3279 222.915,77.3279 222,76.5C 221.5,68.8406 221.334,61.1739 221.5,53.5 Z"/></g>
<g><path style="opacity:0.882" fill="#7c86aa" d="M 274.5,85.5 C 274.833,85.5 275.167,85.5 275.5,85.5C 273.376,96.6213 272.209,107.955 272,119.5C 271.804,121.286 270.971,122.619 269.5,123.5C 268.679,126.447 268.179,129.447 268,132.5C 263.681,139.343 259.848,146.343 256.5,153.5C 259.987,144.521 263.487,135.521 267,126.5C 270.406,112.857 272.906,99.1902 274.5,85.5 Z"/></g>
<g><path style="opacity:1" fill="#ced0fd" d="M 247.5,160.5 C 247.833,160.5 248.167,160.5 248.5,160.5C 249.038,162.117 249.371,163.784 249.5,165.5C 248.504,165.414 247.671,165.748 247,166.5C 244.848,169.634 243.182,172.968 242,176.5C 232.847,184.968 224.014,193.801 215.5,203C 210.516,205.831 205.849,209.165 201.5,213C 194.127,217.066 186.794,221.066 179.5,225C 168.972,228.041 158.638,231.207 148.5,234.5C 148.5,234.833 148.5,235.167 148.5,235.5C 121.316,236.836 94.3157,240.002 67.5,245C 60.8363,245.611 54.1697,246.111 47.5,246.5C 48.8714,245.213 50.7047,244.547 53,244.5C 73.0904,241.513 93.2571,239.013 113.5,237C 111.616,236.784 109.949,236.117 108.5,235C 112.791,233.833 117.125,233.333 121.5,233.5C 120.833,233.167 120.167,232.833 119.5,232.5C 120.685,231.147 122.019,229.98 123.5,229C 121.842,228.275 121.342,227.108 122,225.5C 124.198,223.379 126.698,221.712 129.5,220.5C 129.043,219.702 128.376,219.369 127.5,219.5C 127.842,218.662 128.508,218.328 129.5,218.5C 131.199,218.66 132.866,218.494 134.5,218C 140.014,214.997 145.348,211.663 150.5,208C 160.561,197.362 170.727,186.862 181,176.5C 181.494,174.866 181.66,173.199 181.5,171.5C 182.675,171.719 183.675,171.386 184.5,170.5C 186.06,166.603 188.06,162.937 190.5,159.5C 189.844,157.547 189.511,155.547 189.5,153.5C 190.5,153.5 191.5,153.5 192.5,153.5C 193.126,147.725 194.126,142.058 195.5,136.5C 195.5,135.833 195.833,135.5 196.5,135.5C 198.124,133.849 199.457,131.849 200.5,129.5C 201.983,132.612 201.65,135.445 199.5,138C 200.449,138.617 201.282,138.451 202,137.5C 202.175,133.789 202.675,130.122 203.5,126.5C 204.167,125.833 204.833,125.167 205.5,124.5C 206.325,120.878 206.825,117.211 207,113.5C 210.437,106.995 212.104,99.9947 212,92.5C 212.483,93.448 212.649,94.448 212.5,95.5C 215.119,95.2317 217.619,95.565 220,96.5C 220.959,100.414 222.459,104.081 224.5,107.5C 224.461,111.698 224.461,115.864 224.5,120C 225.672,121.997 227.005,123.83 228.5,125.5C 229.322,131.27 231.655,136.437 235.5,141C 232.017,145.526 232.85,149.026 238,151.5C 240.276,155.719 242.276,160.052 244,164.5C 245.55,163.409 246.717,162.076 247.5,160.5 Z"/></g>
<g><path style="opacity:0.133" fill="#72748a" d="M 198.5,123.5 C 198.152,127.557 197.486,131.557 196.5,135.5C 195.833,135.5 195.5,135.833 195.5,136.5C 192.861,142.451 190.194,148.451 187.5,154.5C 187.043,155.298 186.376,155.631 185.5,155.5C 190.244,144.918 194.578,134.251 198.5,123.5 Z"/></g>
<g><path style="opacity:0.345" fill="#6f708a" d="M 239.5,137.5 C 242.362,144.228 245.529,150.894 249,157.5C 251.312,160.102 253.145,159.768 254.5,156.5C 254.391,160.88 252.391,162.214 248.5,160.5C 248.167,160.5 247.833,160.5 247.5,160.5C 245.883,156.389 244.05,152.389 242,148.5C 240.85,144.888 240.017,141.222 239.5,137.5 Z"/></g>
<g><path style="opacity:0.682" fill="#818498" d="M 185.5,155.5 C 183.828,162.503 180.328,168.503 175,173.5C 174.667,174.833 174.333,176.167 174,177.5C 169.018,182.648 163.851,187.648 158.5,192.5C 164.096,185.06 169.929,177.727 176,170.5C 179.03,165.326 182.196,160.326 185.5,155.5 Z"/></g>
<g><path style="opacity:1" fill="#d3d5f3" d="M 195.5,136.5 C 194.126,142.058 193.126,147.725 192.5,153.5C 191.5,153.5 190.5,153.5 189.5,153.5C 189.511,155.547 189.844,157.547 190.5,159.5C 188.06,162.937 186.06,166.603 184.5,170.5C 183.675,171.386 182.675,171.719 181.5,171.5C 181.66,173.199 181.494,174.866 181,176.5C 170.727,186.862 160.561,197.362 150.5,208C 145.348,211.663 140.014,214.997 134.5,218C 132.866,218.494 131.199,218.66 129.5,218.5C 129.5,217.5 129.5,216.5 129.5,215.5C 131.199,215.66 132.866,215.494 134.5,215C 135.716,213.26 137.382,212.26 139.5,212C 140.337,210.989 140.67,209.822 140.5,208.5C 147.324,204.357 153.324,199.023 158.5,192.5C 163.851,187.648 169.018,182.648 174,177.5C 174.333,176.167 174.667,174.833 175,173.5C 180.328,168.503 183.828,162.503 185.5,155.5C 186.376,155.631 187.043,155.298 187.5,154.5C 190.194,148.451 192.861,142.451 195.5,136.5 Z"/></g>
<g><path style="opacity:0.694" fill="#666d8b" d="M 309.5,139.5 C 317.146,156.465 326.812,172.132 338.5,186.5C 335.326,186.281 333.493,184.615 333,181.5C 330.239,180.501 328.906,178.501 329,175.5C 325.304,172.464 322.304,168.797 320,164.5C 317.303,158.778 314.303,153.111 311,147.5C 310.178,144.883 309.678,142.216 309.5,139.5 Z"/></g>
<g><path style="opacity:1" fill="#949fef" d="M 271.5,191.5 C 265.678,184.844 259.678,178.344 253.5,172C 251.866,171.506 250.199,171.34 248.5,171.5C 248.762,172.978 248.429,174.311 247.5,175.5C 244.839,177.494 242.506,179.827 240.5,182.5C 237.458,186.216 234.792,190.216 232.5,194.5C 227.717,197.441 223.051,200.608 218.5,204C 215.774,210.077 211.107,213.577 204.5,214.5C 215.503,205.66 226.003,196.326 236,186.5C 237.243,182.696 239.576,179.696 243,177.5C 244.296,172.255 247.463,168.588 252.5,166.5C 257.491,172.823 262.824,178.823 268.5,184.5C 270.334,186.498 271.334,188.832 271.5,191.5 Z"/></g>
<g><path style="opacity:1" fill="#b7c3f3" d="M 306.5,131.5 C 308.02,133.89 309.02,136.557 309.5,139.5C 309.678,142.216 310.178,144.883 311,147.5C 314.303,153.111 317.303,158.778 320,164.5C 322.304,168.797 325.304,172.464 329,175.5C 328.906,178.501 330.239,180.501 333,181.5C 333.493,184.615 335.326,186.281 338.5,186.5C 340.52,190.54 342.52,194.54 344.5,198.5C 345.5,198.5 346.5,198.5 347.5,198.5C 347.5,199.5 347.5,200.5 347.5,201.5C 348.833,201.5 350.167,201.5 351.5,201.5C 351.5,202.833 351.5,204.167 351.5,205.5C 353.857,205.337 356.19,205.503 358.5,206C 363.586,210.538 369.252,214.038 375.5,216.5C 376.035,218.446 377.368,219.446 379.5,219.5C 379.5,220.5 379.5,221.5 379.5,222.5C 385.073,224.046 390.407,226.213 395.5,229C 401.792,230.817 408.126,232.317 414.5,233.5C 414.833,233.5 415.167,233.5 415.5,233.5C 421.317,235.591 427.317,237.424 433.5,239C 443.663,239.485 453.663,240.818 463.5,243C 468.833,243.333 474.167,243.667 479.5,244C 485.771,246.926 492.438,248.092 499.5,247.5C 499.5,248.167 499.5,248.833 499.5,249.5C 496.167,249.5 492.833,249.5 489.5,249.5C 478.04,247.937 466.374,247.103 454.5,247C 453.956,246.283 453.289,245.783 452.5,245.5C 450.958,244.837 449.291,244.17 447.5,243.5C 434.048,242.709 420.715,241.043 407.5,238.5C 404.269,237.306 401.269,235.806 398.5,234C 396.5,233.667 394.5,233.333 392.5,233C 387.15,230.305 381.817,227.638 376.5,225C 374.129,223.594 372.462,221.594 371.5,219C 369.167,218.667 366.833,218.333 364.5,218C 360.722,215.888 357.222,213.388 354,210.5C 353.586,210.957 353.086,211.291 352.5,211.5C 349.568,208.885 347.568,205.718 346.5,202C 344.598,201.801 343.098,200.967 342,199.5C 341.667,199.833 341.333,200.167 341,200.5C 338.636,198.637 336.136,196.971 333.5,195.5C 333.627,189.805 331.127,185.805 326,183.5C 325.667,184.167 325.333,184.833 325,185.5C 321.869,180.939 320.036,175.939 319.5,170.5C 317.328,169.199 314.995,168.199 312.5,167.5C 313.111,164.039 311.944,161.372 309,159.5C 308,154.5 307,149.5 306,144.5C 303.018,139.358 299.851,134.358 296.5,129.5C 296.833,128.833 297.167,128.167 297.5,127.5C 294.729,122.537 293.729,117.37 294.5,112C 292.926,110.174 292.093,108.007 292,105.5C 292.107,99.1323 291.94,92.799 291.5,86.5C 290.914,86.7093 290.414,87.0426 290,87.5C 288.266,85.766 286.932,83.766 286,81.5C 284.189,86.7416 283.189,86.4083 283,80.5C 282.849,83.1193 282.015,85.4527 280.5,87.5C 279.833,93.8333 279.167,100.167 278.5,106.5C 277.201,107.09 276.368,108.09 276,109.5C 277.442,120.125 274.775,129.458 268,137.5C 269.289,140.937 268.289,143.603 265,145.5C 264.667,147.5 264.333,149.5 264,151.5C 261.556,155.568 259.556,159.901 258,164.5C 255.181,164.602 252.348,164.935 249.5,165.5C 249.371,163.784 249.038,162.117 248.5,160.5C 252.391,162.214 254.391,160.88 254.5,156.5C 254.427,154.973 255.094,153.973 256.5,153.5C 259.848,146.343 263.681,139.343 268,132.5C 268.179,129.447 268.679,126.447 269.5,123.5C 270.971,122.619 271.804,121.286 272,119.5C 272.209,107.955 273.376,96.6213 275.5,85.5C 275.754,78.0552 276.754,70.7219 278.5,63.5C 281.382,52.8208 283.216,41.8208 284,30.5C 285.333,29.1667 286.667,29.1667 288,30.5C 288.333,36.1667 288.667,41.8333 289,47.5C 290.595,58.8969 292.595,70.2302 295,81.5C 295.333,89.1667 295.667,96.8333 296,104.5C 296.915,105.328 297.581,106.328 298,107.5C 298.333,111.167 298.667,114.833 299,118.5C 301.667,122.758 304.167,127.092 306.5,131.5 Z"/></g>
<g><path style="opacity:1" fill="#8b91b4" d="M 338.5,186.5 C 349.699,198.046 362.032,208.046 375.5,216.5C 369.252,214.038 363.586,210.538 358.5,206C 356.19,205.503 353.857,205.337 351.5,205.5C 351.5,204.167 351.5,202.833 351.5,201.5C 350.167,201.5 348.833,201.5 347.5,201.5C 347.5,200.5 347.5,199.5 347.5,198.5C 346.5,198.5 345.5,198.5 344.5,198.5C 342.52,194.54 340.52,190.54 338.5,186.5 Z"/></g>
<g><path style="opacity:1" fill="#8796fd" d="M 451.5,249.5 C 464.167,249.5 476.833,249.5 489.5,249.5C 492.833,249.5 496.167,249.5 499.5,249.5C 499.5,250.5 499.5,251.5 499.5,252.5C 497.833,252.5 496.167,252.5 494.5,252.5C 492.801,252.66 491.134,252.494 489.5,252C 489.833,251.667 490.167,251.333 490.5,251C 478.121,250.207 465.788,250.373 453.5,251.5C 431.062,252.401 408.728,254.234 386.5,257C 368.67,261.291 350.67,264.625 332.5,267C 326.208,270.481 319.875,273.981 313.5,277.5C 313.047,278.458 312.381,279.292 311.5,280C 303.81,282.923 296.81,286.756 290.5,291.5C 279.201,299.258 268.701,308.258 259,318.5C 257.712,323.069 255.545,327.069 252.5,330.5C 248.637,326.468 245.804,321.801 244,316.5C 238.881,312.383 234.881,307.383 232,301.5C 226.832,294.839 220.332,289.839 212.5,286.5C 211.827,284.311 210.827,282.311 209.5,280.5C 212.096,278.703 211.763,277.369 208.5,276.5C 205.897,277.562 203.23,277.728 200.5,277C 191.386,274.851 182.72,271.517 174.5,267C 140.25,260.988 105.916,255.488 71.5,250.5C 71.0825,249.778 70.4158,249.278 69.5,249C 85.3986,246.847 101.399,245.18 117.5,244C 126.088,242.226 134.588,240.392 143,238.5C 148.407,239.473 153.907,239.807 159.5,239.5C 159.227,237.549 159.893,236.049 161.5,235C 171.016,231.271 180.682,228.271 190.5,226C 194.668,222.664 198.668,219.164 202.5,215.5C 203.167,215.167 203.833,214.833 204.5,214.5C 211.107,213.577 215.774,210.077 218.5,204C 223.051,200.608 227.717,197.441 232.5,194.5C 234.792,190.216 237.458,186.216 240.5,182.5C 245.354,181.825 248.521,179.158 250,174.5C 250.718,173.549 251.551,173.383 252.5,174C 253.13,177.129 253.796,180.296 254.5,183.5C 255.258,182.189 256.258,181.689 257.5,182C 261.268,185.428 263.768,189.595 265,194.5C 265.75,195.126 266.584,195.626 267.5,196C 266.202,198.499 266.536,200.833 268.5,203C 270.874,204.775 273.374,205.941 276,206.5C 276.333,205.833 276.667,205.167 277,204.5C 279.877,206.587 282.044,209.254 283.5,212.5C 286.549,214.077 289.549,214.91 292.5,215C 295.183,216.845 296.85,219.345 297.5,222.5C 300.056,223.051 302.389,224.051 304.5,225.5C 305.167,225.167 305.833,224.833 306.5,224.5C 315.205,229.234 324.539,232.067 334.5,233C 335.061,234.676 336.061,236.009 337.5,237C 336.366,238.016 336.699,238.683 338.5,239C 344.28,240.779 349.947,240.613 355.5,238.5C 359.19,239.194 362.857,240.028 366.5,241C 368.365,243.077 370.532,243.577 373,242.5C 384.145,243.403 395.311,244.236 406.5,245C 407.672,245.419 408.672,246.085 409.5,247C 408.167,247.667 408.167,248.333 409.5,249C 411.833,249.333 414.167,249.667 416.5,250C 428.341,250.498 440.007,250.331 451.5,249.5 Z"/></g>
<g><path style="opacity:0.902" fill="#9b9eb4" d="M 158.5,192.5 C 153.324,199.023 147.324,204.357 140.5,208.5C 140.67,209.822 140.337,210.989 139.5,212C 137.382,212.26 135.716,213.26 134.5,215C 132.866,215.494 131.199,215.66 129.5,215.5C 129.5,216.5 129.5,217.5 129.5,218.5C 128.508,218.328 127.842,218.662 127.5,219.5C 122.746,221.376 118.079,223.542 113.5,226C 111.866,226.494 110.199,226.66 108.5,226.5C 108.5,227.5 108.5,228.5 108.5,229.5C 102.189,230.787 95.8553,232.121 89.5,233.5C 93.1577,231.955 96.8244,230.288 100.5,228.5C 111.473,224.182 122.14,219.015 132.5,213C 141.409,206.391 150.076,199.557 158.5,192.5 Z"/></g>
<g><path style="opacity:0.98" fill="#8e96ba" d="M 379.5,219.5 C 389.734,225.443 400.734,229.443 412.5,231.5C 413.167,232.167 413.833,232.833 414.5,233.5C 408.126,232.317 401.792,230.817 395.5,229C 390.407,226.213 385.073,224.046 379.5,222.5C 379.5,221.5 379.5,220.5 379.5,219.5 Z"/></g>
<g><path style="opacity:0.059" fill="#545979" d="M 375.5,216.5 C 387.669,222.107 400.002,227.107 412.5,231.5C 400.734,229.443 389.734,225.443 379.5,219.5C 377.368,219.446 376.035,218.446 375.5,216.5 Z"/></g>
<g><path style="opacity:0.631" fill="#686980" d="M 100.5,228.5 C 96.8244,230.288 93.1577,231.955 89.5,233.5C 80.8057,234.909 72.1391,236.242 63.5,237.5C 59.19,238.08 54.8566,238.414 50.5,238.5C 67.222,236.043 83.8887,232.709 100.5,228.5 Z"/></g>
<g><path style="opacity:1" fill="#9099ef" d="M 202.5,215.5 C 198.668,219.164 194.668,222.664 190.5,226C 180.682,228.271 171.016,231.271 161.5,235C 159.893,236.049 159.227,237.549 159.5,239.5C 153.907,239.807 148.407,239.473 143,238.5C 134.588,240.392 126.088,242.226 117.5,244C 101.399,245.18 85.3986,246.847 69.5,249C 70.4158,249.278 71.0825,249.778 71.5,250.5C 58.3727,249.45 45.3727,249.45 32.5,250.5C 32.1667,249.833 31.8333,249.167 31.5,248.5C 70.8844,246.729 109.884,242.396 148.5,235.5C 148.5,235.167 148.5,234.833 148.5,234.5C 152.142,233.92 155.809,233.42 159.5,233C 167.531,230.793 175.531,228.46 183.5,226C 189.005,220.916 195.339,217.416 202.5,215.5 Z"/></g>
<g><path style="opacity:0.153" fill="#4b506e" d="M 412.5,231.5 C 441.285,236.76 470.285,240.427 499.5,242.5C 499.5,243.167 499.5,243.833 499.5,244.5C 471.465,241.676 443.465,238.009 415.5,233.5C 415.167,233.5 414.833,233.5 414.5,233.5C 413.833,232.833 413.167,232.167 412.5,231.5 Z"/></g>
<g><path style="opacity:0.773" fill="#8890b7" d="M 415.5,233.5 C 443.465,238.009 471.465,241.676 499.5,244.5C 499.5,245.5 499.5,246.5 499.5,247.5C 492.438,248.092 485.771,246.926 479.5,244C 474.167,243.667 468.833,243.333 463.5,243C 453.663,240.818 443.663,239.485 433.5,239C 427.317,237.424 421.317,235.591 415.5,233.5 Z"/></g>
<g><path style="opacity:1" fill="#9cabfc" d="M 319.5,223.5 C 327.169,225.889 334.836,228.389 342.5,231C 353.56,233.604 364.894,235.271 376.5,236C 379.308,236.019 381.641,237.019 383.5,239C 406.455,241.738 429.455,243.905 452.5,245.5C 453.289,245.783 453.956,246.283 454.5,247C 466.374,247.103 478.04,247.937 489.5,249.5C 476.833,249.5 464.167,249.5 451.5,249.5C 441.126,248.783 430.626,247.783 420,246.5C 397.356,243.542 374.856,240.042 352.5,236C 344.009,233.092 335.342,230.759 326.5,229C 323.692,227.684 321.359,225.85 319.5,223.5 Z"/></g>
<g><path style="opacity:0.141" fill="#4a4c66" d="M 48.5,238.5 C 32.3433,241.154 16.01,243.488 -0.5,245.5C -0.5,244.833 -0.5,244.167 -0.5,243.5C 15.8569,242.031 32.1903,240.364 48.5,238.5 Z"/></g>
<g><path style="opacity:1" fill="#d1d3f4" d="M 127.5,219.5 C 128.376,219.369 129.043,219.702 129.5,220.5C 126.698,221.712 124.198,223.379 122,225.5C 121.342,227.108 121.842,228.275 123.5,229C 122.019,229.98 120.685,231.147 119.5,232.5C 120.167,232.833 120.833,233.167 121.5,233.5C 117.125,233.333 112.791,233.833 108.5,235C 109.949,236.117 111.616,236.784 113.5,237C 93.2571,239.013 73.0904,241.513 53,244.5C 50.7047,244.547 48.8714,245.213 47.5,246.5C 40.5,247.167 33.5,247.833 26.5,248.5C 20.9403,248.335 15.9403,249.669 11.5,252.5C 7.5,252.5 3.5,252.5 -0.5,252.5C -0.5,250.5 -0.5,248.5 -0.5,246.5C 11.5082,245.668 23.5082,244.502 35.5,243C 44.9386,241.404 54.2719,239.571 63.5,237.5C 72.1391,236.242 80.8057,234.909 89.5,233.5C 95.8553,232.121 102.189,230.787 108.5,229.5C 108.5,228.5 108.5,227.5 108.5,226.5C 110.199,226.66 111.866,226.494 113.5,226C 118.079,223.542 122.746,221.376 127.5,219.5 Z"/></g>
<g><path style="opacity:1" fill="#aeb5f6" d="M 148.5,235.5 C 109.884,242.396 70.8844,246.729 31.5,248.5C 29.8333,248.5 28.1667,248.5 26.5,248.5C 33.5,247.833 40.5,247.167 47.5,246.5C 54.1697,246.111 60.8363,245.611 67.5,245C 94.3157,240.002 121.316,236.836 148.5,235.5 Z"/></g>
<g><path style="opacity:1" fill="#9497b0" d="M 63.5,237.5 C 54.2719,239.571 44.9386,241.404 35.5,243C 23.5082,244.502 11.5082,245.668 -0.5,246.5C -0.5,246.167 -0.5,245.833 -0.5,245.5C 16.01,243.488 32.3433,241.154 48.5,238.5C 49.1667,238.5 49.8333,238.5 50.5,238.5C 54.8566,238.414 59.19,238.08 63.5,237.5 Z"/></g>
<g><path style="opacity:1" fill="#8998f6" d="M 271.5,191.5 C 272.93,191.421 274.264,191.754 275.5,192.5C 279.125,195.991 282.791,199.491 286.5,203C 294.509,205.984 301.509,210.651 307.5,217C 311.892,218.586 315.892,220.753 319.5,223.5C 321.359,225.85 323.692,227.684 326.5,229C 335.342,230.759 344.009,233.092 352.5,236C 374.856,240.042 397.356,243.542 420,246.5C 430.626,247.783 441.126,248.783 451.5,249.5C 440.007,250.331 428.341,250.498 416.5,250C 414.167,249.667 411.833,249.333 409.5,249C 408.167,248.333 408.167,247.667 409.5,247C 408.672,246.085 407.672,245.419 406.5,245C 395.311,244.236 384.145,243.403 373,242.5C 370.532,243.577 368.365,243.077 366.5,241C 362.857,240.028 359.19,239.194 355.5,238.5C 349.947,240.613 344.28,240.779 338.5,239C 336.699,238.683 336.366,238.016 337.5,237C 336.061,236.009 335.061,234.676 334.5,233C 324.539,232.067 315.205,229.234 306.5,224.5C 305.833,224.833 305.167,225.167 304.5,225.5C 302.389,224.051 300.056,223.051 297.5,222.5C 296.85,219.345 295.183,216.845 292.5,215C 289.549,214.91 286.549,214.077 283.5,212.5C 282.044,209.254 279.877,206.587 277,204.5C 276.667,205.167 276.333,205.833 276,206.5C 273.374,205.941 270.874,204.775 268.5,203C 266.536,200.833 266.202,198.499 267.5,196C 266.584,195.626 265.75,195.126 265,194.5C 263.768,189.595 261.268,185.428 257.5,182C 256.258,181.689 255.258,182.189 254.5,183.5C 253.796,180.296 253.13,177.129 252.5,174C 251.551,173.383 250.718,173.549 250,174.5C 248.521,179.158 245.354,181.825 240.5,182.5C 242.506,179.827 244.839,177.494 247.5,175.5C 248.429,174.311 248.762,172.978 248.5,171.5C 250.199,171.34 251.866,171.506 253.5,172C 259.678,178.344 265.678,184.844 271.5,191.5 Z"/></g>
<g><path style="opacity:0.335" fill="#52345e" d="M -0.5,255.5 C -0.5,255.167 -0.5,254.833 -0.5,254.5C 9.82609,254.463 19.8261,255.796 29.5,258.5C 19.4222,258.251 9.4222,257.251 -0.5,255.5 Z"/></g>
<g><path style="opacity:1" fill="#d5a1f3" d="M 26.5,248.5 C 28.1667,248.5 29.8333,248.5 31.5,248.5C 31.8333,249.167 32.1667,249.833 32.5,250.5C 32.6107,251.117 32.944,251.617 33.5,252C 56.9994,253.661 80.3327,255.827 103.5,258.5C 99.9581,258.187 96.6248,258.521 93.5,259.5C 86.8002,259.17 80.1335,259.503 73.5,260.5C 74.9492,261.172 76.2825,261.839 77.5,262.5C 74.8333,262.5 72.1667,262.5 69.5,262.5C 68.8478,261.275 67.6811,260.608 66,260.5C 52.4121,259.595 38.9121,258.095 25.5,256C 20.9762,254.262 16.3096,253.095 11.5,252.5C 15.9403,249.669 20.9403,248.335 26.5,248.5 Z"/></g>
<g><path style="opacity:1" fill="#4560ce" d="M 494.5,252.5 C 493.319,254.067 491.653,254.901 489.5,255C 481.178,255.809 472.845,256.475 464.5,257C 450.42,260.735 436.087,263.069 421.5,264C 411.709,266.264 402.043,268.931 392.5,272C 383.135,277.347 373.801,282.681 364.5,288C 360.038,290.958 355.704,294.125 351.5,297.5C 354.238,293.917 357.238,290.417 360.5,287C 362.432,285.541 364.432,284.375 366.5,283.5C 367.492,283.672 368.158,283.338 368.5,282.5C 370.735,281.771 372.569,280.438 374,278.5C 380.016,277.702 385.182,275.202 389.5,271C 394.596,270.301 399.429,268.801 404,266.5C 405.52,265.303 406.687,263.803 407.5,262C 417.921,261.847 428.255,260.847 438.5,259C 440.953,258.273 443.286,257.273 445.5,256C 450.882,255.693 456.215,255.026 461.5,254C 458.793,253.605 456.127,253.105 453.5,252.5C 453.5,252.167 453.5,251.833 453.5,251.5C 465.788,250.373 478.121,250.207 490.5,251C 490.167,251.333 489.833,251.667 489.5,252C 491.134,252.494 492.801,252.66 494.5,252.5 Z"/></g>
<g><path style="opacity:0.737" fill="#976ca8" d="M -0.5,252.5 C 3.5,252.5 7.5,252.5 11.5,252.5C 16.3096,253.095 20.9762,254.262 25.5,256C 38.9121,258.095 52.4121,259.595 66,260.5C 67.6811,260.608 68.8478,261.275 69.5,262.5C 57.6328,261.538 45.7995,260.204 34,258.5C 32.6153,258.514 31.4486,258.848 30.5,259.5C 29.8333,259.5 29.5,259.167 29.5,258.5C 19.8261,255.796 9.82609,254.463 -0.5,254.5C -0.5,253.833 -0.5,253.167 -0.5,252.5 Z"/></g>
<g><path style="opacity:1" fill="#4365ef" d="M 453.5,252.5 C 456.127,253.105 458.793,253.605 461.5,254C 456.215,255.026 450.882,255.693 445.5,256C 443.286,257.273 440.953,258.273 438.5,259C 428.255,260.847 417.921,261.847 407.5,262C 406.687,263.803 405.52,265.303 404,266.5C 399.429,268.801 394.596,270.301 389.5,271C 385.182,275.202 380.016,277.702 374,278.5C 372.569,280.438 370.735,281.771 368.5,282.5C 369.745,277.799 372.745,275.299 377.5,275C 381.948,271.531 386.615,268.531 391.5,266C 387.617,264.521 383.617,263.355 379.5,262.5C 384.49,261.844 389.49,260.677 394.5,259C 414.079,256.086 433.745,253.919 453.5,252.5 Z"/></g>
<g><path style="opacity:1" fill="#5f78f7" d="M 453.5,251.5 C 453.5,251.833 453.5,252.167 453.5,252.5C 433.745,253.919 414.079,256.086 394.5,259C 389.49,260.677 384.49,261.844 379.5,262.5C 376.941,262.198 374.607,262.532 372.5,263.5C 364.17,264.296 355.837,265.129 347.5,266C 340.919,270.441 333.585,272.774 325.5,273C 322.816,273.778 320.483,275.111 318.5,277C 316.866,277.494 315.199,277.66 313.5,277.5C 319.875,273.981 326.208,270.481 332.5,267C 350.67,264.625 368.67,261.291 386.5,257C 408.728,254.234 431.062,252.401 453.5,251.5 Z"/></g>
<g><path style="opacity:1" fill="#cf92d4" d="M 69.5,262.5 C 72.1667,262.5 74.8333,262.5 77.5,262.5C 81.1817,262.335 84.8484,262.501 88.5,263C 95.447,264.932 102.447,266.932 109.5,269C 113.413,270.483 116.747,272.816 119.5,276C 124.954,275.875 128.287,278.375 129.5,283.5C 120.103,276.959 109.77,272.459 98.5,270C 97.7741,268.603 96.6075,267.769 95,267.5C 86.2365,266.506 77.7365,264.839 69.5,262.5 Z"/></g>
<g><path style="opacity:1" fill="#da98f9" d="M 93.5,259.5 C 96.6248,258.521 99.9581,258.187 103.5,258.5C 124.237,259.797 144.57,262.964 164.5,268C 168.989,270.847 173.989,272.18 179.5,272C 180.257,273.512 181.257,274.846 182.5,276C 190.457,280.554 198.79,284.554 207.5,288C 208.167,289 208.833,290 209.5,291C 212.177,291.249 214.51,292.249 216.5,294C 230.678,305.661 242.011,319.494 250.5,335.5C 249.167,336.833 247.833,336.833 246.5,335.5C 244.872,329.936 241.539,325.603 236.5,322.5C 235.535,319.227 233.535,316.894 230.5,315.5C 229.522,315.977 228.689,316.643 228,317.5C 222.838,313.341 217.671,308.841 212.5,304C 210.744,303.798 209.078,303.298 207.5,302.5C 208.167,301.833 208.833,301.167 209.5,300.5C 208.5,299.167 207.5,297.833 206.5,296.5C 202.841,295.899 199.174,295.233 195.5,294.5C 194.045,292.78 193.212,290.78 193,288.5C 191.055,287.137 188.888,286.303 186.5,286C 186.833,285.667 187.167,285.333 187.5,285C 182.026,281.347 176.193,278.514 170,276.5C 166.059,277.044 161.559,277.544 156.5,278C 155.377,276.956 154.044,276.29 152.5,276C 153.572,273.324 152.905,270.991 150.5,269C 135.164,267.277 119.83,265.444 104.5,263.5C 101.014,262.467 97.3474,261.633 93.5,261C 97.449,260.193 97.449,259.693 93.5,259.5 Z"/></g>
<g><path style="opacity:1" fill="#9e91f5" d="M 71.5,250.5 C 105.916,255.488 140.25,260.988 174.5,267C 182.72,271.517 191.386,274.851 200.5,277C 203.23,277.728 205.897,277.562 208.5,276.5C 211.763,277.369 212.096,278.703 209.5,280.5C 210.827,282.311 211.827,284.311 212.5,286.5C 220.332,289.839 226.832,294.839 232,301.5C 234.881,307.383 238.881,312.383 244,316.5C 245.804,321.801 248.637,326.468 252.5,330.5C 251.962,332.117 251.629,333.784 251.5,335.5C 251.167,335.5 250.833,335.5 250.5,335.5C 242.011,319.494 230.678,305.661 216.5,294C 214.51,292.249 212.177,291.249 209.5,291C 208.833,290 208.167,289 207.5,288C 198.79,284.554 190.457,280.554 182.5,276C 181.257,274.846 180.257,273.512 179.5,272C 173.989,272.18 168.989,270.847 164.5,268C 144.57,262.964 124.237,259.797 103.5,258.5C 80.3327,255.827 56.9994,253.661 33.5,252C 32.944,251.617 32.6107,251.117 32.5,250.5C 45.3727,249.45 58.3727,249.45 71.5,250.5 Z"/></g>
<g><path style="opacity:0.141" fill="#263883" d="M 494.5,252.5 C 496.167,252.5 497.833,252.5 499.5,252.5C 499.5,253.5 499.5,254.5 499.5,255.5C 474.805,258.337 450.139,261.504 425.5,265C 387.775,273.356 356.442,292.189 331.5,321.5C 331.351,320.448 331.517,319.448 332,318.5C 337.698,311.636 343.865,305.303 350.5,299.5C 350.833,298.833 351.167,298.167 351.5,297.5C 355.704,294.125 360.038,290.958 364.5,288C 373.801,282.681 383.135,277.347 392.5,272C 402.043,268.931 411.709,266.264 421.5,264C 436.087,263.069 450.42,260.735 464.5,257C 472.845,256.475 481.178,255.809 489.5,255C 491.653,254.901 493.319,254.067 494.5,252.5 Z"/></g>
<g><path style="opacity:1" fill="#4361f2" d="M 372.5,263.5 C 369.401,264.865 366.068,265.865 362.5,266.5C 356.09,272.604 348.757,274.271 340.5,271.5C 339.784,272.311 338.95,272.978 338,273.5C 331.295,275.525 324.795,278.359 318.5,282C 316.578,283.42 315.245,285.253 314.5,287.5C 313.914,287.291 313.414,286.957 313,286.5C 311.758,287.872 310.258,288.872 308.5,289.5C 307.719,290.729 307.219,292.062 307,293.5C 305.989,292.663 304.822,292.33 303.5,292.5C 303.856,295.564 303.023,298.231 301,300.5C 300.5,300 300,299.5 299.5,299C 300.184,297.307 301.184,295.807 302.5,294.5C 301.975,293.808 301.308,293.308 300.5,293C 300.833,292.667 301.167,292.333 301.5,292C 298.144,291.643 295.311,292.809 293,295.5C 292.857,300.833 290.357,302.833 285.5,301.5C 283.618,302.531 281.618,303.365 279.5,304C 277.598,307.405 274.931,309.905 271.5,311.5C 275.95,304.788 281.616,299.288 288.5,295C 289.305,293.887 289.972,292.721 290.5,291.5C 296.81,286.756 303.81,282.923 311.5,280C 312.381,279.292 313.047,278.458 313.5,277.5C 315.199,277.66 316.866,277.494 318.5,277C 320.483,275.111 322.816,273.778 325.5,273C 333.585,272.774 340.919,270.441 347.5,266C 355.837,265.129 364.17,264.296 372.5,263.5 Z"/></g>
<g><path style="opacity:1" fill="#e994f0" d="M 104.5,263.5 C 119.83,265.444 135.164,267.277 150.5,269C 152.905,270.991 153.572,273.324 152.5,276C 154.044,276.29 155.377,276.956 156.5,278C 161.559,277.544 166.059,277.044 170,276.5C 176.193,278.514 182.026,281.347 187.5,285C 187.167,285.333 186.833,285.667 186.5,286C 188.888,286.303 191.055,287.137 193,288.5C 193.212,290.78 194.045,292.78 195.5,294.5C 199.174,295.233 202.841,295.899 206.5,296.5C 207.5,297.833 208.5,299.167 209.5,300.5C 208.833,301.167 208.167,301.833 207.5,302.5C 209.078,303.298 210.744,303.798 212.5,304C 217.671,308.841 222.838,313.341 228,317.5C 228.689,316.643 229.522,315.977 230.5,315.5C 233.535,316.894 235.535,319.227 236.5,322.5C 241.539,325.603 244.872,329.936 246.5,335.5C 245.5,335.5 244.5,335.5 243.5,335.5C 243.706,340.654 243.039,345.654 241.5,350.5C 239.097,350.393 237.264,351.393 236,353.5C 229.127,365.811 226.461,379.144 228,393.5C 227.439,396.279 226.606,398.946 225.5,401.5C 224.196,402.987 223.03,404.654 222,406.5C 219.375,420.905 217.542,435.239 216.5,449.5C 215.703,444.954 214.703,440.454 213.5,436C 213.645,435.228 213.978,434.561 214.5,434C 212.918,425.209 211.418,416.375 210,407.5C 209.667,402.167 209.333,396.833 209,391.5C 208.74,389.382 207.74,387.716 206,386.5C 204.108,378.507 203.108,370.507 203,362.5C 202,360.167 200.333,358.5 198,357.5C 197.667,354.167 197.333,350.833 197,347.5C 196.215,345.714 195.049,344.214 193.5,343C 194.21,341.119 194.71,338.952 195,336.5C 193.559,335.74 192.059,335.074 190.5,334.5C 188.929,335.309 187.262,335.643 185.5,335.5C 185.167,335.5 184.833,335.5 184.5,335.5C 184.106,331.594 182.94,327.928 181,324.5C 175.598,318.934 170.764,312.934 166.5,306.5C 165.088,305.194 163.421,304.36 161.5,304C 159.416,299.851 156.25,296.684 152,294.5C 148.985,287.724 143.818,283.391 136.5,281.5C 135.515,279.902 135.349,278.235 136,276.5C 136.654,277.696 137.154,277.696 137.5,276.5C 134.581,275.686 131.748,274.686 129,273.5C 128.586,273.957 128.086,274.291 127.5,274.5C 120.5,272 113.5,269.5 106.5,267C 105.695,265.887 105.028,264.721 104.5,263.5 Z"/></g>
<g><path style="opacity:1" fill="#3d61fc" d="M 379.5,262.5 C 383.617,263.355 387.617,264.521 391.5,266C 386.615,268.531 381.948,271.531 377.5,275C 372.745,275.299 369.745,277.799 368.5,282.5C 368.158,283.338 367.492,283.672 366.5,283.5C 364.801,283.34 363.134,283.506 361.5,284C 356.147,290.464 349.481,295.131 341.5,298C 339.649,299.684 337.982,301.517 336.5,303.5C 334.174,304.39 331.841,304.557 329.5,304C 328.547,305.955 327.213,307.622 325.5,309C 328.481,310.38 329.147,312.546 327.5,315.5C 326.5,316.833 325.5,316.833 324.5,315.5C 323.686,317.766 323.186,320.1 323,322.5C 322.333,323.833 321.667,323.833 321,322.5C 320.667,323.833 320.333,325.167 320,326.5C 318.212,327.358 316.378,328.358 314.5,329.5C 312.152,333.171 309.486,336.504 306.5,339.5C 307.373,341.413 308.373,343.247 309.5,345C 306.823,349.349 303.99,349.515 301,345.5C 300.342,347.8 299.842,350.133 299.5,352.5C 300.332,355.482 300.499,358.482 300,361.5C 298.313,366.18 296.48,370.18 294.5,373.5C 296.104,380.455 295.271,387.122 292,393.5C 290.333,392.167 288.667,390.833 287,389.5C 285.113,391.026 284.113,393.026 284,395.5C 284.155,391.137 282.322,389.803 278.5,391.5C 276.916,384.015 276.583,376.515 277.5,369C 275.308,365.788 272.641,363.954 269.5,363.5C 267.491,361.622 267.158,359.456 268.5,357C 264.045,350.844 260.879,344.01 259,336.5C 256.173,334.306 255.84,331.639 258,328.5C 262.27,323.797 266.103,318.797 269.5,313.5C 270.167,312.833 270.833,312.167 271.5,311.5C 274.931,309.905 277.598,307.405 279.5,304C 281.618,303.365 283.618,302.531 285.5,301.5C 290.357,302.833 292.857,300.833 293,295.5C 295.311,292.809 298.144,291.643 301.5,292C 301.167,292.333 300.833,292.667 300.5,293C 301.308,293.308 301.975,293.808 302.5,294.5C 301.184,295.807 300.184,297.307 299.5,299C 300,299.5 300.5,300 301,300.5C 303.023,298.231 303.856,295.564 303.5,292.5C 304.822,292.33 305.989,292.663 307,293.5C 307.219,292.062 307.719,290.729 308.5,289.5C 310.258,288.872 311.758,287.872 313,286.5C 313.414,286.957 313.914,287.291 314.5,287.5C 315.245,285.253 316.578,283.42 318.5,282C 324.795,278.359 331.295,275.525 338,273.5C 338.95,272.978 339.784,272.311 340.5,271.5C 348.757,274.271 356.09,272.604 362.5,266.5C 366.068,265.865 369.401,264.865 372.5,263.5C 374.607,262.532 376.941,262.198 379.5,262.5 Z"/></g>
<g><path style="opacity:0.282" fill="#66406f" d="M 30.5,259.5 C 31.4486,258.848 32.6153,258.514 34,258.5C 45.7995,260.204 57.6328,261.538 69.5,262.5C 77.7365,264.839 86.2365,266.506 95,267.5C 96.6075,267.769 97.7741,268.603 98.5,270C 109.77,272.459 120.103,276.959 129.5,283.5C 135.341,287.191 141.007,291.024 146.5,295C 149.428,299.432 153.095,302.932 157.5,305.5C 159.834,308.666 162.667,311.333 166,313.5C 170.555,320.404 175.555,327.071 181,333.5C 186.163,342.28 190.663,351.28 194.5,360.5C 201.056,381.351 205.39,402.684 207.5,424.5C 208.225,439.295 210.058,453.962 213,468.5C 214.323,471.059 216.157,471.725 218.5,470.5C 219.56,465.616 220.894,460.949 222.5,456.5C 222.728,461.675 221.895,466.675 220,471.5C 216.988,474.25 214.321,473.917 212,470.5C 210.786,465.886 209.786,461.22 209,456.5C 206.53,428.597 202.53,400.93 197,373.5C 180.94,325.834 149.774,292.334 103.5,273C 79.7389,265.635 55.4056,261.135 30.5,259.5 Z"/></g>
<g><path style="opacity:1" fill="#e5a0eb" d="M 93.5,259.5 C 97.449,259.693 97.449,260.193 93.5,261C 97.3474,261.633 101.014,262.467 104.5,263.5C 105.028,264.721 105.695,265.887 106.5,267C 113.5,269.5 120.5,272 127.5,274.5C 128.086,274.291 128.586,273.957 129,273.5C 131.748,274.686 134.581,275.686 137.5,276.5C 137.154,277.696 136.654,277.696 136,276.5C 135.349,278.235 135.515,279.902 136.5,281.5C 143.818,283.391 148.985,287.724 152,294.5C 156.25,296.684 159.416,299.851 161.5,304C 163.421,304.36 165.088,305.194 166.5,306.5C 170.764,312.934 175.598,318.934 181,324.5C 182.94,327.928 184.106,331.594 184.5,335.5C 178.209,326.969 171.876,318.302 165.5,309.5C 162.543,308.493 159.876,307.159 157.5,305.5C 153.095,302.932 149.428,299.432 146.5,295C 141.007,291.024 135.341,287.191 129.5,283.5C 128.287,278.375 124.954,275.875 119.5,276C 116.747,272.816 113.413,270.483 109.5,269C 102.447,266.932 95.447,264.932 88.5,263C 84.8484,262.501 81.1817,262.335 77.5,262.5C 76.2825,261.839 74.9492,261.172 73.5,260.5C 80.1335,259.503 86.8002,259.17 93.5,259.5 Z"/></g>
<g><path style="opacity:1" fill="#7084fb" d="M 290.5,291.5 C 289.972,292.721 289.305,293.887 288.5,295C 281.616,299.288 275.95,304.788 271.5,311.5C 270.833,312.167 270.167,312.833 269.5,313.5C 262.479,319.868 256.479,327.202 251.5,335.5C 251.629,333.784 251.962,332.117 252.5,330.5C 255.545,327.069 257.712,323.069 259,318.5C 268.701,308.258 279.201,299.258 290.5,291.5 Z"/></g>
<g><path style="opacity:1" fill="#c18cc6" d="M 157.5,305.5 C 159.876,307.159 162.543,308.493 165.5,309.5C 171.876,318.302 178.209,326.969 184.5,335.5C 184.833,335.5 185.167,335.5 185.5,335.5C 185.215,337.288 185.548,338.955 186.5,340.5C 188.453,342.73 190.286,345.063 192,347.5C 192.645,351.889 193.478,356.223 194.5,360.5C 190.663,351.28 186.163,342.28 181,333.5C 175.555,327.071 170.555,320.404 166,313.5C 162.667,311.333 159.834,308.666 157.5,305.5 Z"/></g>
<g><path style="opacity:0.224" fill="#283b8c" d="M 331.5,321.5 C 323.729,332.71 316.729,344.377 310.5,356.5C 311.801,350.223 313.967,344.223 317,338.5C 321.404,332.36 326.237,326.693 331.5,321.5 Z"/></g>
<g><path style="opacity:0.541" fill="#714d7e" d="M 250.5,339.5 C 248.668,343.836 246.335,347.836 243.5,351.5C 244.213,347.584 245.713,343.918 248,340.5C 248.671,339.748 249.504,339.414 250.5,339.5 Z"/></g>
<g><path style="opacity:1" fill="#eaa1f1" d="M 225.5,401.5 C 223.035,408.913 221.868,416.58 222,424.5C 221.581,425.672 220.915,426.672 220,427.5C 219.085,436.147 218.418,444.814 218,453.5C 217.131,456.763 215.797,457.096 214,454.5C 211.478,429.697 208.145,405.031 204,380.5C 201.155,373.52 197.988,366.853 194.5,360.5C 193.478,356.223 192.645,351.889 192,347.5C 190.286,345.063 188.453,342.73 186.5,340.5C 185.548,338.955 185.215,337.288 185.5,335.5C 187.262,335.643 188.929,335.309 190.5,334.5C 192.059,335.074 193.559,335.74 195,336.5C 194.71,338.952 194.21,341.119 193.5,343C 195.049,344.214 196.215,345.714 197,347.5C 197.333,350.833 197.667,354.167 198,357.5C 200.333,358.5 202,360.167 203,362.5C 203.108,370.507 204.108,378.507 206,386.5C 207.74,387.716 208.74,389.382 209,391.5C 209.333,396.833 209.667,402.167 210,407.5C 211.418,416.375 212.918,425.209 214.5,434C 213.978,434.561 213.645,435.228 213.5,436C 214.703,440.454 215.703,444.954 216.5,449.5C 217.542,435.239 219.375,420.905 222,406.5C 223.03,404.654 224.196,402.987 225.5,401.5 Z"/></g>
<g><path style="opacity:0.847" fill="#445ece" d="M 350.5,299.5 C 343.865,305.303 337.698,311.636 332,318.5C 331.517,319.448 331.351,320.448 331.5,321.5C 326.237,326.693 321.404,332.36 317,338.5C 313.967,344.223 311.801,350.223 310.5,356.5C 308.678,361.974 306.678,367.308 304.5,372.5C 303.883,372.389 303.383,372.056 303,371.5C 301.667,375.5 300.333,379.5 299,383.5C 296.722,400.842 294.555,418.175 292.5,435.5C 291.44,447.16 290.44,458.826 289.5,470.5C 288.833,470.5 288.5,470.167 288.5,469.5C 289.464,465.189 287.964,462.189 284,460.5C 283.338,458.187 282.838,455.854 282.5,453.5C 283.67,455.279 285.336,456.279 287.5,456.5C 287.963,453.518 288.296,450.518 288.5,447.5C 289.621,445.046 290.454,442.379 291,439.5C 291.333,432.833 291.667,426.167 292,419.5C 295.404,402.598 297.904,385.598 299.5,368.5C 300.822,368.67 301.989,368.337 303,367.5C 307.505,357.311 310.839,346.644 313,335.5C 314,333.833 315,332.167 316,330.5C 317.987,329.782 319.821,328.782 321.5,327.5C 322.833,324.833 324.833,322.833 327.5,321.5C 330.554,315.878 334.721,311.211 340,307.5C 340.309,306.234 340.809,305.067 341.5,304C 343.455,303.047 345.122,301.713 346.5,300C 347.793,299.51 349.127,299.343 350.5,299.5 Z"/></g>
<g><path style="opacity:1" fill="#4164f5" d="M 366.5,283.5 C 364.432,284.375 362.432,285.541 360.5,287C 357.238,290.417 354.238,293.917 351.5,297.5C 351.167,298.167 350.833,298.833 350.5,299.5C 349.127,299.343 347.793,299.51 346.5,300C 345.122,301.713 343.455,303.047 341.5,304C 340.809,305.067 340.309,306.234 340,307.5C 334.721,311.211 330.554,315.878 327.5,321.5C 324.833,322.833 322.833,324.833 321.5,327.5C 319.821,328.782 317.987,329.782 316,330.5C 315,332.167 314,333.833 313,335.5C 310.839,346.644 307.505,357.311 303,367.5C 301.989,368.337 300.822,368.67 299.5,368.5C 297.904,385.598 295.404,402.598 292,419.5C 291.667,426.167 291.333,432.833 291,439.5C 290.454,442.379 289.621,445.046 288.5,447.5C 285.767,448.666 283.934,447.666 283,444.5C 281.787,433.549 281.12,422.549 281,411.5C 276.695,397.862 274.861,384.028 275.5,370C 273.101,368.02 271.101,365.853 269.5,363.5C 272.641,363.954 275.308,365.788 277.5,369C 276.583,376.515 276.916,384.015 278.5,391.5C 282.322,389.803 284.155,391.137 284,395.5C 284.113,393.026 285.113,391.026 287,389.5C 288.667,390.833 290.333,392.167 292,393.5C 295.271,387.122 296.104,380.455 294.5,373.5C 296.48,370.18 298.313,366.18 300,361.5C 300.499,358.482 300.332,355.482 299.5,352.5C 299.842,350.133 300.342,347.8 301,345.5C 303.99,349.515 306.823,349.349 309.5,345C 308.373,343.247 307.373,341.413 306.5,339.5C 309.486,336.504 312.152,333.171 314.5,329.5C 316.378,328.358 318.212,327.358 320,326.5C 320.333,325.167 320.667,323.833 321,322.5C 321.667,323.833 322.333,323.833 323,322.5C 323.186,320.1 323.686,317.766 324.5,315.5C 325.5,316.833 326.5,316.833 327.5,315.5C 329.147,312.546 328.481,310.38 325.5,309C 327.213,307.622 328.547,305.955 329.5,304C 331.841,304.557 334.174,304.39 336.5,303.5C 337.982,301.517 339.649,299.684 341.5,298C 349.481,295.131 356.147,290.464 361.5,284C 363.134,283.506 364.801,283.34 366.5,283.5 Z"/></g>
<g><path style="opacity:1" fill="#d495dd" d="M 246.5,335.5 C 247.833,336.833 249.167,336.833 250.5,335.5C 250.5,336.833 250.5,338.167 250.5,339.5C 249.504,339.414 248.671,339.748 248,340.5C 245.713,343.918 244.213,347.584 243.5,351.5C 242.542,351.953 241.708,352.619 241,353.5C 239.287,359.652 236.62,365.318 233,370.5C 230.336,387.442 227.836,404.442 225.5,421.5C 223.933,422.681 223.099,424.347 223,426.5C 221.982,434.803 221.315,443.136 221,451.5C 220.443,455.594 219.61,459.594 218.5,463.5C 216.833,463.5 215.167,463.5 213.5,463.5C 212.763,450.175 210.763,437.175 207.5,424.5C 205.39,402.684 201.056,381.351 194.5,360.5C 197.988,366.853 201.155,373.52 204,380.5C 208.145,405.031 211.478,429.697 214,454.5C 215.797,457.096 217.131,456.763 218,453.5C 218.418,444.814 219.085,436.147 220,427.5C 220.915,426.672 221.581,425.672 222,424.5C 221.868,416.58 223.035,408.913 225.5,401.5C 226.606,398.946 227.439,396.279 228,393.5C 226.461,379.144 229.127,365.811 236,353.5C 237.264,351.393 239.097,350.393 241.5,350.5C 243.039,345.654 243.706,340.654 243.5,335.5C 244.5,335.5 245.5,335.5 246.5,335.5 Z"/></g>
<g><path style="opacity:1" fill="#4764e2" d="M 269.5,313.5 C 266.103,318.797 262.27,323.797 258,328.5C 255.84,331.639 256.173,334.306 259,336.5C 260.879,344.01 264.045,350.844 268.5,357C 267.158,359.456 267.491,361.622 269.5,363.5C 271.101,365.853 273.101,368.02 275.5,370C 274.861,384.028 276.695,397.862 281,411.5C 281.12,422.549 281.787,433.549 283,444.5C 283.934,447.666 285.767,448.666 288.5,447.5C 288.296,450.518 287.963,453.518 287.5,456.5C 285.336,456.279 283.67,455.279 282.5,453.5C 279.744,441.03 278.244,428.363 278,415.5C 276.877,411.443 275.544,407.443 274,403.5C 273.455,394.042 272.121,384.708 270,375.5C 265.27,363 259.937,350.667 254,338.5C 251.821,337.16 251.321,337.493 252.5,339.5C 251.833,339.5 251.167,339.5 250.5,339.5C 250.5,338.167 250.5,336.833 250.5,335.5C 250.833,335.5 251.167,335.5 251.5,335.5C 256.479,327.202 262.479,319.868 269.5,313.5 Z"/></g>
<g><path style="opacity:0.784" fill="#344aa4" d="M 304.5,372.5 C 301.067,385.773 298.733,399.106 297.5,412.5C 295.926,420.188 294.259,427.855 292.5,435.5C 294.555,418.175 296.722,400.842 299,383.5C 300.333,379.5 301.667,375.5 303,371.5C 303.383,372.056 303.883,372.389 304.5,372.5 Z"/></g>
<g><path style="opacity:0.161" fill="#784d81" d="M 243.5,351.5 C 238.101,364.423 233.935,377.756 231,391.5C 228.489,413.024 225.655,434.358 222.5,455.5C 222.755,444.07 223.755,432.737 225.5,421.5C 227.836,404.442 230.336,387.442 233,370.5C 236.62,365.318 239.287,359.652 241,353.5C 241.708,352.619 242.542,351.953 243.5,351.5 Z"/></g>
<g><path style="opacity:0.282" fill="#202f79" d="M 297.5,412.5 C 295.808,429.843 293.975,447.176 292,464.5C 291.76,466.852 290.927,468.852 289.5,470.5C 290.44,458.826 291.44,447.16 292.5,435.5C 294.259,427.855 295.926,420.188 297.5,412.5 Z"/></g>
<g><path style="opacity:0.263" fill="#253479" d="M 273.5,408.5 C 274.117,408.611 274.617,408.944 275,409.5C 276.738,427.983 279.072,446.316 282,464.5C 283.159,467.493 285.325,469.16 288.5,469.5C 288.5,470.167 288.833,470.5 289.5,470.5C 285.979,473.494 283.146,472.827 281,468.5C 277.879,448.577 275.379,428.577 273.5,408.5 Z"/></g>
<g><path style="opacity:0.933" fill="#9d6fa6" d="M 225.5,421.5 C 223.755,432.737 222.755,444.07 222.5,455.5C 222.5,455.833 222.5,456.167 222.5,456.5C 220.894,460.949 219.56,465.616 218.5,470.5C 216.157,471.725 214.323,471.059 213,468.5C 210.058,453.962 208.225,439.295 207.5,424.5C 210.763,437.175 212.763,450.175 213.5,463.5C 215.167,463.5 216.833,463.5 218.5,463.5C 219.61,459.594 220.443,455.594 221,451.5C 221.315,443.136 221.982,434.803 223,426.5C 223.099,424.347 223.933,422.681 225.5,421.5 Z"/></g>
<g><path style="opacity:0.784" fill="#374ca7" d="M 282.5,453.5 C 282.838,455.854 283.338,458.187 284,460.5C 287.964,462.189 289.464,465.189 288.5,469.5C 285.325,469.16 283.159,467.493 282,464.5C 279.072,446.316 276.738,427.983 275,409.5C 274.617,408.944 274.117,408.611 273.5,408.5C 271.916,383.826 264.916,360.826 252.5,339.5C 251.321,337.493 251.821,337.16 254,338.5C 259.937,350.667 265.27,363 270,375.5C 272.121,384.708 273.455,394.042 274,403.5C 275.544,407.443 276.877,411.443 278,415.5C 278.244,428.363 279.744,441.03 282.5,453.5 Z"/></g>
</svg>
