<?xml version="1.0" encoding="UTF-8"?>
<!DOCTYPE svg PUBLIC "-//W3C//DTD SVG 1.1//EN" "http://www.w3.org/Graphics/SVG/1.1/DTD/svg11.dtd">
<svg xmlns="http://www.w3.org/2000/svg" version="1.1" width="500px" height="499px" style="shape-rendering:geometricPrecision; text-rendering:geometricPrecision; image-rendering:optimizeQuality; fill-rule:evenodd; clip-rule:evenodd" xmlns:xlink="http://www.w3.org/1999/xlink">
<g><path style="opacity:1" fill="#124c79" d="M 245.5,-0.5 C 247.833,-0.5 250.167,-0.5 252.5,-0.5C 253.373,3.76846 253.706,8.10179 253.5,12.5C 253.5,29.5 253.5,46.5 253.5,63.5C 252.668,44.0043 252.168,24.3376 252,4.5C 251.583,3.24402 250.75,2.57735 249.5,2.5C 248.662,2.84171 248.328,3.50838 248.5,4.5C 247.833,26.8333 247.167,49.1667 246.5,71.5C 244.511,50.5262 243.844,29.1928 244.5,7.5C 244.279,4.72116 244.612,2.05449 245.5,-0.5 Z"/></g>
<g><path style="opacity:1" fill="#0f4b7e" d="M 249.5,2.5 C 250.75,2.57735 251.583,3.24402 252,4.5C 252.168,24.3376 252.668,44.0043 253.5,63.5C 253.183,66.5719 253.516,69.5719 254.5,72.5C 255.739,72.0576 256.739,71.3909 257.5,70.5C 258.167,70.5 258.5,70.8333 258.5,71.5C 259.263,72.2679 260.263,72.7679 261.5,73C 257.914,74.1076 254.247,74.6076 250.5,74.5C 250.726,50.4869 250.392,26.4869 249.5,2.5 Z"/></g>
<g><path style="opacity:0.553" fill="#53718c" d="M 253.5,12.5 C 254.497,31.6595 254.83,50.9928 254.5,70.5C 255.5,70.5 256.5,70.5 257.5,70.5C 256.739,71.3909 255.739,72.0576 254.5,72.5C 253.516,69.5719 253.183,66.5719 253.5,63.5C 253.5,46.5 253.5,29.5 253.5,12.5 Z"/></g>
<g><path style="opacity:1" fill="#28577d" d="M 134.5,113.5 C 134.649,114.552 134.483,115.552 134,116.5C 132.989,115.663 131.822,115.33 130.5,115.5C 130.667,103.495 130.5,91.4954 130,79.5C 129.667,84.8333 129.333,90.1667 129,95.5C 128.83,84.9919 128.33,74.6585 127.5,64.5C 126.5,64.5 125.5,64.5 124.5,64.5C 124.5,65.8333 124.5,67.1667 124.5,68.5C 123.883,68.3893 123.383,68.056 123,67.5C 121.967,85.4832 121.134,103.483 120.5,121.5C 112.222,122.47 103.889,122.803 95.5,122.5C 84.5,122.5 73.5,122.5 62.5,122.5C 81.3802,121.949 100.38,121.115 119.5,120C 119.237,100.887 119.737,81.7199 121,62.5C 121.775,60.7769 123.108,59.7769 125,59.5C 126.766,60.2335 128.599,60.5668 130.5,60.5C 131.234,78.4854 131.734,96.4854 132,114.5C 132.671,113.748 133.504,113.414 134.5,113.5 Z"/></g>
<g><path style="opacity:1" fill="#245580" d="M 244.5,7.5 C 243.844,29.1928 244.511,50.5262 246.5,71.5C 246.5,72.5 246.5,73.5 246.5,74.5C 227.728,75.4434 209.394,78.7767 191.5,84.5C 189.143,84.3367 186.81,84.5034 184.5,85C 182.714,85.1962 181.381,86.0295 180.5,87.5C 178.257,88.4742 175.924,88.8076 173.5,88.5C 194.373,77.5518 216.706,71.7185 240.5,71C 241.416,70.6258 242.25,70.1258 243,69.5C 243.168,48.6626 243.668,27.9959 244.5,7.5 Z"/></g>
<g><path style="opacity:1" fill="#85a5d5" d="M 249.5,2.5 C 250.392,26.4869 250.726,50.4869 250.5,74.5C 257.344,75.3195 264.344,75.9861 271.5,76.5C 269.052,77.4731 266.385,77.8064 263.5,77.5C 259.445,77.1758 255.445,77.5091 251.5,78.5C 250.567,82.4295 250.234,86.4295 250.5,90.5C 250.5,96.1667 250.5,101.833 250.5,107.5C 249.71,106.391 249.21,105.058 249,103.5C 248.31,104.738 247.81,104.738 247.5,103.5C 247.826,94.9832 247.493,86.6499 246.5,78.5C 246.5,78.1667 246.5,77.8333 246.5,77.5C 246.709,76.0783 247.209,74.745 248,73.5C 248.5,50.5024 248.667,27.5024 248.5,4.5C 248.328,3.50838 248.662,2.84171 249.5,2.5 Z"/></g>
<g><path style="opacity:1" fill="#86a6d1" d="M 271.5,76.5 C 306.133,81.6937 336.799,95.3604 363.5,117.5C 364.306,118.728 365.306,119.728 366.5,120.5C 366.047,122.565 365.047,124.232 363.5,125.5C 361.833,125.5 360.167,125.5 358.5,125.5C 359.919,124.549 361.585,124.216 363.5,124.5C 363.88,122.302 363.213,120.635 361.5,119.5C 349.847,109.202 336.847,100.869 322.5,94.5C 314.054,89.958 305.054,86.458 295.5,84C 284.692,81.8721 274.025,79.7055 263.5,77.5C 266.385,77.8064 269.052,77.4731 271.5,76.5 Z"/></g>
<g><path style="opacity:1" fill="#749aca" d="M 248.5,4.5 C 248.667,27.5024 248.5,50.5024 248,73.5C 247.209,74.745 246.709,76.0783 246.5,77.5C 224.012,78.1361 202.346,82.6361 181.5,91C 176.613,93.2742 171.946,95.7742 167.5,98.5C 157.8,102.677 149.133,108.344 141.5,115.5C 139.246,116.415 137.246,117.748 135.5,119.5C 134.833,119.5 134.167,119.5 133.5,119.5C 136.833,116.5 140.167,113.5 143.5,110.5C 158.64,100.263 174.64,91.5963 191.5,84.5C 209.394,78.7767 227.728,75.4434 246.5,74.5C 246.5,73.5 246.5,72.5 246.5,71.5C 247.167,49.1667 247.833,26.8333 248.5,4.5 Z"/></g>
<g><path style="opacity:1" fill="#245480" d="M 263.5,77.5 C 274.025,79.7055 284.692,81.8721 295.5,84C 305.054,86.458 314.054,89.958 322.5,94.5C 322.631,95.3764 322.298,96.0431 321.5,96.5C 319.278,95.2217 316.944,94.2217 314.5,93.5C 313.584,93.5427 312.917,93.8761 312.5,94.5C 294.03,86.539 274.697,82.539 254.5,82.5C 254.269,91.8745 254.769,101.208 256,110.5C 256.19,114.076 257.357,117.242 259.5,120C 284.895,121.406 310.228,121.573 335.5,120.5C 323.185,121.832 310.518,122.499 297.5,122.5C 283.476,122.465 269.476,122.131 255.5,121.5C 254.787,111.35 253.62,101.35 252,91.5C 251.617,90.944 251.117,90.6107 250.5,90.5C 250.234,86.4295 250.567,82.4295 251.5,78.5C 255.445,77.5091 259.445,77.1758 263.5,77.5 Z"/></g>
<g><path style="opacity:1" fill="#7a9bc9" d="M 371.5,63.5 C 372.117,63.6107 372.617,63.944 373,64.5C 373.333,83.5 373.667,102.5 374,121.5C 374.374,122.416 374.874,123.25 375.5,124C 377.058,124.21 378.391,124.71 379.5,125.5C 375.221,124.942 371.054,123.942 367,122.5C 366.691,123.766 366.191,124.933 365.5,126C 364.563,126.692 363.897,126.525 363.5,125.5C 365.047,124.232 366.047,122.565 366.5,120.5C 367.822,120.67 368.989,120.337 370,119.5C 370.18,100.76 370.68,82.0934 371.5,63.5 Z"/></g>
<g><path style="opacity:1" fill="#194f7d" d="M 246.5,77.5 C 246.5,77.8333 246.5,78.1667 246.5,78.5C 246.324,90.2709 245.157,101.938 243,113.5C 242.8,115.32 241.966,116.653 240.5,117.5C 242.75,106.022 243.417,94.5224 242.5,83C 222.018,82.7466 202.351,86.5799 183.5,94.5C 178.846,94.3282 174.846,95.8282 171.5,99C 169.934,99.765 168.601,99.5983 167.5,98.5C 171.946,95.7742 176.613,93.2742 181.5,91C 202.346,82.6361 224.012,78.1361 246.5,77.5 Z"/></g>
<g><path style="opacity:1" fill="#1f5280" d="M 258.5,71.5 C 287.809,73.1036 315.143,81.2703 340.5,96C 349.066,102.081 357.733,107.914 366.5,113.5C 365.5,114.833 364.5,116.167 363.5,117.5C 336.799,95.3604 306.133,81.6937 271.5,76.5C 264.344,75.9861 257.344,75.3195 250.5,74.5C 254.247,74.6076 257.914,74.1076 261.5,73C 260.263,72.7679 259.263,72.2679 258.5,71.5 Z"/></g>
<g><path style="opacity:1" fill="#195082" d="M 191.5,84.5 C 174.64,91.5963 158.64,100.263 143.5,110.5C 141.288,109.6 139.621,110.434 138.5,113C 137.207,113.49 135.873,113.657 134.5,113.5C 145.964,102.925 158.964,94.5915 173.5,88.5C 175.924,88.8076 178.257,88.4742 180.5,87.5C 181.381,86.0295 182.714,85.1962 184.5,85C 186.81,84.5034 189.143,84.3367 191.5,84.5 Z"/></g>
<g><path style="opacity:1" fill="#0d4c7d" d="M 376.5,62.5 C 377.179,80.0687 377.846,97.7353 378.5,115.5C 376.087,116.68 375.087,118.68 375.5,121.5C 393.819,122.216 412.152,123.05 430.5,124C 424.984,124.173 419.651,124.673 414.5,125.5C 402.833,125.5 391.167,125.5 379.5,125.5C 378.391,124.71 377.058,124.21 375.5,124C 374.874,123.25 374.374,122.416 374,121.5C 373.667,102.5 373.333,83.5 373,64.5C 372.617,63.944 372.117,63.6107 371.5,63.5C 369.946,62.1054 370.279,61.4387 372.5,61.5C 373.849,61.8457 375.183,62.179 376.5,62.5 Z"/></g>
<g><path style="opacity:1" fill="#4789c4" d="M 127.5,64.5 C 127.5,84.1667 127.5,103.833 127.5,123.5C 124.782,125.172 122.115,126.839 119.5,128.5C 100.907,127.68 82.24,127.18 63.5,127C 67.2968,125.576 71.2968,125.076 75.5,125.5C 89.1707,125.667 102.837,125.5 116.5,125C 118.764,124.764 120.931,124.264 123,123.5C 124.474,105.26 124.974,86.9268 124.5,68.5C 124.5,67.1667 124.5,65.8333 124.5,64.5C 125.5,64.5 126.5,64.5 127.5,64.5 Z"/></g>
<g><path style="opacity:1" fill="#084d80" d="M 127.5,64.5 C 128.33,74.6585 128.83,84.9919 129,95.5C 129.333,90.1667 129.667,84.8333 130,79.5C 130.5,91.4954 130.667,103.495 130.5,115.5C 131.822,115.33 132.989,115.663 134,116.5C 134.483,115.552 134.649,114.552 134.5,113.5C 135.873,113.657 137.207,113.49 138.5,113C 139.621,110.434 141.288,109.6 143.5,110.5C 140.167,113.5 136.833,116.5 133.5,119.5C 131.809,120.864 130.142,122.197 128.5,123.5C 128.167,123.5 127.833,123.5 127.5,123.5C 127.5,103.833 127.5,84.1667 127.5,64.5 Z"/></g>
<g><path style="opacity:1" fill="#1c507c" d="M 183.5,94.5 C 168.376,101.119 154.376,109.619 141.5,120C 142.901,120.41 144.234,120.91 145.5,121.5C 145.389,122.117 145.056,122.617 144.5,123C 142.527,123.495 140.527,123.662 138.5,123.5C 138.539,120.465 139.539,117.798 141.5,115.5C 149.133,108.344 157.8,102.677 167.5,98.5C 168.601,99.5983 169.934,99.765 171.5,99C 174.846,95.8282 178.846,94.3282 183.5,94.5 Z"/></g>
<g><path style="opacity:1" fill="#245580" d="M 312.5,94.5 C 312.917,93.8761 313.584,93.5427 314.5,93.5C 316.944,94.2217 319.278,95.2217 321.5,96.5C 322.298,96.0431 322.631,95.3764 322.5,94.5C 336.847,100.869 349.847,109.202 361.5,119.5C 356.892,121.038 352.059,121.705 347,121.5C 343.317,121.499 339.817,121.165 336.5,120.5C 342.842,120.666 349.175,120.5 355.5,120C 342.73,108.945 328.396,100.445 312.5,94.5 Z"/></g>
<g><path style="opacity:1" fill="#1b4d79" d="M 376.5,62.5 C 375.183,62.179 373.849,61.8457 372.5,61.5C 370.279,61.4387 369.946,62.1054 371.5,63.5C 370.68,82.0934 370.18,100.76 370,119.5C 368.989,120.337 367.822,120.67 366.5,120.5C 365.306,119.728 364.306,118.728 363.5,117.5C 364.5,116.167 365.5,114.833 366.5,113.5C 366.333,97.1633 366.5,80.8299 367,64.5C 367.748,60.086 370.248,58.586 374.5,60C 375.756,60.4169 376.423,61.2502 376.5,62.5 Z"/></g>
<g><path style="opacity:1" fill="#104f80" d="M 246.5,78.5 C 247.493,86.6499 247.826,94.9832 247.5,103.5C 246.663,108.761 245.496,114.095 244,119.5C 243.4,121.91 242.234,123.91 240.5,125.5C 208.167,125.5 175.833,125.5 143.5,125.5C 140.5,125.5 137.5,125.5 134.5,125.5C 134.325,123.379 134.659,121.379 135.5,119.5C 137.246,117.748 139.246,116.415 141.5,115.5C 139.539,117.798 138.539,120.465 138.5,123.5C 140.527,123.662 142.527,123.495 144.5,123C 145.056,122.617 145.389,122.117 145.5,121.5C 176.507,121.833 207.507,121.5 238.5,120.5C 238.942,119.261 239.609,118.261 240.5,117.5C 241.966,116.653 242.8,115.32 243,113.5C 245.157,101.938 246.324,90.2709 246.5,78.5 Z"/></g>
<g><path style="opacity:1" fill="#104f81" d="M 250.5,90.5 C 251.117,90.6107 251.617,90.944 252,91.5C 253.62,101.35 254.787,111.35 255.5,121.5C 269.476,122.131 283.476,122.465 297.5,122.5C 310.518,122.499 323.185,121.832 335.5,120.5C 335.833,120.5 336.167,120.5 336.5,120.5C 339.817,121.165 343.317,121.499 347,121.5C 352.059,121.705 356.892,121.038 361.5,119.5C 363.213,120.635 363.88,122.302 363.5,124.5C 361.585,124.216 359.919,124.549 358.5,125.5C 353.167,125.5 347.833,125.5 342.5,125.5C 315.167,125.5 287.833,125.5 260.5,125.5C 258.559,125.131 256.725,124.464 255,123.5C 253.548,118.025 252.048,112.692 250.5,107.5C 250.5,101.833 250.5,96.1667 250.5,90.5 Z"/></g>
<g><path style="opacity:1" fill="#064d82" d="M 124.5,68.5 C 124.974,86.9268 124.474,105.26 123,123.5C 120.931,124.264 118.764,124.764 116.5,125C 102.837,125.5 89.1707,125.667 75.5,125.5C 82.3954,125.15 89.0621,124.15 95.5,122.5C 103.889,122.803 112.222,122.47 120.5,121.5C 121.134,103.483 121.967,85.4832 123,67.5C 123.383,68.056 123.883,68.3893 124.5,68.5 Z"/></g>
<g><path style="opacity:1" fill="#26547d" d="M 378.5,115.5 C 378.5,117.167 378.5,118.833 378.5,120.5C 396.476,121.28 414.476,121.78 432.5,122C 438.579,122.354 440.245,125.021 437.5,130C 436.5,130.333 435.5,130.667 434.5,131C 418.833,131.333 403.167,131.667 387.5,132C 386.263,132.232 385.263,132.732 384.5,133.5C 383.375,132.652 383.375,131.652 384.5,130.5C 400.17,130.667 415.837,130.5 431.5,130C 432.942,129.623 433.942,128.79 434.5,127.5C 433.737,126.732 432.737,126.232 431.5,126C 425.843,125.501 420.176,125.334 414.5,125.5C 419.651,124.673 424.984,124.173 430.5,124C 412.152,123.05 393.819,122.216 375.5,121.5C 375.087,118.68 376.087,116.68 378.5,115.5 Z"/></g>
<g><path style="opacity:1" fill="#3296ec" d="M 127.5,123.5 C 127.833,123.5 128.167,123.5 128.5,123.5C 133.723,124.15 134.389,125.983 130.5,129C 130.735,129.873 131.069,130.707 131.5,131.5C 130.051,132.172 128.718,132.839 127.5,133.5C 127.5,133.833 127.5,134.167 127.5,134.5C 127.167,134.5 126.833,134.5 126.5,134.5C 124.469,132.478 122.135,130.811 119.5,129.5C 119.5,129.167 119.5,128.833 119.5,128.5C 122.115,126.839 124.782,125.172 127.5,123.5 Z"/></g>
<g><path style="opacity:1" fill="#6297d0" d="M 143.5,125.5 C 175.833,125.5 208.167,125.5 240.5,125.5C 240.223,127.575 239.89,129.575 239.5,131.5C 237.784,129.975 235.784,128.975 233.5,128.5C 203.574,127.508 173.574,127.175 143.5,127.5C 143.5,126.833 143.5,126.167 143.5,125.5 Z"/></g>
<g><path style="opacity:1" fill="#82b2f9" d="M 266.5,154.5 C 270.082,159.994 273.415,165.661 276.5,171.5C 275.222,171.218 274.222,170.551 273.5,169.5C 273.5,168.833 273.167,168.5 272.5,168.5C 268.675,162.302 264.675,156.302 260.5,150.5C 258.535,147.666 257.868,144.666 258.5,141.5C 257.726,140.289 256.893,140.289 256,141.5C 254.806,138.052 252.973,135.052 250.5,132.5C 249.062,134.998 249.396,137.164 251.5,139C 250.207,139.49 248.873,139.657 247.5,139.5C 247.688,137.897 247.188,136.563 246,135.5C 244.288,137.052 242.455,138.385 240.5,139.5C 242.398,134.857 244.064,130.023 245.5,125C 245.355,124.228 245.022,123.561 244.5,123C 247.395,123.582 249.895,123.415 252,122.5C 254.259,126.284 255.926,130.284 257,134.5C 258.631,138.689 259.464,143.022 259.5,147.5C 260.675,147.281 261.675,147.614 262.5,148.5C 262.866,151.256 264.2,153.256 266.5,154.5 Z"/></g>
<g><path style="opacity:1" fill="#92aee9" d="M 260.5,125.5 C 287.833,125.5 315.167,125.5 342.5,125.5C 342.167,126.167 341.833,126.833 341.5,127.5C 315.5,127.5 289.5,127.5 263.5,127.5C 262.5,126.833 261.5,126.167 260.5,125.5 Z"/></g>
<g><path style="opacity:1" fill="#8eaddf" d="M 379.5,125.5 C 391.167,125.5 402.833,125.5 414.5,125.5C 420.176,125.334 425.843,125.501 431.5,126C 432.737,126.232 433.737,126.732 434.5,127.5C 415.799,127.205 397.133,127.538 378.5,128.5C 377.479,130.523 377.812,132.523 379.5,134.5C 379.44,135.043 379.107,135.376 378.5,135.5C 377.167,134.5 375.833,133.5 374.5,132.5C 373.583,133.127 372.583,133.461 371.5,133.5C 371.784,131.585 371.451,129.919 370.5,128.5C 361.014,127.506 351.348,127.173 341.5,127.5C 341.833,126.833 342.167,126.167 342.5,125.5C 347.833,125.5 353.167,125.5 358.5,125.5C 360.167,125.5 361.833,125.5 363.5,125.5C 363.897,126.525 364.563,126.692 365.5,126C 366.191,124.933 366.691,123.766 367,122.5C 371.054,123.942 375.221,124.942 379.5,125.5 Z"/></g>
<g><path style="opacity:1" fill="#115080" d="M 62.5,122.5 C 73.5,122.5 84.5,122.5 95.5,122.5C 89.0621,124.15 82.3954,125.15 75.5,125.5C 71.2968,125.076 67.2968,125.576 63.5,127C 82.24,127.18 100.907,127.68 119.5,128.5C 119.5,128.833 119.5,129.167 119.5,129.5C 119.657,130.873 119.49,132.207 119,133.5C 109.802,144.517 101.636,156.183 94.5,168.5C 94.6309,167.624 94.2975,166.957 93.5,166.5C 92.3331,168.079 90.9998,169.412 89.5,170.5C 95.7231,157.064 103.723,144.731 113.5,133.5C 112.624,132.749 111.624,132.249 110.5,132C 94.8333,131.667 79.1667,131.333 63.5,131C 58.771,130.004 57.4377,127.337 59.5,123C 60.448,122.517 61.448,122.351 62.5,122.5 Z"/></g>
<g><path style="opacity:1" fill="#0b4f83" d="M 143.5,127.5 C 173.574,127.175 203.574,127.508 233.5,128.5C 203.183,130.328 172.516,131.161 141.5,131C 136.123,134.496 136.79,136.996 143.5,138.5C 143.833,140.5 144.167,142.5 144.5,144.5C 138.499,140.521 134.499,135.188 132.5,128.5C 136.135,127.886 139.802,127.552 143.5,127.5 Z"/></g>
<g><path style="opacity:1" fill="#0a4c7f" d="M 369.5,128.5 C 369.423,129.75 368.756,130.583 367.5,131C 361.984,131.173 356.651,131.673 351.5,132.5C 350.167,132.167 348.833,131.833 347.5,131.5C 319.664,130.833 291.664,130.167 263.5,129.5C 298.827,128.5 334.16,128.167 369.5,128.5 Z"/></g>
<g><path style="opacity:1" fill="#0f4f83" d="M 434.5,127.5 C 433.942,128.79 432.942,129.623 431.5,130C 415.837,130.5 400.17,130.667 384.5,130.5C 381.918,130.975 379.918,130.308 378.5,128.5C 397.133,127.538 415.799,127.205 434.5,127.5 Z"/></g>
<g><path style="opacity:1" fill="#1f527d" d="M 378.5,128.5 C 379.918,130.308 381.918,130.975 384.5,130.5C 383.375,131.652 383.375,132.652 384.5,133.5C 392.388,142.259 399.055,151.926 404.5,162.5C 402.83,162.249 401.33,161.582 400,160.5C 399.601,160.728 399.435,161.062 399.5,161.5C 395.858,156.903 392.692,151.903 390,146.5C 386.635,142.307 383.135,138.307 379.5,134.5C 377.812,132.523 377.479,130.523 378.5,128.5 Z"/></g>
<g><path style="opacity:1" fill="#124e7e" d="M 127.5,133.5 C 140.371,143.698 152.371,155.031 163.5,167.5C 163.491,169.308 163.991,170.975 165,172.5C 169.075,176.07 172.575,180.07 175.5,184.5C 161.173,170.34 146.673,156.34 132,142.5C 131.601,142.728 131.435,143.062 131.5,143.5C 129.777,165.028 129.444,186.695 130.5,208.5C 129.674,213.316 129.174,218.316 129,223.5C 128.627,193.829 128.127,164.162 127.5,134.5C 127.5,134.167 127.5,133.833 127.5,133.5 Z"/></g>
<g><path style="opacity:1" fill="#124f7d" d="M 123.5,136.5 C 123.667,157.503 123.5,178.503 123,199.5C 122.077,201.034 121.577,202.701 121.5,204.5C 121.899,215.947 122.232,227.113 122.5,238C 123.068,241.263 121.734,242.763 118.5,242.5C 114.936,243.423 111.269,243.756 107.5,243.5C 110.974,242.475 114.64,241.808 118.5,241.5C 119.756,241.539 120.756,241.039 121.5,240C 120.504,207.573 120.171,175.073 120.5,142.5C 119.167,142.5 117.833,142.5 116.5,142.5C 116.5,143.5 116.5,144.5 116.5,145.5C 109.653,155.198 103.32,165.198 97.5,175.5C 99.0536,171.698 100.054,167.698 100.5,163.5C 105.703,153.608 112.037,144.441 119.5,136C 121.066,135.235 122.399,135.402 123.5,136.5 Z"/></g>
<g><path style="opacity:1" fill="#84ace9" d="M 247.5,103.5 C 247.81,104.738 248.31,104.738 249,103.5C 249.21,105.058 249.71,106.391 250.5,107.5C 252.048,112.692 253.548,118.025 255,123.5C 256.725,124.464 258.559,125.131 260.5,125.5C 261.5,126.167 262.5,126.833 263.5,127.5C 261.473,127.338 259.473,127.505 257.5,128C 257.043,128.414 256.709,128.914 256.5,129.5C 259.569,137.967 262.903,146.301 266.5,154.5C 264.2,153.256 262.866,151.256 262.5,148.5C 261.675,147.614 260.675,147.281 259.5,147.5C 259.464,143.022 258.631,138.689 257,134.5C 255.926,130.284 254.259,126.284 252,122.5C 249.895,123.415 247.395,123.582 244.5,123C 245.022,123.561 245.355,124.228 245.5,125C 244.064,130.023 242.398,134.857 240.5,139.5C 238.015,143.084 236.349,147.084 235.5,151.5C 234.5,151.5 233.5,151.5 232.5,151.5C 234.886,144.807 237.219,138.14 239.5,131.5C 239.89,129.575 240.223,127.575 240.5,125.5C 242.234,123.91 243.4,121.91 244,119.5C 245.496,114.095 246.663,108.761 247.5,103.5 Z"/></g>
<g><path style="opacity:1" fill="#7eb0fd" d="M 260.5,150.5 C 259.766,151.708 259.433,153.041 259.5,154.5C 257.549,154.773 256.049,154.107 255,152.5C 254.667,152.833 254.333,153.167 254,153.5C 253.691,152.234 253.191,151.067 252.5,150C 250.19,149.503 247.857,149.337 245.5,149.5C 245.649,150.552 245.483,151.552 245,152.5C 244.667,152.167 244.333,151.833 244,151.5C 243.623,152.942 242.79,153.942 241.5,154.5C 239.591,153.297 238.258,151.297 237.5,148.5C 239.371,145.766 240.371,142.766 240.5,139.5C 242.455,138.385 244.288,137.052 246,135.5C 247.188,136.563 247.688,137.897 247.5,139.5C 248.873,139.657 250.207,139.49 251.5,139C 249.396,137.164 249.062,134.998 250.5,132.5C 252.973,135.052 254.806,138.052 256,141.5C 256.893,140.289 257.726,140.289 258.5,141.5C 257.868,144.666 258.535,147.666 260.5,150.5 Z"/></g>
<g><path style="opacity:1" fill="#255686" d="M 263.5,127.5 C 289.5,127.5 315.5,127.5 341.5,127.5C 351.348,127.173 361.014,127.506 370.5,128.5C 370.167,128.5 369.833,128.5 369.5,128.5C 334.16,128.167 298.827,128.5 263.5,129.5C 291.664,130.167 319.664,130.833 347.5,131.5C 319.456,131.175 291.456,131.509 263.5,132.5C 263.167,133 262.833,133.5 262.5,134C 266.668,145.502 272.002,156.336 278.5,166.5C 278.833,169.167 279.167,171.833 279.5,174.5C 278.728,173.306 277.728,172.306 276.5,171.5C 273.415,165.661 270.082,159.994 266.5,154.5C 262.903,146.301 259.569,137.967 256.5,129.5C 256.709,128.914 257.043,128.414 257.5,128C 259.473,127.505 261.473,127.338 263.5,127.5 Z"/></g>
<g><path style="opacity:1" fill="#1d5382" d="M 143.5,138.5 C 161.766,156.266 179.933,174.266 198,192.5C 199.011,191.944 199.844,191.278 200.5,190.5C 202.886,189.627 204.886,188.127 206.5,186C 207.448,185.517 208.448,185.351 209.5,185.5C 207.807,188.184 206.14,190.851 204.5,193.5C 202.203,195.294 200.037,197.294 198,199.5C 197.617,198.944 197.117,198.611 196.5,198.5C 179.476,180.143 162.142,162.143 144.5,144.5C 144.167,142.5 143.833,140.5 143.5,138.5 Z"/></g>
<g><path style="opacity:1" fill="#1d517e" d="M 233.5,128.5 C 235.784,128.975 237.784,129.975 239.5,131.5C 237.219,138.14 234.886,144.807 232.5,151.5C 228.863,157.331 225.363,163.331 222,169.5C 218.055,175.084 213.888,180.417 209.5,185.5C 208.448,185.351 207.448,185.517 206.5,186C 204.886,188.127 202.886,189.627 200.5,190.5C 215.933,173.644 227.266,154.311 234.5,132.5C 202.812,131 171.146,131.167 139.5,133C 140.665,134.992 141.998,136.825 143.5,138.5C 136.79,136.996 136.123,134.496 141.5,131C 172.516,131.161 203.183,130.328 233.5,128.5 Z"/></g>
<g><path style="opacity:1" fill="#064d7d" d="M 377.5,143.5 C 377.5,149.167 377.5,154.833 377.5,160.5C 376.502,184.661 376.169,208.994 376.5,233.5C 375.651,231.112 374.651,228.779 373.5,226.5C 373.5,199.833 373.5,173.167 373.5,146.5C 374.41,144.981 375.243,143.315 376,141.5C 376.717,142.044 377.217,142.711 377.5,143.5 Z"/></g>
<g><path style="opacity:1" fill="#1c527e" d="M 258.5,167.5 C 258.506,170.518 259.506,173.184 261.5,175.5C 261.137,176.183 260.804,176.85 260.5,177.5C 256.19,171.563 252.357,165.23 249,158.5C 243.308,168.57 237.141,178.237 230.5,187.5C 230.343,186.127 230.51,184.793 231,183.5C 235.482,178.501 238.982,172.834 241.5,166.5C 242.466,164.604 242.799,162.604 242.5,160.5C 243.829,158.198 245.162,155.864 246.5,153.5C 247.723,152.386 249.056,152.219 250.5,153C 254.079,157.325 256.746,162.158 258.5,167.5 Z"/></g>
<g><path style="opacity:1" fill="#79acf7" d="M 260.5,150.5 C 264.675,156.302 268.675,162.302 272.5,168.5C 272.225,170.758 271.225,171.092 269.5,169.5C 266.689,161.551 264.689,161.884 263.5,170.5C 262.817,170.863 262.15,171.196 261.5,171.5C 260.488,170.128 259.488,168.795 258.5,167.5C 256.746,162.158 254.079,157.325 250.5,153C 249.056,152.219 247.723,152.386 246.5,153.5C 245.162,155.864 243.829,158.198 242.5,160.5C 241.167,162.5 239.833,164.5 238.5,166.5C 238.5,163.167 238.5,159.833 238.5,156.5C 240.179,156.715 241.179,156.048 241.5,154.5C 242.79,153.942 243.623,152.942 244,151.5C 244.333,151.833 244.667,152.167 245,152.5C 245.483,151.552 245.649,150.552 245.5,149.5C 247.857,149.337 250.19,149.503 252.5,150C 253.191,151.067 253.691,152.234 254,153.5C 254.333,153.167 254.667,152.833 255,152.5C 256.049,154.107 257.549,154.773 259.5,154.5C 259.433,153.041 259.766,151.708 260.5,150.5 Z"/></g>
<g><path style="opacity:1" fill="#63a5f2" d="M 240.5,139.5 C 240.371,142.766 239.371,145.766 237.5,148.5C 238.258,151.297 239.591,153.297 241.5,154.5C 241.179,156.048 240.179,156.715 238.5,156.5C 238.5,159.833 238.5,163.167 238.5,166.5C 233.229,178.053 226.229,188.386 217.5,197.5C 218.92,194.739 219.587,191.739 219.5,188.5C 220.978,188.762 222.311,188.429 223.5,187.5C 223.291,186.914 222.957,186.414 222.5,186C 223.849,185.228 224.682,184.061 225,182.5C 225.667,183.833 226.333,183.833 227,182.5C 227.483,181.552 227.649,180.552 227.5,179.5C 228.5,179.5 229.5,179.5 230.5,179.5C 230.955,176.797 231.622,174.13 232.5,171.5C 232.425,168.883 231.759,166.55 230.5,164.5C 223.843,174.146 216.51,183.146 208.5,191.5C 207.508,191.328 206.842,191.662 206.5,192.5C 205.833,192.833 205.167,193.167 204.5,193.5C 206.14,190.851 207.807,188.184 209.5,185.5C 213.888,180.417 218.055,175.084 222,169.5C 225.363,163.331 228.863,157.331 232.5,151.5C 233.5,151.5 234.5,151.5 235.5,151.5C 236.349,147.084 238.015,143.084 240.5,139.5 Z"/></g>
<g><path style="opacity:1" fill="#3b7ebb" d="M 119.5,129.5 C 122.135,130.811 124.469,132.478 126.5,134.5C 126.275,170.175 126.609,205.842 127.5,241.5C 129.167,241.5 130.833,241.5 132.5,241.5C 129.655,242.344 126.655,243.01 123.5,243.5C 124.81,207.687 124.81,172.02 123.5,136.5C 122.399,135.402 121.066,135.235 119.5,136C 112.037,144.441 105.703,153.608 100.5,163.5C 93.3687,173.774 88.3687,185.107 85.5,197.5C 84.5902,199.019 83.7568,200.685 83,202.5C 81.2045,211.646 79.3712,220.646 77.5,229.5C 77.7947,227.265 77.4614,225.265 76.5,223.5C 77.1495,221.565 77.4828,219.565 77.5,217.5C 81.3782,200.531 87.0449,184.198 94.5,168.5C 101.636,156.183 109.802,144.517 119,133.5C 119.49,132.207 119.657,130.873 119.5,129.5 Z"/></g>
<g><path style="opacity:1" fill="#1b517e" d="M 404.5,162.5 C 411.551,175.6 417.217,189.267 421.5,203.5C 419.798,201.463 417.798,199.797 415.5,198.5C 411.326,185.638 405.993,173.305 399.5,161.5C 399.435,161.062 399.601,160.728 400,160.5C 401.33,161.582 402.83,162.249 404.5,162.5 Z"/></g>
<g><path style="opacity:1" fill="#8aa9d2" d="M 379.5,134.5 C 383.135,138.307 386.635,142.307 390,146.5C 392.692,151.903 395.858,156.903 399.5,161.5C 405.993,173.305 411.326,185.638 415.5,198.5C 420.538,214.06 423.204,230.06 423.5,246.5C 422.5,246.5 421.5,246.5 420.5,246.5C 420.791,240.077 420.458,233.744 419.5,227.5C 414.774,193.898 401.774,164.065 380.5,138C 376.296,135.456 373.963,136.623 373.5,141.5C 372.668,168.664 372.168,195.997 372,223.5C 371.5,193.502 371.333,163.502 371.5,133.5C 372.583,133.461 373.583,133.127 374.5,132.5C 375.833,133.5 377.167,134.5 378.5,135.5C 379.107,135.376 379.44,135.043 379.5,134.5 Z"/></g>
<g><path style="opacity:1" fill="#4a86c0" d="M 133.5,119.5 C 134.167,119.5 134.833,119.5 135.5,119.5C 134.659,121.379 134.325,123.379 134.5,125.5C 137.5,125.5 140.5,125.5 143.5,125.5C 143.5,126.167 143.5,126.833 143.5,127.5C 139.802,127.552 136.135,127.886 132.5,128.5C 134.499,135.188 138.499,140.521 144.5,144.5C 162.142,162.143 179.476,180.143 196.5,198.5C 195.9,199.9 194.9,200.9 193.5,201.5C 192.56,198.286 191.06,195.286 189,192.5C 180.632,183.964 172.132,175.631 163.5,167.5C 152.371,155.031 140.371,143.698 127.5,133.5C 128.718,132.839 130.051,132.172 131.5,131.5C 131.069,130.707 130.735,129.873 130.5,129C 134.389,125.983 133.723,124.15 128.5,123.5C 130.142,122.197 131.809,120.864 133.5,119.5 Z"/></g>
<g><path style="opacity:0.944" fill="#517597" d="M 131.5,143.5 C 131.5,172.833 131.5,202.167 131.5,231.5C 130.508,224.018 130.175,216.352 130.5,208.5C 129.444,186.695 129.777,165.028 131.5,143.5 Z"/></g>
<g><path style="opacity:1" fill="#24547f" d="M 419.5,227.5 C 418.768,226.192 417.934,224.858 417,223.5C 416.89,230.838 416.89,238.172 417,245.5C 404.89,244.783 392.724,244.117 380.5,243.5C 379.006,243.291 377.839,242.624 377,241.5C 376.503,238.854 376.336,236.187 376.5,233.5C 376.169,208.994 376.502,184.661 377.5,160.5C 377.286,187.181 377.786,213.847 379,240.5C 383.339,241.985 387.839,242.818 392.5,243C 400.159,243.5 407.826,243.666 415.5,243.5C 414.814,206.938 403.314,174.271 381,145.5C 380.184,144.177 379.017,143.511 377.5,143.5C 377.217,142.711 376.717,142.044 376,141.5C 375.243,143.315 374.41,144.981 373.5,146.5C 373.5,144.833 373.5,143.167 373.5,141.5C 373.963,136.623 376.296,135.456 380.5,138C 401.774,164.065 414.774,193.898 419.5,227.5 Z"/></g>
<g><path style="opacity:1" fill="#195180" d="M 100.5,163.5 C 100.054,167.698 99.0536,171.698 97.5,175.5C 92.5483,187.692 88.215,200.025 84.5,212.5C 84.6568,207.202 84.9901,202.202 85.5,197.5C 88.3687,185.107 93.3687,173.774 100.5,163.5 Z"/></g>
<g><path style="opacity:1" fill="#78aefb" d="M 273.5,169.5 C 274.222,170.551 275.222,171.218 276.5,171.5C 278.79,178.876 282.79,185.209 288.5,190.5C 286.671,191.282 285.171,190.616 284,188.5C 283.641,191.544 282.974,191.878 282,189.5C 281.586,189.957 281.086,190.291 280.5,190.5C 275.508,186.929 271.341,182.596 268,177.5C 267.118,173.973 267.618,173.307 269.5,175.5C 270.192,174.975 270.692,174.308 271,173.5C 271.833,176 273,176.167 274.5,174C 273.62,172.644 273.286,171.144 273.5,169.5 Z"/></g>
<g><path style="opacity:1" fill="#1c517f" d="M 278.5,166.5 C 287.239,178.658 296.905,189.991 307.5,200.5C 308.494,202.334 308.494,204.001 307.5,205.5C 303.243,202.749 299.41,199.416 296,195.5C 290.286,188.625 284.786,181.625 279.5,174.5C 279.167,171.833 278.833,169.167 278.5,166.5 Z"/></g>
<g><path style="opacity:0.189" fill="#517898" d="M 118.5,241.5 C 119.659,208.905 119.825,176.238 119,143.5C 118.292,144.381 117.458,145.047 116.5,145.5C 116.5,144.5 116.5,143.5 116.5,142.5C 117.833,142.5 119.167,142.5 120.5,142.5C 120.171,175.073 120.504,207.573 121.5,240C 120.756,241.039 119.756,241.539 118.5,241.5 Z"/></g>
<g><path style="opacity:1" fill="#104f83" d="M 163.5,167.5 C 172.132,175.631 180.632,183.964 189,192.5C 191.06,195.286 192.56,198.286 193.5,201.5C 192.866,204.643 191.2,207.143 188.5,209C 184.266,212.082 179.933,214.916 175.5,217.5C 175.615,215.053 176.615,213.053 178.5,211.5C 182.324,208.408 185.991,205.074 189.5,201.5C 185.565,195.232 180.899,189.565 175.5,184.5C 172.575,180.07 169.075,176.07 165,172.5C 163.991,170.975 163.491,169.308 163.5,167.5 Z"/></g>
<g><path style="opacity:1" fill="#49a5fb" d="M 217.5,197.5 C 217.167,198.5 216.5,199.167 215.5,199.5C 215.665,196.482 215.498,193.482 215,190.5C 213.671,191.494 212.338,192.494 211,193.5C 209.989,192.944 209.156,192.278 208.5,191.5C 216.51,183.146 223.843,174.146 230.5,164.5C 231.759,166.55 232.425,168.883 232.5,171.5C 231.622,174.13 230.955,176.797 230.5,179.5C 229.5,179.5 228.5,179.5 227.5,179.5C 227.649,180.552 227.483,181.552 227,182.5C 226.333,183.833 225.667,183.833 225,182.5C 224.682,184.061 223.849,185.228 222.5,186C 222.957,186.414 223.291,186.914 223.5,187.5C 222.311,188.429 220.978,188.762 219.5,188.5C 219.587,191.739 218.92,194.739 217.5,197.5 Z"/></g>
<g><path style="opacity:1" fill="#76acf1" d="M 272.5,168.5 C 273.167,168.5 273.5,168.833 273.5,169.5C 273.286,171.144 273.62,172.644 274.5,174C 273,176.167 271.833,176 271,173.5C 270.692,174.308 270.192,174.975 269.5,175.5C 267.618,173.307 267.118,173.973 268,177.5C 271.341,182.596 275.508,186.929 280.5,190.5C 281.086,190.291 281.586,189.957 282,189.5C 282.974,191.878 283.641,191.544 284,188.5C 285.171,190.616 286.671,191.282 288.5,190.5C 282.79,185.209 278.79,178.876 276.5,171.5C 277.728,172.306 278.728,173.306 279.5,174.5C 284.786,181.625 290.286,188.625 296,195.5C 299.41,199.416 303.243,202.749 307.5,205.5C 307.414,206.496 307.748,207.329 308.5,208C 313.269,211.04 317.603,214.54 321.5,218.5C 317.507,216.894 313.84,214.727 310.5,212C 309.207,211.51 307.873,211.343 306.5,211.5C 305.722,207.249 303.056,205.083 298.5,205C 297.257,203.846 296.257,202.512 295.5,201C 291.793,200.064 288.626,198.231 286,195.5C 285.365,196.966 284.531,198.3 283.5,199.5C 284.689,200.429 286.022,200.762 287.5,200.5C 287.5,201.833 287.5,203.167 287.5,204.5C 290.541,205.199 292.208,207.199 292.5,210.5C 291.833,210.167 291.167,209.833 290.5,209.5C 279.299,197.971 269.633,185.304 261.5,171.5C 262.15,171.196 262.817,170.863 263.5,170.5C 264.689,161.884 266.689,161.551 269.5,169.5C 271.225,171.092 272.225,170.758 272.5,168.5 Z"/></g>
<g><path style="opacity:1" fill="#134f81" d="M 94.5,168.5 C 87.0449,184.198 81.3782,200.531 77.5,217.5C 76.8999,218.9 75.8999,219.9 74.5,220.5C 75.3439,216.901 75.6773,213.234 75.5,209.5C 78.6016,195.856 83.2683,182.856 89.5,170.5C 90.9998,169.412 92.3331,168.079 93.5,166.5C 94.2975,166.957 94.6309,167.624 94.5,168.5 Z"/></g>
<g><path style="opacity:1" fill="#0a538a" d="M 126.5,134.5 C 126.833,134.5 127.167,134.5 127.5,134.5C 128.127,164.162 128.627,193.829 129,223.5C 129.174,218.316 129.674,213.316 130.5,208.5C 130.175,216.352 130.508,224.018 131.5,231.5C 131.366,233.292 131.699,234.958 132.5,236.5C 131.115,237.302 131.282,237.969 133,238.5C 137.75,236.85 142.583,235.517 147.5,234.5C 147.5,234.833 147.5,235.167 147.5,235.5C 142.336,237.11 137.336,239.11 132.5,241.5C 130.833,241.5 129.167,241.5 127.5,241.5C 126.609,205.842 126.275,170.175 126.5,134.5 Z"/></g>
<g><path style="opacity:1" fill="#74adf9" d="M 321.5,218.5 C 321.833,218.5 322.167,218.5 322.5,218.5C 323.171,219.847 323.171,221.014 322.5,222C 326.12,222.672 328.786,224.506 330.5,227.5C 329.175,228.953 328.342,228.619 328,226.5C 327.667,227.167 327.333,227.833 327,228.5C 326.51,227.207 326.343,225.873 326.5,224.5C 323.956,224.104 321.789,224.771 320,226.5C 318.274,225.424 316.441,225.257 314.5,226C 315.748,227.4 316.748,228.9 317.5,230.5C 308.007,225.346 299.674,218.68 292.5,210.5C 292.208,207.199 290.541,205.199 287.5,204.5C 287.5,203.167 287.5,201.833 287.5,200.5C 286.022,200.762 284.689,200.429 283.5,199.5C 284.531,198.3 285.365,196.966 286,195.5C 288.626,198.231 291.793,200.064 295.5,201C 296.257,202.512 297.257,203.846 298.5,205C 303.056,205.083 305.722,207.249 306.5,211.5C 307.873,211.343 309.207,211.51 310.5,212C 313.84,214.727 317.507,216.894 321.5,218.5 Z"/></g>
<g><path style="opacity:1" fill="#0b528a" d="M 123.5,136.5 C 124.81,172.02 124.81,207.687 123.5,243.5C 120.296,244.901 116.963,245.901 113.5,246.5C 110.482,246.704 107.482,247.037 104.5,247.5C 104.611,246.883 104.944,246.383 105.5,246C 109.373,245.73 113.206,245.23 117,244.5C 118.03,244.164 118.53,243.497 118.5,242.5C 121.734,242.763 123.068,241.263 122.5,238C 122.232,227.113 121.899,215.947 121.5,204.5C 121.577,202.701 122.077,201.034 123,199.5C 123.5,178.503 123.667,157.503 123.5,136.5 Z"/></g>
<g><path style="opacity:1" fill="#3196e8" d="M 206.5,192.5 C 206.721,193.735 207.388,194.735 208.5,195.5C 206.78,196.92 204.946,198.253 203,199.5C 202.517,200.448 202.351,201.448 202.5,202.5C 200.876,202.64 199.71,201.973 199,200.5C 198.86,203.281 197.694,205.447 195.5,207C 195.957,207.414 196.291,207.914 196.5,208.5C 195.398,209.176 194.398,209.842 193.5,210.5C 192.883,210.389 192.383,210.056 192,209.5C 184.773,212.91 178.607,217.576 173.5,223.5C 170.167,224.5 166.833,225.5 163.5,226.5C 167.858,223.987 171.858,220.987 175.5,217.5C 179.933,214.916 184.266,212.082 188.5,209C 191.2,207.143 192.866,204.643 193.5,201.5C 194.9,200.9 195.9,199.9 196.5,198.5C 197.117,198.611 197.617,198.944 198,199.5C 200.037,197.294 202.203,195.294 204.5,193.5C 205.167,193.167 205.833,192.833 206.5,192.5 Z"/></g>
<g><path style="opacity:1" fill="#1a507f" d="M 258.5,167.5 C 259.488,168.795 260.488,170.128 261.5,171.5C 269.633,185.304 279.299,197.971 290.5,209.5C 290.902,212.752 292.235,215.419 294.5,217.5C 293.761,217.631 293.094,217.464 292.5,217C 279.779,205.329 269.112,192.162 260.5,177.5C 260.804,176.85 261.137,176.183 261.5,175.5C 259.506,173.184 258.506,170.518 258.5,167.5 Z"/></g>
<g><path style="opacity:1" fill="#21547f" d="M 307.5,200.5 C 320.298,212.73 334.632,222.73 350.5,230.5C 346.326,229.651 342.326,228.318 338.5,226.5C 337.584,226.543 336.917,226.876 336.5,227.5C 331.494,224.999 326.827,221.999 322.5,218.5C 322.167,218.5 321.833,218.5 321.5,218.5C 317.603,214.54 313.269,211.04 308.5,208C 307.748,207.329 307.414,206.496 307.5,205.5C 308.494,204.001 308.494,202.334 307.5,200.5 Z"/></g>
<g><path style="opacity:1" fill="#219bf6" d="M 215.5,199.5 C 208.21,208.634 199.877,216.634 190.5,223.5C 190.5,222.167 190.5,220.833 190.5,219.5C 194.945,219.137 197.279,216.803 197.5,212.5C 195.62,212.771 194.287,212.104 193.5,210.5C 194.398,209.842 195.398,209.176 196.5,208.5C 196.291,207.914 195.957,207.414 195.5,207C 197.694,205.447 198.86,203.281 199,200.5C 199.71,201.973 200.876,202.64 202.5,202.5C 202.351,201.448 202.517,200.448 203,199.5C 204.946,198.253 206.78,196.92 208.5,195.5C 207.388,194.735 206.721,193.735 206.5,192.5C 206.842,191.662 207.508,191.328 208.5,191.5C 209.156,192.278 209.989,192.944 211,193.5C 212.338,192.494 213.671,191.494 215,190.5C 215.498,193.482 215.665,196.482 215.5,199.5 Z"/></g>
<g><path style="opacity:0.762" fill="#2a567c" d="M 369.5,128.5 C 369.833,128.5 370.167,128.5 370.5,128.5C 370.832,164.337 370.498,200.004 369.5,235.5C 369.833,201.493 369.5,167.493 368.5,133.5C 367.667,167.828 367.167,202.162 367,236.5C 364.628,239.152 363.461,239.152 363.5,236.5C 364.931,236.119 365.764,235.119 366,233.5C 366.614,199.829 366.447,166.162 365.5,132.5C 360.833,132.5 356.167,132.5 351.5,132.5C 356.651,131.673 361.984,131.173 367.5,131C 368.756,130.583 369.423,129.75 369.5,128.5 Z"/></g>
<g><path style="opacity:1" fill="#0b97fb" d="M 193.5,210.5 C 194.287,212.104 195.62,212.771 197.5,212.5C 197.279,216.803 194.945,219.137 190.5,219.5C 190.5,220.833 190.5,222.167 190.5,223.5C 186.975,225.854 183.141,227.521 179,228.5C 175.841,227.255 176.007,226.088 179.5,225C 177.655,223.872 175.655,223.372 173.5,223.5C 178.607,217.576 184.773,212.91 192,209.5C 192.383,210.056 192.883,210.389 193.5,210.5 Z"/></g>
<g><path style="opacity:1" fill="#195181" d="M 242.5,160.5 C 242.799,162.604 242.466,164.604 241.5,166.5C 238.982,172.834 235.482,178.501 231,183.5C 230.51,184.793 230.343,186.127 230.5,187.5C 221.499,201.341 210.499,213.508 197.5,224C 185.156,233.836 172.156,242.669 158.5,250.5C 169.631,256.232 180.297,262.732 190.5,270C 195.95,274.049 200.95,278.549 205.5,283.5C 202.659,281.939 199.992,280.105 197.5,278C 195.975,276.991 194.308,276.491 192.5,276.5C 184.364,271 176.03,266 167.5,261.5C 162.796,258.472 157.796,255.805 152.5,253.5C 150.681,252.064 150.348,250.397 151.5,248.5C 156.729,245.726 161.729,242.726 166.5,239.5C 175.196,235.156 183.196,229.823 190.5,223.5C 199.877,216.634 208.21,208.634 215.5,199.5C 216.5,199.167 217.167,198.5 217.5,197.5C 226.229,188.386 233.229,178.053 238.5,166.5C 239.833,164.5 241.167,162.5 242.5,160.5 Z"/></g>
<g><path style="opacity:1" fill="#1d5382" d="M 178.5,211.5 C 176.615,213.053 175.615,215.053 175.5,217.5C 171.858,220.987 167.858,223.987 163.5,226.5C 158.341,229.694 153.008,232.361 147.5,234.5C 142.583,235.517 137.75,236.85 133,238.5C 131.282,237.969 131.115,237.302 132.5,236.5C 148.825,229.807 164.158,221.474 178.5,211.5 Z"/></g>
<g><path style="opacity:1" fill="#124d7e" d="M 369.5,235.5 C 369.747,237.858 369.081,239.858 367.5,241.5C 362.536,240.624 357.87,238.957 353.5,236.5C 347.675,233.755 342.008,230.755 336.5,227.5C 336.917,226.876 337.584,226.543 338.5,226.5C 342.326,228.318 346.326,229.651 350.5,230.5C 355.081,232.13 359.414,234.13 363.5,236.5C 363.461,239.152 364.628,239.152 367,236.5C 367.167,202.162 367.667,167.828 368.5,133.5C 369.5,167.493 369.833,201.493 369.5,235.5 Z"/></g>
<g><path style="opacity:1" fill="#7aaef9" d="M 330.5,227.5 C 332.502,228.907 334.502,230.407 336.5,232C 339.525,232.133 342.192,233.133 344.5,235C 342.649,236.674 340.982,237.841 339.5,238.5C 343.887,241.93 343.22,243.264 337.5,242.5C 330.042,239.685 323.375,235.685 317.5,230.5C 316.748,228.9 315.748,227.4 314.5,226C 316.441,225.257 318.274,225.424 320,226.5C 321.789,224.771 323.956,224.104 326.5,224.5C 326.343,225.873 326.51,227.207 327,228.5C 327.333,227.833 327.667,227.167 328,226.5C 328.342,228.619 329.175,228.953 330.5,227.5 Z"/></g>
<g><path style="opacity:1" fill="#0f8df4" d="M 166.5,239.5 C 161.729,242.726 156.729,245.726 151.5,248.5C 150.348,250.397 150.681,252.064 152.5,253.5C 151.504,253.586 150.671,253.252 150,252.5C 148.287,247.801 149.787,245.468 154.5,245.5C 154.5,244.5 154.5,243.5 154.5,242.5C 155.833,242.5 157.167,242.5 158.5,242.5C 158.48,240.857 159.147,239.524 160.5,238.5C 160.167,237.833 159.833,237.167 159.5,236.5C 160.5,235.167 161.5,233.833 162.5,232.5C 162.167,232.167 161.833,231.833 161.5,231.5C 157.656,233.226 153.656,234.559 149.5,235.5C 150.429,234.685 151.429,233.852 152.5,233C 157.508,231.603 162.342,229.77 167,227.5C 169.727,228.674 171.893,230.508 173.5,233C 171.093,235.183 168.76,237.35 166.5,239.5 Z"/></g>
<g><path style="opacity:1" fill="#178ceb" d="M 173.5,223.5 C 175.655,223.372 177.655,223.872 179.5,225C 176.007,226.088 175.841,227.255 179,228.5C 183.141,227.521 186.975,225.854 190.5,223.5C 183.196,229.823 175.196,235.156 166.5,239.5C 168.76,237.35 171.093,235.183 173.5,233C 171.893,230.508 169.727,228.674 167,227.5C 162.342,229.77 157.508,231.603 152.5,233C 151.429,233.852 150.429,234.685 149.5,235.5C 148.833,235.5 148.167,235.5 147.5,235.5C 147.5,235.167 147.5,234.833 147.5,234.5C 153.008,232.361 158.341,229.694 163.5,226.5C 166.833,225.5 170.167,224.5 173.5,223.5 Z"/></g>
<g><path style="opacity:1" fill="#184f80" d="M 415.5,198.5 C 417.798,199.797 419.798,201.463 421.5,203.5C 422.969,208.38 423.969,213.38 424.5,218.5C 424.958,226.831 425.458,235.165 426,243.5C 426.374,244.416 426.874,245.25 427.5,246C 431.184,246.46 435.184,246.96 439.5,247.5C 456.822,246.621 474.155,246.288 491.5,246.5C 492.952,247.302 494.618,247.802 496.5,248C 497.883,249.461 497.549,250.294 495.5,250.5C 493.031,249.683 490.365,249.183 487.5,249C 466.5,248.667 445.5,248.333 424.5,248C 423.944,247.617 423.611,247.117 423.5,246.5C 423.204,230.06 420.538,214.06 415.5,198.5 Z"/></g>
<g><path style="opacity:1" fill="#1f5384" d="M 419.5,227.5 C 420.458,233.744 420.791,240.077 420.5,246.5C 419.448,248.256 417.781,248.923 415.5,248.5C 401.594,249.353 387.927,248.019 374.5,244.5C 374.737,243.209 374.404,242.209 373.5,241.5C 373.5,236.5 373.5,231.5 373.5,226.5C 374.651,228.779 375.651,231.112 376.5,233.5C 376.336,236.187 376.503,238.854 377,241.5C 377.839,242.624 379.006,243.291 380.5,243.5C 392.724,244.117 404.89,244.783 417,245.5C 416.89,238.172 416.89,230.838 417,223.5C 417.934,224.858 418.768,226.192 419.5,227.5 Z"/></g>
<g><path style="opacity:1" fill="#7baff5" d="M 322.5,218.5 C 326.827,221.999 331.494,224.999 336.5,227.5C 342.008,230.755 347.675,233.755 353.5,236.5C 353.461,237.583 353.127,238.583 352.5,239.5C 352.957,240.298 353.624,240.631 354.5,240.5C 353.393,242.969 351.393,243.969 348.5,243.5C 348.567,244.959 348.234,246.292 347.5,247.5C 343.849,246.341 340.515,244.674 337.5,242.5C 343.22,243.264 343.887,241.93 339.5,238.5C 340.982,237.841 342.649,236.674 344.5,235C 342.192,233.133 339.525,232.133 336.5,232C 334.502,230.407 332.502,228.907 330.5,227.5C 328.786,224.506 326.12,222.672 322.5,222C 323.171,221.014 323.171,219.847 322.5,218.5 Z"/></g>
<g><path style="opacity:1" fill="#7b9bc6" d="M 370.5,128.5 C 371.451,129.919 371.784,131.585 371.5,133.5C 371.333,163.502 371.5,193.502 372,223.5C 372.168,195.997 372.668,168.664 373.5,141.5C 373.5,143.167 373.5,144.833 373.5,146.5C 373.5,173.167 373.5,199.833 373.5,226.5C 373.5,231.5 373.5,236.5 373.5,241.5C 371.5,241.5 369.5,241.5 367.5,241.5C 369.081,239.858 369.747,237.858 369.5,235.5C 370.498,200.004 370.832,164.337 370.5,128.5 Z"/></g>
<g><path style="opacity:1" fill="#1287f3" d="M 152.5,253.5 C 157.796,255.805 162.796,258.472 167.5,261.5C 164.266,261.071 161.266,260.071 158.5,258.5C 157.448,258.649 156.448,258.483 155.5,258C 155.833,257.667 156.167,257.333 156.5,257C 152.735,253.683 149.069,253.849 145.5,257.5C 145.167,256.833 144.833,256.167 144.5,255.5C 146.062,252.408 147.395,249.241 148.5,246C 145.233,245.271 142.4,243.771 140,241.5C 132.15,242.632 124.65,244.632 117.5,247.5C 115.5,247.833 113.5,248.167 111.5,248.5C 112.167,247.833 112.833,247.167 113.5,246.5C 116.963,245.901 120.296,244.901 123.5,243.5C 126.655,243.01 129.655,242.344 132.5,241.5C 137.336,239.11 142.336,237.11 147.5,235.5C 148.167,235.5 148.833,235.5 149.5,235.5C 153.656,234.559 157.656,233.226 161.5,231.5C 161.833,231.833 162.167,232.167 162.5,232.5C 161.5,233.833 160.5,235.167 159.5,236.5C 159.833,237.167 160.167,237.833 160.5,238.5C 159.147,239.524 158.48,240.857 158.5,242.5C 157.167,242.5 155.833,242.5 154.5,242.5C 154.5,243.5 154.5,244.5 154.5,245.5C 149.787,245.468 148.287,247.801 150,252.5C 150.671,253.252 151.504,253.586 152.5,253.5 Z"/></g>
<g><path style="opacity:1" fill="#81b1fc" d="M 354.5,240.5 C 355.64,241.801 356.973,242.968 358.5,244C 363.557,244.042 368.557,244.208 373.5,244.5C 374.521,248.023 376.855,249.856 380.5,250C 378.3,252.046 375.633,253.046 372.5,253C 371.62,254.356 371.286,255.856 371.5,257.5C 364.577,257.522 358.077,259.189 352,262.5C 349.759,262.32 349.259,261.487 350.5,260C 353.488,259.571 356.155,258.405 358.5,256.5C 354.428,256.075 350.761,254.742 347.5,252.5C 348.833,250.833 348.833,249.167 347.5,247.5C 348.234,246.292 348.567,244.959 348.5,243.5C 351.393,243.969 353.393,242.969 354.5,240.5 Z"/></g>
<g><path style="opacity:1" fill="#0a85fc" d="M 158.5,258.5 C 158.762,261.871 159.095,265.205 159.5,268.5C 156.562,267.372 153.562,266.205 150.5,265C 149.663,263.989 149.33,262.822 149.5,261.5C 146.167,261.5 142.833,261.5 139.5,261.5C 139.762,260.022 139.429,258.689 138.5,257.5C 135.365,258.783 132.365,258.783 129.5,257.5C 133.689,257.572 137.689,256.739 141.5,255C 142.167,254 142.833,253 143.5,252C 138.488,251.129 133.488,250.296 128.5,249.5C 127.108,250.605 125.941,251.939 125,253.5C 124.009,252.061 122.676,251.061 121,250.5C 120.383,249.551 120.549,248.718 121.5,248C 120.207,247.51 118.873,247.343 117.5,247.5C 124.65,244.632 132.15,242.632 140,241.5C 142.4,243.771 145.233,245.271 148.5,246C 147.395,249.241 146.062,252.408 144.5,255.5C 144.833,256.167 145.167,256.833 145.5,257.5C 149.069,253.849 152.735,253.683 156.5,257C 156.167,257.333 155.833,257.667 155.5,258C 156.448,258.483 157.448,258.649 158.5,258.5 Z"/></g>
<g><path style="opacity:1" fill="#1d4f79" d="M 75.5,209.5 C 75.6773,213.234 75.3439,216.901 74.5,220.5C 74.309,228.84 73.9756,237.174 73.5,245.5C 48.8199,246.1 24.1533,246.767 -0.5,247.5C -0.5,246.833 -0.5,246.167 -0.5,245.5C 22.8166,244.921 46.15,244.087 69.5,243C 70.7415,231.606 72.7415,220.439 75.5,209.5 Z"/></g>
<g><path style="opacity:1" fill="#2b587d" d="M 84.5,213.5 C 83.2377,223.791 82.571,234.124 82.5,244.5C 90.8124,243.76 99.1457,243.427 107.5,243.5C 99.7334,244.399 91.9,245.732 84,247.5C 83.228,247.355 82.5613,247.022 82,246.5C 81.3333,238.833 81.3333,231.167 82,223.5C 81.9165,219.689 82.7499,216.355 84.5,213.5 Z"/></g>
<g><path style="opacity:1" fill="#0b4c82" d="M 85.5,197.5 C 84.9901,202.202 84.6568,207.202 84.5,212.5C 84.5,212.833 84.5,213.167 84.5,213.5C 82.7499,216.355 81.9165,219.689 82,223.5C 81.3333,231.167 81.3333,238.833 82,246.5C 82.5613,247.022 83.228,247.355 84,247.5C 91.9,245.732 99.7334,244.399 107.5,243.5C 111.269,243.756 114.936,243.423 118.5,242.5C 118.53,243.497 118.03,244.164 117,244.5C 113.206,245.23 109.373,245.73 105.5,246C 104.944,246.383 104.611,246.883 104.5,247.5C 95.5182,248.218 86.5182,248.552 77.5,248.5C 77.5,242.167 77.5,235.833 77.5,229.5C 79.3712,220.646 81.2045,211.646 83,202.5C 83.7568,200.685 84.5902,199.019 85.5,197.5 Z"/></g>
<g><path style="opacity:1" fill="#0b4d87" d="M 77.5,217.5 C 77.4828,219.565 77.1495,221.565 76.5,223.5C 75.9096,231.184 75.0762,238.851 74,246.5C 70.3797,248.183 66.5463,248.85 62.5,248.5C 42.015,248.013 21.6817,248.513 1.5,250C 23.7886,251.446 46.1219,251.946 68.5,251.5C 70.5,251.5 72.5,251.5 74.5,251.5C 74.8672,268.148 77.2005,284.481 81.5,300.5C 78.6117,296.351 76.2784,292.018 74.5,287.5C 74.5,287.167 74.5,286.833 74.5,286.5C 73.1624,276.452 72.4957,265.119 72.5,252.5C 48.1667,252.5 23.8333,252.5 -0.5,252.5C -0.5,250.833 -0.5,249.167 -0.5,247.5C 24.1533,246.767 48.8199,246.1 73.5,245.5C 73.9756,237.174 74.309,228.84 74.5,220.5C 75.8999,219.9 76.8999,218.9 77.5,217.5 Z"/></g>
<g><path style="opacity:1" fill="#215179" d="M 424.5,218.5 C 426.155,226.857 427.488,235.357 428.5,244C 452.186,244.217 475.853,244.717 499.5,245.5C 499.5,245.833 499.5,246.167 499.5,246.5C 496.833,246.5 494.167,246.5 491.5,246.5C 474.155,246.288 456.822,246.621 439.5,247.5C 435.184,246.96 431.184,246.46 427.5,246C 426.874,245.25 426.374,244.416 426,243.5C 425.458,235.165 424.958,226.831 424.5,218.5 Z"/></g>
<g><path style="opacity:1" fill="#8db2ed" d="M 353.5,236.5 C 357.87,238.957 362.536,240.624 367.5,241.5C 369.5,241.5 371.5,241.5 373.5,241.5C 374.404,242.209 374.737,243.209 374.5,244.5C 387.927,248.019 401.594,249.353 415.5,248.5C 410.41,250.144 405.077,251.144 399.5,251.5C 399.167,251.5 398.833,251.5 398.5,251.5C 392.118,251.897 385.785,252.73 379.5,254C 376.975,254.424 374.975,255.59 373.5,257.5C 372.833,257.5 372.167,257.5 371.5,257.5C 371.286,255.856 371.62,254.356 372.5,253C 375.633,253.046 378.3,252.046 380.5,250C 376.855,249.856 374.521,248.023 373.5,244.5C 368.557,244.208 363.557,244.042 358.5,244C 356.973,242.968 355.64,241.801 354.5,240.5C 353.624,240.631 352.957,240.298 352.5,239.5C 353.127,238.583 353.461,237.583 353.5,236.5 Z"/></g>
<g><path style="opacity:1" fill="#3768b5" d="M 62.5,248.5 C 64.3713,249.797 66.3713,250.797 68.5,251.5C 46.1219,251.946 23.7886,251.446 1.5,250C 21.6817,248.513 42.015,248.013 62.5,248.5 Z"/></g>
<g><path style="opacity:1" fill="#2f6fc4" d="M 76.5,223.5 C 77.4614,225.265 77.7947,227.265 77.5,229.5C 77.5,235.833 77.5,242.167 77.5,248.5C 86.5182,248.552 95.5182,248.218 104.5,247.5C 107.482,247.037 110.482,246.704 113.5,246.5C 112.833,247.167 112.167,247.833 111.5,248.5C 111.5,249.833 111.5,251.167 111.5,252.5C 100.181,251.778 88.8479,251.445 77.5,251.5C 76.5,251.5 75.5,251.5 74.5,251.5C 72.5,251.5 70.5,251.5 68.5,251.5C 66.3713,250.797 64.3713,249.797 62.5,248.5C 66.5463,248.85 70.3797,248.183 74,246.5C 75.0762,238.851 75.9096,231.184 76.5,223.5 Z"/></g>
<g><path style="opacity:1" fill="#7c9bd0" d="M 420.5,246.5 C 421.5,246.5 422.5,246.5 423.5,246.5C 423.611,247.117 423.944,247.617 424.5,248C 445.5,248.333 466.5,248.667 487.5,249C 490.365,249.183 493.031,249.683 495.5,250.5C 471.675,251.083 448.009,251.749 424.5,252.5C 423.549,253.919 423.216,255.585 423.5,257.5C 421.776,284.385 414.443,309.719 401.5,333.5C 400.833,333.5 400.5,333.167 400.5,332.5C 405.146,323.895 408.813,314.895 411.5,305.5C 416.647,290.572 419.647,275.072 420.5,259C 420.167,256.833 419.833,254.667 419.5,252.5C 412.892,251.538 406.226,251.205 399.5,251.5C 405.077,251.144 410.41,250.144 415.5,248.5C 417.781,248.923 419.448,248.256 420.5,246.5 Z"/></g>
<g><path style="opacity:1" fill="#114c7a" d="M 491.5,246.5 C 494.167,246.5 496.833,246.5 499.5,246.5C 499.5,248.833 499.5,251.167 499.5,253.5C 487.884,254.458 476.217,254.791 464.5,254.5C 450.791,255.148 437.458,254.481 424.5,252.5C 448.009,251.749 471.675,251.083 495.5,250.5C 497.549,250.294 497.883,249.461 496.5,248C 494.618,247.802 492.952,247.302 491.5,246.5 Z"/></g>
<g><path style="opacity:1" fill="#1e517d" d="M -0.5,252.5 C 23.8333,252.5 48.1667,252.5 72.5,252.5C 72.4957,265.119 73.1624,276.452 74.5,286.5C 72.189,276.429 70.8557,266.096 70.5,255.5C 46.8337,255.148 23.167,254.815 -0.5,254.5C -0.5,253.833 -0.5,253.167 -0.5,252.5 Z"/></g>
<g><path style="opacity:1" fill="#164f81" d="M 290.5,209.5 C 291.167,209.833 291.833,210.167 292.5,210.5C 299.674,218.68 308.007,225.346 317.5,230.5C 323.375,235.685 330.042,239.685 337.5,242.5C 340.515,244.674 343.849,246.341 347.5,247.5C 348.833,249.167 348.833,250.833 347.5,252.5C 337.132,256.518 327.465,261.852 318.5,268.5C 318.102,264.241 320.102,262.408 324.5,263C 328.31,259.798 331.977,256.631 335.5,253.5C 337.1,252.356 338.767,251.189 340.5,250C 331.335,244.919 322.335,239.585 313.5,234C 306.678,229.008 300.345,223.508 294.5,217.5C 292.235,215.419 290.902,212.752 290.5,209.5 Z"/></g>
<g><path style="opacity:1" fill="#0d80fa" d="M 117.5,247.5 C 118.873,247.343 120.207,247.51 121.5,248C 120.549,248.718 120.383,249.551 121,250.5C 122.676,251.061 124.009,252.061 125,253.5C 125.941,251.939 127.108,250.605 128.5,249.5C 133.488,250.296 138.488,251.129 143.5,252C 142.833,253 142.167,254 141.5,255C 137.689,256.739 133.689,257.572 129.5,257.5C 126.654,257.41 124.321,256.244 122.5,254C 120.19,253.503 117.857,253.337 115.5,253.5C 113.901,253.768 112.568,253.434 111.5,252.5C 111.5,251.167 111.5,249.833 111.5,248.5C 113.5,248.167 115.5,247.833 117.5,247.5 Z"/></g>
<g><path style="opacity:1" fill="#2a5782" d="M 398.5,251.5 C 398.804,252.15 399.137,252.817 399.5,253.5C 404.985,254.167 410.319,254.833 415.5,255.5C 403.356,255.04 391.356,256.04 379.5,258.5C 378.669,264.807 378.169,271.141 378,277.5C 377.5,299.831 377.333,322.164 377.5,344.5C 377.167,344.5 376.833,344.5 376.5,344.5C 376.833,317.492 376.5,290.492 375.5,263.5C 374.833,267.647 374.166,271.647 373.5,275.5C 373.5,269.5 373.5,263.5 373.5,257.5C 374.975,255.59 376.975,254.424 379.5,254C 385.785,252.73 392.118,251.897 398.5,251.5 Z"/></g>
<g><path style="opacity:1" fill="#2a597f" d="M 424.5,252.5 C 437.458,254.481 450.791,255.148 464.5,254.5C 452.431,255.176 440.265,255.842 428,256.5C 427.19,276.065 423.024,294.732 415.5,312.5C 417.243,304.706 419.409,297.04 422,289.5C 422.13,285.049 422.796,280.716 424,276.5C 424.234,270.167 424.068,263.834 423.5,257.5C 423.216,255.585 423.549,253.919 424.5,252.5 Z"/></g>
<g><path style="opacity:1" fill="#6ba8ee" d="M 347.5,252.5 C 350.761,254.742 354.428,256.075 358.5,256.5C 356.155,258.405 353.488,259.571 350.5,260C 349.259,261.487 349.759,262.32 352,262.5C 358.077,259.189 364.577,257.522 371.5,257.5C 371.672,258.492 371.338,259.158 370.5,259.5C 364.301,258.895 358.634,260.562 353.5,264.5C 343.268,267.948 333.934,272.948 325.5,279.5C 319.833,283.5 314.167,287.5 308.5,291.5C 308.721,289.336 309.721,287.67 311.5,286.5C 314.087,283.528 317.42,281.528 321.5,280.5C 322.95,279.15 323.617,277.484 323.5,275.5C 326.481,275.818 328.815,274.818 330.5,272.5C 337.072,271.865 337.739,270.032 332.5,267C 333.546,265.461 334.879,265.295 336.5,266.5C 338.055,266.278 339.389,265.611 340.5,264.5C 342.326,266.781 344.326,266.781 346.5,264.5C 347.134,262.433 348.134,260.6 349.5,259C 347.981,256.073 345.647,255.073 342.5,256C 336.43,259.15 331.097,262.317 326.5,265.5C 321.702,268.401 316.702,271.067 311.5,273.5C 313.531,271.478 315.865,269.811 318.5,268.5C 327.465,261.852 337.132,256.518 347.5,252.5 Z"/></g>
<g><path style="opacity:1" fill="#1584e9" d="M 158.5,258.5 C 161.266,260.071 164.266,261.071 167.5,261.5C 176.03,266 184.364,271 192.5,276.5C 195.973,280.395 199.64,284.061 203.5,287.5C 199.915,284.98 196.249,282.646 192.5,280.5C 191.934,278.922 190.934,277.588 189.5,276.5C 183.12,272.317 176.787,268.15 170.5,264C 167.862,261.892 165.528,262.059 163.5,264.5C 166.028,265.816 166.028,266.983 163.5,268C 164.167,268.333 164.833,268.667 165.5,269C 164.359,269.741 164.359,270.575 165.5,271.5C 166.274,272.711 167.107,272.711 168,271.5C 171.44,275.777 175.607,279.11 180.5,281.5C 181.95,282.85 182.617,284.516 182.5,286.5C 175.558,281.686 168.558,276.853 161.5,272C 153.954,268.725 146.621,265.225 139.5,261.5C 142.833,261.5 146.167,261.5 149.5,261.5C 149.33,262.822 149.663,263.989 150.5,265C 153.562,266.205 156.562,267.372 159.5,268.5C 159.095,265.205 158.762,261.871 158.5,258.5 Z"/></g>
<g><path style="opacity:1" fill="#66abfc" d="M 330.5,272.5 C 330.286,270.856 330.62,269.356 331.5,268C 329.256,267.95 327.589,267.117 326.5,265.5C 331.097,262.317 336.43,259.15 342.5,256C 345.647,255.073 347.981,256.073 349.5,259C 348.134,260.6 347.134,262.433 346.5,264.5C 344.326,266.781 342.326,266.781 340.5,264.5C 339.389,265.611 338.055,266.278 336.5,266.5C 334.879,265.295 333.546,265.461 332.5,267C 337.739,270.032 337.072,271.865 330.5,272.5 Z"/></g>
<g><path style="opacity:1" fill="#164f81" d="M 139.5,261.5 C 146.621,265.225 153.954,268.725 161.5,272C 168.558,276.853 175.558,281.686 182.5,286.5C 182.842,287.338 183.508,287.672 184.5,287.5C 189.497,293.33 194.997,298.663 201,303.5C 204.713,307.708 208.213,312.041 211.5,316.5C 214.507,322.755 218.007,328.755 222,334.5C 223.128,336.345 223.628,338.345 223.5,340.5C 202.477,305.151 172.811,279.818 134.5,264.5C 133.432,263.566 132.099,263.232 130.5,263.5C 130.5,271.5 130.5,279.5 130.5,287.5C 128.859,292.251 127.859,297.251 127.5,302.5C 127.333,288.496 127.5,274.496 128,260.5C 129.231,259.892 130.564,259.559 132,259.5C 134.59,259.945 137.09,260.611 139.5,261.5 Z"/></g>
<g><path style="opacity:1" fill="#0886fb" d="M 192.5,280.5 C 193.021,282.866 194.021,285.366 195.5,288C 193.862,291.057 192.529,291.057 191.5,288C 189.866,287.506 188.199,287.34 186.5,287.5C 185.833,287.5 185.167,287.5 184.5,287.5C 183.508,287.672 182.842,287.338 182.5,286.5C 182.617,284.516 181.95,282.85 180.5,281.5C 175.607,279.11 171.44,275.777 168,271.5C 167.107,272.711 166.274,272.711 165.5,271.5C 164.359,270.575 164.359,269.741 165.5,269C 164.833,268.667 164.167,268.333 163.5,268C 166.028,266.983 166.028,265.816 163.5,264.5C 165.528,262.059 167.862,261.892 170.5,264C 176.787,268.15 183.12,272.317 189.5,276.5C 190.934,277.588 191.934,278.922 192.5,280.5 Z"/></g>
<g><path style="opacity:1" fill="#24547c" d="M 115.5,254.5 C 116.765,255.479 118.099,256.479 119.5,257.5C 120.498,266.81 120.832,276.143 120.5,285.5C 119.821,276.765 119.154,267.932 118.5,259C 107.979,256.664 97.3126,255.164 86.5,254.5C 83.5007,254.647 81.834,256.147 81.5,259C 82.4331,274.164 85.0998,288.997 89.5,303.5C 88.5,303.5 87.5,303.5 86.5,303.5C 85.6215,295.317 83.7882,287.317 81,279.5C 80.2519,270.465 80.4185,261.465 81.5,252.5C 92.8885,252.363 104.222,253.029 115.5,254.5 Z"/></g>
<g><path style="opacity:1" fill="#114c7b" d="M 115.5,254.5 C 122.994,254.335 125.661,258.002 123.5,265.5C 122.384,293.817 122.218,322.15 123,350.5C 123.232,351.737 123.732,352.737 124.5,353.5C 123.926,358.183 123.26,362.85 122.5,367.5C 122.167,367.5 121.833,367.5 121.5,367.5C 118.893,362.626 115.56,358.292 111.5,354.5C 109.033,350.928 106.533,347.261 104,343.5C 103.517,342.552 103.351,341.552 103.5,340.5C 107.17,341.828 108.837,344.495 108.5,348.5C 111.05,348.561 112.55,349.894 113,352.5C 114.129,354.141 115.629,355.141 117.5,355.5C 118.825,356.953 119.658,356.619 120,354.5C 120.5,331.502 120.667,308.502 120.5,285.5C 120.832,276.143 120.498,266.81 119.5,257.5C 118.099,256.479 116.765,255.479 115.5,254.5 Z"/></g>
<g><path style="opacity:1" fill="#044d7f" d="M 376.5,344.5 C 376.5,347.5 376.5,350.5 376.5,353.5C 375.5,353.5 374.5,353.5 373.5,353.5C 373.5,327.5 373.5,301.5 373.5,275.5C 374.166,271.647 374.833,267.647 375.5,263.5C 376.5,290.492 376.833,317.492 376.5,344.5 Z"/></g>
<g><path style="opacity:1" fill="#1c5282" d="M 335.5,253.5 C 331.977,256.631 328.31,259.798 324.5,263C 320.102,262.408 318.102,264.241 318.5,268.5C 315.865,269.811 313.531,271.478 311.5,273.5C 307.762,275.697 304.429,278.364 301.5,281.5C 295.558,285.773 290.224,290.773 285.5,296.5C 275.352,307.311 266.352,318.977 258.5,331.5C 257.85,331.196 257.183,330.863 256.5,330.5C 255.171,333.158 253.838,335.824 252.5,338.5C 252.043,339.298 251.376,339.631 250.5,339.5C 269.446,301.554 297.779,272.888 335.5,253.5 Z"/></g>
<g><path style="opacity:1" fill="#4ea5f8" d="M 326.5,265.5 C 327.589,267.117 329.256,267.95 331.5,268C 330.62,269.356 330.286,270.856 330.5,272.5C 328.815,274.818 326.481,275.818 323.5,275.5C 323.617,277.484 322.95,279.15 321.5,280.5C 317.42,281.528 314.087,283.528 311.5,286.5C 311.549,283.901 312.549,281.734 314.5,280C 314.167,279.667 313.833,279.333 313.5,279C 314.5,278.667 315.5,278.333 316.5,278C 316.167,277.667 315.833,277.333 315.5,277C 311,278.554 306.334,280.054 301.5,281.5C 304.429,278.364 307.762,275.697 311.5,273.5C 316.702,271.067 321.702,268.401 326.5,265.5 Z"/></g>
<g><path style="opacity:1" fill="#2e5882" d="M 367.5,360.5 C 366.833,360.5 366.5,360.167 366.5,359.5C 366.5,327.833 366.5,296.167 366.5,264.5C 352.521,267.824 339.855,273.824 328.5,282.5C 328.5,281.5 328.5,280.5 328.5,279.5C 327.5,279.5 326.5,279.5 325.5,279.5C 333.934,272.948 343.268,267.948 353.5,264.5C 356.466,264.89 359.132,264.223 361.5,262.5C 363.409,263.348 365.409,263.682 367.5,263.5C 367.5,295.833 367.5,328.167 367.5,360.5 Z"/></g>
<g><path style="opacity:1" fill="#3669b2" d="M 74.5,251.5 C 75.5,251.5 76.5,251.5 77.5,251.5C 77.0387,261.946 77.872,272.279 80,282.5C 81.823,289.459 83.4896,296.459 85,303.5C 86.3281,308.144 88.1614,312.477 90.5,316.5C 90.4326,317.959 90.7659,319.292 91.5,320.5C 88.3766,317.024 86.0433,313.024 84.5,308.5C 82.0181,306.497 81.0181,303.831 81.5,300.5C 77.2005,284.481 74.8672,268.148 74.5,251.5 Z"/></g>
<g><path style="opacity:1" fill="#0d4c7b" d="M 370.5,259.5 C 370.5,262.833 370.5,266.167 370.5,269.5C 369.624,269.369 368.957,269.702 368.5,270.5C 368.212,297.804 368.546,325.138 369.5,352.5C 368.92,355.311 368.254,357.977 367.5,360.5C 367.5,328.167 367.5,295.833 367.5,263.5C 365.409,263.682 363.409,263.348 361.5,262.5C 359.132,264.223 356.466,264.89 353.5,264.5C 358.634,260.562 364.301,258.895 370.5,259.5 Z"/></g>
<g><path style="opacity:1" fill="#084d86" d="M 77.5,251.5 C 88.8479,251.445 100.181,251.778 111.5,252.5C 112.568,253.434 113.901,253.768 115.5,253.5C 115.5,253.833 115.5,254.167 115.5,254.5C 104.222,253.029 92.8885,252.363 81.5,252.5C 80.4185,261.465 80.2519,270.465 81,279.5C 83.7882,287.317 85.6215,295.317 86.5,303.5C 87.5,303.5 88.5,303.5 89.5,303.5C 89.5,303.833 89.5,304.167 89.5,304.5C 89.4809,306.06 89.1476,307.56 88.5,309C 90.0855,311.256 90.7521,313.756 90.5,316.5C 88.1614,312.477 86.3281,308.144 85,303.5C 83.4896,296.459 81.823,289.459 80,282.5C 77.872,272.279 77.0387,261.946 77.5,251.5 Z"/></g>
<g><path style="opacity:1" fill="#359af1" d="M 311.5,286.5 C 309.721,287.67 308.721,289.336 308.5,291.5C 305.876,294.472 303.876,297.805 302.5,301.5C 300.961,302.767 299.294,303.767 297.5,304.5C 296.761,304.369 296.094,304.536 295.5,305C 286.377,314.795 278.377,325.295 271.5,336.5C 271.343,335.127 271.51,333.793 272,332.5C 274.624,329.453 276.791,326.119 278.5,322.5C 279.458,322.047 280.292,321.381 281,320.5C 280.918,315.165 283.084,310.998 287.5,308C 288.449,307.383 289.282,307.549 290,308.5C 290.471,306.754 291.138,305.087 292,303.5C 298.499,301.819 299.999,298.152 296.5,292.5C 292.659,293.446 288.992,294.78 285.5,296.5C 290.224,290.773 295.558,285.773 301.5,281.5C 306.334,280.054 311,278.554 315.5,277C 315.833,277.333 316.167,277.667 316.5,278C 315.5,278.333 314.5,278.667 313.5,279C 313.833,279.333 314.167,279.667 314.5,280C 312.549,281.734 311.549,283.901 311.5,286.5 Z"/></g>
<g><path style="opacity:1" fill="#0d88f5" d="M 192.5,280.5 C 196.249,282.646 199.915,284.98 203.5,287.5C 207.119,290.452 210.452,293.785 213.5,297.5C 212.167,297.5 210.833,297.5 209.5,297.5C 209.567,300.483 208.567,302.15 206.5,302.5C 208.514,307.174 211.514,311.174 215.5,314.5C 216.452,316.045 216.785,317.712 216.5,319.5C 217.833,319.5 219.167,319.5 220.5,319.5C 220.281,320.675 220.614,321.675 221.5,322.5C 222.48,321.019 223.647,319.685 225,318.5C 225.148,320.905 224.648,323.239 223.5,325.5C 225.737,328.05 227.237,331.05 228,334.5C 228.333,334.833 228.667,335.167 229,335.5C 229.667,334.167 230.667,333.167 232,332.5C 232.464,333.094 232.631,333.761 232.5,334.5C 230.394,336.719 229.394,339.385 229.5,342.5C 224.5,334.5 219.5,326.5 214.5,318.5C 211.8,313.113 208.133,308.446 203.5,304.5C 202.846,302.885 202.346,301.218 202,299.5C 200.184,298.671 198.351,297.837 196.5,297C 193.904,292.9 190.571,289.733 186.5,287.5C 188.199,287.34 189.866,287.506 191.5,288C 192.529,291.057 193.862,291.057 195.5,288C 194.021,285.366 193.021,282.866 192.5,280.5 Z"/></g>
<g><path style="opacity:1" fill="#1b5281" d="M 325.5,279.5 C 326.5,279.5 327.5,279.5 328.5,279.5C 328.5,280.5 328.5,281.5 328.5,282.5C 321.063,286.979 314.23,292.313 308,298.5C 307.333,299.5 307.333,300.5 308,301.5C 314,308.167 320,314.833 326,321.5C 339.005,334.068 351.839,346.734 364.5,359.5C 361.419,357.441 358.086,355.774 354.5,354.5C 335.909,338.241 318.576,320.574 302.5,301.5C 303.876,297.805 305.876,294.472 308.5,291.5C 314.167,287.5 319.833,283.5 325.5,279.5 Z"/></g>
<g><path style="opacity:1" fill="#187fd7" d="M 184.5,287.5 C 185.167,287.5 185.833,287.5 186.5,287.5C 190.571,289.733 193.904,292.9 196.5,297C 198.351,297.837 200.184,298.671 202,299.5C 202.346,301.218 202.846,302.885 203.5,304.5C 208.133,308.446 211.8,313.113 214.5,318.5C 213.5,317.833 212.5,317.167 211.5,316.5C 208.213,312.041 204.713,307.708 201,303.5C 194.997,298.663 189.497,293.33 184.5,287.5 Z"/></g>
<g><path style="opacity:1" fill="#1a4f7d" d="M 398.5,251.5 C 398.833,251.5 399.167,251.5 399.5,251.5C 406.226,251.205 412.892,251.538 419.5,252.5C 419.833,254.667 420.167,256.833 420.5,259C 419.647,275.072 416.647,290.572 411.5,305.5C 410.665,302.006 410.665,298.34 411.5,294.5C 414.177,281.426 415.51,268.426 415.5,255.5C 410.319,254.833 404.985,254.167 399.5,253.5C 399.137,252.817 398.804,252.15 398.5,251.5 Z"/></g>
<g><path style="opacity:1" fill="#084d82" d="M 123.5,265.5 C 124.498,294.662 124.831,323.995 124.5,353.5C 123.732,352.737 123.232,351.737 123,350.5C 122.218,322.15 122.384,293.817 123.5,265.5 Z"/></g>
<g><path style="opacity:1" fill="#356db5" d="M 115.5,254.5 C 115.5,254.167 115.5,253.833 115.5,253.5C 117.857,253.337 120.19,253.503 122.5,254C 124.321,256.244 126.654,257.41 129.5,257.5C 132.365,258.783 135.365,258.783 138.5,257.5C 139.429,258.689 139.762,260.022 139.5,261.5C 137.09,260.611 134.59,259.945 132,259.5C 130.564,259.559 129.231,259.892 128,260.5C 127.5,274.496 127.333,288.496 127.5,302.5C 127.5,308.167 127.5,313.833 127.5,319.5C 127.5,336.167 127.5,352.833 127.5,369.5C 126.71,368.391 126.21,367.058 126,365.5C 125.184,366.823 124.017,367.489 122.5,367.5C 123.26,362.85 123.926,358.183 124.5,353.5C 124.831,323.995 124.498,294.662 123.5,265.5C 125.661,258.002 122.994,254.335 115.5,254.5 Z"/></g>
<g><path style="opacity:1" fill="#084d7d" d="M 130.5,287.5 C 130.17,303.342 130.504,319.009 131.5,334.5C 131.5,345.167 131.5,355.833 131.5,366.5C 132.183,368.176 133.517,368.843 135.5,368.5C 135.5,369.167 135.5,369.833 135.5,370.5C 131.838,371.363 129.672,370.03 129,366.5C 128.831,350.661 128.331,334.995 127.5,319.5C 127.5,313.833 127.5,308.167 127.5,302.5C 127.859,297.251 128.859,292.251 130.5,287.5 Z"/></g>
<g><path style="opacity:1" fill="#175285" d="M 192.5,276.5 C 194.308,276.491 195.975,276.991 197.5,278C 199.992,280.105 202.659,281.939 205.5,283.5C 217.658,293.324 227.658,304.991 235.5,318.5C 233.745,317.096 231.745,316.096 229.5,315.5C 225.5,310.833 221.5,306.167 217.5,301.5C 215.806,300.473 214.473,299.139 213.5,297.5C 210.452,293.785 207.119,290.452 203.5,287.5C 199.64,284.061 195.973,280.395 192.5,276.5 Z"/></g>
<g><path style="opacity:1" fill="#19507e" d="M 423.5,257.5 C 424.068,263.834 424.234,270.167 424,276.5C 422.796,280.716 422.13,285.049 422,289.5C 419.409,297.04 417.243,304.706 415.5,312.5C 408.978,330.557 399.644,346.891 387.5,361.5C 386.128,359.65 386.628,358.317 389,357.5C 389.74,356.251 389.573,355.251 388.5,354.5C 393.23,347.765 397.563,340.765 401.5,333.5C 414.443,309.719 421.776,284.385 423.5,257.5 Z"/></g>
<g><path style="opacity:1" fill="#0789fc" d="M 213.5,297.5 C 214.473,299.139 215.806,300.473 217.5,301.5C 218.038,304.189 218.705,306.856 219.5,309.5C 220.628,310.262 221.795,310.929 223,311.5C 227.377,319.485 232.211,327.151 237.5,334.5C 236.146,335.206 234.479,335.206 232.5,334.5C 232.631,333.761 232.464,333.094 232,332.5C 230.667,333.167 229.667,334.167 229,335.5C 228.667,335.167 228.333,334.833 228,334.5C 227.237,331.05 225.737,328.05 223.5,325.5C 224.648,323.239 225.148,320.905 225,318.5C 223.647,319.685 222.48,321.019 221.5,322.5C 220.614,321.675 220.281,320.675 220.5,319.5C 219.167,319.5 217.833,319.5 216.5,319.5C 216.785,317.712 216.452,316.045 215.5,314.5C 211.514,311.174 208.514,307.174 206.5,302.5C 208.567,302.15 209.567,300.483 209.5,297.5C 210.833,297.5 212.167,297.5 213.5,297.5 Z"/></g>
<g><path style="opacity:0.248" fill="#3f6d90" d="M 134.5,264.5 C 133.504,264.414 132.671,264.748 132,265.5C 131.5,288.498 131.333,311.498 131.5,334.5C 130.504,319.009 130.17,303.342 130.5,287.5C 130.5,279.5 130.5,271.5 130.5,263.5C 132.099,263.232 133.432,263.566 134.5,264.5 Z"/></g>
<g><path style="opacity:1" fill="#1695f6" d="M 278.5,322.5 C 278.657,321.127 278.49,319.793 278,318.5C 277,320.167 276,321.833 275,323.5C 273.383,322.464 273.216,321.297 274.5,320C 272.511,318.382 270.511,318.549 268.5,320.5C 270.147,322.488 269.814,323.821 267.5,324.5C 267.44,323.957 267.107,323.624 266.5,323.5C 263.748,326.902 261.081,330.235 258.5,333.5C 258.5,332.833 258.5,332.167 258.5,331.5C 266.352,318.977 275.352,307.311 285.5,296.5C 288.992,294.78 292.659,293.446 296.5,292.5C 299.999,298.152 298.499,301.819 292,303.5C 291.138,305.087 290.471,306.754 290,308.5C 289.282,307.549 288.449,307.383 287.5,308C 283.084,310.998 280.918,315.165 281,320.5C 280.292,321.381 279.458,322.047 278.5,322.5 Z"/></g>
<g><path style="opacity:1" fill="#195183" d="M 297.5,304.5 C 308.684,312.009 318.684,321.009 327.5,331.5C 326.292,332.234 324.959,332.567 323.5,332.5C 314.802,324.798 306.135,317.131 297.5,309.5C 291.865,315.427 286.699,321.76 282,328.5C 277.726,336.064 273.226,343.398 268.5,350.5C 269.159,347.545 269.492,344.545 269.5,341.5C 269.893,339.716 270.559,338.05 271.5,336.5C 278.377,325.295 286.377,314.795 295.5,305C 296.094,304.536 296.761,304.369 297.5,304.5 Z"/></g>
<g><path style="opacity:1" fill="#1a82dd" d="M 217.5,301.5 C 221.5,306.167 225.5,310.833 229.5,315.5C 234.165,324.162 238.831,332.829 243.5,341.5C 240.8,339.766 238.8,337.432 237.5,334.5C 232.211,327.151 227.377,319.485 223,311.5C 221.795,310.929 220.628,310.262 219.5,309.5C 218.705,306.856 218.038,304.189 217.5,301.5 Z"/></g>
<g><path style="opacity:1" fill="#5288be" d="M 302.5,301.5 C 318.576,320.574 335.909,338.241 354.5,354.5C 357.58,358.084 360.913,361.584 364.5,365C 366.345,366.128 368.345,366.628 370.5,366.5C 368.735,367.461 366.735,367.795 364.5,367.5C 352.167,355.5 339.833,343.5 327.5,331.5C 318.684,321.009 308.684,312.009 297.5,304.5C 299.294,303.767 300.961,302.767 302.5,301.5 Z"/></g>
<g><path style="opacity:1" fill="#1d527f" d="M 89.5,304.5 C 96.4968,322.831 105.83,339.831 117.5,355.5C 115.629,355.141 114.129,354.141 113,352.5C 112.55,349.894 111.05,348.561 108.5,348.5C 108.837,344.495 107.17,341.828 103.5,340.5C 102.038,339.199 100.704,337.699 99.5,336C 96.7155,330.932 94.0488,325.765 91.5,320.5C 90.7659,319.292 90.4326,317.959 90.5,316.5C 90.7521,313.756 90.0855,311.256 88.5,309C 89.1476,307.56 89.4809,306.06 89.5,304.5 Z"/></g>
<g><path style="opacity:1" fill="#18507e" d="M 411.5,294.5 C 410.665,298.34 410.665,302.006 411.5,305.5C 408.813,314.895 405.146,323.895 400.5,332.5C 398.329,336.844 395.663,340.844 392.5,344.5C 391.427,343.749 391.26,342.749 392,341.5C 395.86,336.782 398.36,331.449 399.5,325.5C 403.917,315.237 407.917,304.904 411.5,294.5 Z"/></g>
<g><path style="opacity:1" fill="#1d507a" d="M 74.5,287.5 C 76.2784,292.018 78.6117,296.351 81.5,300.5C 81.0181,303.831 82.0181,306.497 84.5,308.5C 83.6502,315.396 85.9835,320.73 91.5,324.5C 92.8952,328.431 94.0619,332.431 95,336.5C 97.7342,338.956 99.7342,341.956 101,345.5C 104.073,346.239 106.24,348.072 107.5,351C 107.043,351.414 106.709,351.914 106.5,352.5C 107.767,356.142 110.1,358.476 113.5,359.5C 113.307,362.475 114.307,364.975 116.5,367C 116.167,367.333 115.833,367.667 115.5,368C 99.5533,369.272 83.5533,369.939 67.5,370C 65.5,370.333 63.5,370.667 61.5,371C 60.6198,372.356 60.2865,373.856 60.5,375.5C 58.8329,372.692 59.4995,370.525 62.5,369C 79.1978,368.79 95.8645,368.29 112.5,367.5C 112.649,366.448 112.483,365.448 112,364.5C 93.6439,341.786 81.1439,316.119 74.5,287.5 Z"/></g>
<g><path style="opacity:1" fill="#285b9b" d="M 84.5,308.5 C 86.0433,313.024 88.3766,317.024 91.5,320.5C 94.0488,325.765 96.7155,330.932 99.5,336C 100.704,337.699 102.038,339.199 103.5,340.5C 103.351,341.552 103.517,342.552 104,343.5C 106.533,347.261 109.033,350.928 111.5,354.5C 111.392,356.514 112.058,358.18 113.5,359.5C 110.1,358.476 107.767,356.142 106.5,352.5C 106.709,351.914 107.043,351.414 107.5,351C 106.24,348.072 104.073,346.239 101,345.5C 99.7342,341.956 97.7342,338.956 95,336.5C 94.0619,332.431 92.8952,328.431 91.5,324.5C 85.9835,320.73 83.6502,315.396 84.5,308.5 Z"/></g>
<g><path style="opacity:1" fill="#135086" d="M 229.5,315.5 C 231.745,316.096 233.745,317.096 235.5,318.5C 239.741,325.31 243.741,332.31 247.5,339.5C 248.425,340.562 249.425,340.562 250.5,339.5C 251.376,339.631 252.043,339.298 252.5,338.5C 253.838,335.824 255.171,333.158 256.5,330.5C 257.183,330.863 257.85,331.196 258.5,331.5C 258.5,332.167 258.5,332.833 258.5,333.5C 255.45,337.765 252.784,342.265 250.5,347C 249.5,347.667 248.5,347.667 247.5,347C 246.023,345.188 244.69,343.355 243.5,341.5C 238.831,332.829 234.165,324.162 229.5,315.5 Z"/></g>
<g><path style="opacity:1" fill="#195281" d="M 327.5,331.5 C 339.833,343.5 352.167,355.5 364.5,367.5C 364.5,368.833 364.5,370.167 364.5,371.5C 362.833,371.5 361.167,371.5 359.5,371.5C 359.389,370.883 359.056,370.383 358.5,370C 356.19,369.503 353.857,369.337 351.5,369.5C 348.123,369.932 345.123,369.265 342.5,367.5C 347.179,367.666 351.845,367.499 356.5,367C 345.661,355.328 334.661,343.828 323.5,332.5C 324.959,332.567 326.292,332.234 327.5,331.5 Z"/></g>
<g><path style="opacity:1" fill="#0a86f9" d="M 232.5,334.5 C 234.479,335.206 236.146,335.206 237.5,334.5C 238.8,337.432 240.8,339.766 243.5,341.5C 243.016,344.788 244.016,347.455 246.5,349.5C 243.698,350.576 240.865,351.576 238,352.5C 238.135,354.425 238.302,356.425 238.5,358.5C 236.612,353.055 233.945,348.055 230.5,343.5C 229.833,343.5 229.5,343.167 229.5,342.5C 229.394,339.385 230.394,336.719 232.5,334.5 Z"/></g>
<g><path style="opacity:1" fill="#0e8cf8" d="M 278.5,322.5 C 276.791,326.119 274.624,329.453 272,332.5C 271.51,333.793 271.343,335.127 271.5,336.5C 270.559,338.05 269.893,339.716 269.5,341.5C 265.401,348.036 262.067,355.036 259.5,362.5C 258.542,362.953 257.708,363.619 257,364.5C 256.253,367.924 256.42,371.257 257.5,374.5C 256.29,374.932 255.29,375.599 254.5,376.5C 254.167,376.5 253.833,376.5 253.5,376.5C 254.639,373.996 255.306,371.33 255.5,368.5C 254.5,368.5 253.5,368.5 252.5,368.5C 252.943,365.376 254.61,363.043 257.5,361.5C 259.478,356.82 258.478,353.153 254.5,350.5C 256.561,348.673 257.894,346.34 258.5,343.5C 262.125,342.395 263.959,340.061 264,336.5C 261.952,338.836 260.118,338.836 258.5,336.5C 259.689,335.571 261.022,335.238 262.5,335.5C 261.833,332.167 263.167,330.167 266.5,329.5C 267.452,327.955 267.785,326.288 267.5,324.5C 269.814,323.821 270.147,322.488 268.5,320.5C 270.511,318.549 272.511,318.382 274.5,320C 273.216,321.297 273.383,322.464 275,323.5C 276,321.833 277,320.167 278,318.5C 278.49,319.793 278.657,321.127 278.5,322.5 Z"/></g>
<g><path style="opacity:1" fill="#1088ec" d="M 267.5,324.5 C 267.785,326.288 267.452,327.955 266.5,329.5C 263.167,330.167 261.833,332.167 262.5,335.5C 261.022,335.238 259.689,335.571 258.5,336.5C 260.118,338.836 261.952,338.836 264,336.5C 263.959,340.061 262.125,342.395 258.5,343.5C 257.894,346.34 256.561,348.673 254.5,350.5C 253.85,350.804 253.183,351.137 252.5,351.5C 250.827,349.914 248.827,349.247 246.5,349.5C 244.016,347.455 243.016,344.788 243.5,341.5C 244.69,343.355 246.023,345.188 247.5,347C 248.5,347.667 249.5,347.667 250.5,347C 252.784,342.265 255.45,337.765 258.5,333.5C 261.081,330.235 263.748,326.902 266.5,323.5C 267.107,323.624 267.44,323.957 267.5,324.5 Z"/></g>
<g><path style="opacity:1" fill="#0884fb" d="M 246.5,349.5 C 248.827,349.247 250.827,349.914 252.5,351.5C 253.183,351.137 253.85,350.804 254.5,350.5C 258.478,353.153 259.478,356.82 257.5,361.5C 254.61,363.043 252.943,365.376 252.5,368.5C 253.5,368.5 254.5,368.5 255.5,368.5C 255.306,371.33 254.639,373.996 253.5,376.5C 252.883,376.611 252.383,376.944 252,377.5C 250.822,381.791 249.822,386.124 249,390.5C 247.328,387.131 245.828,383.798 244.5,380.5C 244.405,378.214 243.738,376.214 242.5,374.5C 241.542,369.032 240.208,363.699 238.5,358.5C 238.302,356.425 238.135,354.425 238,352.5C 240.865,351.576 243.698,350.576 246.5,349.5 Z"/></g>
<g><path style="opacity:1" fill="#0d4f85" d="M 211.5,316.5 C 212.5,317.167 213.5,317.833 214.5,318.5C 219.5,326.5 224.5,334.5 229.5,342.5C 229.5,343.167 229.833,343.5 230.5,343.5C 233.296,350.439 236.13,357.439 239,364.5C 239.796,367.039 239.629,369.372 238.5,371.5C 206.167,371.5 173.833,371.5 141.5,371.5C 173.662,370.502 205.996,370.168 238.5,370.5C 238.66,368.801 238.494,367.134 238,365.5C 237.667,365.833 237.333,366.167 237,366.5C 236.351,363.295 235.185,360.295 233.5,357.5C 233.043,356.702 232.376,356.369 231.5,356.5C 228.853,351.205 226.186,345.872 223.5,340.5C 223.628,338.345 223.128,336.345 222,334.5C 218.007,328.755 214.507,322.755 211.5,316.5 Z"/></g>
<g><path style="opacity:1" fill="#18507d" d="M 399.5,325.5 C 398.36,331.449 395.86,336.782 392,341.5C 391.26,342.749 391.427,343.749 392.5,344.5C 388.465,351.382 383.798,357.882 378.5,364C 377.216,364.684 376.049,364.517 375,363.5C 373.957,360.243 373.457,356.91 373.5,353.5C 374.5,353.5 375.5,353.5 376.5,353.5C 376.5,350.5 376.5,347.5 376.5,344.5C 376.833,344.5 377.167,344.5 377.5,344.5C 377.176,348.555 377.509,352.555 378.5,356.5C 386.748,347.003 393.748,336.669 399.5,325.5 Z"/></g>
<g><path style="opacity:1" fill="#0b4d82" d="M 370.5,269.5 C 370.5,301.833 370.5,334.167 370.5,366.5C 368.345,366.628 366.345,366.128 364.5,365C 360.913,361.584 357.58,358.084 354.5,354.5C 358.086,355.774 361.419,357.441 364.5,359.5C 365.167,359.5 365.833,359.5 366.5,359.5C 366.5,360.167 366.833,360.5 367.5,360.5C 368.254,357.977 368.92,355.311 369.5,352.5C 368.546,325.138 368.212,297.804 368.5,270.5C 368.957,269.702 369.624,269.369 370.5,269.5 Z"/></g>
<g><path style="opacity:1" fill="#588ac1" d="M 371.5,257.5 C 372.167,257.5 372.833,257.5 373.5,257.5C 373.5,263.5 373.5,269.5 373.5,275.5C 373.5,301.5 373.5,327.5 373.5,353.5C 373.457,356.91 373.957,360.243 375,363.5C 376.049,364.517 377.216,364.684 378.5,364C 383.798,357.882 388.465,351.382 392.5,344.5C 395.663,340.844 398.329,336.844 400.5,332.5C 400.5,333.167 400.833,333.5 401.5,333.5C 397.563,340.765 393.23,347.765 388.5,354.5C 384.945,358.584 381.611,362.918 378.5,367.5C 377.253,369.006 377.253,370.506 378.5,372C 396.167,372.333 413.833,372.667 431.5,373C 433.343,373.159 434.009,373.659 433.5,374.5C 414.167,374.5 394.833,374.5 375.5,374.5C 375.705,369.864 374.371,365.864 371.5,362.5C 371.831,331.329 371.498,300.329 370.5,269.5C 370.5,266.167 370.5,262.833 370.5,259.5C 371.338,259.158 371.672,258.492 371.5,257.5 Z"/></g>
<g><path style="opacity:0.086" fill="#85a5be" d="M 131.5,366.5 C 138.267,367.132 144.933,367.799 151.5,368.5C 146.167,368.5 140.833,368.5 135.5,368.5C 133.517,368.843 132.183,368.176 131.5,366.5 Z"/></g>
<g><path style="opacity:1" fill="#154d79" d="M 231.5,356.5 C 232.376,356.369 233.043,356.702 233.5,357.5C 235.185,360.295 236.351,363.295 237,366.5C 237.333,366.167 237.667,365.833 238,365.5C 238.494,367.134 238.66,368.801 238.5,370.5C 205.996,370.168 173.662,370.502 141.5,371.5C 139.435,371.483 137.435,371.15 135.5,370.5C 135.5,369.833 135.5,369.167 135.5,368.5C 140.833,368.5 146.167,368.5 151.5,368.5C 179.177,368.709 206.844,368.376 234.5,367.5C 234.108,363.658 233.108,359.991 231.5,356.5 Z"/></g>
<g><path style="opacity:1" fill="#154c78" d="M 268.5,351.5 C 266.239,356.362 264.239,361.362 262.5,366.5C 262.709,367.086 263.043,367.586 263.5,368C 289.905,368.823 316.239,368.657 342.5,367.5C 345.123,369.265 348.123,369.932 351.5,369.5C 320.907,370.569 290.241,370.736 259.5,370C 260.191,366.005 261.358,362.172 263,358.5C 264.391,355.664 266.224,353.331 268.5,351.5 Z"/></g>
<g><path style="opacity:1" fill="#02518a" d="M 269.5,341.5 C 269.492,344.545 269.159,347.545 268.5,350.5C 268.5,350.833 268.5,351.167 268.5,351.5C 266.224,353.331 264.391,355.664 263,358.5C 261.358,362.172 260.191,366.005 259.5,370C 290.241,370.736 320.907,370.569 351.5,369.5C 353.857,369.337 356.19,369.503 358.5,370C 359.056,370.383 359.389,370.883 359.5,371.5C 351.586,372.467 343.586,372.801 335.5,372.5C 309.5,372.5 283.5,372.5 257.5,372.5C 257.155,368.885 257.822,365.552 259.5,362.5C 262.067,355.036 265.401,348.036 269.5,341.5 Z"/></g>
<g><path style="opacity:1" fill="#3397ed" d="M 371.5,362.5 C 374.371,365.864 375.705,369.864 375.5,374.5C 374.094,374.973 373.427,375.973 373.5,377.5C 372.5,377.5 371.5,377.5 370.5,377.5C 370.158,376.662 369.492,376.328 368.5,376.5C 366.804,376.315 365.471,375.481 364.5,374C 365.717,372.352 366.55,370.519 367,368.5C 368.356,369.38 369.856,369.714 371.5,369.5C 371.5,367.167 371.5,364.833 371.5,362.5 Z"/></g>
<g><path style="opacity:1" fill="#164f80" d="M 388.5,354.5 C 389.573,355.251 389.74,356.251 389,357.5C 386.628,358.317 386.128,359.65 387.5,361.5C 386.639,363.386 385.639,365.22 384.5,367C 386.167,367.333 387.833,367.667 389.5,368C 405.212,368.08 420.878,368.747 436.5,370C 440.515,373.511 439.848,376.011 434.5,377.5C 434.443,376.391 434.11,375.391 433.5,374.5C 434.009,373.659 433.343,373.159 431.5,373C 413.833,372.667 396.167,372.333 378.5,372C 377.253,370.506 377.253,369.006 378.5,367.5C 381.611,362.918 384.945,358.584 388.5,354.5 Z"/></g>
<g><path style="opacity:1" fill="#125396" d="M 127.5,319.5 C 128.331,334.995 128.831,350.661 129,366.5C 129.672,370.03 131.838,371.363 135.5,370.5C 137.435,371.15 139.435,371.483 141.5,371.5C 173.833,371.5 206.167,371.5 238.5,371.5C 204.669,372.664 170.669,372.831 136.5,372C 133.189,371.943 130.189,371.11 127.5,369.5C 127.5,352.833 127.5,336.167 127.5,319.5 Z"/></g>
<g><path style="opacity:1" fill="#3b6ab2" d="M 111.5,354.5 C 115.56,358.292 118.893,362.626 121.5,367.5C 121.298,369.95 121.631,372.283 122.5,374.5C 102.822,374.833 83.1554,374.5 63.5,373.5C 80.9953,372.833 98.3286,372.167 115.5,371.5C 116.5,371.5 117.5,371.5 118.5,371.5C 117.941,367.048 116.275,363.048 113.5,359.5C 112.058,358.18 111.392,356.514 111.5,354.5 Z"/></g>
<g><path style="opacity:1" fill="#3063e1" d="M 127.5,369.5 C 127.5,370.5 127.5,371.5 127.5,372.5C 130.461,372.464 132.794,373.464 134.5,375.5C 134.5,375.833 134.5,376.167 134.5,376.5C 133.739,377.391 132.739,378.058 131.5,378.5C 128.957,376.797 126.29,375.463 123.5,374.5C 123.167,374.5 122.833,374.5 122.5,374.5C 121.631,372.283 121.298,369.95 121.5,367.5C 121.833,367.5 122.167,367.5 122.5,367.5C 124.017,367.489 125.184,366.823 126,365.5C 126.21,367.058 126.71,368.391 127.5,369.5 Z"/></g>
<g><path style="opacity:1" fill="#3581c0" d="M 259.5,362.5 C 257.822,365.552 257.155,368.885 257.5,372.5C 283.5,372.5 309.5,372.5 335.5,372.5C 335.5,373.167 335.5,373.833 335.5,374.5C 309.5,374.5 283.5,374.5 257.5,374.5C 256.42,371.257 256.253,367.924 257,364.5C 257.708,363.619 258.542,362.953 259.5,362.5 Z"/></g>
<g><path style="opacity:1" fill="#3471bb" d="M 230.5,343.5 C 233.945,348.055 236.612,353.055 238.5,358.5C 240.208,363.699 241.542,369.032 242.5,374.5C 206.487,374.227 170.487,374.561 134.5,375.5C 132.794,373.464 130.461,372.464 127.5,372.5C 127.5,371.5 127.5,370.5 127.5,369.5C 130.189,371.11 133.189,371.943 136.5,372C 170.669,372.831 204.669,372.664 238.5,371.5C 239.629,369.372 239.796,367.039 239,364.5C 236.13,357.439 233.296,350.439 230.5,343.5 Z"/></g>
<g><path style="opacity:1" fill="#064c88" d="M 242.5,374.5 C 243.738,376.214 244.405,378.214 244.5,380.5C 244.5,381.5 244.5,382.5 244.5,383.5C 243.833,383.5 243.167,383.5 242.5,383.5C 241.784,381.444 241.117,379.277 240.5,377C 234.843,376.501 229.176,376.334 223.5,376.5C 200.821,376.769 178.154,376.435 155.5,375.5C 150.816,375.836 146.149,376.336 141.5,377C 140.687,378.314 139.687,379.481 138.5,380.5C 139.689,381.429 141.022,381.762 142.5,381.5C 142.5,382.5 142.5,383.5 142.5,384.5C 138.133,383.467 135.467,380.8 134.5,376.5C 134.5,376.167 134.5,375.833 134.5,375.5C 170.487,374.561 206.487,374.227 242.5,374.5 Z"/></g>
<g><path style="opacity:1" fill="#014e88" d="M 257.5,374.5 C 283.5,374.5 309.5,374.5 335.5,374.5C 343.167,374.5 350.833,374.5 358.5,374.5C 357.5,375.167 356.5,375.833 355.5,376.5C 321.792,376.383 288.125,376.383 254.5,376.5C 255.29,375.599 256.29,374.932 257.5,374.5 Z"/></g>
<g><path style="opacity:1" fill="#034d84" d="M 375.5,374.5 C 394.833,374.5 414.167,374.5 433.5,374.5C 434.11,375.391 434.443,376.391 434.5,377.5C 417.154,376.861 399.82,376.194 382.5,375.5C 380.556,376.189 378.556,376.689 376.5,377C 374.997,388.216 373.997,399.383 373.5,410.5C 373.5,399.5 373.5,388.5 373.5,377.5C 373.427,375.973 374.094,374.973 375.5,374.5 Z"/></g>
<g><path style="opacity:1" fill="#0f4c8a" d="M 115.5,371.5 C 98.3286,372.167 80.9953,372.833 63.5,373.5C 83.1554,374.5 102.822,374.833 122.5,374.5C 122.833,374.5 123.167,374.5 123.5,374.5C 124.038,376.117 124.371,377.784 124.5,379.5C 122.896,378.713 122.229,377.38 122.5,375.5C 102.167,376.833 81.8333,376.833 61.5,375.5C 61.33,374.178 61.6634,373.011 62.5,372C 80.1635,371.5 97.8302,371.333 115.5,371.5 Z"/></g>
<g><path style="opacity:1" fill="#1f527c" d="M 355.5,376.5 C 358.167,377.833 358.167,379.167 355.5,380.5C 353.708,379.691 351.708,379.191 349.5,379C 318.828,378.352 288.161,378.519 257.5,379.5C 255.041,391.75 254.374,404.083 255.5,416.5C 256.607,417.022 257.774,417.355 259,417.5C 269.218,416.493 279.384,415.159 289.5,413.5C 288.833,414.167 288.167,414.833 287.5,415.5C 282.069,415.728 276.736,416.561 271.5,418C 265.509,418.499 259.509,418.666 253.5,418.5C 252.127,404.474 252.461,390.474 254.5,376.5C 288.125,376.383 321.792,376.383 355.5,376.5 Z"/></g>
<g><path style="opacity:1" fill="#154b7a" d="M 113.5,359.5 C 116.275,363.048 117.941,367.048 118.5,371.5C 117.5,371.5 116.5,371.5 115.5,371.5C 97.8302,371.333 80.1635,371.5 62.5,372C 61.6634,373.011 61.33,374.178 61.5,375.5C 81.8333,376.833 102.167,376.833 122.5,375.5C 122.229,377.38 122.896,378.713 124.5,379.5C 124.672,380.492 124.338,381.158 123.5,381.5C 122.5,381.5 121.5,381.5 120.5,381.5C 120.715,379.821 120.048,378.821 118.5,378.5C 100.164,378.667 81.8303,378.5 63.5,378C 62.0577,377.623 61.0577,376.79 60.5,375.5C 60.2865,373.856 60.6198,372.356 61.5,371C 63.5,370.667 65.5,370.333 67.5,370C 83.5533,369.939 99.5533,369.272 115.5,368C 115.833,367.667 116.167,367.333 116.5,367C 114.307,364.975 113.307,362.475 113.5,359.5 Z"/></g>
<g><path style="opacity:0.778" fill="#1f4f73" d="M 223.5,376.5 C 229.176,376.334 234.843,376.501 240.5,377C 241.117,379.277 241.784,381.444 242.5,383.5C 243.056,391.816 244.056,399.983 245.5,408C 245.475,410.929 244.809,413.429 243.5,415.5C 243.645,403.324 242.311,391.324 239.5,379.5C 210.797,378.183 182.13,378.183 153.5,379.5C 153.611,378.883 153.944,378.383 154.5,378C 177.67,377.832 200.67,377.332 223.5,376.5 Z"/></g>
<g><path style="opacity:1" fill="#134d7c" d="M 434.5,377.5 C 415.981,378.218 397.314,378.884 378.5,379.5C 377.797,397.822 377.297,416.155 377,434.5C 375.406,439.752 372.406,440.752 368,437.5C 367.51,436.207 367.343,434.873 367.5,433.5C 367.833,416.487 367.499,399.487 366.5,382.5C 365.817,382.137 365.15,381.804 364.5,381.5C 365.833,379.833 367.167,378.167 368.5,376.5C 369.492,376.328 370.158,376.662 370.5,377.5C 370.333,396.17 370.5,414.836 371,433.5C 371.667,436.167 372.333,436.167 373,433.5C 373.5,425.841 373.666,418.174 373.5,410.5C 373.997,399.383 374.997,388.216 376.5,377C 378.556,376.689 380.556,376.189 382.5,375.5C 399.82,376.194 417.154,376.861 434.5,377.5 Z"/></g>
<g><path style="opacity:1" fill="#1a507e" d="M 223.5,376.5 C 200.67,377.332 177.67,377.832 154.5,378C 153.944,378.383 153.611,378.883 153.5,379.5C 149.818,379.335 146.152,379.501 142.5,380C 148.068,384.416 153.735,388.583 159.5,392.5C 157.883,393.038 156.216,393.371 154.5,393.5C 150.177,390.997 146.177,387.997 142.5,384.5C 142.5,383.5 142.5,382.5 142.5,381.5C 141.022,381.762 139.689,381.429 138.5,380.5C 139.687,379.481 140.687,378.314 141.5,377C 146.149,376.336 150.816,375.836 155.5,375.5C 178.154,376.435 200.821,376.769 223.5,376.5 Z"/></g>
<g><path style="opacity:1" fill="#0b4b80" d="M 139.5,386.5 C 137.833,386.5 136.167,386.5 134.5,386.5C 133.842,381.267 132.009,380.601 129,384.5C 128.667,401.833 128.333,419.167 128,436.5C 126.847,438.497 125.347,438.83 123.5,437.5C 123.229,434.953 122.229,432.953 120.5,431.5C 120.5,430.167 120.5,428.833 120.5,427.5C 120.5,412.167 120.5,396.833 120.5,381.5C 121.5,381.5 122.5,381.5 123.5,381.5C 123.333,398.17 123.5,414.837 124,431.5C 125,436.833 126,436.833 127,431.5C 127.333,415.5 127.667,399.5 128,383.5C 129.191,381.153 131.024,380.32 133.5,381C 135.199,383.309 137.199,385.142 139.5,386.5 Z"/></g>
<g><path style="opacity:1" fill="#3162ac" d="M 123.5,374.5 C 126.29,375.463 128.957,376.797 131.5,378.5C 132.739,378.058 133.739,377.391 134.5,376.5C 135.467,380.8 138.133,383.467 142.5,384.5C 146.177,387.997 150.177,390.997 154.5,393.5C 159.097,397.142 164.097,400.308 169.5,403C 177.379,406.438 185.379,409.605 193.5,412.5C 209.516,418.503 226.183,421.837 243.5,422.5C 243.5,423.167 243.5,423.833 243.5,424.5C 233.085,424.083 222.752,422.917 212.5,421C 203.91,418.203 195.244,415.703 186.5,413.5C 179.258,411.376 172.591,407.876 166.5,403C 161.914,402.612 158.248,400.612 155.5,397C 151.098,394.132 146.431,391.799 141.5,390C 140.915,388.698 140.249,387.531 139.5,386.5C 137.199,385.142 135.199,383.309 133.5,381C 131.024,380.32 129.191,381.153 128,383.5C 127.667,399.5 127.333,415.5 127,431.5C 126,436.833 125,436.833 124,431.5C 123.5,414.837 123.333,398.17 123.5,381.5C 124.338,381.158 124.672,380.492 124.5,379.5C 124.371,377.784 124.038,376.117 123.5,374.5 Z"/></g>
<g><path style="opacity:1" fill="#20527e" d="M 139.5,386.5 C 140.249,387.531 140.915,388.698 141.5,390C 146.431,391.799 151.098,394.132 155.5,397C 158.248,400.612 161.914,402.612 166.5,403C 172.591,407.876 179.258,411.376 186.5,413.5C 188.309,415.474 190.309,417.14 192.5,418.5C 181.959,415.732 171.959,411.566 162.5,406C 152.096,400.091 142.096,393.591 132.5,386.5C 131.477,403.156 130.643,419.823 130,436.5C 128.334,439.379 125.834,440.212 122.5,439C 120.887,436.772 120.22,434.272 120.5,431.5C 122.229,432.953 123.229,434.953 123.5,437.5C 125.347,438.83 126.847,438.497 128,436.5C 128.333,419.167 128.667,401.833 129,384.5C 132.009,380.601 133.842,381.267 134.5,386.5C 136.167,386.5 137.833,386.5 139.5,386.5 Z"/></g>
<g><path style="opacity:1" fill="#3f7db7" d="M 370.5,269.5 C 371.498,300.329 371.831,331.329 371.5,362.5C 371.5,364.833 371.5,367.167 371.5,369.5C 369.856,369.714 368.356,369.38 367,368.5C 366.55,370.519 365.717,372.352 364.5,374C 365.471,375.481 366.804,376.315 368.5,376.5C 367.167,378.167 365.833,379.833 364.5,381.5C 351.445,391.694 337.445,400.361 322.5,407.5C 322.5,407.167 322.5,406.833 322.5,406.5C 335.412,399.703 347.746,391.87 359.5,383C 361.557,381.281 363.224,379.281 364.5,377C 363.056,374.966 361.056,374.132 358.5,374.5C 350.833,374.5 343.167,374.5 335.5,374.5C 335.5,373.833 335.5,373.167 335.5,372.5C 343.586,372.801 351.586,372.467 359.5,371.5C 361.167,371.5 362.833,371.5 364.5,371.5C 364.5,370.167 364.5,368.833 364.5,367.5C 366.735,367.795 368.735,367.461 370.5,366.5C 370.5,334.167 370.5,301.833 370.5,269.5 Z"/></g>
<g><path style="opacity:1" fill="#1f5282" d="M 159.5,392.5 C 177.577,403.208 196.91,410.541 217.5,414.5C 215.362,415.404 213.029,416.071 210.5,416.5C 205.925,413.542 200.258,412.209 193.5,412.5C 185.379,409.605 177.379,406.438 169.5,403C 164.097,400.308 159.097,397.142 154.5,393.5C 156.216,393.371 157.883,393.038 159.5,392.5 Z"/></g>
<g><path style="opacity:1" fill="#1d507d" d="M 364.5,381.5 C 365.15,381.804 365.817,382.137 366.5,382.5C 367.499,399.487 367.833,416.487 367.5,433.5C 366.504,418.009 366.17,402.342 366.5,386.5C 361.586,388.3 357.253,391.134 353.5,395C 338.03,405.568 321.363,413.735 303.5,419.5C 310.089,415.827 317.089,412.66 324.5,410C 323.584,409.722 322.918,409.222 322.5,408.5C 322.5,408.167 322.5,407.833 322.5,407.5C 337.445,400.361 351.445,391.694 364.5,381.5 Z"/></g>
<g><path style="opacity:1" fill="#3a7db7" d="M 370.5,377.5 C 371.5,377.5 372.5,377.5 373.5,377.5C 373.5,388.5 373.5,399.5 373.5,410.5C 373.666,418.174 373.5,425.841 373,433.5C 372.333,436.167 371.667,436.167 371,433.5C 370.5,414.836 370.333,396.17 370.5,377.5 Z"/></g>
<g><path style="opacity:1" fill="#175082" d="M 358.5,374.5 C 361.056,374.132 363.056,374.966 364.5,377C 363.224,379.281 361.557,381.281 359.5,383C 347.746,391.87 335.412,399.703 322.5,406.5C 313.143,410.508 303.477,413.508 293.5,415.5C 291.5,415.5 289.5,415.5 287.5,415.5C 288.167,414.833 288.833,414.167 289.5,413.5C 313.645,406.761 335.645,395.761 355.5,380.5C 358.167,379.167 358.167,377.833 355.5,376.5C 356.5,375.833 357.5,375.167 358.5,374.5 Z"/></g>
<g><path style="opacity:1" fill="#2b71c3" d="M 253.5,376.5 C 250.59,391.055 249.924,405.721 251.5,420.5C 252.183,420.863 252.85,421.196 253.5,421.5C 253.5,422.5 253.5,423.5 253.5,424.5C 252.791,425.404 251.791,425.737 250.5,425.5C 249.5,425.5 248.5,425.5 247.5,425.5C 245.901,425.768 244.568,425.434 243.5,424.5C 243.5,423.833 243.5,423.167 243.5,422.5C 245.417,421.884 246.584,420.55 247,418.5C 248.226,406.516 247.393,394.85 244.5,383.5C 244.5,382.5 244.5,381.5 244.5,380.5C 245.828,383.798 247.328,387.131 249,390.5C 249.822,386.124 250.822,381.791 252,377.5C 252.383,376.944 252.883,376.611 253.5,376.5 Z"/></g>
<g><path style="opacity:0.337" fill="#4e7797" d="M 118.5,378.5 C 120.048,378.821 120.715,379.821 120.5,381.5C 120.5,396.833 120.5,412.167 120.5,427.5C 119.82,411.265 119.153,394.931 118.5,378.5 Z"/></g>
<g><path style="opacity:1" fill="#104f85" d="M 242.5,383.5 C 243.167,383.5 243.833,383.5 244.5,383.5C 247.393,394.85 248.226,406.516 247,418.5C 246.584,420.55 245.417,421.884 243.5,422.5C 226.183,421.837 209.516,418.503 193.5,412.5C 200.258,412.209 205.925,413.542 210.5,416.5C 213.029,416.071 215.362,415.404 217.5,414.5C 225.648,416.877 233.982,417.71 242.5,417C 243.056,416.617 243.389,416.117 243.5,415.5C 244.809,413.429 245.475,410.929 245.5,408C 244.056,399.983 243.056,391.816 242.5,383.5 Z"/></g>
<g><path style="opacity:1" fill="#3373b4" d="M 322.5,406.5 C 322.5,406.833 322.5,407.167 322.5,407.5C 322.5,407.833 322.5,408.167 322.5,408.5C 300.506,418.081 277.506,423.415 253.5,424.5C 253.5,423.5 253.5,422.5 253.5,421.5C 267.368,422.187 280.702,420.187 293.5,415.5C 303.477,413.508 313.143,410.508 322.5,406.5 Z"/></g>
<g><path style="opacity:1" fill="#074e85" d="M 253.5,376.5 C 253.833,376.5 254.167,376.5 254.5,376.5C 252.461,390.474 252.127,404.474 253.5,418.5C 259.509,418.666 265.509,418.499 271.5,418C 276.736,416.561 282.069,415.728 287.5,415.5C 289.5,415.5 291.5,415.5 293.5,415.5C 280.702,420.187 267.368,422.187 253.5,421.5C 252.85,421.196 252.183,420.863 251.5,420.5C 249.924,405.721 250.59,391.055 253.5,376.5 Z"/></g>
<g><path style="opacity:1" fill="#0c4f86" d="M 322.5,408.5 C 322.918,409.222 323.584,409.722 324.5,410C 317.089,412.66 310.089,415.827 303.5,419.5C 297.552,422.238 291.219,423.905 284.5,424.5C 273.203,425.671 261.87,426.338 250.5,426.5C 250.5,426.167 250.5,425.833 250.5,425.5C 251.791,425.737 252.791,425.404 253.5,424.5C 277.506,423.415 300.506,418.081 322.5,408.5 Z"/></g>
<g><path style="opacity:1" fill="#0d4d80" d="M 186.5,413.5 C 195.244,415.703 203.91,418.203 212.5,421C 222.752,422.917 233.085,424.083 243.5,424.5C 244.568,425.434 245.901,425.768 247.5,425.5C 247.5,447.5 247.5,469.5 247.5,491.5C 246.417,471.503 245.417,451.503 244.5,431.5C 244.715,429.821 244.048,428.821 242.5,428.5C 225.136,427.944 208.47,424.611 192.5,418.5C 190.309,417.14 188.309,415.474 186.5,413.5 Z"/></g>
<g><path style="opacity:1" fill="#174f7d" d="M 284.5,424.5 C 274.842,426.668 265.008,428.334 255,429.5C 254.337,452.54 253.504,475.54 252.5,498.5C 249.833,498.5 247.167,498.5 244.5,498.5C 244.5,495.167 244.5,491.833 244.5,488.5C 244.5,469.5 244.5,450.5 244.5,431.5C 245.417,451.503 246.417,471.503 247.5,491.5C 247.238,492.978 247.571,494.311 248.5,495.5C 249.314,493.234 249.814,490.9 250,488.5C 251.583,467.837 251.75,447.171 250.5,426.5C 261.87,426.338 273.203,425.671 284.5,424.5 Z"/></g>
<g><path style="opacity:1" fill="#285fa5" d="M 247.5,425.5 C 248.5,425.5 249.5,425.5 250.5,425.5C 250.5,425.833 250.5,426.167 250.5,426.5C 251.75,447.171 251.583,467.837 250,488.5C 249.814,490.9 249.314,493.234 248.5,495.5C 247.571,494.311 247.238,492.978 247.5,491.5C 247.5,469.5 247.5,447.5 247.5,425.5 Z"/></g>
<g><path style="opacity:0.212" fill="#527997" d="M 242.5,428.5 C 244.048,428.821 244.715,429.821 244.5,431.5C 244.5,450.5 244.5,469.5 244.5,488.5C 243.822,468.598 243.155,448.598 242.5,428.5 Z"/></g>
</svg>
