<svg width="256" height="256" xmlns="http://www.w3.org/2000/svg" fill="none">

 <g>
  <title>Layer 1</title>
  <path id="svg_1" fill="white" d="m230.721,153.6737c-0.538,-2.027 -1.408,-3.95 -2.575,-5.692c0.25,-0.917 0.441,-1.849 0.568,-2.791c0.829,-5.976 -1.243,-11.447 -5.147,-15.68c-2.115,-2.312 -4.382,-3.839 -6.783,-4.776c1.576,-6.743 2.373,-13.644 2.377,-20.568c0,-3.163 -0.179,-6.261 -0.479,-9.313c-0.156,-1.524 -0.345,-3.044 -0.567,-4.56c-0.687,-4.473 -1.707,-8.889 -3.051,-13.21c-0.881,-2.8393 -1.9,-5.634 -3.054,-8.374c-1.729,-4.0578 -3.748,-7.986 -6.041,-11.754c-1.504,-2.507 -3.142,-4.9312 -4.907,-7.262c-0.865,-1.177 -1.766,-2.3262 -2.704,-3.446c-2.778,-3.376 -5.797,-6.5463 -9.033,-9.486c-1.075,-0.9883 -2.18,-1.9427 -3.315,-2.862c-1.117,-0.9317 -2.259,-1.8333 -3.424,-2.704c-2.345,-1.7454 -4.768,-3.3828 -7.262,-4.907c-13.781,-8.37 -29.942,-13.17 -47.215,-13.17c-50.292,0 -91.052,40.762 -91.052,91.051c-0.002,7.012 0.81,14 2.42,20.824c-2.16,0.938 -4.23,2.4 -6.15,4.515c-3.903,4.231 -5.976,9.682 -5.147,15.658c0.126,0.949 0.315,1.889 0.567,2.813c-1.1659,1.743 -2.0353,3.667 -2.573,5.694c-1.2,4.561 -0.805,8.674 0.72,12.278c-1.658,4.71 -1.244,9.726 0.915,14.087c1.57,3.185 3.817,5.649 6.587,7.851c3.293,2.618 7.415,4.842 12.387,6.976c5.932,2.53 13.173,4.907 16.466,5.779c8.506,2.202 16.662,3.598 24.928,3.666c11.777,0.109 21.919,-2.66 29.18,-9.747c3.567,0.437 7.158,0.656 10.752,0.654c3.797,-0.008 7.59,-0.247 11.358,-0.715c7.244,7.132 17.425,9.926 29.245,9.814c8.265,-0.066 16.421,-1.462 24.905,-3.667c3.315,-0.872 10.553,-3.249 16.488,-5.779c4.972,-2.137 9.094,-4.361 12.409,-6.975c2.749,-2.203 4.994,-4.666 6.565,-7.851c2.181,-4.362 2.573,-9.378 0.938,-14.088c1.51,-3.604 1.903,-7.726 0.704,-12.283zm-8.44,11.973c1.671,3.171 1.778,6.754 0.304,10.091c-2.236,5.057 -7.79,9.041 -18.577,13.318c-6.708,2.66 -12.85,4.361 -12.904,4.376c-8.872,2.301 -16.896,3.47 -23.842,3.47c-11.502,0 -20.061,-3.174 -25.489,-9.442c-9.179,1.564 -18.551,1.617 -27.747,0.158c-5.435,6.164 -13.945,9.284 -25.35,9.284c-6.947,0 -14.97,-1.169 -23.843,-3.47c-0.054,-0.015 -6.194,-1.716 -12.904,-4.376c-10.786,-4.277 -16.342,-8.258 -18.577,-13.318c-1.474,-3.337 -1.367,-6.92 0.304,-10.091c0.154,-0.295 0.32,-0.582 0.497,-0.86c-1.0014,-1.504 -1.6731,-3.203 -1.971,-4.986c-0.2978,-1.782 -0.215,-3.607 0.243,-5.355c0.664,-2.523 2.035,-4.621 3.897,-6.128c-0.897,-1.474 -1.4855,-3.114 -1.73,-4.822c-0.536,-3.714 0.697,-7.422 3.47,-10.446c2.16,-2.353 5.213,-3.648 8.593,-3.648l0.09,0c-2.5485,-8.169 -3.8406,-16.678 -3.832,-25.235c0,-46.671 37.836,-84.51 84.514,-84.51c46.677,0 84.513,37.835 84.513,84.51c0.007,8.58 -1.294,17.111 -3.859,25.299c0.408,-0.04 0.808,-0.06 1.201,-0.061c3.38,0 6.434,1.295 8.592,3.648c2.773,3.021 4.007,6.732 3.47,10.446c-0.244,1.708 -0.833,3.348 -1.729,4.822c1.862,1.507 3.234,3.605 3.897,6.128c0.458,1.748 0.541,3.573 0.243,5.356c-0.297,1.782 -0.969,3.481 -1.971,4.985c0.177,0.275 0.345,0.562 0.497,0.857z"/>
  <path id="svg_2" fill="#FF9D00" d="m221.784,164.7897c1.002,-1.504 1.674,-3.203 1.972,-4.985c0.297,-1.783 0.214,-3.608 -0.244,-5.356c-0.664,-2.523 -2.036,-4.621 -3.897,-6.128c0.897,-1.474 1.485,-3.114 1.729,-4.822c0.537,-3.714 -0.696,-7.422 -3.47,-10.446c-2.158,-2.353 -5.212,-3.648 -8.592,-3.648c-0.393,0 -0.793,0.021 -1.201,0.061c2.562,-8.188 3.861,-16.718 3.852,-25.297c0,-46.6719 -37.836,-84.5099 -84.509,-84.5099c-46.674,0 -84.5141,37.834 -84.5141,84.5099c-0.0084,8.557 1.2837,17.066 3.8321,25.235l-0.0901,0c-3.38,0 -6.4329,1.294 -8.5919,3.647c-2.773,3.021 -4.0071,6.733 -3.4701,10.446c0.2447,1.708 0.8332,3.349 1.73,4.823c-1.862,1.506 -3.2339,3.604 -3.8979,6.127c-0.4578,1.749 -0.5403,3.574 -0.2421,5.357c0.2982,1.782 0.9702,3.482 1.972,4.986c-0.178,0.278 -0.342,0.565 -0.497,0.86c-1.67,3.171 -1.7779,6.754 -0.3029,10.091c2.236,5.057 7.7899,9.041 18.5769,13.318c6.707,2.66 12.8501,4.361 12.9041,4.376c8.872,2.301 16.896,3.47 23.842,3.47c11.406,0 19.916,-3.12 25.351,-9.284c9.196,1.459 18.568,1.405 27.747,-0.158c5.428,6.268 13.987,9.442 25.489,9.442c6.946,0 14.97,-1.169 23.841,-3.47c0.055,-0.015 6.195,-1.716 12.905,-4.376c10.787,-4.277 16.342,-8.261 18.577,-13.318c1.474,-3.337 1.367,-6.92 -0.304,-10.091c-0.152,-0.297 -0.32,-0.585 -0.497,-0.86zm-111.647,13.181c-0.468,0.818 -0.969,1.617 -1.502,2.394c-1.405,2.057 -3.253,3.629 -5.398,4.797c-4.1001,2.236 -9.29,3.017 -14.562,3.017c-8.329,0 -16.867,-1.949 -21.652,-3.19c-0.236,-0.061 -29.334,-8.28 -25.65,-15.276c0.62,-1.177 1.6399,-1.647 2.9249,-1.647c5.187,0 14.632,7.724 18.691,7.724c0.907,0 1.547,-0.386 1.808,-1.328c1.73,-6.204 -26.293,-8.812 -23.933,-17.796c0.416,-1.59 1.5461,-2.236 3.1341,-2.236c6.858,-0.001 22.25,12.06 25.469,12.06c0.247,0 0.4239,-0.073 0.5199,-0.225c0.014,-0.023 0.0281,-0.045 0.0411,-0.069c1.511,-2.495 0.6439,-4.309 -9.7071,-10.649l-0.994,-0.605c-11.391,-6.894 -19.386,-11.043 -14.839,-15.993c0.523,-0.571 1.265,-0.824 2.166,-0.824c1.068,0 2.361,0.357 3.785,0.957c6.016,2.537 14.3541,9.456 17.8371,12.473c0.5479,0.476 1.0923,0.957 1.6329,1.441c0,0 4.4101,4.586 7.0761,4.586c0.614,0 1.1349,-0.242 1.4879,-0.84c1.8911,-3.188 -17.563,-17.93 -18.66,-24.013c-0.744,-4.121 0.522,-6.209 2.862,-6.209c1.113,0 2.471,0.474 3.97,1.425c4.65,2.951 13.628,18.379 16.915,24.381c1.102,2.011 2.983,2.861 4.678,2.861c3.363,0 5.992,-3.343 0.308,-7.591c-8.543,-6.392 -5.5449,-16.84 -1.4679,-17.483c0.174,-0.028 0.3499,-0.042 0.5249,-0.042c3.708,0 5.343,6.389 5.343,6.389c0,0 4.794,12.038 13.0291,20.267c7.472,7.469 8.516,13.598 4.162,21.244zm26.629,1.41l-0.427,0.051l-0.728,0.083c-0.383,0.04 -0.767,0.078 -1.152,0.113l-0.375,0.034l-0.343,0.029l-0.486,0.039l-0.537,0.039l-0.536,0.035l-0.119,0.008c-0.14,0.008 -0.28,0.017 -0.422,0.024l-0.179,0.01c-0.166,0.009 -0.332,0.017 -0.5,0.024l-0.581,0.025l-0.527,0.018l-0.352,0.01l-0.179,0c-0.11,0 -0.219,0.006 -0.329,0.007l-0.174,0c-0.11,0 -0.219,0 -0.329,0.005l-0.448,0.006l-0.625,0c-0.491,0 -0.981,-0.005 -1.469,-0.015l-0.396,-0.009c-0.113,0 -0.226,-0.005 -0.337,-0.009l-0.42,-0.012l-0.521,-0.02l-0.47,-0.021l-0.121,-0.005l-0.447,-0.023c-0.125,-0.007 -0.248,-0.013 -0.372,-0.022l-0.289,-0.017c-0.363,-0.023 -0.726,-0.048 -1.089,-0.076l-0.38,-0.031c-0.16,-0.012 -0.32,-0.027 -0.479,-0.041c-0.187,-0.016 -0.374,-0.034 -0.561,-0.052c-0.313,-0.029 -0.626,-0.061 -0.939,-0.095l-0.015,0c4.57,-10.195 2.259,-19.717 -6.976,-28.944c-6.057,-6.049 -10.086,-14.981 -10.922,-16.942c-1.6921,-5.805 -6.17,-12.258 -13.607,-12.258c-0.629,0 -1.257,0.05 -1.878,0.148c-3.258,0.513 -6.106,2.388 -8.138,5.21c-2.196,-2.731 -4.33,-4.902 -6.26,-6.128c-2.91,-1.845 -5.8141,-2.781 -8.6431,-2.781c-3.531,0 -6.687,1.45 -8.887,4.08l-0.056,0.067c-0.042,-0.173 -0.082,-0.346 -0.123,-0.52l-0.005,-0.023c-0.4187,-1.79 -0.7702,-3.595 -1.054,-5.412c0,-0.012 0,-0.024 -0.006,-0.036c-0.022,-0.137 -0.042,-0.275 -0.063,-0.412c-0.0615,-0.406 -0.1192,-0.813 -0.173,-1.22c-0.024,-0.185 -0.05,-0.37 -0.073,-0.555l-0.068,-0.555c-0.022,-0.185 -0.04,-0.353 -0.06,-0.529l-0.0059,-0.044c-0.0799,-0.72 -0.1499,-1.44 -0.2101,-2.162l-0.022,-0.277l-0.035,-0.472c-0.01,-0.129 -0.02,-0.259 -0.027,-0.389c0,-0.031 -0.005,-0.061 -0.006,-0.09c-0.0254,-0.362 -0.0471,-0.725 -0.065,-1.088c-0.01,-0.189 -0.02,-0.377 -0.028,-0.567l-0.02,-0.496l-0.005,-0.15l-0.016,-0.457l-0.01,-0.389c0,-0.155 -0.008,-0.31 -0.01,-0.465c-0.003,-0.155 -0.007,-0.325 -0.008,-0.489c-0.002,-0.164 0,-0.326 -0.005,-0.489c-0.004,-0.164 0,-0.327 0,-0.49c0,-41.8529 33.931,-75.7839 75.7881,-75.7839c41.856,0 75.786,33.93 75.786,75.7839l0,0.979c0,0.163 -0.005,0.327 -0.008,0.489c0,0.135 -0.006,0.268 -0.01,0.405c0,0.12 -0.005,0.241 -0.009,0.357c0,0.153 -0.009,0.306 -0.014,0.459l0,0.012l-0.021,0.531c-0.007,0.155 -0.013,0.311 -0.021,0.466l-0.005,0.11l-0.027,0.496c-0.059,1.063 -0.14,2.124 -0.241,3.184l0,0.013c-0.017,0.174 -0.034,0.348 -0.053,0.522l-0.045,0.411l-0.089,0.804l-0.051,0.407l-0.063,0.479c-0.023,0.174 -0.046,0.349 -0.072,0.522c-0.026,0.195 -0.055,0.389 -0.084,0.583l-0.069,0.459l-0.082,0.52c-0.028,0.173 -0.058,0.345 -0.09,0.517c-0.033,0.173 -0.059,0.345 -0.089,0.517c-0.06,0.344 -0.123,0.688 -0.189,1.031c-0.101,0.513 -0.204,1.025 -0.31,1.537l-0.11,0.507c-0.036,0.169 -0.075,0.339 -0.113,0.508c-2.133,-2.073 -4.958,-3.202 -8.073,-3.202c-2.827,0 -5.734,0.935 -8.643,2.78c-1.93,1.226 -4.063,3.398 -6.26,6.128c-2.035,-2.822 -4.883,-4.697 -8.139,-5.21c-0.621,-0.098 -1.249,-0.148 -1.878,-0.148c-7.439,0 -11.914,6.453 -13.607,12.258c-0.84,1.961 -4.87,10.893 -10.932,16.951c-9.229,9.198 -11.557,18.677 -7.059,28.83zm78.241,-20.409l-0.03,0.089c-0.076,0.201 -0.164,0.397 -0.263,0.587c-0.075,0.14 -0.156,0.276 -0.244,0.408c-0.167,0.249 -0.35,0.487 -0.549,0.711c-0.046,0.052 -0.09,0.104 -0.142,0.155c-0.072,0.077 -0.145,0.153 -0.22,0.227c-1.346,1.334 -3.398,2.504 -5.718,3.577c-0.263,0.119 -0.53,0.238 -0.799,0.358l-0.268,0.119c-0.179,0.079 -0.358,0.157 -0.546,0.234c-0.179,0.078 -0.365,0.156 -0.551,0.232l-0.558,0.23c-1.305,0.537 -2.642,1.049 -3.946,1.554l-0.558,0.217l-0.551,0.216c-0.367,0.143 -0.729,0.286 -1.085,0.429l-0.531,0.214l-0.522,0.213l-0.256,0.108c-0.171,0.071 -0.338,0.142 -0.505,0.213c-3.837,1.647 -6.598,3.322 -6.018,5.4c0.016,0.059 0.034,0.115 0.054,0.17c0.052,0.154 0.123,0.299 0.212,0.436c0.052,0.081 0.112,0.158 0.179,0.228c0.682,0.709 1.923,0.597 3.488,0.034c0.22,-0.081 0.439,-0.165 0.656,-0.253l0.136,-0.056c0.358,-0.152 0.737,-0.322 1.124,-0.506c0.097,-0.046 0.195,-0.09 0.293,-0.141c1.914,-0.936 4.083,-2.196 6.235,-3.343c0.861,-0.465 1.734,-0.906 2.618,-1.325c2.038,-0.959 3.954,-1.639 5.494,-1.639c0.723,0 1.361,0.148 1.893,0.488l0.089,0.059c0.334,0.235 0.614,0.537 0.823,0.887c0.041,0.067 0.081,0.138 0.12,0.211c0.761,1.445 0.124,2.941 -1.367,4.408c-1.431,1.409 -3.657,2.79 -6.187,4.068c-0.188,0.095 -0.376,0.19 -0.567,0.283c-7.53,3.698 -17.391,6.483 -17.528,6.518c-2.628,0.681 -6.386,1.575 -10.62,2.244l-0.626,0.098l-0.103,0.015c-0.474,0.072 -0.949,0.139 -1.425,0.201c-0.483,0.065 -0.971,0.124 -1.462,0.179l-0.09,0.01c-1.78,0.205 -3.567,0.341 -5.358,0.406l-0.026,0c-0.648,0.023 -1.295,0.035 -1.943,0.035l-0.747,0c-0.988,-0.013 -1.974,-0.058 -2.959,-0.134c-0.023,0 -0.048,0 -0.071,-0.006c-0.353,-0.027 -0.705,-0.06 -1.057,-0.099c-0.365,-0.039 -0.729,-0.083 -1.092,-0.132c-0.239,-0.032 -0.477,-0.068 -0.715,-0.107c-0.242,-0.039 -0.484,-0.079 -0.725,-0.121l-0.329,-0.062l-0.025,-0.005c-0.347,-0.066 -0.692,-0.139 -1.036,-0.219c-0.2,-0.045 -0.399,-0.089 -0.596,-0.143l-0.119,-0.03c-0.098,-0.024 -0.193,-0.05 -0.29,-0.076l-0.053,-0.014l-0.308,-0.09c-0.112,-0.031 -0.224,-0.065 -0.336,-0.098l-0.039,-0.011l-0.291,-0.089c-0.11,-0.034 -0.22,-0.07 -0.329,-0.106l-0.268,-0.089l-0.197,-0.069c-0.19,-0.067 -0.379,-0.136 -0.566,-0.208l-0.178,-0.07l-0.147,-0.058c-0.284,-0.114 -0.566,-0.233 -0.845,-0.358l-0.185,-0.09l-0.031,-0.014c-0.066,-0.031 -0.131,-0.062 -0.197,-0.089c-0.129,-0.062 -0.257,-0.126 -0.384,-0.191l-0.039,-0.019l-0.184,-0.097c-0.327,-0.171 -0.647,-0.353 -0.961,-0.546l-0.172,-0.106c-0.086,-0.053 -0.172,-0.108 -0.256,-0.164l-0.224,-0.148l-0.241,-0.166l-0.144,-0.103c-0.152,-0.108 -0.301,-0.22 -0.447,-0.335l-0.233,-0.179c-0.093,-0.075 -0.185,-0.151 -0.276,-0.228c-0.077,-0.063 -0.152,-0.129 -0.227,-0.195l-0.006,-0.005c-0.081,-0.071 -0.16,-0.142 -0.239,-0.215c-0.078,-0.071 -0.156,-0.143 -0.232,-0.216l-0.009,-0.009c-0.08,-0.076 -0.158,-0.153 -0.235,-0.232c-0.077,-0.078 -0.156,-0.156 -0.231,-0.236c-0.075,-0.079 -0.152,-0.16 -0.226,-0.243c-0.074,-0.082 -0.142,-0.157 -0.212,-0.238l-0.023,-0.027c-0.068,-0.078 -0.135,-0.157 -0.201,-0.238c-0.143,-0.171 -0.282,-0.346 -0.416,-0.525c-0.135,-0.18 -0.267,-0.364 -0.396,-0.551l-0.123,-0.184c-0.164,-0.24 -0.324,-0.482 -0.479,-0.728c-0.116,-0.177 -0.229,-0.355 -0.339,-0.536c-0.071,-0.113 -0.139,-0.227 -0.207,-0.339l-0.028,-0.046c-0.065,-0.11 -0.129,-0.218 -0.191,-0.327c-0.036,-0.059 -0.07,-0.118 -0.102,-0.179c-0.033,-0.062 -0.071,-0.125 -0.106,-0.188l-0.057,-0.099l-0.035,-0.064c-0.067,-0.12 -0.133,-0.241 -0.197,-0.363c-0.03,-0.054 -0.059,-0.108 -0.09,-0.16l-0.089,-0.173l-0.09,-0.171c-0.225,-0.45 -0.438,-0.906 -0.638,-1.368l-0.071,-0.169c-0.046,-0.113 -0.089,-0.225 -0.135,-0.336c-0.022,-0.054 -0.044,-0.107 -0.063,-0.161c-0.107,-0.277 -0.207,-0.557 -0.299,-0.839c-0.033,-0.101 -0.065,-0.2 -0.095,-0.3c-0.072,-0.227 -0.137,-0.456 -0.195,-0.687c-0.071,-0.269 -0.134,-0.54 -0.187,-0.813c-0.011,-0.055 -0.022,-0.11 -0.031,-0.163c-0.052,-0.267 -0.094,-0.536 -0.127,-0.806c-0.008,-0.053 -0.014,-0.106 -0.02,-0.159l-0.017,-0.162c-0.022,-0.212 -0.039,-0.425 -0.049,-0.638c0,-0.054 -0.005,-0.108 -0.007,-0.16c-0.005,-0.106 -0.007,-0.212 -0.008,-0.318c-0.056,-4.273 2.106,-8.381 6.729,-13.002c8.235,-8.227 13.029,-20.266 13.029,-20.266c0,0 0.129,-0.505 0.397,-1.232c0.037,-0.101 0.076,-0.205 0.12,-0.314c0.156,-0.407 0.332,-0.807 0.527,-1.197l0.039,-0.075c0.166,-0.332 0.348,-0.656 0.544,-0.971c0.046,-0.073 0.09,-0.145 0.141,-0.218c0.147,-0.217 0.302,-0.429 0.465,-0.634c0.089,-0.111 0.186,-0.221 0.283,-0.328c0.039,-0.042 0.077,-0.084 0.118,-0.124c0.477,-0.493 1.022,-0.895 1.639,-1.109l0.078,-0.026c0.052,-0.017 0.104,-0.033 0.157,-0.048c0.061,-0.016 0.122,-0.03 0.185,-0.043l0.029,-0.006c0.13,-0.026 0.262,-0.043 0.395,-0.052l0.011,0c0.069,0 0.139,-0.007 0.21,-0.007c0.089,0 0.172,0 0.259,0.009c0.09,0.008 0.179,0.018 0.269,0.032c0.742,0.118 1.448,0.56 2.056,1.242c0.231,0.26 0.439,0.54 0.621,0.836c0.12,0.192 0.233,0.395 0.34,0.609c0.043,0.089 0.084,0.171 0.124,0.259c0.104,0.226 0.198,0.456 0.28,0.691c0.195,0.55 0.342,1.116 0.439,1.692c0.084,0.505 0.134,1.015 0.15,1.526c0.008,0.273 0.008,0.55 0,0.829c-0.054,1.298 -0.32,2.579 -0.787,3.792c-0.042,0.111 -0.089,0.223 -0.134,0.335c-0.092,0.226 -0.193,0.448 -0.302,0.665c-0.081,0.165 -0.166,0.331 -0.258,0.496c-0.06,0.11 -0.123,0.22 -0.186,0.33c-0.161,0.274 -0.335,0.546 -0.522,0.817l-0.113,0.162c-0.442,0.616 -0.934,1.194 -1.472,1.728c-0.53,0.531 -1.098,1.022 -1.699,1.47c-0.602,0.446 -1.167,0.94 -1.689,1.477c-1.503,1.577 -1.853,2.969 -1.515,4.024c0.054,0.166 0.125,0.327 0.211,0.479c0.101,0.174 0.221,0.334 0.357,0.48l0.053,0.055l0.054,0.054c0.054,0.052 0.111,0.103 0.172,0.153l0.06,0.048c0.145,0.112 0.299,0.212 0.46,0.3c0.047,0.025 0.089,0.05 0.142,0.074c0.174,0.085 0.353,0.158 0.537,0.217c0.051,0.017 0.102,0.032 0.154,0.048l0.065,0.017l0.09,0.024l0.077,0.019l0.084,0.018l0.083,0.017l0.079,0.013c0.058,0.01 0.118,0.02 0.178,0.027l0.057,0.009l0.104,0.01l0.064,0.007l0.105,0.007l0.062,0l0.11,0.006l0.346,0l0.099,-0.006l0.114,-0.007l0.139,-0.013l0.13,-0.015c0.03,0 0.06,-0.008 0.09,-0.014c0.4,-0.058 0.792,-0.164 1.167,-0.316l0.159,-0.067c0.089,-0.039 0.179,-0.08 0.261,-0.124c0.176,-0.088 0.347,-0.188 0.511,-0.297c0.229,-0.15 0.445,-0.318 0.647,-0.503c0.048,-0.043 0.095,-0.089 0.141,-0.133c0.023,-0.022 0.045,-0.043 0.067,-0.067c0.044,-0.045 0.089,-0.089 0.133,-0.138c0.32,-0.352 0.597,-0.74 0.825,-1.157c1.957,-3.559 4.008,-7.065 6.151,-10.514l0.294,-0.471l0.297,-0.471c0.148,-0.239 0.298,-0.474 0.447,-0.708l0.15,-0.234c0.498,-0.78 1.004,-1.555 1.519,-2.324l0.305,-0.456c0.612,-0.907 1.222,-1.789 1.827,-2.627l0.301,-0.415c0.658,-0.907 1.343,-1.795 2.054,-2.661l0.282,-0.338c0.047,-0.056 0.09,-0.112 0.141,-0.166c0.093,-0.11 0.186,-0.217 0.277,-0.321c0.046,-0.053 0.089,-0.105 0.138,-0.157l0.268,-0.302l0.134,-0.147c0.135,-0.145 0.267,-0.284 0.397,-0.417c0.09,-0.09 0.173,-0.179 0.259,-0.263c0.507,-0.518 1.066,-0.983 1.669,-1.386l0.14,-0.09c0.134,-0.09 0.273,-0.174 0.415,-0.25c2.364,-1.342 4.321,-1.441 5.448,-0.314c0.682,0.682 1.06,1.813 1.039,3.387c0,0.069 0,0.139 -0.005,0.211l0,0.077c0,0.072 -0.006,0.144 -0.012,0.217c0,0.09 -0.01,0.179 -0.019,0.269c-0.009,0.089 -0.014,0.157 -0.023,0.237c0,0.022 -0.004,0.045 -0.008,0.069c-0.006,0.069 -0.015,0.14 -0.025,0.211c0,0.021 0,0.043 -0.008,0.065c-0.011,0.095 -0.025,0.189 -0.041,0.283c-0.011,0.09 -0.026,0.174 -0.042,0.262l-0.026,0.149c-0.026,0.142 -0.059,0.282 -0.1,0.42c-0.078,0.259 -0.172,0.512 -0.283,0.758c-0.155,0.338 -0.326,0.667 -0.514,0.987c-0.104,0.178 -0.211,0.353 -0.322,0.526c-0.114,0.179 -0.234,0.36 -0.358,0.543c-0.316,0.452 -0.644,0.895 -0.985,1.328l-0.156,0.197c-0.556,0.693 -1.13,1.372 -1.722,2.035l-0.187,0.21c-0.252,0.281 -0.508,0.564 -0.77,0.848l-0.197,0.214c-0.131,0.143 -0.268,0.286 -0.4,0.43c-0.131,0.143 -0.268,0.288 -0.406,0.433l-0.411,0.433l-0.417,0.436l-0.42,0.436c-0.282,0.292 -0.565,0.584 -0.85,0.876c-4.055,4.159 -8.327,8.304 -9.773,10.888c-0.097,0.168 -0.184,0.342 -0.262,0.519c-0.206,0.47 -0.292,0.872 -0.233,1.197c0.019,0.107 0.056,0.209 0.111,0.303c0.081,0.141 0.18,0.271 0.295,0.387c0.053,0.052 0.109,0.1 0.168,0.144c0.298,0.212 0.657,0.321 1.023,0.311l0.114,0l0.117,-0.009l0.117,-0.013l0.097,-0.014c0.013,-0.002 0.027,-0.004 0.04,-0.008l0.089,-0.017l0.023,-0.005l0.099,-0.021l0.035,-0.009c0.035,-0.009 0.069,-0.018 0.104,-0.028c0.035,-0.01 0.083,-0.023 0.125,-0.037c0.176,-0.053 0.348,-0.116 0.517,-0.188c0.089,-0.036 0.176,-0.075 0.262,-0.117c0.045,-0.02 0.09,-0.041 0.132,-0.063l0.134,-0.066c0.32,-0.166 0.632,-0.347 0.936,-0.541l0.133,-0.09c0.045,-0.028 0.09,-0.057 0.133,-0.089l0.133,-0.089l0.071,-0.049l0.192,-0.135c0.179,-0.123 0.346,-0.25 0.515,-0.379l0.015,-0.012l0.269,-0.208c0.367,-0.29 0.715,-0.582 1.031,-0.857l0.21,-0.184l0.019,-0.018l0.11,-0.097c0.258,-0.232 0.488,-0.448 0.679,-0.626l0.079,-0.077c0.069,-0.065 0.132,-0.126 0.189,-0.178l0.112,-0.111l0.04,-0.039l0.011,-0.011l0.117,-0.117l0.074,-0.077l0.009,-0.007l0.035,-0.032l0.044,-0.04l0.014,-0.013l0.037,-0.034l0.204,-0.179l0.114,-0.102c0.061,-0.053 0.12,-0.107 0.179,-0.162l0.136,-0.121c0.025,-0.02 0.049,-0.042 0.074,-0.064l0.143,-0.125l0.21,-0.185l0.112,-0.097c0.435,-0.378 0.964,-0.835 1.572,-1.35l0.249,-0.211l0.411,-0.345l0.421,-0.351c0.55,-0.457 1.142,-0.942 1.768,-1.445l0.411,-0.33c0.35,-0.279 0.709,-0.563 1.073,-0.849c0.147,-0.115 0.296,-0.23 0.448,-0.344c0.372,-0.289 0.746,-0.576 1.123,-0.859c0.858,-0.648 1.743,-1.297 2.639,-1.929l0.384,-0.268c0.269,-0.185 0.537,-0.371 0.805,-0.552l0.243,-0.164c0.479,-0.325 0.965,-0.642 1.455,-0.951l0.243,-0.153l0.241,-0.15c0.242,-0.15 0.482,-0.297 0.721,-0.44l0.239,-0.143l0.478,-0.278l0.469,-0.269l0.095,-0.052l0.371,-0.204c0.155,-0.084 0.309,-0.165 0.463,-0.244l0.229,-0.118l0.223,-0.112c0.078,-0.037 0.155,-0.076 0.231,-0.113c0.502,-0.248 1.014,-0.476 1.534,-0.684c0.141,-0.06 0.281,-0.114 0.42,-0.161l0.41,-0.144c0.123,-0.041 0.243,-0.08 0.358,-0.115l0.04,-0.012c0.062,-0.02 0.124,-0.038 0.185,-0.054l0.018,-0.005c0.128,-0.037 0.255,-0.069 0.38,-0.099l0.009,0c0.354,-0.085 0.714,-0.146 1.077,-0.183c0.167,-0.017 0.334,-0.026 0.502,-0.025l0.084,0c0.112,0 0.22,0.007 0.327,0.018c0.049,0 0.098,0.01 0.146,0.016l0.02,0c0.048,0.006 0.096,0.013 0.144,0.024c0.047,0.009 0.095,0.017 0.141,0.028l0.015,0c0.047,0.01 0.089,0.022 0.138,0.036c0.254,0.071 0.496,0.181 0.718,0.325c0.109,0.071 0.211,0.151 0.305,0.24l0.027,0.026c0.018,0.016 0.035,0.033 0.051,0.05l0.049,0.053c0.402,0.421 0.734,0.904 0.984,1.43l0.038,0.09c0.085,0.2 0.152,0.407 0.2,0.618c0.142,0.646 0.087,1.32 -0.158,1.935c-0.093,0.248 -0.206,0.487 -0.339,0.715c-0.311,0.524 -0.68,1.011 -1.099,1.452l-0.089,0.095c-0.133,0.14 -0.271,0.28 -0.416,0.42c-0.064,0.063 -0.131,0.125 -0.198,0.188l-0.205,0.189l-0.107,0.095c-0.258,0.23 -0.523,0.453 -0.792,0.669c-0.163,0.132 -0.327,0.261 -0.493,0.388c-0.586,0.448 -1.183,0.88 -1.791,1.297c-0.367,0.252 -0.737,0.499 -1.11,0.743c-0.919,0.603 -1.848,1.191 -2.786,1.763c-1.968,1.21 -4.149,2.504 -6.474,3.911l-0.602,0.365c-0.659,0.402 -1.281,0.786 -1.867,1.152l-0.295,0.185l-0.558,0.358c-0.37,0.237 -0.739,0.476 -1.108,0.715l-0.297,0.196c-0.145,0.094 -0.289,0.19 -0.433,0.286l-0.141,0.09l-0.432,0.291l-0.229,0.157l-0.268,0.186l-0.249,0.173c-0.417,0.295 -0.805,0.576 -1.162,0.843l-0.134,0.102c-0.21,0.159 -0.418,0.321 -0.623,0.486c-0.309,0.249 -0.591,0.487 -0.844,0.716l-0.124,0.113c-0.071,0.065 -0.141,0.13 -0.208,0.194c-0.046,0.045 -0.089,0.09 -0.137,0.133l-0.064,0.064c-0.143,0.144 -0.283,0.291 -0.418,0.442l-0.066,0.076c-0.147,0.17 -0.275,0.333 -0.387,0.492l-0.05,0.071c-0.088,0.128 -0.169,0.26 -0.242,0.396c-0.019,0.034 -0.036,0.068 -0.053,0.102l-0.049,0.102l-0.033,0.074l-0.021,0.05l-0.017,0.045l-0.023,0.061c-0.062,0.169 -0.105,0.345 -0.13,0.523l-0.008,0.062l-0.006,0.058l0,0.315c0,0.026 0,0.052 0.007,0.08l0.005,0.048c0,0.026 0.006,0.051 0.01,0.079c0.004,0.026 0.011,0.073 0.019,0.11l0,0.005c0.007,0.035 0.014,0.069 0.023,0.104c0.009,0.035 0.018,0.075 0.029,0.111c0.019,0.071 0.043,0.141 0.068,0.211c0.016,0.042 0.031,0.083 0.048,0.124c0,0.008 0.006,0.017 0.01,0.025l0.036,0.081l0.05,0.111c0.054,0.115 0.113,0.227 0.177,0.336l0.066,0.114l0.068,0.114c0.012,0.019 0.026,0.037 0.041,0.054l0.022,0.023l0.025,0.023l0.026,0.02c0.038,0.027 0.079,0.048 0.122,0.063c0.023,0.008 0.047,0.014 0.071,0.02c0.577,0.13 1.763,-0.347 3.339,-1.179c0.089,-0.048 0.187,-0.098 0.282,-0.15l0.48,-0.262l0.234,-0.13c0.167,-0.089 0.337,-0.19 0.511,-0.289l0.317,-0.179c2.083,-1.199 4.571,-2.739 7.143,-4.243c0.241,-0.141 0.483,-0.282 0.725,-0.421l0.486,-0.311c0.564,-0.323 1.131,-0.642 1.7,-0.957c0.717,-0.394 1.439,-0.778 2.168,-1.15l0.476,-0.241c0.316,-0.156 0.629,-0.308 0.938,-0.456c0.598,-0.284 1.203,-0.554 1.815,-0.809l0.335,-0.136l0.04,-0.016c1.775,-0.703 3.384,-1.137 4.686,-1.137c0.281,-0.003 0.563,0.021 0.84,0.069l0.009,0c0.089,0.016 0.17,0.034 0.253,0.054l0.015,0c0.213,0.054 0.42,0.131 0.616,0.23c0.275,0.142 0.522,0.331 0.731,0.559c0.096,0.106 0.181,0.221 0.256,0.343c0.14,0.215 0.25,0.448 0.329,0.692c0.032,0.095 0.06,0.188 0.089,0.287c0.211,0.757 0.19,1.56 -0.06,2.305z"/>
  <path id="svg_3" fill="#FFD21E" d="m202.21,104.6587l0,-0.491c0,-41.854 -33.918,-75.783 -75.775,-75.783c-41.8559,0 -75.787,33.931 -75.787,75.783l0,0.164c-0.002,0.109 -0.003,0.218 0,0.327c0.0049,0.163 0.0066,0.326 0.005,0.489l0.0051,0.36l0.0029,0.129c0,0.06 0.0021,0.119 0.0041,0.179c0.003,0.095 0.0049,0.191 0.0049,0.286l0.011,0.389l0.016,0.457l0.005,0.15l0.02,0.473l0,0.023c0.008,0.185 0.0181,0.369 0.0271,0.553l0.0009,0.014c0.01,0.188 0.0201,0.377 0.0321,0.566c0.01,0.174 0.0199,0.348 0.0329,0.522l0.0021,0.031c0.0087,0.149 0.0187,0.299 0.0299,0.448l0.003,0.04l0.033,0.432l0.0031,0.028c0.006,0.084 0.0119,0.168 0.0199,0.249c0.0598,0.721 0.1295,1.442 0.2091,2.161l0.0049,0.045l0.061,0.529l0.0681,0.555l0.0499,0.377l0.023,0.177c0.0533,0.408 0.111,0.815 0.173,1.221l0.0041,0.027l0.0589,0.384c0.2855,1.829 0.6391,3.647 1.06,5.45l0.0051,0.022l0.0319,0.135l0.091,0.385l0.056,-0.067c2.2,-2.63 5.356,-4.08 8.887,-4.08c2.83,0 5.7331,0.936 8.6431,2.781c1.93,1.226 4.064,3.397 6.26,6.128c2.032,-2.822 4.88,-4.698 8.138,-5.21c0.6212,-0.098 1.2491,-0.147 1.878,-0.148c7.436,0 11.9149,6.453 13.6069,12.258c0.836,1.961 4.865,10.893 10.941,16.935c9.236,9.227 11.547,18.748 6.976,28.943l0.016,0c0.311,0.035 0.624,0.067 0.939,0.096c0.187,0.018 0.373,0.036 0.561,0.052l0.066,0.006l0.413,0.035l0.38,0.03c0.362,0.028 0.725,0.054 1.089,0.077l0.289,0.017l0.229,0.014l0.142,0.008l0.447,0.023l0.122,0.005l0.469,0.021l0.522,0.02l0.419,0.012l0.07,0.002c0.089,0.004 0.178,0.007 0.267,0.007l0.096,0.003c0.59,0.014 1.179,0.021 1.769,0.02l0.626,0l0.447,-0.005c0.11,-0.005 0.219,-0.005 0.33,-0.005l0.174,0l0.151,-0.004c0.059,-0.002 0.118,-0.004 0.178,-0.004l0.179,0l0.351,-0.009l0.528,-0.018l0.581,-0.026c0.168,-0.006 0.334,-0.015 0.5,-0.023l0.179,-0.011l0.266,-0.014l0.156,-0.009l0.118,-0.008l0.537,-0.035l0.536,-0.039l0.487,-0.039l0.342,-0.029l0.376,-0.034c0.628,-0.056 1.254,-0.122 1.88,-0.197l0.427,-0.051c-4.499,-10.152 -2.17,-19.632 7.027,-28.822c6.063,-6.058 10.092,-14.99 10.932,-16.952c1.693,-5.804 6.169,-12.257 13.607,-12.257c0.629,0 1.258,0.05 1.879,0.148c3.255,0.512 6.103,2.388 8.138,5.21c2.197,-2.73 4.33,-4.903 6.261,-6.129c2.909,-1.844 5.815,-2.78 8.642,-2.78c3.116,0 5.94,1.13 8.073,3.203c0.039,-0.169 0.077,-0.338 0.114,-0.508l0.109,-0.506c0.039,-0.185 0.078,-0.37 0.115,-0.555c0.066,-0.327 0.132,-0.654 0.195,-0.984c0.066,-0.342 0.129,-0.686 0.189,-1.03l0.031,-0.186c0.019,-0.11 0.037,-0.22 0.058,-0.331c0.034,-0.172 0.062,-0.344 0.09,-0.518l0.011,-0.066l0.071,-0.453l0.07,-0.459l0,-0.004c0.051,-0.339 0.099,-0.678 0.144,-1.017l0.011,-0.084l0.063,-0.478l0.051,-0.408l0.09,-0.804l0.035,-0.323l0.009,-0.088c0.019,-0.174 0.037,-0.348 0.053,-0.522l0,-0.014c0.013,-0.138 0.027,-0.277 0.039,-0.416c0.071,-0.788 0.131,-1.58 0.179,-2.375c0.009,-0.13 0.016,-0.261 0.024,-0.392l0,-0.006l0.026,-0.491l0.006,-0.11c0.016,-0.332 0.03,-0.664 0.041,-0.996l0,-0.012l0.005,-0.13c0.005,-0.109 0.009,-0.219 0.009,-0.329l0.002,-0.044c0.004,-0.103 0.008,-0.209 0.008,-0.314l0.003,-0.09c0.003,-0.105 0.006,-0.209 0.006,-0.314l0.002,-0.089c0.003,-0.133 0.006,-0.267 0.006,-0.4l0,-0.489zm-94.572,75.706c6.002,-8.801 5.576,-15.407 -2.658,-23.637c-8.2359,-8.231 -13.029,-20.267 -13.029,-20.267c0,0 -1.7889,-6.991 -5.8689,-6.349c-4.08,0.642 -7.073,11.089 1.47,17.484c8.542,6.395 -1.7,10.731 -4.988,4.73c-3.288,-6.002 -12.2651,-21.429 -16.9191,-24.38c-4.654,-2.951 -7.927,-1.297 -6.83,4.785c0.545,3.019 5.6131,8.172 10.3481,12.986c4.804,4.884 9.2649,9.42 8.3109,11.025c-1.893,3.187 -8.5599,-3.745 -8.5599,-3.745c0,0 -20.8761,-18.998 -25.4201,-14.047c-4.19,4.563 2.271,8.442 12.2271,14.421c0.846,0.508 1.718,1.032 2.611,1.572c11.391,6.896 12.2769,8.715 10.6599,11.324c-0.597,0.964 -4.41,-1.325 -9.1,-4.14c-7.995,-4.801 -18.5369,-11.13 -20.0259,-5.465c-1.288,4.903 6.4679,7.907 13.5019,10.632c5.86,2.27 11.2201,4.346 10.4311,7.164c-0.817,2.922 -5.246,0.485 -10.087,-2.179c-5.435,-2.991 -11.39,-6.267 -13.339,-2.57c-3.683,6.99 25.41,15.219 25.65,15.28c9.4,2.438 33.2719,7.604 41.6149,-4.624zm38.665,0c-6.002,-8.801 -5.576,-15.407 2.659,-23.637c8.235,-8.231 13.028,-20.267 13.028,-20.267c0,0 1.789,-6.991 5.869,-6.349c4.08,0.642 7.073,11.089 -1.469,17.484c-8.543,6.395 1.699,10.731 4.987,4.73c3.289,-6.002 12.26,-21.429 16.914,-24.38c4.654,-2.951 7.929,-1.297 6.831,4.785c-0.544,3.019 -5.613,8.172 -10.348,12.987c-4.804,4.884 -9.265,9.419 -8.312,11.024c1.893,3.187 8.565,-3.749 8.565,-3.749c0,0 20.875,-18.997 25.421,-14.046c4.189,4.562 -2.272,8.442 -12.229,14.421c-0.871,0.523 -1.741,1.047 -2.61,1.572c-11.391,6.896 -12.277,8.715 -10.661,11.323c0.598,0.965 4.411,-1.325 9.1,-4.14c7.996,-4.8 18.538,-11.13 20.027,-5.464c1.289,4.903 -6.468,7.907 -13.502,10.632c-5.86,2.27 -11.22,4.346 -10.432,7.164c0.816,2.921 5.244,0.484 10.084,-2.18c5.435,-2.991 11.391,-6.269 13.339,-2.569c3.684,6.994 -25.414,15.215 -25.649,15.275c-9.4,2.446 -33.272,7.612 -41.612,-4.616z" clip-rule="evenodd" fill-rule="evenodd"/>
  <path id="svg_4" fill="#32343D" d="m152.047,83.5407c1.182,0.418 2.061,1.69 2.897,2.901c1.13,1.636 2.182,3.159 3.796,2.301c1.904,-1.013 3.465,-2.567 4.485,-4.467c1.021,-1.9 1.456,-4.0593 1.25,-6.206c-0.154,-1.6052 -0.662,-3.1562 -1.488,-4.5412c-0.826,-1.3851 -1.949,-2.5698 -3.287,-3.4686c-1.339,-0.8988 -2.861,-1.4894 -4.455,-1.7293c-1.595,-0.2399 -3.223,-0.123 -4.767,0.3421c-1.544,0.4649 -2.965,1.2663 -4.162,2.3465c-1.197,1.0802 -2.14,2.4123 -2.76,3.9005c-0.62,1.4882 -0.903,3.0955 -0.828,4.706c0.076,1.611 0.507,3.184 1.264,4.608c0.748,1.407 2.408,0.743 4.16,0.042c1.373,-0.549 2.804,-1.121 3.895,-0.735zm-51.375,0c-1.182,0.418 -2.061,1.691 -2.897,2.901c-1.13,1.637 -2.183,3.159 -3.796,2.301c-2.3945,-1.268 -4.2308,-3.383 -5.1512,-5.931c-0.9203,-2.5485 -0.8586,-5.3484 0.173,-7.8539c1.0316,-2.5055 2.9593,-4.537 5.4072,-5.6986c2.448,-1.1616 5.2408,-1.3699 7.834,-0.5845c2.065,0.6218 3.899,1.8417 5.271,3.5055c1.372,1.6639 2.219,3.697 2.436,5.8425c0.216,2.1455 -0.209,4.307 -1.221,6.211c-0.749,1.407 -2.409,0.743 -4.161,0.043c-1.374,-0.55 -2.803,-1.122 -3.895,-0.736zm43.427,46.751c8.143,-6.415 11.134,-16.889 11.134,-23.341c0,-5.1 -3.431,-3.495 -8.924,-0.775l-0.31,0.153c-5.042,2.497 -11.754,5.822 -19.122,5.822c-7.369,0 -14.081,-3.325 -19.122,-5.823c-5.671,-2.809 -9.228,-4.571 -9.228,0.624c0,6.656 3.182,17.585 11.916,23.934c1.153,-2.339 2.776,-4.415 4.768,-6.099c1.991,-1.684 4.309,-2.939 6.807,-3.687c0.872,-0.26 1.77,1.241 2.689,2.778c0.887,1.482 1.794,2.998 2.716,2.998c0.983,0 1.948,-1.494 2.891,-2.952c0.985,-1.525 1.946,-3.01 2.875,-2.713c4.675,1.501 8.586,4.756 10.91,9.081z" clip-rule="evenodd" fill-rule="evenodd"/>
  <path id="svg_5" fill="#FF323D" d="m144.097,130.2907c-4.241,3.342 -9.878,5.583 -17.219,5.583c-6.897,0 -12.291,-1.978 -16.435,-4.989c1.153,-2.339 2.776,-4.416 4.768,-6.099c1.991,-1.684 4.309,-2.939 6.807,-3.687c1.712,-0.511 3.527,5.776 5.405,5.776c2.01,0 3.947,-6.246 5.766,-5.665c4.674,1.502 8.584,4.757 10.908,9.081z"/>
  <path id="svg_6" fill="#FFAD03" d="m81.2,92.6137c-0.9688,0.648 -2.0827,1.047 -3.2428,1.161c-1.1601,0.115 -2.3305,-0.059 -3.4072,-0.506c-0.8607,-0.355 -1.6428,-0.877 -2.3012,-1.536c-0.6585,-0.658 -1.1804,-1.44 -1.5358,-2.301c-0.446,-1.077 -0.6195,-2.247 -0.5048,-3.407c0.1146,-1.16 0.5137,-2.274 1.1618,-3.243c0.7788,-1.166 1.8858,-2.0747 3.1812,-2.6113c1.2954,-0.5366 2.7208,-0.677 4.0959,-0.4032c1.3752,0.2737 2.6382,0.9492 3.6293,1.9405c0.9911,0.992 1.6658,2.256 1.9386,3.631c0.2733,1.375 0.1327,2.8 -0.4037,4.095c-0.5365,1.295 -1.4459,2.401 -2.6113,3.18zm101.413,0c-0.969,0.648 -2.083,1.047 -3.243,1.161c-1.161,0.115 -2.331,-0.059 -3.408,-0.506c-0.861,-0.356 -1.643,-0.877 -2.301,-1.536c-0.658,-0.658 -1.18,-1.44 -1.536,-2.301c-0.445,-1.077 -0.618,-2.247 -0.504,-3.407c0.115,-1.16 0.514,-2.274 1.161,-3.243c0.582,-0.872 1.351,-1.603 2.25,-2.1422c0.899,-0.5389 1.906,-0.8716 2.949,-0.9741c1.044,-0.1026 2.097,0.0276 3.083,0.3811c0.987,0.3536 1.883,0.9216 2.624,1.6632c0.992,0.991 1.667,2.254 1.94,3.629c0.274,1.375 0.133,2.8 -0.404,4.095c-0.537,1.295 -1.445,2.401 -2.611,3.18z" clip-rule="evenodd" fill-rule="evenodd"/>
  <text font-weight="bold" transform="matrix(6.06322 0 0 6.06322 -174.467 -1067.2)" stroke="null" xml:space="preserve" text-anchor="start" font-family="Noto Sans JP" font-size="16" stroke-width="0" id="svg_7" y="214.67522" x="34.60758" fill="#000000">Hub</text>
 </g>
</svg>