<svg height="512pt" viewBox="0 0 512 512" width="512pt" xmlns="http://www.w3.org/2000/svg"><path d="m392.128906 474c0 13.253906-10.746094 24-24 24s-24-10.746094-24-24 10.746094-24 24-24 24 10.746094 24 24zm0 0" fill="#c9f3ff"/><path d="m276.128906 474c0 15.464844-12.535156 28-28 28s-28-12.535156-28-28 12.535156-28 28-28 28 12.535156 28 28zm0 0" fill="#ffb954"/><path d="m276 30c0 11.046875-8.953125 20-20 20s-20-8.953125-20-20 8.953125-20 20-20 20 8.953125 20 20zm0 0" fill="#ffb954"/><path d="m66 272c0 15.464844-12.535156 28-28 28s-28-12.535156-28-28 12.535156-28 28-28 28 12.535156 28 28zm0 0" fill="#72d8ff"/><path d="m62 388.945312c0 13.257813-10.746094 24-24 24s-24-10.742187-24-24c0-13.253906 10.746094-24 24-24s24 10.746094 24 24zm0 0" fill="#ff5d5d"/><path d="m502 176c0 15.464844-12.535156 28-28 28s-28-12.535156-28-28 12.535156-28 28-28 28 12.535156 28 28zm0 0" fill="#ff5d5d"/><path d="m176 205h160v160h-160zm0 0" fill="#ffb954"/><path d="m220 249h72v72h-72zm0 0" fill="#fff"/><path d="m474 355c-2.628906 0-5.210938 1.070312-7.070312 2.929688-1.859376 1.859374-2.929688 4.441406-2.929688 7.070312s1.070312 5.210938 2.929688 7.070312c1.859374 1.859376 4.441406 2.929688 7.070312 2.929688s5.210938-1.070312 7.070312-2.929688c1.859376-1.859374 2.929688-4.441406 2.929688-7.070312s-1.070312-5.210938-2.929688-7.070312c-1.859374-1.859376-4.441406-2.929688-7.070312-2.929688zm0 0"/><path d="m474 395c-5.523438 0-10 4.476562-10 10v59h-63.375c-4.28125-13.882812-17.226562-24-32.496094-24-18.746094 0-34 15.253906-34 34s15.253906 34 34 34c15.269532 0 28.21875-10.117188 32.496094-24h73.375c5.523438 0 10-4.476562 10-10v-69c0-5.523438-4.476562-10-10-10zm-105.871094 93c-7.71875 0-14-6.28125-14-14s6.28125-14 14-14 14 6.28125 14 14-6.28125 14-14 14zm0 0"/><path d="m368.128906 460c-7.71875 0-14 6.28125-14 14s6.28125 14 14 14 14-6.28125 14-14-6.28125-14-14-14zm0 0" fill="#c9f3ff"/><path d="m248.128906 456c-9.925781 0-18 8.074219-18 18s8.074219 18 18 18c9.925782 0 18-8.074219 18-18s-8.074218-18-18-18zm0 0" fill="#ffb954"/><path d="m248.128906 436c-17.492187 0-32.253906 11.882812-36.65625 28h-163.472656v-42.128906c0-.140625-.015625-.28125-.019531-.421875 13.890625-4.273438 24.019531-17.226563 24.019531-32.503907 0-18.746093-15.253906-34-34-34s-34 15.253907-34 34c0 15.277344 10.128906 28.230469 24.019531 32.503907-.003906.140625-.019531.28125-.019531.421875v52.128906c0 5.523438 4.476562 10 10 10h173.472656c4.402344 16.117188 19.164063 28 36.65625 28 20.953125 0 38-17.046875 38-38s-17.046875-38-38-38zm-210.128906-61.054688c7.71875 0 14 6.28125 14 14 0 7.722657-6.28125 14-14 14s-14-6.277343-14-14c0-7.71875 6.28125-14 14-14zm210.128906 117.054688c-9.925781 0-18-8.074219-18-18s8.074219-18 18-18c9.925782 0 18 8.074219 18 18s-8.074218 18-18 18zm0 0"/><path d="m256 20c-5.515625 0-10 4.484375-10 10s4.484375 10 10 10 10-4.484375 10-10-4.484375-10-10-10zm0 0" fill="#ffb954"/><path d="m38 290c9.925781 0 18-8.074219 18-18s-8.074219-18-18-18-18 8.074219-18 18 8.074219 18 18 18zm0 0" fill="#72d8ff"/><path d="m38 310c20.953125 0 38-17.046875 38-38 0-17.492188-11.882812-32.253906-28-36.65625v-54.003906l56.3125-37.71875c4.589844-3.070313 5.820312-9.28125 2.746094-13.871094-3.074219-4.589844-9.285156-5.816406-13.875-2.742188l-60.75 40.683594c-2.769532 1.855469-4.433594 4.972656-4.433594 8.308594v59.34375c-16.117188 4.402344-28 19.164062-28 36.65625 0 20.953125 17.046875 38 38 38zm0-56c9.925781 0 18 8.074219 18 18s-8.074219 18-18 18-18-8.074219-18-18 8.074219-18 18-18zm0 0"/><path d="m38 402.945312c7.71875 0 14-6.277343 14-14 0-7.71875-6.28125-14-14-14s-14 6.28125-14 14c0 7.722657 6.28125 14 14 14zm0 0" fill="#ff5d5d"/><path d="m474 158c-9.925781 0-18 8.074219-18 18s8.074219 18 18 18 18-8.074219 18-18-8.074219-18-18-18zm0 0" fill="#ff5d5d"/><path d="m512 176c0-20.953125-17.046875-38-38-38-9.507812 0-18.199219 3.515625-24.871094 9.308594l-163.3125-109.375c-.246094-.164063-.503906-.3125-.761718-.453125.617187-2.394531.945312-4.898438.945312-7.480469 0-16.542969-13.457031-30-30-30s-30 13.457031-30 30c0 2.582031.328125 5.085938.945312 7.480469-.257812.140625-.515624.289062-.761718.453125l-66.523438 44.550781c-4.585937 3.074219-5.816406 9.285156-2.742187 13.875 1.929687 2.878906 5.09375 4.4375 8.316406 4.4375 1.914063 0 3.847656-.550781 5.554687-1.695313l66.523438-44.546874c.25-.171876.492188-.355469.722656-.542969 5.011719 3.757812 11.234375 5.988281 17.964844 5.988281s12.953125-2.230469 17.964844-5.988281c.230468.1875.472656.371093.722656.542969l163.292969 109.359374c-1.277344 3.800782-1.980469 7.859376-1.980469 12.085938 0 17.492188 11.882812 32.253906 28 36.65625v112.34375c0 5.523438 4.476562 10 10 10s10-4.476562 10-10v-112.34375c16.117188-4.402344 28-19.164062 28-36.65625zm-256-136c-5.515625 0-10-4.484375-10-10s4.484375-10 10-10 10 4.484375 10 10-4.484375 10-10 10zm218 154c-9.925781 0-18-8.074219-18-18s8.074219-18 18-18 18 8.074219 18 18-8.074219 18-18 18zm0 0"/><path d="m132.171875 122.828125c2.628906 0 5.207031-1.058594 7.066406-2.917969 1.859375-1.871094 2.933594-4.449218 2.933594-7.082031 0-2.628906-1.070313-5.207031-2.933594-7.066406-1.859375-1.863281-4.4375-2.933594-7.066406-2.933594-2.640625 0-5.210937 1.070313-7.070313 2.933594-1.859374 1.859375-2.929687 4.4375-2.929687 7.066406 0 2.640625 1.066406 5.210937 2.929687 7.082031 1.859376 1.859375 4.429688 2.917969 7.070313 2.917969zm0 0"/><path d="m326 215h-140v140h140zm-24 106c0 5.523438-4.476562 10-10 10h-72c-5.523438 0-10-4.476562-10-10v-72c0-5.523438 4.476562-10 10-10h72c5.523438 0 10 4.476562 10 10zm0 0" fill="#ffb954"/><path d="m230 259h52v52h-52zm0 0" fill="#fff"/><path d="m292 239h-72c-5.523438 0-10 4.476562-10 10v72c0 5.523438 4.476562 10 10 10h72c5.523438 0 10-4.476562 10-10v-72c0-5.523438-4.476562-10-10-10zm-10 72h-52v-52h52zm0 0"/><path d="m346 402v-27h27c5.523438 0 10-4.476562 10-10s-4.476562-10-10-10h-27v-33.332031h27c5.523438 0 10-4.476563 10-10 0-5.523438-4.476562-10-10-10h-27v-33.332031h27c5.523438 0 10-4.480469 10-10 0-5.523438-4.476562-10-10-10h-27v-33.335938h27c5.523438 0 10-4.476562 10-10s-4.476562-10-10-10h-27v-27c0-5.523438-4.476562-10-10-10s-10 4.476562-10 10v27h-33.332031v-27c0-5.523438-4.480469-10-10-10-5.523438 0-10 4.476562-10 10v27h-33.335938v-27c0-5.523438-4.476562-10-10-10-5.519531 0-10 4.476562-10 10v27h-33.332031v-27c0-5.523438-4.476562-10-10-10s-10 4.476562-10 10v27h-27c-5.523438 0-10 4.476562-10 10s4.476562 10 10 10h27v33.332031h-27c-5.523438 0-10 4.476563-10 10 0 5.523438 4.476562 10 10 10h27v33.332031h-27c-5.523438 0-10 4.480469-10 10 0 5.523438 4.476562 10 10 10h27v33.335938h-27c-5.523438 0-10 4.476562-10 10s4.476562 10 10 10h27v27c0 5.523438 4.476562 10 10 10s10-4.476562 10-10v-27h33.332031v27c0 5.523438 4.480469 10 10 10 5.523438 0 10-4.476562 10-10v-27h33.335938v27c0 5.523438 4.476562 10 10 10 5.519531 0 10-4.476562 10-10v-27h33.332031v27c0 5.523438 4.476562 10 10 10s10-4.476562 10-10zm-160-47v-140h140v140zm0 0"/></svg>