<?xml version="1.0" standalone="no"?>
<!DOCTYPE svg PUBLIC "-//W3C//DTD SVG 20010904//EN"
 "http://www.w3.org/TR/2001/REC-SVG-20010904/DTD/svg10.dtd">
<svg version="1.0" xmlns="http://www.w3.org/2000/svg"
 width="225.000000pt" height="225.000000pt" viewBox="0 0 225.000000 225.000000"
 preserveAspectRatio="xMidYMid meet">

<g transform="translate(0.000000,225.000000) scale(0.100000,-0.100000)"
fill="#000000" stroke="none">
<path d="M1549 786 c-111 -42 -181 -106 -227 -204 -23 -49 -27 -70 -27 -152 0
-82 4 -103 27 -153 38 -80 114 -158 191 -193 55 -26 73 -29 157 -29 88 0 101
3 162 33 284 140 285 539 0 679 -49 24 -71 28 -152 30 -61 2 -108 -2 -131 -11z
m261 -125 c74 -43 136 -86 138 -94 2 -9 -16 -26 -44 -42 -51 -30 -51 -30 15
-67 44 -24 39 -43 -19 -74 l-51 -28 51 -29 c34 -19 50 -35 48 -46 -3 -12 -204
-140 -264 -167 -15 -7 -294 154 -294 170 0 6 23 24 50 39 28 16 50 29 50 31 0
2 -22 17 -50 34 -27 17 -50 36 -50 41 0 6 17 20 38 30 67 36 66 35 12 69 -27
17 -50 35 -50 40 0 7 264 168 280 171 3 0 66 -35 140 -78z"/>
<path d="M1585 624 c-44 -26 -84 -50 -89 -54 -4 -5 6 -16 23 -25 31 -15 33
-15 92 20 l61 36 64 -36 65 -36 30 19 30 19 -90 51 c-50 29 -94 52 -99 52 -4
0 -43 -21 -87 -46z"/>
<path d="M1637 514 c-32 -17 -29 -26 11 -43 25 -11 34 -9 62 7 l32 20 -30 16
c-37 19 -40 19 -75 0z"/>
<path d="M1512 442 l-22 -17 29 -18 c28 -16 33 -17 61 -2 16 8 30 18 30 20 0
6 -56 35 -67 35 -4 0 -18 -8 -31 -18z"/>
<path d="M1758 441 l-27 -17 33 -18 c32 -17 34 -17 66 2 l32 20 -30 16 c-37
19 -40 19 -74 -3z"/>
<path d="M1638 371 l-27 -17 28 -17 c36 -21 40 -21 70 2 l24 19 -31 16 c-36
19 -30 19 -64 -3z"/>
<path d="M1517 301 l-28 -18 78 -46 c43 -25 86 -49 95 -52 11 -5 50 12 108 45
l91 53 -31 18 c-17 11 -33 19 -36 19 -3 0 -31 -15 -63 -34 l-58 -33 -57 33
c-31 19 -60 34 -64 34 -4 0 -20 -8 -35 -19z"/>
</g>
</svg>
